<svg width="360" height="800" viewBox="0 0 360 800" fill="none" xmlns="http://www.w3.org/2000/svg">
<g clip-path="url(#clip0_541_394)">
<rect width="360" height="800" fill="#757FB2"/>
<path d="M171.641 222C169.748 222.005 167.892 222.078 166.091 222.22C151.688 223.355 140.866 228.837 132.56 235.769C124.254 242.701 118.463 251.084 115.271 262.681C112.079 274.278 111.485 289.088 115.981 302.751C120.477 316.414 130.061 328.929 134.854 335.186C135.279 335.74 135.49 336.003 135.843 336.463C133.309 338.718 128.922 339.007 125.549 338.778C119.223 338.347 113.361 337.926 110.313 334.95C107.264 331.974 107.358 329.144 106.977 324.758C106.792 322.624 110.999 329.206 113.107 327.697C115.778 325.784 116.587 323.041 115.93 319.883C115.22 316.471 111.942 313.556 109.345 313.207C104.632 312.573 100.062 315.147 96.785 319.689C93.508 324.231 91.6282 332.432 93.3809 337.757C95.1337 343.082 97.4116 346.408 101.984 349.618C106.557 352.829 109.483 353.759 112.913 354.307C116.342 354.855 120.137 355.145 121.204 355.537C122.271 355.928 121.814 354.911 118.766 356.321C115.718 357.73 111.283 358.548 106.329 358.469C101.376 358.391 97.4091 356.814 94.2084 353.995C91.0076 351.176 86.7666 345.606 84.5565 346.859C82.3465 348.112 80.6621 356.791 83.4818 363.212C86.3015 369.634 94.227 376.211 102.762 378.325C111.298 380.439 120.443 378.091 128.75 375.428C137.056 372.766 144.524 369.791 152.755 367.363C160.986 364.936 168.472 363.659 177.464 363.894C186.457 364.129 196.955 365.875 206.71 368.616C216.465 371.357 226.981 374.488 235.363 374.88C243.746 375.271 249.995 372.923 254.415 368.616C258.835 364.309 261.426 358.044 261.198 352.327C260.969 346.611 257.922 341.443 255.331 340.738C252.739 340.033 251.659 343.49 249.449 346.701C247.239 349.912 245.386 353.967 240.948 354.831C237.06 355.587 236.009 355.738 232.541 354.813C225.439 352.919 225.147 352.964 223.732 352.483C220.082 351.244 220.199 353.556 222.793 353.188C224.929 352.885 230.343 353.012 233.098 351.565C236.339 349.863 239.452 347.538 241.06 346.271C244.038 343.926 248.499 337.776 250.629 331.208C252.132 326.572 252.459 323.526 252.318 320.165C252.282 319.317 251.241 315.108 250.997 313.081C250.773 311.225 249.859 308.793 248.844 306.342C246.685 301.128 238.871 300.974 236.11 302.656C234.255 303.786 232.319 307.152 232.376 308.403C232.387 308.637 232.137 310.904 232.81 312.696C233.414 314.301 235.071 315.168 236.772 315.112C238.269 315.062 238.984 310.439 238.837 312.38C238.743 313.622 240.402 316.422 239.989 317.971C238.556 323.351 235.504 327.082 232.369 329.821C228.424 333.268 225.802 334.463 218.771 336.173C211.515 337.938 206.018 337.142 205.373 336.239C204.728 335.335 208.996 332.75 214.221 326.278C219.446 319.806 225.629 309.445 228.906 299.109C232.183 288.772 232.554 278.46 229.996 266.531C227.438 254.601 221.951 241.053 210.215 232.674C199.946 225.343 184.893 221.969 171.641 222ZM154.844 279.823C154.997 279.829 155.173 279.875 155.365 279.977C155.615 280.11 155.857 280.261 156.096 280.413C156.488 280.683 156.884 280.942 157.279 281.206C157.615 281.41 157.913 281.677 158.248 281.882C158.519 282.073 158.808 282.237 159.085 282.418C159.334 282.578 159.59 282.722 159.839 282.882C160.086 283.012 160.283 283.215 160.514 283.369C160.622 283.427 160.561 283.392 160.698 283.476C160.778 283.525 160.846 283.578 160.905 283.631C161.041 283.718 161.185 283.786 161.33 283.854C162.376 284.344 161.886 285.438 160.845 284.938C160.63 284.835 160.408 284.746 160.215 284.603C159.943 284.424 159.643 284.294 159.363 284.129C159.062 283.954 158.759 283.783 158.455 283.614C158.156 283.451 157.847 283.306 157.548 283.141C157.455 283.087 157.361 283.034 157.266 282.982C157.072 283.047 156.832 283.046 156.524 282.848C156.261 282.679 156.018 282.478 155.79 282.262C155.75 282.23 155.716 282.191 155.68 282.155C155.518 282.075 155.354 281.996 155.188 281.923C154.889 281.782 154.596 281.629 154.302 281.477C153.534 281.081 153.692 280.445 154.243 280.351C154.22 280.055 154.46 279.81 154.844 279.823ZM187.058 280.627C187.225 280.734 187.84 280.544 187.934 280.646C188.644 280.711 188.513 281.729 187.584 282.007C187.449 282.047 187.314 282.084 187.177 282.115C186.955 282.186 186.744 282.29 186.527 282.374C186.258 282.504 186.003 282.661 185.729 282.78C185.402 282.946 185.08 283.12 184.758 283.295C184.711 283.319 184.665 283.344 184.618 283.368C184.599 283.38 184.579 283.393 184.56 283.405C184.311 283.542 184.083 283.712 183.846 283.868C183.62 283.992 183.388 284.108 183.158 284.225C182.965 284.361 182.746 284.438 182.528 284.518C182.515 284.526 182.502 284.533 182.49 284.54C182.381 284.604 182.278 284.646 182.182 284.671C182.15 284.689 182.118 284.707 182.086 284.726C181.804 284.911 181.528 285.111 181.223 285.256C180.18 285.75 179.66 284.681 180.705 284.188C181.226 283.88 181.682 283.53 182.205 283.223C182.822 282.904 183.139 282.653 183.753 282.328C184.444 281.975 184.95 281.64 185.642 281.29L187.058 280.627Z" fill="#FFFB4C"/>
<path d="M156.336 294.223C157.473 294.223 158.394 292.225 158.394 289.76C158.394 287.295 157.473 285.296 156.336 285.296C155.2 285.296 154.279 287.295 154.279 289.76C154.279 292.225 155.2 294.223 156.336 294.223Z" fill="black" stroke="black" stroke-width="9.71601" stroke-linecap="round" stroke-linejoin="round"/>
<path d="M188.115 289.995C188.115 291.174 187.9 292.306 187.517 293.142C187.133 293.979 186.613 294.452 186.069 294.458C185.526 294.465 185.003 294.005 184.615 293.178C184.227 292.351 184.006 291.225 184 290.046C183.994 288.866 184.203 287.73 184.582 286.884C184.961 286.038 185.479 285.552 186.023 285.532C186.566 285.512 187.091 285.96 187.483 286.777C187.875 287.594 188.102 288.715 188.115 289.894L186.058 289.995H188.115Z" fill="black" stroke="black" stroke-width="9.71601" stroke-linecap="round" stroke-linejoin="round"/>
<path d="M165.581 297.719C165.803 299.608 166.024 301.497 167.611 302.395C169.197 303.294 172.149 303.202 173.736 302.262C175.323 301.323 175.546 299.535 175.77 297.748" stroke="black" stroke-width="3.74216" stroke-linecap="round" stroke-linejoin="round"/>
<path d="M162.183 284.731C160.581 283.744 158.98 282.757 157.334 281.907C155.688 281.057 153.998 280.344 152.309 279.632" stroke="black" stroke-width="2.5315" stroke-linecap="round" stroke-linejoin="round"/>
<path d="M197.832 300.097C200.672 300.097 202.976 298.466 202.976 296.455C202.976 294.444 200.672 292.814 197.832 292.814C194.991 292.814 192.688 294.444 192.688 296.455C192.688 298.466 194.991 300.097 197.832 300.097Z" fill="#F1B3E5"/>
<path d="M145.477 300.331C148.318 300.331 150.621 298.701 150.621 296.69C150.621 294.679 148.318 293.049 145.477 293.049C142.636 293.049 140.333 294.679 140.333 296.69C140.333 298.701 142.636 300.331 145.477 300.331Z" fill="#F1B3E5"/>
<path d="M129.757 245.57C129.11 246.526 128.464 247.482 127.818 248.438" stroke="white" stroke-width="3.31556" stroke-linecap="round" stroke-linejoin="round"/>
<path d="M184.833 289.517C186.007 289.517 186.959 288.45 186.959 287.134C186.959 285.818 186.007 284.75 184.833 284.75C183.659 284.75 182.707 285.818 182.707 287.134C182.707 288.45 183.659 289.517 184.833 289.517Z" fill="white" stroke="white" stroke-width="0.350386" stroke-linecap="round" stroke-linejoin="round"/>
<path d="M187.346 295.97C187.987 295.97 188.506 295.436 188.506 294.778C188.506 294.12 187.987 293.586 187.346 293.586C186.706 293.586 186.187 294.12 186.187 294.778C186.187 295.436 186.706 295.97 187.346 295.97Z" fill="white" stroke="white" stroke-width="0.350386" stroke-linecap="round" stroke-linejoin="round"/>
<path d="M82.6542 355.534C83.1554 355.721 83.7932 358.062 85.2967 360.496C86.8001 362.931 89.1692 365.459 91.8116 367.753C94.4541 370.047 97.3698 372.106 102.381 373.324C107.393 374.541 114.5 374.915 120.787 374.26C127.074 373.604 132.541 371.919 137.872 370.515C143.202 369.11 148.396 367.987 149.261 368.08C150.127 368.174 146.665 369.485 140.377 371.545C134.09 373.605 124.979 376.413 118.646 377.818C112.313 379.222 108.76 379.222 104.659 378.333C100.559 377.443 95.9119 375.664 92.5405 373.464C89.1691 371.264 87.0734 368.642 85.4333 366.208C83.7932 363.773 82.6087 361.526 82.1986 359.42C81.7886 357.313 82.1531 355.347 82.6542 355.534Z" fill="#FFC531" stroke="white" stroke-width="0.350386" stroke-linecap="round" stroke-linejoin="round"/>
<path d="M223.022 248.657C222.475 248.142 223.569 250.764 224.753 255.305C225.938 259.846 227.213 266.306 227.623 272.579C228.033 278.852 227.578 284.938 226.12 291.539C224.662 298.14 222.202 305.255 219.423 311.529C216.644 317.802 213.546 323.232 211.268 326.884C208.99 330.535 207.532 332.408 206.803 333.531C206.074 334.655 206.074 335.029 206.894 334.561C207.714 334.093 209.354 332.782 211.906 329.927C214.457 327.071 217.919 322.67 220.79 318.129C223.66 313.588 225.938 308.907 227.76 303.991C229.582 299.076 230.949 293.926 231.541 288.262C232.134 282.597 231.951 276.418 231.223 271.034C230.494 265.65 229.218 261.063 227.487 256.943C225.755 252.823 223.569 249.172 223.022 248.657Z" fill="#FFC83F"/>
<path d="M257.692 344.205C257.1 344.018 257.282 346.171 256.963 349.401C256.644 352.632 255.824 356.938 254.594 360.309C253.364 363.68 251.724 366.114 248.854 368.221C245.983 370.327 241.883 372.106 235.733 372.059C229.582 372.013 221.382 370.14 213.819 368.408C206.256 366.676 199.331 365.084 194.411 364.335C189.49 363.586 186.574 363.68 186.893 363.914C187.212 364.148 190.766 364.522 194.274 365.318C197.782 366.114 201.244 367.331 205.208 368.595C209.172 369.859 213.636 371.17 219.058 372.387C224.48 373.604 230.858 374.728 236.097 374.728C241.336 374.728 245.437 373.604 248.671 372.013C251.906 370.421 254.275 368.361 256.143 365.74C258.011 363.118 259.378 359.935 260.107 357.126C260.836 354.317 260.927 351.883 260.289 349.401C259.651 346.92 258.284 344.392 257.692 344.205Z" fill="#FFC83F"/>
<path d="M184.833 289.517C186.007 289.517 186.959 288.45 186.959 287.134C186.959 285.818 186.007 284.75 184.833 284.75C183.659 284.75 182.707 285.818 182.707 287.134C182.707 288.45 183.659 289.517 184.833 289.517Z" fill="white" stroke="white" stroke-width="0.350386" stroke-linecap="round" stroke-linejoin="round"/>
<path d="M155.446 289.011C156.62 289.011 157.572 287.944 157.572 286.628C157.572 285.311 156.62 284.244 155.446 284.244C154.272 284.244 153.32 285.311 153.32 286.628C153.32 287.944 154.272 289.011 155.446 289.011Z" fill="white" stroke="white" stroke-width="0.350386" stroke-linecap="round" stroke-linejoin="round"/>
<path d="M157.466 295.801C158.107 295.801 158.626 295.267 158.626 294.609C158.626 293.951 158.107 293.417 157.466 293.417C156.826 293.417 156.307 293.951 156.307 294.609C156.307 295.267 156.826 295.801 157.466 295.801Z" fill="white" stroke="white" stroke-width="0.350386" stroke-linecap="round" stroke-linejoin="round"/>
<path d="M180.357 284.883C182.396 283.811 184.436 282.739 186.082 282.016C187.727 281.293 188.979 280.917 190.231 280.542" stroke="black" stroke-width="2.5315" stroke-linecap="round" stroke-linejoin="round"/>
<path d="M246.167 278.963C249.789 279.472 256.491 280.408 261.324 282.767C266.157 285.125 269.12 288.905 271.297 291.278C273.473 293.652 274.863 294.619 276.253 295.586C273.242 296.278 270.231 296.971 268.167 298.096C266.102 299.222 264.984 300.781 263.246 301.508C261.508 302.236 259.15 302.133 257.867 302.86C256.583 303.588 256.375 305.146 255.76 306.525C255.144 307.904 254.123 309.104 253.102 310.304C252.657 307.746 252.212 305.187 247.894 300.162C243.575 295.137 235.383 287.646 232.141 280.674C228.898 273.703 230.606 267.25 232.984 266.94C235.362 266.63 238.411 272.463 240.207 275.419C242.003 278.376 242.544 278.455 246.167 278.963Z" fill="#E4E4E4"/>
<path d="M119.47 264.878C126.273 263.657 138.32 261.69 154.449 261.378C170.579 261.067 190.789 262.412 203.973 263.219C217.157 264.026 223.314 264.294 227.204 264.561C231.094 264.828 232.718 265.094 233.143 264.076C233.568 263.057 232.795 260.755 232.215 258.275C231.636 255.795 231.249 253.139 230.553 251.544C229.858 249.95 228.853 249.419 228.505 248.578C228.157 247.736 228.466 246.585 228.389 245.257C228.312 243.928 227.848 242.423 225.297 241.05C222.747 239.678 218.109 238.438 209.452 236.534C200.795 234.63 188.119 232.061 174.747 232.062C161.375 232.062 147.308 234.63 137.916 236.578C128.525 238.526 123.81 239.855 121.375 241.139C118.941 242.423 118.786 243.663 118.168 244.903C117.549 246.142 116.467 247.382 115.115 248.711C113.762 250.039 112.139 251.456 111.636 253.449C111.134 255.441 111.752 258.009 111.591 260.372C111.43 262.734 110.49 264.89 110.799 265.732C111.108 266.573 112.667 266.099 119.47 264.878Z" fill="#ECECEC"/>
<path d="M112.022 260.231C118.228 257.026 124.433 253.821 132.491 251.507C140.548 249.194 150.456 247.772 159.078 247.997C167.7 248.222 175.035 250.094 182.37 251.965" fill="#DBDBDB"/>
<path d="M166.83 241.763C173.311 240.528 179.793 239.293 187.271 239.455C194.749 239.616 203.223 241.175 210.356 242.905C217.489 244.636 223.28 246.539 229.071 248.441" fill="#DFDFDF"/>
<path d="M232.619 259.237C226.153 256.874 219.686 254.512 214.103 253.965C208.52 253.418 203.822 254.686 199.123 255.955" fill="#CCCCCC"/>
<path d="M152.106 239.574C147.719 239.826 143.332 240.077 139.332 240.424C137.212 240.608 133.779 240.99 131.671 241.319C128.199 241.861 125.113 242.553 123.322 243.237C120.892 244.164 118.425 245.999 116.368 247.529" fill="#CCCCCC"/>
<path d="M269.938 297.944C268.623 296.695 267.309 295.446 265.994 294.508C264.68 293.571 263.365 292.947 261.957 292.485C260.548 292.023 259.046 291.724 257.09 290.896C255.134 290.068 252.724 288.71 250.377 287.08C248.029 285.45 245.745 283.549 243.46 281.647" fill="#CBCBCB"/>
<path d="M258.097 302.762C256.801 302.808 255.505 302.854 254.344 302.026C253.183 301.197 252.157 299.494 251.428 297.882C250.699 296.271 250.267 294.752 249.159 293.417C248.052 292.082 246.27 290.931 244.488 289.781" fill="#BABABA"/>
<path d="M243.66 262.373C247.621 261.219 250.732 257.867 254.922 257.401C259.113 256.936 264.382 259.358 269.652 261.779C269.26 263.535 268.869 265.291 267.945 266.521C267.02 267.751 265.563 268.455 265.435 269.315C265.307 270.176 266.509 271.194 266.993 272.548C267.476 273.902 267.241 275.591 267.006 277.28C264.04 274.862 261.074 272.445 256.919 272.038C252.763 271.632 247.419 273.236 242.746 271.804C238.073 270.372 234.073 265.905 234.479 264.193C234.885 262.482 239.698 263.527 243.66 262.373Z" fill="#ECECEC"/>
<path d="M265.584 270.068C263.198 269.078 260.812 268.087 258.58 267.78C256.348 267.473 254.27 267.851 252.461 268.181C250.652 268.511 249.113 268.795 247.343 268.842C245.573 268.889 243.571 268.7 241.57 268.511" fill="#BFBFBF"/>
<path d="M245.151 264.315C244.424 264.553 243.696 264.792 242.829 264.991C241.961 265.189 240.954 265.348 239.947 265.368C238.939 265.388 237.932 265.269 237.064 265.07C236.197 264.871 235.469 264.593 234.742 264.315" fill="#D2D2D2"/>
<path d="M268.003 266.112C267.075 265.412 266.147 264.712 265.083 264.07C264.018 263.428 262.818 262.844 261.562 262.494C260.307 262.144 258.997 262.027 257.605 262.056C256.214 262.085 254.74 262.26 253.267 262.435" fill="#D5D5D5"/>
<path d="M93.4379 323.866C95.186 324.269 97.5646 326.021 100.096 326.583C102.627 327.146 105.31 326.518 107.09 326.725C108.869 326.932 109.745 327.972 109.909 328.886C110.073 329.799 109.526 330.587 110.005 331.163C110.484 331.739 111.989 332.105 111.742 332.689C111.495 333.273 109.496 334.075 106.747 334.343C103.997 334.61 100.495 334.341 97.4039 333.687C94.3124 333.033 91.6309 331.993 90.6595 331.121C89.6882 330.249 90.4269 329.546 90.5112 328.613C90.5954 327.679 90.025 326.515 90.2987 325.461C90.5723 324.407 91.6899 323.462 93.4379 323.866Z" fill="#DFDFDF"/>
<path d="M90.4268 328.928C91.275 329.574 92.1232 330.221 93.0673 330.657C94.0113 331.093 95.051 331.318 96.255 331.472C97.459 331.627 98.8271 331.711 100.195 331.796" fill="#CDCDCD"/>
<path d="M110.046 331.036C109.718 331.374 109.389 331.711 108.733 331.978C108.076 332.245 107.091 332.442 105.914 332.456C104.738 332.47 103.37 332.302 102.001 332.133" fill="#D3D3D3"/>
<path d="M90.0986 325.469C90.4543 325.807 90.8101 326.144 91.4394 326.566C92.0688 326.988 92.9717 327.494 93.9841 327.789C94.9966 328.084 96.1184 328.169 97.2129 328.141C98.3074 328.112 99.3745 327.972 100.223 328.028C101.071 328.084 101.7 328.337 102.33 328.59" fill="#D3D3D3"/>
<path d="M109.553 328.759C108.924 329.153 108.295 329.546 107.173 329.518C106.051 329.49 104.437 329.04 102.822 328.59" fill="#C8C8C8"/>
<path d="M251.823 312.476C250.253 312.612 247.699 313.733 245.204 314.302C242.708 314.871 240.27 314.889 238.79 315.302C237.311 315.716 236.79 316.525 236.767 317.284C236.743 318.043 237.216 318.752 236.802 319.27C236.388 319.789 235.087 320.118 235.3 320.643C235.514 321.169 237.242 321.891 239.619 322.131C241.997 322.371 245.024 322.13 247.696 321.541C250.369 320.953 252.687 320.017 253.527 319.232C254.367 318.448 253.728 317.816 253.656 316.976C253.583 316.136 254.076 315.088 254.029 314.14C253.981 313.191 253.394 312.341 251.823 312.476Z" fill="#DFDFDF"/>
<path d="M253.699 316.571C253.029 317.119 252.359 317.667 251.488 318.173C250.617 318.679 249.545 319.143 248.574 319.417C247.602 319.691 246.731 319.776 245.86 319.86" fill="#C9C9C9"/>
<path d="M236.608 319.627C237.046 320.078 237.484 320.529 238.225 320.798C238.966 321.066 240.009 321.152 241.237 321.088C242.465 321.023 243.879 320.808 245.292 320.593" fill="#C6C6C6"/>
<path d="M236.756 318.045C238.01 318.242 239.263 318.438 240.934 318.405C242.605 318.373 244.694 318.111 246.398 317.718C248.101 317.325 249.419 316.801 250.736 316.277" fill="#C1C1C1"/>
<path d="M239.112 278.253C238.55 277.722 237.988 277.191 237.391 276.514C236.793 275.838 236.16 275.018 235.644 274.128C235.129 273.239 234.731 272.28 234.469 271.408C234.208 270.535 234.083 269.747 233.958 268.96" fill="#D2D2D2"/>
<path d="M240.179 288.628C239.617 288.097 239.055 287.566 238.458 286.889C237.86 286.213 237.227 285.393 236.712 284.503C236.196 283.614 235.798 282.655 235.537 281.783C235.275 280.91 235.15 280.122 235.025 279.335" fill="#D2D2D2"/>
<path d="M129.451 427.143H124.982V411.143C124.982 410.831 124.92 410.539 124.795 410.268C124.68 409.997 124.519 409.763 124.311 409.565C124.113 409.357 123.878 409.195 123.607 409.081C123.337 408.966 123.045 408.909 122.732 408.909C122.42 408.909 122.128 408.966 121.857 409.081C121.587 409.195 121.347 409.357 121.139 409.565C120.941 409.763 120.785 409.997 120.67 410.268C120.555 410.539 120.498 410.831 120.498 411.143V427.143H116.014V411.143C116.014 410.831 115.956 410.539 115.842 410.268C115.727 409.997 115.566 409.763 115.357 409.565C115.16 409.357 114.925 409.195 114.654 409.081C114.383 408.966 114.092 408.909 113.779 408.909C113.467 408.909 113.175 408.966 112.904 409.081C112.633 409.195 112.394 409.357 112.186 409.565C111.988 409.763 111.831 409.997 111.717 410.268C111.602 410.539 111.545 410.831 111.545 411.143V427.143H107.061V411.143C107.061 410.216 107.232 409.346 107.576 408.534C107.93 407.711 108.41 406.997 109.014 406.393C109.628 405.779 110.342 405.3 111.154 404.956C111.977 404.602 112.852 404.425 113.779 404.425C114.613 404.425 115.415 404.576 116.186 404.878C116.956 405.169 117.649 405.596 118.264 406.159C118.878 405.596 119.566 405.169 120.326 404.878C121.097 404.576 121.899 404.425 122.732 404.425C123.66 404.425 124.529 404.602 125.342 404.956C126.165 405.3 126.878 405.779 127.482 406.393C128.097 406.997 128.576 407.711 128.92 408.534C129.274 409.346 129.451 410.216 129.451 411.143V427.143ZM149.029 427.143H147.998L146.342 424.846C145.936 425.211 145.503 425.555 145.045 425.878C144.597 426.19 144.123 426.466 143.623 426.706C143.123 426.935 142.607 427.117 142.076 427.253C141.555 427.388 141.024 427.456 140.482 427.456C139.305 427.456 138.196 427.258 137.154 426.862C136.123 426.466 135.217 425.893 134.436 425.143C133.665 424.383 133.055 423.456 132.607 422.362C132.16 421.268 131.936 420.024 131.936 418.628C131.936 417.326 132.16 416.133 132.607 415.05C133.055 413.956 133.665 413.018 134.436 412.237C135.217 411.456 136.123 410.852 137.154 410.425C138.196 409.987 139.305 409.768 140.482 409.768C141.024 409.768 141.561 409.836 142.092 409.971C142.623 410.107 143.139 410.294 143.639 410.534C144.139 410.774 144.613 411.055 145.061 411.378C145.519 411.701 145.946 412.05 146.342 412.425L147.998 410.44H149.029V427.143ZM144.732 418.628C144.732 418.044 144.618 417.482 144.389 416.94C144.17 416.388 143.868 415.904 143.482 415.487C143.097 415.06 142.644 414.721 142.123 414.471C141.613 414.211 141.066 414.081 140.482 414.081C139.899 414.081 139.347 414.18 138.826 414.378C138.316 414.576 137.868 414.867 137.482 415.253C137.107 415.638 136.811 416.117 136.592 416.69C136.373 417.253 136.264 417.899 136.264 418.628C136.264 419.357 136.373 420.008 136.592 420.581C136.811 421.143 137.107 421.617 137.482 422.003C137.868 422.388 138.316 422.68 138.826 422.878C139.347 423.076 139.899 423.175 140.482 423.175C141.066 423.175 141.613 423.05 142.123 422.8C142.644 422.539 143.097 422.201 143.482 421.784C143.868 421.357 144.17 420.872 144.389 420.331C144.618 419.779 144.732 419.211 144.732 418.628ZM160.686 427.143C159.654 427.143 158.686 426.951 157.779 426.565C156.873 426.169 156.076 425.633 155.389 424.956C154.712 424.268 154.175 423.471 153.779 422.565C153.394 421.659 153.201 420.69 153.201 419.659V414.69H151.123V410.44H153.201V403.753H157.451V410.44H163.92V414.69H157.451V419.659C157.451 420.107 157.535 420.529 157.701 420.925C157.868 421.31 158.097 421.649 158.389 421.94C158.68 422.232 159.024 422.466 159.42 422.643C159.816 422.81 160.238 422.893 160.686 422.893H163.92V427.143H160.686ZM170.592 427.143H166.326V403.753H170.592V411.143C171.102 410.758 171.628 410.487 172.17 410.331C172.712 410.164 173.264 410.081 173.826 410.081C174.857 410.081 175.826 410.279 176.732 410.675C177.639 411.06 178.425 411.596 179.092 412.284C179.769 412.961 180.3 413.758 180.686 414.675C181.081 415.581 181.279 416.55 181.279 417.581V427.143H176.982V417.581H177.014C177.014 417.143 176.93 416.732 176.764 416.346C176.597 415.951 176.368 415.607 176.076 415.315C175.785 415.024 175.446 414.794 175.061 414.628C174.675 414.461 174.264 414.378 173.826 414.378C173.378 414.378 172.956 414.461 172.561 414.628C172.165 414.794 171.821 415.024 171.529 415.315C171.238 415.607 171.008 415.951 170.842 416.346C170.675 416.732 170.592 417.143 170.592 417.581V427.143ZM189.576 425.55C189.576 425.925 189.508 426.279 189.373 426.612C189.238 426.935 189.05 427.216 188.811 427.456C188.571 427.695 188.29 427.883 187.967 428.018C187.644 428.164 187.295 428.237 186.92 428.237C186.555 428.237 186.206 428.164 185.873 428.018C185.55 427.883 185.264 427.695 185.014 427.456C184.774 427.216 184.581 426.935 184.436 426.612C184.3 426.279 184.232 425.925 184.232 425.55C184.232 425.185 184.3 424.841 184.436 424.518C184.581 424.195 184.774 423.914 185.014 423.675C185.264 423.435 185.55 423.247 185.873 423.112C186.206 422.966 186.555 422.893 186.92 422.893C187.295 422.893 187.644 422.966 187.967 423.112C188.29 423.247 188.571 423.435 188.811 423.675C189.05 423.914 189.238 424.195 189.373 424.518C189.508 424.841 189.576 425.185 189.576 425.55ZM197.701 409.221V418.19H202.186C202.8 418.19 203.378 418.076 203.92 417.846C204.462 417.607 204.936 417.284 205.342 416.878C205.748 416.471 206.066 415.997 206.295 415.456C206.535 414.904 206.654 414.32 206.654 413.706C206.654 413.091 206.535 412.513 206.295 411.971C206.066 411.419 205.748 410.94 205.342 410.534C204.936 410.128 204.462 409.81 203.92 409.581C203.378 409.341 202.8 409.221 202.186 409.221H197.701ZM197.701 427.143H193.217V404.737H202.186C203.008 404.737 203.8 404.846 204.561 405.065C205.321 405.274 206.029 405.576 206.686 405.971C207.352 406.357 207.956 406.826 208.498 407.378C209.05 407.919 209.519 408.524 209.904 409.19C210.3 409.857 210.602 410.57 210.811 411.331C211.029 412.091 211.139 412.883 211.139 413.706C211.139 414.935 210.904 416.096 210.436 417.19C209.967 418.274 209.326 419.221 208.514 420.034C207.701 420.846 206.748 421.487 205.654 421.956C204.571 422.425 203.415 422.659 202.186 422.659H197.701V427.143ZM229.498 418.628C229.498 419.878 229.274 421.044 228.826 422.128C228.378 423.201 227.769 424.133 226.998 424.925C226.227 425.706 225.321 426.326 224.279 426.784C223.248 427.232 222.139 427.456 220.951 427.456C219.774 427.456 218.665 427.232 217.623 426.784C216.592 426.326 215.686 425.706 214.904 424.925C214.133 424.133 213.524 423.201 213.076 422.128C212.628 421.044 212.404 419.878 212.404 418.628C212.404 417.357 212.628 416.18 213.076 415.096C213.524 414.013 214.133 413.081 214.904 412.3C215.686 411.508 216.592 410.888 217.623 410.44C218.665 409.992 219.774 409.768 220.951 409.768C222.139 409.768 223.248 409.982 224.279 410.409C225.321 410.826 226.227 411.425 226.998 412.206C227.769 412.977 228.378 413.909 228.826 415.003C229.274 416.086 229.498 417.294 229.498 418.628ZM225.201 418.628C225.201 417.94 225.087 417.32 224.857 416.768C224.639 416.206 224.337 415.727 223.951 415.331C223.566 414.925 223.113 414.617 222.592 414.409C222.081 414.19 221.535 414.081 220.951 414.081C220.368 414.081 219.816 414.19 219.295 414.409C218.785 414.617 218.337 414.925 217.951 415.331C217.576 415.727 217.279 416.206 217.061 416.768C216.842 417.32 216.732 417.94 216.732 418.628C216.732 419.274 216.842 419.872 217.061 420.425C217.279 420.977 217.576 421.456 217.951 421.862C218.337 422.268 218.785 422.591 219.295 422.831C219.816 423.06 220.368 423.175 220.951 423.175C221.535 423.175 222.081 423.065 222.592 422.846C223.113 422.628 223.566 422.32 223.951 421.925C224.337 421.529 224.639 421.05 224.857 420.487C225.087 419.925 225.201 419.305 225.201 418.628ZM252.982 421.096C252.982 421.971 252.816 422.8 252.482 423.581C252.149 424.352 251.691 425.024 251.107 425.596C250.535 426.169 249.857 426.622 249.076 426.956C248.305 427.289 247.477 427.456 246.592 427.456C245.8 427.456 245.04 427.32 244.311 427.05C243.581 426.768 242.92 426.362 242.326 425.831C241.743 426.362 241.087 426.768 240.357 427.05C239.639 427.32 238.878 427.456 238.076 427.456C237.191 427.456 236.363 427.289 235.592 426.956C234.821 426.622 234.144 426.169 233.561 425.596C232.988 425.024 232.535 424.352 232.201 423.581C231.868 422.8 231.701 421.971 231.701 421.096V410.44H235.967V421.096C235.967 421.388 236.019 421.664 236.123 421.925C236.238 422.175 236.389 422.399 236.576 422.596C236.774 422.784 236.998 422.935 237.248 423.05C237.508 423.154 237.785 423.206 238.076 423.206C238.368 423.206 238.644 423.154 238.904 423.05C239.165 422.935 239.394 422.784 239.592 422.596C239.79 422.399 239.941 422.175 240.045 421.925C240.16 421.664 240.217 421.388 240.217 421.096V410.44H244.467V421.096C244.467 421.388 244.524 421.664 244.639 421.925C244.753 422.175 244.904 422.399 245.092 422.596C245.29 422.784 245.514 422.935 245.764 423.05C246.024 423.154 246.3 423.206 246.592 423.206C246.883 423.206 247.16 423.154 247.42 423.05C247.68 422.935 247.904 422.784 248.092 422.596C248.29 422.399 248.446 422.175 248.561 421.925C248.675 421.664 248.732 421.388 248.732 421.096V410.44H252.982V421.096Z" fill="#EFF1FA"/>
<path d="M40.0781 508H28.5586V491.195H40.0781V494.559H31.9219V497.922H37.4414V501.285H31.9219V504.637H40.0781V508ZM48.9844 508H41.6719V504.812H48.9844C49.2031 504.812 49.3906 504.734 49.5469 504.578C49.7031 504.422 49.7812 504.234 49.7812 504.016C49.7812 503.789 49.7031 503.641 49.5469 503.57C49.3906 503.5 49.2031 503.465 48.9844 503.465H45.6562C45.1016 503.465 44.582 503.359 44.0977 503.148C43.6133 502.938 43.1914 502.652 42.832 502.293C42.4727 501.926 42.1875 501.5 41.9766 501.016C41.7734 500.531 41.6719 500.012 41.6719 499.457C41.6719 498.902 41.7734 498.383 41.9766 497.898C42.1875 497.414 42.4727 496.992 42.832 496.633C43.1914 496.273 43.6133 495.992 44.0977 495.789C44.582 495.578 45.1016 495.473 45.6562 495.473H52.1367V498.66H45.6562C45.4375 498.66 45.25 498.738 45.0938 498.895C44.9375 499.051 44.8594 499.238 44.8594 499.457C44.8594 499.684 44.9375 499.879 45.0938 500.043C45.25 500.199 45.4375 500.277 45.6562 500.277H48.9844C49.5312 500.277 50.0469 500.371 50.5312 500.559C51.0156 500.738 51.4375 500.992 51.7969 501.32C52.1562 501.648 52.4414 502.043 52.6523 502.504C52.8633 502.965 52.9688 503.469 52.9688 504.016C52.9688 504.57 52.8633 505.09 52.6523 505.574C52.4414 506.051 52.1562 506.473 51.7969 506.84C51.4375 507.199 51.0156 507.484 50.5312 507.695C50.0469 507.898 49.5312 508 48.9844 508ZM60.9727 508C60.1992 508 59.4727 507.855 58.793 507.566C58.1133 507.27 57.5156 506.867 57 506.359C56.4922 505.844 56.0898 505.246 55.793 504.566C55.5039 503.887 55.3594 503.16 55.3594 502.387V498.66H53.8008V495.473H55.3594V490.457H58.5469V495.473H63.3984V498.66H58.5469V502.387C58.5469 502.723 58.6094 503.039 58.7344 503.336C58.8594 503.625 59.0312 503.879 59.25 504.098C59.4688 504.316 59.7266 504.492 60.0234 504.625C60.3203 504.75 60.6367 504.812 60.9727 504.812H63.3984V508H60.9727ZM70.1953 504.93C70.3203 504.969 70.4453 504.996 70.5703 505.012C70.6953 505.02 70.8203 505.023 70.9453 505.023C71.2578 505.023 71.5586 504.98 71.8477 504.895C72.1367 504.809 72.4062 504.688 72.6562 504.531C72.9141 504.367 73.1406 504.172 73.3359 503.945C73.5391 503.711 73.7031 503.453 73.8281 503.172L76.1719 505.527C75.875 505.949 75.5312 506.328 75.1406 506.664C74.7578 507 74.3398 507.285 73.8867 507.52C73.4414 507.754 72.9688 507.93 72.4688 508.047C71.9766 508.172 71.4688 508.234 70.9453 508.234C70.0625 508.234 69.2305 508.07 68.4492 507.742C67.6758 507.414 66.9961 506.957 66.4102 506.371C65.832 505.785 65.375 505.09 65.0391 504.285C64.7031 503.473 64.5352 502.582 64.5352 501.613C64.5352 500.621 64.7031 499.715 65.0391 498.895C65.375 498.074 65.832 497.375 66.4102 496.797C66.9961 496.219 67.6758 495.77 68.4492 495.449C69.2305 495.129 70.0625 494.969 70.9453 494.969C71.4688 494.969 71.9805 495.031 72.4805 495.156C72.9805 495.281 73.4531 495.461 73.8984 495.695C74.3516 495.93 74.7734 496.219 75.1641 496.562C75.5547 496.898 75.8984 497.277 76.1953 497.699L70.1953 504.93ZM71.8359 498.332C71.6875 498.277 71.5391 498.242 71.3906 498.227C71.25 498.211 71.1016 498.203 70.9453 498.203C70.5078 498.203 70.0938 498.285 69.7031 498.449C69.3203 498.605 68.9844 498.832 68.6953 499.129C68.4141 499.426 68.1914 499.785 68.0273 500.207C67.8633 500.621 67.7812 501.09 67.7812 501.613C67.7812 501.73 67.7852 501.863 67.793 502.012C67.8086 502.16 67.8281 502.312 67.8516 502.469C67.8828 502.617 67.918 502.762 67.957 502.902C67.9961 503.043 68.0469 503.168 68.1094 503.277L71.8359 498.332ZM89.5312 504.93C89.6562 504.969 89.7812 504.996 89.9062 505.012C90.0312 505.02 90.1562 505.023 90.2812 505.023C90.5938 505.023 90.8945 504.98 91.1836 504.895C91.4727 504.809 91.7422 504.688 91.9922 504.531C92.25 504.367 92.4766 504.172 92.6719 503.945C92.875 503.711 93.0391 503.453 93.1641 503.172L95.5078 505.527C95.2109 505.949 94.8672 506.328 94.4766 506.664C94.0938 507 93.6758 507.285 93.2227 507.52C92.7773 507.754 92.3047 507.93 91.8047 508.047C91.3125 508.172 90.8047 508.234 90.2812 508.234C89.3984 508.234 88.5664 508.07 87.7852 507.742C87.0117 507.414 86.332 506.957 85.7461 506.371C85.168 505.785 84.7109 505.09 84.375 504.285C84.0391 503.473 83.8711 502.582 83.8711 501.613C83.8711 500.621 84.0391 499.715 84.375 498.895C84.7109 498.074 85.168 497.375 85.7461 496.797C86.332 496.219 87.0117 495.77 87.7852 495.449C88.5664 495.129 89.3984 494.969 90.2812 494.969C90.8047 494.969 91.3164 495.031 91.8164 495.156C92.3164 495.281 92.7891 495.461 93.2344 495.695C93.6875 495.93 94.1094 496.219 94.5 496.562C94.8906 496.898 95.2344 497.277 95.5312 497.699L89.5312 504.93ZM91.1719 498.332C91.0234 498.277 90.875 498.242 90.7266 498.227C90.5859 498.211 90.4375 498.203 90.2812 498.203C89.8438 498.203 89.4297 498.285 89.0391 498.449C88.6562 498.605 88.3203 498.832 88.0312 499.129C87.75 499.426 87.5273 499.785 87.3633 500.207C87.1992 500.621 87.1172 501.09 87.1172 501.613C87.1172 501.73 87.1211 501.863 87.1289 502.012C87.1445 502.16 87.1641 502.312 87.1875 502.469C87.2188 502.617 87.2539 502.762 87.293 502.902C87.332 503.043 87.3828 503.168 87.4453 503.277L91.1719 498.332ZM90.1875 494.008L88.8633 492.262L92.3438 489.016L94.2656 491.465L90.1875 494.008ZM116.004 501.613C116.004 502.551 115.836 503.426 115.5 504.238C115.164 505.043 114.707 505.742 114.129 506.336C113.551 506.922 112.871 507.387 112.09 507.73C111.316 508.066 110.484 508.234 109.594 508.234C108.711 508.234 107.879 508.066 107.098 507.73C106.324 507.387 105.645 506.922 105.059 506.336C104.48 505.742 104.023 505.043 103.688 504.238C103.352 503.426 103.184 502.551 103.184 501.613C103.184 500.66 103.352 499.777 103.688 498.965C104.023 498.152 104.48 497.453 105.059 496.867C105.645 496.273 106.324 495.809 107.098 495.473C107.879 495.137 108.711 494.969 109.594 494.969C110.484 494.969 111.316 495.129 112.09 495.449C112.871 495.762 113.551 496.211 114.129 496.797C114.707 497.375 115.164 498.074 115.5 498.895C115.836 499.707 116.004 500.613 116.004 501.613ZM112.781 501.613C112.781 501.098 112.695 500.633 112.523 500.219C112.359 499.797 112.133 499.438 111.844 499.141C111.555 498.836 111.215 498.605 110.824 498.449C110.441 498.285 110.031 498.203 109.594 498.203C109.156 498.203 108.742 498.285 108.352 498.449C107.969 498.605 107.633 498.836 107.344 499.141C107.062 499.438 106.84 499.797 106.676 500.219C106.512 500.633 106.43 501.098 106.43 501.613C106.43 502.098 106.512 502.547 106.676 502.961C106.84 503.375 107.062 503.734 107.344 504.039C107.633 504.344 107.969 504.586 108.352 504.766C108.742 504.938 109.156 505.023 109.594 505.023C110.031 505.023 110.441 504.941 110.824 504.777C111.215 504.613 111.555 504.383 111.844 504.086C112.133 503.789 112.359 503.43 112.523 503.008C112.695 502.586 112.781 502.121 112.781 501.613ZM141.516 508H138.164V496C138.164 495.766 138.117 495.547 138.023 495.344C137.938 495.141 137.816 494.965 137.66 494.816C137.512 494.66 137.336 494.539 137.133 494.453C136.93 494.367 136.711 494.324 136.477 494.324C136.242 494.324 136.023 494.367 135.82 494.453C135.617 494.539 135.438 494.66 135.281 494.816C135.133 494.965 135.016 495.141 134.93 495.344C134.844 495.547 134.801 495.766 134.801 496V508H131.438V496C131.438 495.766 131.395 495.547 131.309 495.344C131.223 495.141 131.102 494.965 130.945 494.816C130.797 494.66 130.621 494.539 130.418 494.453C130.215 494.367 129.996 494.324 129.762 494.324C129.527 494.324 129.309 494.367 129.105 494.453C128.902 494.539 128.723 494.66 128.566 494.816C128.418 494.965 128.301 495.141 128.215 495.344C128.129 495.547 128.086 495.766 128.086 496V508H124.723V496C124.723 495.305 124.852 494.652 125.109 494.043C125.375 493.426 125.734 492.891 126.188 492.438C126.648 491.977 127.184 491.617 127.793 491.359C128.41 491.094 129.066 490.961 129.762 490.961C130.387 490.961 130.988 491.074 131.566 491.301C132.145 491.52 132.664 491.84 133.125 492.262C133.586 491.84 134.102 491.52 134.672 491.301C135.25 491.074 135.852 490.961 136.477 490.961C137.172 490.961 137.824 491.094 138.434 491.359C139.051 491.617 139.586 491.977 140.039 492.438C140.5 492.891 140.859 493.426 141.117 494.043C141.383 494.652 141.516 495.305 141.516 496V508ZM156.199 508H155.426L154.184 506.277C153.879 506.551 153.555 506.809 153.211 507.051C152.875 507.285 152.52 507.492 152.145 507.672C151.77 507.844 151.383 507.98 150.984 508.082C150.594 508.184 150.195 508.234 149.789 508.234C148.906 508.234 148.074 508.086 147.293 507.789C146.52 507.492 145.84 507.062 145.254 506.5C144.676 505.93 144.219 505.234 143.883 504.414C143.547 503.594 143.379 502.66 143.379 501.613C143.379 500.637 143.547 499.742 143.883 498.93C144.219 498.109 144.676 497.406 145.254 496.82C145.84 496.234 146.52 495.781 147.293 495.461C148.074 495.133 148.906 494.969 149.789 494.969C150.195 494.969 150.598 495.02 150.996 495.121C151.395 495.223 151.781 495.363 152.156 495.543C152.531 495.723 152.887 495.934 153.223 496.176C153.566 496.418 153.887 496.68 154.184 496.961L155.426 495.473H156.199V508ZM152.977 501.613C152.977 501.176 152.891 500.754 152.719 500.348C152.555 499.934 152.328 499.57 152.039 499.258C151.75 498.938 151.41 498.684 151.02 498.496C150.637 498.301 150.227 498.203 149.789 498.203C149.352 498.203 148.938 498.277 148.547 498.426C148.164 498.574 147.828 498.793 147.539 499.082C147.258 499.371 147.035 499.73 146.871 500.16C146.707 500.582 146.625 501.066 146.625 501.613C146.625 502.16 146.707 502.648 146.871 503.078C147.035 503.5 147.258 503.855 147.539 504.145C147.828 504.434 148.164 504.652 148.547 504.801C148.938 504.949 149.352 505.023 149.789 505.023C150.227 505.023 150.637 504.93 151.02 504.742C151.41 504.547 151.75 504.293 152.039 503.98C152.328 503.66 152.555 503.297 152.719 502.891C152.891 502.477 152.977 502.051 152.977 501.613ZM164.941 508C164.168 508 163.441 507.855 162.762 507.566C162.082 507.27 161.484 506.867 160.969 506.359C160.461 505.844 160.059 505.246 159.762 504.566C159.473 503.887 159.328 503.16 159.328 502.387V498.66H157.77V495.473H159.328V490.457H162.516V495.473H167.367V498.66H162.516V502.387C162.516 502.723 162.578 503.039 162.703 503.336C162.828 503.625 163 503.879 163.219 504.098C163.438 504.316 163.695 504.492 163.992 504.625C164.289 504.75 164.605 504.812 164.941 504.812H167.367V508H164.941ZM172.559 503.852H169.945L169.23 491.195H173.285L172.559 503.852ZM173.262 506.805C173.262 507.086 173.207 507.352 173.098 507.602C172.996 507.844 172.855 508.055 172.676 508.234C172.496 508.414 172.285 508.555 172.043 508.656C171.801 508.766 171.543 508.82 171.27 508.82C170.988 508.82 170.727 508.766 170.484 508.656C170.242 508.555 170.027 508.414 169.84 508.234C169.66 508.055 169.516 507.844 169.406 507.602C169.305 507.352 169.254 507.086 169.254 506.805C169.254 506.531 169.305 506.273 169.406 506.031C169.516 505.789 169.66 505.578 169.84 505.398C170.027 505.219 170.242 505.078 170.484 504.977C170.727 504.867 170.988 504.812 171.27 504.812C171.543 504.812 171.801 504.867 172.043 504.977C172.285 505.078 172.496 505.219 172.676 505.398C172.855 505.578 172.996 505.789 173.098 506.031C173.207 506.273 173.262 506.531 173.262 506.805Z" fill="white"/>
<path d="M28.7614 534.455H30.8636L35.8068 546.528H35.9773L40.9205 534.455H43.0227V549H41.375V537.949H41.233L36.6875 549H35.0966L30.5511 537.949H30.4091V549H28.7614V534.455ZM49.5373 549.256C48.846 549.256 48.2186 549.125 47.6552 548.865C47.0917 548.6 46.6443 548.219 46.3129 547.722C45.9814 547.22 45.8157 546.614 45.8157 545.903C45.8157 545.278 45.9388 544.772 46.185 544.384C46.4312 543.991 46.7603 543.683 47.1722 543.46C47.5842 543.238 48.0387 543.072 48.5359 542.963C49.0378 542.849 49.542 542.759 50.0487 542.693C50.7115 542.608 51.2489 542.544 51.6609 542.501C52.0775 542.454 52.3806 542.376 52.57 542.267C52.7641 542.158 52.8612 541.969 52.8612 541.699V541.642C52.8612 540.941 52.6694 540.397 52.2859 540.009C51.9071 539.62 51.3318 539.426 50.56 539.426C49.7598 539.426 49.1325 539.601 48.6779 539.952C48.2234 540.302 47.9038 540.676 47.7191 541.074L46.1282 540.506C46.4123 539.843 46.7911 539.327 47.2646 538.957C47.7428 538.583 48.2636 538.323 48.8271 538.176C49.3952 538.025 49.954 537.949 50.5032 537.949C50.8536 537.949 51.256 537.991 51.7106 538.077C52.1699 538.157 52.6126 538.325 53.0387 538.581C53.4696 538.837 53.8271 539.223 54.1112 539.739C54.3952 540.255 54.5373 540.946 54.5373 541.812V549H52.8612V547.523H52.7759C52.6623 547.759 52.4729 548.013 52.2077 548.283C51.9426 548.553 51.5898 548.782 51.1495 548.972C50.7092 549.161 50.1718 549.256 49.5373 549.256ZM49.793 547.75C50.4558 547.75 51.0146 547.62 51.4691 547.359C51.9284 547.099 52.274 546.763 52.506 546.351C52.7428 545.939 52.8612 545.506 52.8612 545.051V543.517C52.7901 543.602 52.6339 543.68 52.3924 543.751C52.1557 543.818 51.881 543.877 51.5685 543.929C51.2608 543.976 50.9601 544.019 50.6665 544.057C50.3777 544.09 50.1433 544.118 49.9634 544.142C49.5278 544.199 49.1206 544.291 48.7418 544.419C48.3678 544.542 48.0647 544.729 47.8327 544.98C47.6055 545.226 47.4918 545.562 47.4918 545.989C47.4918 546.571 47.7073 547.011 48.1381 547.31C48.5737 547.603 49.1254 547.75 49.793 547.75ZM62.3409 538.091V539.511H56.6875V538.091H62.3409ZM58.3352 535.477H60.0114V545.875C60.0114 546.348 60.08 546.704 60.2173 546.94C60.3594 547.172 60.5393 547.329 60.7571 547.409C60.9796 547.485 61.214 547.523 61.4602 547.523C61.6449 547.523 61.7964 547.513 61.9148 547.494C62.0331 547.471 62.1278 547.452 62.1989 547.438L62.5398 548.943C62.4261 548.986 62.2675 549.028 62.0639 549.071C61.8603 549.118 61.6023 549.142 61.2898 549.142C60.8163 549.142 60.3523 549.04 59.8977 548.837C59.4479 548.633 59.0739 548.323 58.7756 547.906C58.482 547.49 58.3352 546.964 58.3352 546.33V535.477ZM78.2145 540.534L76.7088 540.96C76.6141 540.709 76.4744 540.465 76.2898 540.229C76.1098 539.987 75.8636 539.788 75.5511 539.632C75.2386 539.476 74.8385 539.398 74.3509 539.398C73.6832 539.398 73.1269 539.552 72.6818 539.859C72.2415 540.162 72.0213 540.548 72.0213 541.017C72.0213 541.434 72.1728 541.763 72.4759 542.004C72.7789 542.246 73.2524 542.447 73.8963 542.608L75.5156 543.006C76.491 543.242 77.2178 543.605 77.696 544.092C78.1742 544.575 78.4134 545.198 78.4134 545.96C78.4134 546.585 78.2334 547.144 77.8736 547.636C77.5185 548.129 77.0213 548.517 76.3821 548.801C75.7429 549.085 74.9995 549.227 74.152 549.227C73.0393 549.227 72.1184 548.986 71.3892 548.503C70.66 548.02 70.1984 547.314 70.0043 546.386L71.5952 545.989C71.7467 546.576 72.0331 547.016 72.4545 547.31C72.8807 547.603 73.437 547.75 74.1236 547.75C74.9048 547.75 75.5251 547.584 75.9844 547.253C76.4484 546.917 76.6804 546.514 76.6804 546.045C76.6804 545.667 76.5478 545.349 76.2827 545.094C76.0175 544.833 75.6103 544.639 75.0611 544.511L73.2429 544.085C72.2438 543.848 71.5099 543.482 71.0412 542.984C70.5772 542.482 70.3452 541.855 70.3452 541.102C70.3452 540.487 70.518 539.942 70.8636 539.469C71.214 538.995 71.6899 538.624 72.2912 538.354C72.8973 538.084 73.5838 537.949 74.3509 537.949C75.4304 537.949 76.2779 538.186 76.8935 538.659C77.5137 539.133 77.9541 539.758 78.2145 540.534ZM85.5103 549.227C84.4592 549.227 83.5524 548.995 82.7901 548.531C82.0326 548.062 81.4478 547.409 81.0359 546.571C80.6287 545.728 80.4251 544.748 80.4251 543.631C80.4251 542.513 80.6287 541.528 81.0359 540.676C81.4478 539.819 82.0207 539.152 82.7546 538.673C83.4933 538.19 84.355 537.949 85.3398 537.949C85.908 537.949 86.4691 538.044 87.0231 538.233C87.5771 538.422 88.0813 538.73 88.5359 539.156C88.9904 539.578 89.3526 540.136 89.6225 540.832C89.8924 541.528 90.0273 542.385 90.0273 543.403V544.114H81.6183V542.665H88.3228C88.3228 542.049 88.1997 541.5 87.9535 541.017C87.712 540.534 87.3664 540.153 86.9165 539.874C86.4715 539.594 85.9459 539.455 85.3398 539.455C84.6722 539.455 84.0946 539.62 83.6069 539.952C83.1239 540.278 82.7522 540.705 82.4918 541.23C82.2314 541.756 82.1012 542.319 82.1012 542.92V543.886C82.1012 544.71 82.2433 545.409 82.5273 545.982C82.8162 546.55 83.2163 546.983 83.7276 547.281C84.239 547.575 84.8332 547.722 85.5103 547.722C85.9506 547.722 86.3484 547.66 86.7035 547.537C87.0633 547.409 87.3735 547.22 87.6339 546.969C87.8943 546.713 88.0955 546.396 88.2376 546.017L89.8569 546.472C89.6864 547.021 89.4 547.504 88.9975 547.92C88.5951 548.332 88.0979 548.654 87.506 548.886C86.9142 549.114 86.2489 549.227 85.5103 549.227ZM92.5771 549V538.091H94.1964V539.739H94.31C94.5089 539.199 94.8687 538.761 95.3896 538.425C95.9104 538.089 96.4975 537.92 97.1509 537.92C97.274 537.92 97.4279 537.923 97.6126 537.928C97.7972 537.932 97.9369 537.939 98.0316 537.949V539.653C97.9748 539.639 97.8446 539.618 97.641 539.589C97.4421 539.556 97.2314 539.54 97.0089 539.54C96.4786 539.54 96.0051 539.651 95.5884 539.874C95.1765 540.091 94.8498 540.394 94.6083 540.783C94.3716 541.166 94.2532 541.604 94.2532 542.097V549H92.5771ZM103.229 549.256C102.537 549.256 101.91 549.125 101.347 548.865C100.783 548.6 100.336 548.219 100.004 547.722C99.6728 547.22 99.5071 546.614 99.5071 545.903C99.5071 545.278 99.6302 544.772 99.8764 544.384C100.123 543.991 100.452 543.683 100.864 543.46C101.276 543.238 101.73 543.072 102.227 542.963C102.729 542.849 103.233 542.759 103.74 542.693C104.403 542.608 104.94 542.544 105.352 542.501C105.769 542.454 106.072 542.376 106.261 542.267C106.455 542.158 106.553 541.969 106.553 541.699V541.642C106.553 540.941 106.361 540.397 105.977 540.009C105.598 539.62 105.023 539.426 104.251 539.426C103.451 539.426 102.824 539.601 102.369 539.952C101.915 540.302 101.595 540.676 101.411 541.074L99.8196 540.506C100.104 539.843 100.482 539.327 100.956 538.957C101.434 538.583 101.955 538.323 102.518 538.176C103.087 538.025 103.645 537.949 104.195 537.949C104.545 537.949 104.947 537.991 105.402 538.077C105.861 538.157 106.304 538.325 106.73 538.581C107.161 538.837 107.518 539.223 107.803 539.739C108.087 540.255 108.229 540.946 108.229 541.812V549H106.553V547.523H106.467C106.354 547.759 106.164 548.013 105.899 548.283C105.634 548.553 105.281 548.782 104.841 548.972C104.401 549.161 103.863 549.256 103.229 549.256ZM103.484 547.75C104.147 547.75 104.706 547.62 105.161 547.359C105.62 547.099 105.965 546.763 106.197 546.351C106.434 545.939 106.553 545.506 106.553 545.051V543.517C106.482 543.602 106.325 543.68 106.084 543.751C105.847 543.818 105.572 543.877 105.26 543.929C104.952 543.976 104.652 544.019 104.358 544.057C104.069 544.09 103.835 544.118 103.655 544.142C103.219 544.199 102.812 544.291 102.433 544.419C102.059 544.542 101.756 544.729 101.524 544.98C101.297 545.226 101.183 545.562 101.183 545.989C101.183 546.571 101.399 547.011 101.83 547.31C102.265 547.603 102.817 547.75 103.484 547.75ZM103.541 536.614L105.274 533.318H107.234L105.018 536.614H103.541ZM124.64 540.534L123.135 540.96C123.04 540.709 122.9 540.465 122.716 540.229C122.536 539.987 122.289 539.788 121.977 539.632C121.664 539.476 121.264 539.398 120.777 539.398C120.109 539.398 119.553 539.552 119.108 539.859C118.667 540.162 118.447 540.548 118.447 541.017C118.447 541.434 118.599 541.763 118.902 542.004C119.205 542.246 119.678 542.447 120.322 542.608L121.941 543.006C122.917 543.242 123.644 543.605 124.122 544.092C124.6 544.575 124.839 545.198 124.839 545.96C124.839 546.585 124.659 547.144 124.299 547.636C123.944 548.129 123.447 548.517 122.808 548.801C122.169 549.085 121.425 549.227 120.578 549.227C119.465 549.227 118.544 548.986 117.815 548.503C117.086 548.02 116.624 547.314 116.43 546.386L118.021 545.989C118.172 546.576 118.459 547.016 118.88 547.31C119.306 547.603 119.863 547.75 120.549 547.75C121.331 547.75 121.951 547.584 122.41 547.253C122.874 546.917 123.106 546.514 123.106 546.045C123.106 545.667 122.974 545.349 122.708 545.094C122.443 544.833 122.036 544.639 121.487 544.511L119.669 544.085C118.67 543.848 117.936 543.482 117.467 542.984C117.003 542.482 116.771 541.855 116.771 541.102C116.771 540.487 116.944 539.942 117.289 539.469C117.64 538.995 118.116 538.624 118.717 538.354C119.323 538.084 120.01 537.949 120.777 537.949C121.856 537.949 122.704 538.186 123.319 538.659C123.94 539.133 124.38 539.758 124.64 540.534ZM131.936 549.227C130.885 549.227 129.978 548.995 129.216 548.531C128.458 548.062 127.874 547.409 127.462 546.571C127.054 545.728 126.851 544.748 126.851 543.631C126.851 542.513 127.054 541.528 127.462 540.676C127.874 539.819 128.446 539.152 129.18 538.673C129.919 538.19 130.781 537.949 131.766 537.949C132.334 537.949 132.895 538.044 133.449 538.233C134.003 538.422 134.507 538.73 134.962 539.156C135.416 539.578 135.778 540.136 136.048 540.832C136.318 541.528 136.453 542.385 136.453 543.403V544.114H128.044V542.665H134.749C134.749 542.049 134.625 541.5 134.379 541.017C134.138 540.534 133.792 540.153 133.342 539.874C132.897 539.594 132.372 539.455 131.766 539.455C131.098 539.455 130.52 539.62 130.033 539.952C129.55 540.278 129.178 540.705 128.918 541.23C128.657 541.756 128.527 542.319 128.527 542.92V543.886C128.527 544.71 128.669 545.409 128.953 545.982C129.242 546.55 129.642 546.983 130.153 547.281C130.665 547.575 131.259 547.722 131.936 547.722C132.376 547.722 132.774 547.66 133.129 547.537C133.489 547.409 133.799 547.22 134.06 546.969C134.32 546.713 134.521 546.396 134.663 546.017L136.283 546.472C136.112 547.021 135.826 547.504 135.423 547.92C135.021 548.332 134.524 548.654 133.932 548.886C133.34 549.114 132.675 549.227 131.936 549.227ZM145.878 544.54V538.091H147.554V549H145.878V547.153H145.764C145.509 547.707 145.111 548.179 144.571 548.567C144.031 548.95 143.349 549.142 142.526 549.142C141.844 549.142 141.238 548.993 140.707 548.695C140.177 548.392 139.76 547.937 139.457 547.331C139.154 546.72 139.003 545.951 139.003 545.023V538.091H140.679V544.909C140.679 545.705 140.902 546.339 141.347 546.812C141.796 547.286 142.369 547.523 143.065 547.523C143.482 547.523 143.906 547.416 144.337 547.203C144.772 546.99 145.137 546.663 145.43 546.223C145.729 545.783 145.878 545.222 145.878 544.54ZM160.652 553.318C159.843 553.318 159.147 553.214 158.564 553.006C157.982 552.802 157.497 552.532 157.108 552.196C156.725 551.865 156.419 551.509 156.192 551.131L157.527 550.193C157.679 550.392 157.871 550.619 158.103 550.875C158.335 551.135 158.652 551.36 159.054 551.55C159.462 551.744 159.994 551.841 160.652 551.841C161.533 551.841 162.26 551.628 162.833 551.202C163.406 550.776 163.692 550.108 163.692 549.199V546.983H163.55C163.427 547.182 163.252 547.428 163.025 547.722C162.802 548.01 162.48 548.268 162.059 548.496C161.642 548.718 161.078 548.83 160.368 548.83C159.488 548.83 158.697 548.621 157.996 548.205C157.3 547.788 156.748 547.182 156.341 546.386C155.939 545.591 155.738 544.625 155.738 543.489C155.738 542.371 155.934 541.398 156.327 540.57C156.72 539.736 157.267 539.092 157.968 538.638C158.668 538.179 159.478 537.949 160.397 537.949C161.107 537.949 161.67 538.067 162.087 538.304C162.508 538.536 162.83 538.801 163.053 539.099C163.28 539.393 163.455 539.634 163.578 539.824H163.749V538.091H165.368V549.312C165.368 550.25 165.155 551.012 164.729 551.599C164.308 552.191 163.739 552.625 163.025 552.899C162.314 553.179 161.524 553.318 160.652 553.318ZM160.596 547.324C161.268 547.324 161.836 547.17 162.3 546.862C162.764 546.554 163.117 546.112 163.358 545.534C163.6 544.956 163.721 544.265 163.721 543.46C163.721 542.674 163.602 541.981 163.365 541.379C163.129 540.778 162.778 540.307 162.314 539.966C161.85 539.625 161.277 539.455 160.596 539.455C159.885 539.455 159.293 539.634 158.82 539.994C158.351 540.354 157.998 540.837 157.762 541.443C157.53 542.049 157.414 542.722 157.414 543.46C157.414 544.218 157.532 544.888 157.769 545.47C158.01 546.048 158.365 546.502 158.834 546.834C159.308 547.161 159.895 547.324 160.596 547.324ZM175.311 544.54V538.091H176.988V549H175.311V547.153H175.198C174.942 547.707 174.544 548.179 174.005 548.567C173.465 548.95 172.783 549.142 171.959 549.142C171.277 549.142 170.671 548.993 170.141 548.695C169.611 548.392 169.194 547.937 168.891 547.331C168.588 546.72 168.436 545.951 168.436 545.023V538.091H170.113V544.909C170.113 545.705 170.335 546.339 170.78 546.812C171.23 547.286 171.803 547.523 172.499 547.523C172.916 547.523 173.339 547.416 173.77 547.203C174.206 546.99 174.57 546.663 174.864 546.223C175.162 545.783 175.311 545.222 175.311 544.54ZM180.058 549V538.091H181.734V549H180.058ZM180.91 536.273C180.583 536.273 180.301 536.161 180.065 535.939C179.833 535.716 179.717 535.449 179.717 535.136C179.717 534.824 179.833 534.556 180.065 534.334C180.301 534.111 180.583 534 180.91 534C181.237 534 181.516 534.111 181.748 534.334C181.985 534.556 182.103 534.824 182.103 535.136C182.103 535.449 181.985 535.716 181.748 535.939C181.516 536.161 181.237 536.273 180.91 536.273ZM188.014 549.256C187.323 549.256 186.695 549.125 186.132 548.865C185.568 548.6 185.121 548.219 184.789 547.722C184.458 547.22 184.292 546.614 184.292 545.903C184.292 545.278 184.415 544.772 184.662 544.384C184.908 543.991 185.237 543.683 185.649 543.46C186.061 543.238 186.515 543.072 187.012 542.963C187.514 542.849 188.019 542.759 188.525 542.693C189.188 542.608 189.725 542.544 190.137 542.501C190.554 542.454 190.857 542.376 191.047 542.267C191.241 542.158 191.338 541.969 191.338 541.699V541.642C191.338 540.941 191.146 540.397 190.762 540.009C190.384 539.62 189.808 539.426 189.037 539.426C188.236 539.426 187.609 539.601 187.154 539.952C186.7 540.302 186.38 540.676 186.196 541.074L184.605 540.506C184.889 539.843 185.268 539.327 185.741 538.957C186.219 538.583 186.74 538.323 187.304 538.176C187.872 538.025 188.431 537.949 188.98 537.949C189.33 537.949 189.733 537.991 190.187 538.077C190.646 538.157 191.089 538.325 191.515 538.581C191.946 538.837 192.304 539.223 192.588 539.739C192.872 540.255 193.014 540.946 193.014 541.812V549H191.338V547.523H191.252C191.139 547.759 190.949 548.013 190.684 548.283C190.419 548.553 190.066 548.782 189.626 548.972C189.186 549.161 188.648 549.256 188.014 549.256ZM188.27 547.75C188.932 547.75 189.491 547.62 189.946 547.359C190.405 547.099 190.751 546.763 190.983 546.351C191.219 545.939 191.338 545.506 191.338 545.051V543.517C191.267 543.602 191.11 543.68 190.869 543.751C190.632 543.818 190.358 543.877 190.045 543.929C189.737 543.976 189.437 544.019 189.143 544.057C188.854 544.09 188.62 544.118 188.44 544.142C188.004 544.199 187.597 544.291 187.218 544.419C186.844 544.542 186.541 544.729 186.309 544.98C186.082 545.226 185.968 545.562 185.968 545.989C185.968 546.571 186.184 547.011 186.615 547.31C187.05 547.603 187.602 547.75 188.27 547.75ZM203.374 542.438V549H201.698V538.091H203.317V539.795H203.46C203.715 539.241 204.103 538.796 204.624 538.46C205.145 538.119 205.817 537.949 206.641 537.949C207.38 537.949 208.026 538.1 208.58 538.403C209.134 538.702 209.565 539.156 209.873 539.767C210.181 540.373 210.335 541.14 210.335 542.068V549H208.658V542.182C208.658 541.325 208.436 540.657 207.991 540.179C207.546 539.696 206.935 539.455 206.158 539.455C205.623 539.455 205.145 539.571 204.724 539.803C204.307 540.035 203.978 540.373 203.737 540.818C203.495 541.263 203.374 541.803 203.374 542.438ZM216.608 549.256C215.916 549.256 215.289 549.125 214.725 548.865C214.162 548.6 213.715 548.219 213.383 547.722C213.052 547.22 212.886 546.614 212.886 545.903C212.886 545.278 213.009 544.772 213.255 544.384C213.502 543.991 213.831 543.683 214.243 543.46C214.654 543.238 215.109 543.072 215.606 542.963C216.108 542.849 216.612 542.759 217.119 542.693C217.782 542.608 218.319 542.544 218.731 542.501C219.148 542.454 219.451 542.376 219.64 542.267C219.834 542.158 219.931 541.969 219.931 541.699V541.642C219.931 540.941 219.74 540.397 219.356 540.009C218.977 539.62 218.402 539.426 217.63 539.426C216.83 539.426 216.203 539.601 215.748 539.952C215.294 540.302 214.974 540.676 214.789 541.074L213.199 540.506C213.483 539.843 213.861 539.327 214.335 538.957C214.813 538.583 215.334 538.323 215.897 538.176C216.466 538.025 217.024 537.949 217.574 537.949C217.924 537.949 218.326 537.991 218.781 538.077C219.24 538.157 219.683 538.325 220.109 538.581C220.54 538.837 220.897 539.223 221.181 539.739C221.466 540.255 221.608 540.946 221.608 541.812V549H219.931V547.523H219.846C219.733 547.759 219.543 548.013 219.278 548.283C219.013 548.553 218.66 548.782 218.22 548.972C217.779 549.161 217.242 549.256 216.608 549.256ZM216.863 547.75C217.526 547.75 218.085 547.62 218.539 547.359C218.999 547.099 219.344 546.763 219.576 546.351C219.813 545.939 219.931 545.506 219.931 545.051V543.517C219.86 543.602 219.704 543.68 219.463 543.751C219.226 543.818 218.951 543.877 218.639 543.929C218.331 543.976 218.03 544.019 217.737 544.057C217.448 544.09 217.214 544.118 217.034 544.142C216.598 544.199 216.191 544.291 215.812 544.419C215.438 544.542 215.135 544.729 214.903 544.98C214.676 545.226 214.562 545.562 214.562 545.989C214.562 546.571 214.778 547.011 215.208 547.31C215.644 547.603 216.196 547.75 216.863 547.75ZM230.292 538.091H231.968V549.795C231.968 550.468 231.852 551.05 231.62 551.543C231.393 552.035 231.047 552.416 230.583 552.686C230.124 552.956 229.544 553.091 228.843 553.091C228.786 553.091 228.729 553.091 228.673 553.091C228.616 553.091 228.559 553.091 228.502 553.091V551.528C228.559 551.528 228.611 551.528 228.658 551.528C228.706 551.528 228.758 551.528 228.815 551.528C229.326 551.528 229.7 551.377 229.937 551.074C230.174 550.776 230.292 550.349 230.292 549.795V538.091ZM231.116 536.273C230.789 536.273 230.507 536.161 230.271 535.939C230.039 535.716 229.923 535.449 229.923 535.136C229.923 534.824 230.039 534.556 230.271 534.334C230.507 534.111 230.789 534 231.116 534C231.442 534 231.722 534.111 231.954 534.334C232.191 534.556 232.309 534.824 232.309 535.136C232.309 535.449 232.191 535.716 231.954 535.939C231.722 536.161 231.442 536.273 231.116 536.273ZM239.47 549.227C238.485 549.227 237.621 548.993 236.877 548.524C236.139 548.055 235.561 547.4 235.145 546.557C234.733 545.714 234.527 544.729 234.527 543.602C234.527 542.466 234.733 541.474 235.145 540.626C235.561 539.779 236.139 539.121 236.877 538.652C237.621 538.183 238.485 537.949 239.47 537.949C240.455 537.949 241.316 538.183 242.055 538.652C242.798 539.121 243.376 539.779 243.788 540.626C244.205 541.474 244.413 542.466 244.413 543.602C244.413 544.729 244.205 545.714 243.788 546.557C243.376 547.4 242.798 548.055 242.055 548.524C241.316 548.993 240.455 549.227 239.47 549.227ZM239.47 547.722C240.218 547.722 240.833 547.53 241.316 547.146C241.799 546.763 242.157 546.259 242.389 545.634C242.621 545.009 242.737 544.331 242.737 543.602C242.737 542.873 242.621 542.194 242.389 541.564C242.157 540.934 241.799 540.425 241.316 540.037C240.833 539.649 240.218 539.455 239.47 539.455C238.722 539.455 238.106 539.649 237.623 540.037C237.14 540.425 236.783 540.934 236.551 541.564C236.319 542.194 236.203 542.873 236.203 543.602C236.203 544.331 236.319 545.009 236.551 545.634C236.783 546.259 237.14 546.763 237.623 547.146C238.106 547.53 238.722 547.722 239.47 547.722ZM246.972 549V538.091H248.591V539.739H248.705C248.903 539.199 249.263 538.761 249.784 538.425C250.305 538.089 250.892 537.92 251.545 537.92C251.669 537.92 251.822 537.923 252.007 537.928C252.192 537.932 252.331 537.939 252.426 537.949V539.653C252.369 539.639 252.239 539.618 252.036 539.589C251.837 539.556 251.626 539.54 251.403 539.54C250.873 539.54 250.4 539.651 249.983 539.874C249.571 540.091 249.244 540.394 249.003 540.783C248.766 541.166 248.648 541.604 248.648 542.097V549H246.972ZM256.089 542.438V549H254.413V538.091H256.032V539.795H256.174C256.43 539.241 256.818 538.796 257.339 538.46C257.86 538.119 258.532 537.949 259.356 537.949C260.095 537.949 260.741 538.1 261.295 538.403C261.849 538.702 262.28 539.156 262.588 539.767C262.895 540.373 263.049 541.14 263.049 542.068V549H261.373V542.182C261.373 541.325 261.151 540.657 260.706 540.179C260.261 539.696 259.65 539.455 258.873 539.455C258.338 539.455 257.86 539.571 257.439 539.803C257.022 540.035 256.693 540.373 256.451 540.818C256.21 541.263 256.089 541.803 256.089 542.438ZM269.322 549.256C268.631 549.256 268.004 549.125 267.44 548.865C266.877 548.6 266.429 548.219 266.098 547.722C265.767 547.22 265.601 546.614 265.601 545.903C265.601 545.278 265.724 544.772 265.97 544.384C266.216 543.991 266.545 543.683 266.957 543.46C267.369 543.238 267.824 543.072 268.321 542.963C268.823 542.849 269.327 542.759 269.834 542.693C270.497 542.608 271.034 542.544 271.446 542.501C271.863 542.454 272.166 542.376 272.355 542.267C272.549 542.158 272.646 541.969 272.646 541.699V541.642C272.646 540.941 272.455 540.397 272.071 540.009C271.692 539.62 271.117 539.426 270.345 539.426C269.545 539.426 268.918 539.601 268.463 539.952C268.009 540.302 267.689 540.676 267.504 541.074L265.913 540.506C266.197 539.843 266.576 539.327 267.05 538.957C267.528 538.583 268.049 538.323 268.612 538.176C269.18 538.025 269.739 537.949 270.288 537.949C270.639 537.949 271.041 537.991 271.496 538.077C271.955 538.157 272.398 538.325 272.824 538.581C273.255 538.837 273.612 539.223 273.896 539.739C274.18 540.255 274.322 540.946 274.322 541.812V549H272.646V547.523H272.561C272.447 547.759 272.258 548.013 271.993 548.283C271.728 548.553 271.375 548.782 270.935 548.972C270.494 549.161 269.957 549.256 269.322 549.256ZM269.578 547.75C270.241 547.75 270.8 547.62 271.254 547.359C271.714 547.099 272.059 546.763 272.291 546.351C272.528 545.939 272.646 545.506 272.646 545.051V543.517C272.575 543.602 272.419 543.68 272.178 543.751C271.941 543.818 271.666 543.877 271.354 543.929C271.046 543.976 270.745 544.019 270.452 544.057C270.163 544.09 269.929 544.118 269.749 544.142C269.313 544.199 268.906 544.291 268.527 544.419C268.153 544.542 267.85 544.729 267.618 544.98C267.391 545.226 267.277 545.562 267.277 545.989C267.277 546.571 267.492 547.011 267.923 547.31C268.359 547.603 268.911 547.75 269.578 547.75ZM281.501 549.227C280.592 549.227 279.789 548.998 279.093 548.538C278.397 548.074 277.853 547.421 277.46 546.578C277.067 545.731 276.87 544.729 276.87 543.574C276.87 542.428 277.067 541.434 277.46 540.591C277.853 539.748 278.4 539.097 279.1 538.638C279.801 538.179 280.611 537.949 281.529 537.949C282.24 537.949 282.801 538.067 283.213 538.304C283.629 538.536 283.947 538.801 284.164 539.099C284.387 539.393 284.56 539.634 284.683 539.824H284.825V534.455H286.501V549H284.882V547.324H284.683C284.56 547.523 284.385 547.774 284.157 548.077C283.93 548.375 283.606 548.643 283.184 548.879C282.763 549.111 282.202 549.227 281.501 549.227ZM281.728 547.722C282.401 547.722 282.969 547.546 283.433 547.196C283.897 546.841 284.25 546.351 284.491 545.726C284.733 545.096 284.853 544.369 284.853 543.545C284.853 542.731 284.735 542.018 284.498 541.408C284.261 540.792 283.911 540.314 283.447 539.973C282.983 539.627 282.41 539.455 281.728 539.455C281.018 539.455 280.426 539.637 279.953 540.001C279.484 540.361 279.131 540.851 278.895 541.472C278.663 542.087 278.547 542.778 278.547 543.545C278.547 544.322 278.665 545.027 278.902 545.662C279.143 546.292 279.498 546.794 279.967 547.168C280.44 547.537 281.028 547.722 281.728 547.722ZM293.014 549.256C292.323 549.256 291.695 549.125 291.132 548.865C290.568 548.6 290.121 548.219 289.789 547.722C289.458 547.22 289.292 546.614 289.292 545.903C289.292 545.278 289.415 544.772 289.662 544.384C289.908 543.991 290.237 543.683 290.649 543.46C291.061 543.238 291.515 543.072 292.012 542.963C292.514 542.849 293.019 542.759 293.525 542.693C294.188 542.608 294.725 542.544 295.137 542.501C295.554 542.454 295.857 542.376 296.047 542.267C296.241 542.158 296.338 541.969 296.338 541.699V541.642C296.338 540.941 296.146 540.397 295.762 540.009C295.384 539.62 294.808 539.426 294.037 539.426C293.236 539.426 292.609 539.601 292.154 539.952C291.7 540.302 291.38 540.676 291.196 541.074L289.605 540.506C289.889 539.843 290.268 539.327 290.741 538.957C291.219 538.583 291.74 538.323 292.304 538.176C292.872 538.025 293.431 537.949 293.98 537.949C294.33 537.949 294.733 537.991 295.187 538.077C295.646 538.157 296.089 538.325 296.515 538.581C296.946 538.837 297.304 539.223 297.588 539.739C297.872 540.255 298.014 540.946 298.014 541.812V549H296.338V547.523H296.252C296.139 547.759 295.949 548.013 295.684 548.283C295.419 548.553 295.066 548.782 294.626 548.972C294.186 549.161 293.648 549.256 293.014 549.256ZM293.27 547.75C293.932 547.75 294.491 547.62 294.946 547.359C295.405 547.099 295.751 546.763 295.983 546.351C296.219 545.939 296.338 545.506 296.338 545.051V543.517C296.267 543.602 296.11 543.68 295.869 543.751C295.632 543.818 295.358 543.877 295.045 543.929C294.737 543.976 294.437 544.019 294.143 544.057C293.854 544.09 293.62 544.118 293.44 544.142C293.004 544.199 292.597 544.291 292.218 544.419C291.844 544.542 291.541 544.729 291.309 544.98C291.082 545.226 290.968 545.562 290.968 545.989C290.968 546.571 291.184 547.011 291.615 547.31C292.05 547.603 292.602 547.75 293.27 547.75ZM28.5341 573V562.091H30.1534V563.795H30.2955C30.5227 563.213 30.8897 562.761 31.3963 562.439C31.9029 562.112 32.5114 561.949 33.2216 561.949C33.9413 561.949 34.5402 562.112 35.0185 562.439C35.5014 562.761 35.8778 563.213 36.1477 563.795H36.2614C36.5407 563.232 36.9598 562.785 37.5185 562.453C38.0772 562.117 38.7472 561.949 39.5284 561.949C40.5038 561.949 41.3016 562.254 41.9219 562.865C42.5421 563.471 42.8523 564.416 42.8523 565.699V573H41.1761V565.699C41.1761 564.894 40.956 564.319 40.5156 563.973C40.0753 563.627 39.5568 563.455 38.9602 563.455C38.1932 563.455 37.599 563.687 37.1776 564.151C36.7562 564.61 36.5455 565.192 36.5455 565.898V573H34.8409V565.528C34.8409 564.908 34.6397 564.409 34.2372 564.03C33.8348 563.646 33.3163 563.455 32.6818 563.455C32.2462 563.455 31.839 563.571 31.4602 563.803C31.0862 564.035 30.7831 564.357 30.5511 564.768C30.3239 565.176 30.2102 565.647 30.2102 566.182V573H28.5341ZM49.1271 573.256C48.4358 573.256 47.8085 573.125 47.245 572.865C46.6816 572.6 46.2341 572.219 45.9027 571.722C45.5713 571.22 45.4055 570.614 45.4055 569.903C45.4055 569.278 45.5286 568.772 45.7749 568.384C46.0211 567.991 46.3501 567.683 46.7621 567.46C47.174 567.238 47.6286 567.072 48.1257 566.963C48.6276 566.849 49.1319 566.759 49.6385 566.693C50.3014 566.608 50.8388 566.544 51.2507 566.501C51.6674 566.454 51.9704 566.376 52.1598 566.267C52.3539 566.158 52.451 565.969 52.451 565.699V565.642C52.451 564.941 52.2592 564.397 51.8757 564.009C51.4969 563.62 50.9216 563.426 50.1499 563.426C49.3497 563.426 48.7223 563.601 48.2678 563.952C47.8132 564.302 47.4936 564.676 47.3089 565.074L45.718 564.506C46.0021 563.843 46.3809 563.327 46.8544 562.957C47.3326 562.583 47.8535 562.323 48.4169 562.176C48.9851 562.025 49.5438 561.949 50.093 561.949C50.4434 561.949 50.8459 561.991 51.3004 562.077C51.7597 562.157 52.2024 562.325 52.6286 562.581C53.0594 562.837 53.4169 563.223 53.701 563.739C53.9851 564.255 54.1271 564.946 54.1271 565.812V573H52.451V571.523H52.3658C52.2521 571.759 52.0627 572.013 51.7976 572.283C51.5324 572.553 51.1797 572.782 50.7393 572.972C50.299 573.161 49.7616 573.256 49.1271 573.256ZM49.3828 571.75C50.0457 571.75 50.6044 571.62 51.0589 571.359C51.5182 571.099 51.8639 570.763 52.0959 570.351C52.3326 569.939 52.451 569.506 52.451 569.051V567.517C52.38 567.602 52.2237 567.68 51.9822 567.751C51.7455 567.818 51.4709 567.877 51.1584 567.929C50.8506 567.976 50.55 568.019 50.2564 568.057C49.9676 568.09 49.7332 568.118 49.5533 568.142C49.1177 568.199 48.7105 568.291 48.3317 568.419C47.9576 568.542 47.6546 568.729 47.4226 568.98C47.1953 569.226 47.0817 569.562 47.0817 569.989C47.0817 570.571 47.2971 571.011 47.728 571.31C48.1636 571.603 48.7152 571.75 49.3828 571.75ZM61.9308 562.091V563.511H56.2773V562.091H61.9308ZM57.9251 559.477H59.6012V569.875C59.6012 570.348 59.6699 570.704 59.8072 570.94C59.9492 571.172 60.1291 571.329 60.3469 571.409C60.5695 571.485 60.8039 571.523 61.0501 571.523C61.2347 571.523 61.3862 571.513 61.5046 571.494C61.623 571.471 61.7177 571.452 61.7887 571.438L62.1296 572.943C62.016 572.986 61.8574 573.028 61.6538 573.071C61.4502 573.118 61.1921 573.142 60.8796 573.142C60.4061 573.142 59.9421 573.04 59.4876 572.837C59.0378 572.633 58.6637 572.323 58.3654 571.906C58.0719 571.49 57.9251 570.964 57.9251 570.33V559.477ZM68.9087 573.227C67.8576 573.227 66.9509 572.995 66.1886 572.531C65.431 572.062 64.8462 571.409 64.4343 570.571C64.0271 569.728 63.8235 568.748 63.8235 567.631C63.8235 566.513 64.0271 565.528 64.4343 564.676C64.8462 563.819 65.4192 563.152 66.1531 562.673C66.8917 562.19 67.7534 561.949 68.7383 561.949C69.3065 561.949 69.8675 562.044 70.4215 562.233C70.9755 562.422 71.4798 562.73 71.9343 563.156C72.3888 563.578 72.7511 564.136 73.021 564.832C73.2908 565.528 73.4258 566.385 73.4258 567.403V568.114H65.0167V566.665H71.7212C71.7212 566.049 71.5981 565.5 71.3519 565.017C71.1104 564.534 70.7648 564.153 70.315 563.874C69.8699 563.594 69.3443 563.455 68.7383 563.455C68.0707 563.455 67.493 563.62 67.0053 563.952C66.5224 564.278 66.1507 564.705 65.8903 565.23C65.6299 565.756 65.4996 566.319 65.4996 566.92V567.886C65.4996 568.71 65.6417 569.409 65.9258 569.982C66.2146 570.55 66.6147 570.983 67.1261 571.281C67.6374 571.575 68.2317 571.722 68.9087 571.722C69.3491 571.722 69.7468 571.66 70.1019 571.537C70.4618 571.409 70.7719 571.22 71.0323 570.969C71.2927 570.713 71.494 570.396 71.636 570.017L73.2553 570.472C73.0849 571.021 72.7984 571.504 72.396 571.92C71.9935 572.332 71.4963 572.654 70.9045 572.886C70.3126 573.114 69.6474 573.227 68.9087 573.227ZM75.9755 573V562.091H77.5948V563.795H77.7369C77.9641 563.213 78.3311 562.761 78.8377 562.439C79.3443 562.112 79.9528 561.949 80.663 561.949C81.3827 561.949 81.9817 562.112 82.4599 562.439C82.9428 562.761 83.3192 563.213 83.5891 563.795H83.7028C83.9821 563.232 84.4012 562.785 84.9599 562.453C85.5186 562.117 86.1886 561.949 86.9698 561.949C87.9452 561.949 88.743 562.254 89.3633 562.865C89.9835 563.471 90.2937 564.416 90.2937 565.699V573H88.6175V565.699C88.6175 564.894 88.3974 564.319 87.957 563.973C87.5167 563.627 86.9982 563.455 86.4016 563.455C85.6346 563.455 85.0404 563.687 84.619 564.151C84.1976 564.61 83.9869 565.192 83.9869 565.898V573H82.2823V565.528C82.2823 564.908 82.0811 564.409 81.6786 564.03C81.2762 563.646 80.7577 563.455 80.1232 563.455C79.6876 563.455 79.2804 563.571 78.9016 563.803C78.5276 564.035 78.2246 564.357 77.9925 564.768C77.7653 565.176 77.6516 565.647 77.6516 566.182V573H75.9755ZM96.5685 573.256C95.8772 573.256 95.2499 573.125 94.6864 572.865C94.123 572.6 93.6755 572.219 93.3441 571.722C93.0127 571.22 92.8469 570.614 92.8469 569.903C92.8469 569.278 92.9701 568.772 93.2163 568.384C93.4625 567.991 93.7915 567.683 94.2035 567.46C94.6154 567.238 95.07 567.072 95.5671 566.963C96.069 566.849 96.5733 566.759 97.0799 566.693C97.7428 566.608 98.2802 566.544 98.6921 566.501C99.1088 566.454 99.4118 566.376 99.6012 566.267C99.7953 566.158 99.8924 565.969 99.8924 565.699V565.642C99.8924 564.941 99.7006 564.397 99.3171 564.009C98.9383 563.62 98.363 563.426 97.5913 563.426C96.7911 563.426 96.1637 563.601 95.7092 563.952C95.2546 564.302 94.935 564.676 94.7504 565.074L93.1594 564.506C93.4435 563.843 93.8223 563.327 94.2958 562.957C94.774 562.583 95.2949 562.323 95.8583 562.176C96.4265 562.025 96.9852 561.949 97.5344 561.949C97.8848 561.949 98.2873 561.991 98.7418 562.077C99.2011 562.157 99.6438 562.325 100.07 562.581C100.501 562.837 100.858 563.223 101.142 563.739C101.426 564.255 101.569 564.946 101.569 565.812V573H99.8924V571.523H99.8072C99.6935 571.759 99.5041 572.013 99.239 572.283C98.9738 572.553 98.6211 572.782 98.1808 572.972C97.7404 573.161 97.203 573.256 96.5685 573.256ZM96.8242 571.75C97.4871 571.75 98.0458 571.62 98.5004 571.359C98.9596 571.099 99.3053 570.763 99.5373 570.351C99.774 569.939 99.8924 569.506 99.8924 569.051V567.517C99.8214 567.602 99.6651 567.68 99.4237 567.751C99.1869 567.818 98.9123 567.877 98.5998 567.929C98.292 567.976 97.9914 568.019 97.6978 568.057C97.409 568.09 97.1746 568.118 96.9947 568.142C96.5591 568.199 96.1519 568.291 95.7731 568.419C95.399 568.542 95.096 568.729 94.864 568.98C94.6367 569.226 94.5231 569.562 94.5231 569.989C94.5231 570.571 94.7385 571.011 95.1694 571.31C95.605 571.603 96.1566 571.75 96.8242 571.75ZM96.881 560.614L98.614 557.318H100.574L98.3583 560.614H96.881ZM109.372 562.091V563.511H103.719V562.091H109.372ZM105.366 559.477H107.043V569.875C107.043 570.348 107.111 570.704 107.249 570.94C107.391 571.172 107.571 571.329 107.788 571.409C108.011 571.485 108.245 571.523 108.491 571.523C108.676 571.523 108.828 571.513 108.946 571.494C109.064 571.471 109.159 571.452 109.23 571.438L109.571 572.943C109.457 572.986 109.299 573.028 109.095 573.071C108.892 573.118 108.634 573.142 108.321 573.142C107.848 573.142 107.384 573.04 106.929 572.837C106.479 572.633 106.105 572.323 105.807 571.906C105.513 571.49 105.366 570.964 105.366 570.33V559.477ZM111.893 573V562.091H113.57V573H111.893ZM112.746 560.273C112.419 560.273 112.137 560.161 111.901 559.939C111.669 559.716 111.553 559.449 111.553 559.136C111.553 558.824 111.669 558.556 111.901 558.334C112.137 558.111 112.419 558 112.746 558C113.072 558 113.352 558.111 113.584 558.334C113.821 558.556 113.939 558.824 113.939 559.136C113.939 559.449 113.821 559.716 113.584 559.939C113.352 560.161 113.072 560.273 112.746 560.273ZM121.071 573.227C120.049 573.227 119.168 572.986 118.429 572.503C117.691 572.02 117.123 571.355 116.725 570.507C116.327 569.66 116.128 568.691 116.128 567.602C116.128 566.494 116.332 565.517 116.739 564.669C117.151 563.817 117.724 563.152 118.458 562.673C119.196 562.19 120.058 561.949 121.043 561.949C121.81 561.949 122.501 562.091 123.117 562.375C123.732 562.659 124.237 563.057 124.63 563.568C125.023 564.08 125.266 564.676 125.361 565.358H123.685C123.557 564.861 123.273 564.42 122.833 564.037C122.397 563.649 121.81 563.455 121.071 563.455C120.418 563.455 119.845 563.625 119.353 563.966C118.865 564.302 118.484 564.778 118.209 565.393C117.939 566.004 117.804 566.722 117.804 567.545C117.804 568.388 117.937 569.122 118.202 569.747C118.472 570.372 118.851 570.857 119.338 571.203C119.831 571.549 120.408 571.722 121.071 571.722C121.507 571.722 121.902 571.646 122.257 571.494C122.613 571.343 122.913 571.125 123.159 570.841C123.406 570.557 123.581 570.216 123.685 569.818H125.361C125.266 570.462 125.032 571.042 124.658 571.558C124.289 572.07 123.799 572.477 123.188 572.78C122.582 573.078 121.876 573.227 121.071 573.227ZM131.022 573.256C130.33 573.256 129.703 573.125 129.14 572.865C128.576 572.6 128.129 572.219 127.797 571.722C127.466 571.22 127.3 570.614 127.3 569.903C127.3 569.278 127.423 568.772 127.669 568.384C127.916 567.991 128.245 567.683 128.657 567.46C129.069 567.238 129.523 567.072 130.02 566.963C130.522 566.849 131.026 566.759 131.533 566.693C132.196 566.608 132.733 566.544 133.145 566.501C133.562 566.454 133.865 566.376 134.054 566.267C134.248 566.158 134.346 565.969 134.346 565.699V565.642C134.346 564.941 134.154 564.397 133.77 564.009C133.391 563.62 132.816 563.426 132.044 563.426C131.244 563.426 130.617 563.601 130.162 563.952C129.708 564.302 129.388 564.676 129.203 565.074L127.613 564.506C127.897 563.843 128.275 563.327 128.749 562.957C129.227 562.583 129.748 562.323 130.311 562.176C130.88 562.025 131.438 561.949 131.988 561.949C132.338 561.949 132.74 561.991 133.195 562.077C133.654 562.157 134.097 562.325 134.523 562.581C134.954 562.837 135.311 563.223 135.596 563.739C135.88 564.255 136.022 564.946 136.022 565.812V573H134.346V571.523H134.26C134.147 571.759 133.957 572.013 133.692 572.283C133.427 572.553 133.074 572.782 132.634 572.972C132.194 573.161 131.656 573.256 131.022 573.256ZM131.277 571.75C131.94 571.75 132.499 571.62 132.953 571.359C133.413 571.099 133.758 570.763 133.99 570.351C134.227 569.939 134.346 569.506 134.346 569.051V567.517C134.275 567.602 134.118 567.68 133.877 567.751C133.64 567.818 133.365 567.877 133.053 567.929C132.745 567.976 132.444 568.019 132.151 568.057C131.862 568.09 131.628 568.118 131.448 568.142C131.012 568.199 130.605 568.291 130.226 568.419C129.852 568.542 129.549 568.729 129.317 568.98C129.09 569.226 128.976 569.562 128.976 569.989C128.976 570.571 129.192 571.011 129.623 571.31C130.058 571.603 130.61 571.75 131.277 571.75ZM141.297 558.455L141.155 568.909H139.507L139.365 558.455H141.297ZM140.331 573.114C139.981 573.114 139.68 572.988 139.429 572.737C139.178 572.486 139.053 572.186 139.053 571.835C139.053 571.485 139.178 571.184 139.429 570.933C139.68 570.682 139.981 570.557 140.331 570.557C140.681 570.557 140.982 570.682 141.233 570.933C141.484 571.184 141.609 571.485 141.609 571.835C141.609 572.067 141.55 572.28 141.432 572.474C141.318 572.669 141.164 572.825 140.97 572.943C140.781 573.057 140.568 573.114 140.331 573.114Z" fill="white"/>
<path d="M23.7634 83.4314C7.00138 82.7804 -6.02563 74.2185 -13.5526 59.2535C-20.3716 45.3685 -18.3446 28.9815 -14.1636 14.6075C-12.6846 9.91647 -10.5116 5.45547 -7.97762 1.24947C-0.45262 -10.2185 11.3734 -21.6375 24.6934 -25.7465C32.7844 -27.9995 41.5114 -28.8645 49.7524 -26.9295C54.3364 -25.8375 58.3334 -22.9995 61.4264 -19.4935C65.1654 -15.9455 68.0544 -11.2305 69.4964 -6.72554C70.3604 -4.52254 71.9224 5.16346 67.2864 3.14846C65.6804 1.76146 64.2504 0.10146 63.2164 -1.76054C62.5854 -3.10954 61.9354 -4.40355 61.2294 -5.70955C60.7894 -6.66854 60.3574 -7.62553 59.8184 -8.53553C58.1384 -11.7125 55.9073 -14.5006 53.3034 -16.9346C52.6174 -17.5976 51.8924 -18.2146 51.1304 -18.7796C49.1224 -19.8606 46.8594 -20.2965 44.6134 -20.5835C40.4804 -21.0945 36.3074 -20.8035 32.2014 -20.1925C23.2504 -18.9075 14.8414 -14.9125 7.61537 -9.55455C3.92537 -6.57755 0.813375 -3.39855 -2.10762 0.238453C-4.88462 3.92245 -7.05364 8.01446 -8.78664 12.2825C-12.4236 20.9365 -14.1176 30.3425 -13.9936 39.7185C-13.9616 47.3125 -11.7336 54.9415 -6.98262 60.9365C-5.18262 63.1585 -3.09963 65.1395 -0.862629 66.9175C2.81237 69.5245 6.75036 71.7065 10.8514 73.5455C19.7134 76.9615 30.1374 77.1535 39.2574 74.6395C43.8644 73.3715 48.1194 71.1185 51.8814 68.1855C55.4754 65.4855 58.4194 62.1155 60.5984 58.1825C65.0784 50.3235 66.7614 37.3855 65.5484 28.4615C63.9724 19.4105 60.3094 10.5565 54.2964 3.54445C49.9694 -1.67055 44.1784 -6.00255 37.3574 -7.08955C35.3254 -7.30455 33.2824 -7.09354 31.2644 -6.82954C27.7054 -6.35054 24.2354 -5.27354 21.1444 -3.42454C13.0584 1.42246 7.41036 9.55147 3.99336 18.2015C0.543358 26.7225 -1.71163 38.3235 1.73237 47.1195C2.74337 49.5435 4.31137 51.6745 5.86537 53.7735C7.27137 55.6095 8.91837 57.2434 10.7274 58.6814C13.7484 60.8575 17.3904 62.1415 21.0534 62.7115C24.7344 63.0955 28.4144 62.4195 32.0644 61.9935C36.6584 61.4045 40.9774 59.6565 45.0614 57.5305C50.4484 54.2215 53.5924 48.0135 54.2924 41.8485C54.6784 32.1925 52.7524 20.5655 44.5494 14.4165C42.8474 13.0525 40.8024 12.2625 38.7134 11.7065C34.7364 10.5895 30.4234 10.5425 26.5934 12.2185C22.2554 14.1915 19.1974 18.0985 16.2044 21.6635C12.8624 25.9485 10.7994 30.2935 10.8794 35.8335C10.9864 39.8345 12.3284 43.7815 14.7544 46.9715C16.5414 49.2225 18.6064 51.3745 21.3284 52.4535C24.9614 53.9615 29.1834 53.7515 32.8434 52.4395C36.5954 50.6375 39.7934 47.5115 41.4184 43.6525C42.3734 41.2905 42.7454 38.6935 42.3134 36.1725C41.6024 31.6295 39.8634 26.0225 35.8694 23.3405C32.6434 21.6345 28.5804 22.0225 25.4394 23.7455C22.5174 25.7825 20.5394 29.1905 20.0894 32.7135C19.8824 34.4315 19.9024 36.3135 21.0564 37.7155C22.5784 39.3105 24.6184 40.6095 26.8134 40.9835C29.7394 41.1974 32.9184 38.5904 32.1584 35.4964C31.6844 31.5075 27.5374 31.1775 24.3954 32.1635C23.7754 32.3585 22.7004 32.8955 22.6594 31.8105C22.7994 29.9565 24.7144 28.5855 26.2284 27.7665C30.0224 25.9945 34.7834 26.8795 37.2474 30.3955C38.8154 32.5145 39.0164 35.3235 38.5474 37.8465C37.8224 41.4015 34.9334 44.0645 31.8474 45.7225C25.3704 49.2535 16.2064 44.2465 14.4774 37.3745C13.4534 31.8165 15.2924 25.8715 19.0164 21.6615C21.4834 18.7255 25.1174 17.1245 28.8694 16.6335C35.3454 15.5835 41.6634 19.2724 45.3164 24.4704C48.4114 28.9394 49.8224 34.6085 49.5764 40.0125C49.0254 46.9715 44.8804 53.3545 39.0494 57.0975C35.9544 59.0445 32.2104 59.5535 28.6144 59.3915C23.4164 59.0975 18.0674 56.8395 14.7414 52.7425C11.7754 48.9665 9.52636 44.5064 8.76536 39.7374C7.47736 33.3805 8.65437 26.7365 10.9434 20.7435C12.3274 17.6455 14.3614 14.8545 16.5244 12.2565C18.9804 9.60546 21.7574 7.09845 25.0904 5.61745C32.0784 2.56445 40.4714 3.74346 47.0034 7.41146C50.0394 9.32446 52.7104 11.8345 54.7824 14.7705C57.9694 19.2425 59.7364 24.5755 60.6784 29.9475C61.8394 35.9575 61.2174 42.1805 59.3744 47.9895C58.5254 50.4375 57.6804 52.9225 56.2924 55.1285C53.4864 59.5085 49.2224 62.8685 44.4804 64.9425C39.7024 66.9405 34.6784 68.4765 29.5244 69.0845C20.7684 69.8135 11.1894 68.3295 4.40635 62.3435C0.402353 58.8235 -3.02164 54.3775 -4.70064 49.2775C-8.32064 40.1045 -7.21462 29.8375 -4.47762 20.5735C-2.82162 15.5255 -0.72064 10.5885 2.03236 6.03646C7.64636 -2.82454 15.8994 -10.7485 26.3624 -13.2025C31.1164 -14.1695 36.1294 -14.7925 40.8824 -13.5095C52.3284 -10.7285 59.7404 -2.52654 65.2804 7.38247C72.2724 19.0835 74.2764 32.0385 72.1084 45.4205C71.2694 50.3555 70.1244 55.3204 67.8594 59.8155C66.2494 62.9095 64.3764 65.8875 62.0844 68.5245C53.0154 78.5825 40.2784 83.5285 26.9704 83.5285C25.9024 83.5255 24.8354 83.4934 23.7634 83.4314Z" fill="#F1E3AF"/>
<path d="M313.172 84.6805C310.51 84.2815 307.93 82.9965 306.358 80.7555C303.176 75.8045 303.168 69.2405 305.341 63.8875C308.442 56.1075 318.355 55.4175 325.519 56.7165C328.693 57.3055 331.663 59.1095 333.209 62.0125C334.528 64.4305 334.414 67.2935 334.042 69.9395C333.417 73.4905 331.94 77.0545 329.331 79.6005C327.939 80.9235 326.269 81.8505 324.487 82.5175C321.665 83.9015 318.52 84.8365 315.362 84.8365C314.63 84.8365 313.9 84.7865 313.172 84.6805Z" fill="#AAB2D5"/>
<path d="M333.474 52.1645C330.119 52.1145 327.314 49.8475 325.297 47.3415C323.611 45.2805 322.065 43.0695 320.902 40.6705C318.341 35.5725 318.645 30.2565 322.034 25.6225C324.223 22.7485 327.275 20.6565 330.387 18.8905C334.5 16.7025 339.536 14.5125 344.164 16.3165C346.414 17.2065 348.229 18.8855 349.779 20.7025C352.087 23.3935 353.627 26.8705 353.146 30.4675C352.669 34.1885 350.548 37.4225 348.673 40.5845C345.295 45.9355 340.683 52.1685 333.741 52.1695C333.653 52.1685 333.564 52.1675 333.474 52.1645Z" fill="#AAB2D5"/>
<path d="M354.666 76.7644C343.617 74.9664 343.426 67.4584 347.548 58.7134C352.573 48.0694 372.087 48.0614 374.036 60.8744C375.519 68.6294 369.591 75.5974 362.09 76.8684C360.851 76.9624 359.599 77.0374 358.349 77.0374C357.117 77.0364 355.886 76.9624 354.666 76.7644Z" fill="#AAB2D5"/>
<path d="M286.922 58.7256C283.777 58.2086 280.136 57.8756 278.486 54.6666C275.19 48.3956 274.139 40.8166 275.73 33.9016C277.283 26.7746 284.574 24.5606 291.076 25.2416C299.611 25.6206 311.599 28.9396 312.141 39.1456C312.785 46.3716 309.185 54.0826 301.857 56.2136C297.892 57.6636 293.692 58.8756 289.448 58.8756C288.608 58.8746 287.766 58.8266 286.922 58.7256Z" fill="#AAB2D5"/>
<path d="M303.839 18.6865C298.525 18.6445 295.162 14.5165 294.405 9.53448C293.691 5.67448 293.518 1.62248 294.397 -2.22452C296.187 -14.1275 309.445 -20.6075 319.941 -14.6375C323.225 -13.1075 325.349 -10.0515 326.843 -6.8555C330.592 1.2645 329.816 9.52349 320.926 13.4925C317.956 14.9005 314.894 16.1225 311.792 17.2065C309.412 17.9995 306.95 18.6975 304.427 18.6975C304.231 18.6985 304.034 18.6945 303.839 18.6865Z" fill="#AAB2D5"/>
<path d="M359.008 6.36949C358.184 6.22949 357.361 6.26047 356.534 6.29347C356.097 6.31047 355.66 6.32848 355.223 6.32048C353.578 6.31948 351.935 6.18246 350.32 5.87046C345.885 4.95847 342.134 3.19046 339.958 -0.99654C336.849 -7.50654 338.704 -15.5915 342.831 -21.2355C345.999 -25.3495 351.038 -28.1115 356.288 -27.9965C359.81 -27.7875 363.29 -26.8125 366.519 -25.4135C372.007 -22.8635 376.424 -17.6605 377.126 -11.5435C377.552 -8.38954 376.918 -5.14652 375.634 -2.25652C373.245 3.57948 367.538 6.54647 361.546 6.54847C360.702 6.54747 359.854 6.48749 359.008 6.36949Z" fill="#AAB2D5"/>
</g>
<defs>
<clipPath id="clip0_541_394">
<rect width="360" height="800" fill="white"/>
</clipPath>
</defs>
</svg>
