<?xml version="1.0" standalone="no"?>
<!DOCTYPE svg PUBLIC "-//W3C//DTD SVG 20010904//EN"
 "http://www.w3.org/TR/2001/REC-SVG-20010904/DTD/svg10.dtd">
<svg version="1.0" xmlns="http://www.w3.org/2000/svg"
 width="1024.000000pt" height="1024.000000pt" viewBox="0 0 1024.000000 1024.000000"
 preserveAspectRatio="xMidYMid meet">

<g transform="translate(0.000000,1024.000000) scale(0.100000,-0.100000)"
fill="#000000" stroke="none">
<path d="M1440 8554 c-261 -77 -423 -288 -423 -549 0 -153 52 -284 156 -393
107 -111 223 -165 377 -177 226 -17 463 121 568 332 51 104 66 174 59 283 -13
204 -125 371 -311 463 -145 72 -278 85 -426 41z m281 -8 c210 -45 385 -218
428 -424 38 -180 -34 -384 -180 -516 -58 -52 -184 -117 -269 -140 -178 -46
-419 35 -535 181 -79 100 -134 246 -133 353 1 178 87 348 223 445 136 98 307
134 466 101z"/>
<path d="M6218 8230 c-84 -15 -147 -41 -206 -84 -296 -218 -250 -669 84 -832
79 -39 79 -39 204 -39 l126 0 79 39 c107 53 174 121 226 229 71 148 71 280 2
424 -33 68 -127 168 -195 205 -97 54 -221 76 -320 58z m225 -48 c79 -28 191
-105 226 -155 15 -23 41 -73 57 -112 25 -61 29 -82 29 -170 0 -95 -2 -104 -37
-177 -74 -155 -198 -247 -369 -272 -114 -17 -280 44 -372 136 -135 135 -173
358 -91 527 34 68 134 169 197 199 116 55 247 63 360 24z"/>
<path d="M3620 7726 c0 -201 17 -215 22 -19 3 153 2 173 -13 173 -5 0 -9 -69
-9 -154z"/>
<path d="M8552 7699 c-10 -16 -10 -24 -1 -35 16 -19 26 -18 39 7 9 15 8 24 -1
35 -15 19 -22 18 -37 -7z"/>
<path d="M9041 7666 c-10 -18 -10 -29 -2 -45 15 -28 27 -27 47 4 16 24 16 27
-1 45 -23 26 -29 25 -44 -4z"/>
<path d="M9360 7665 c-10 -12 -10 -21 -2 -40 14 -30 33 -32 58 -4 18 20 18 21
-6 40 -30 23 -34 23 -50 4z"/>
<path d="M7250 7533 c-39 -85 -62 -182 -40 -168 6 3 10 15 10 26 0 43 89 37
109 -7 6 -15 14 -24 17 -21 3 3 -8 41 -24 84 -17 43 -33 86 -36 96 -8 25 -21
21 -36 -10z m33 -40 c3 -16 8 -35 12 -44 5 -13 0 -15 -25 -11 -32 5 -36 17
-18 57 15 32 24 32 31 -2z"/>
<path d="M7037 7543 c-26 -4 -28 -7 -23 -36 3 -18 8 -54 12 -82 3 -27 11 -57
16 -65 6 -10 7 4 2 38 -5 45 -4 51 10 46 9 -3 28 -3 44 2 25 7 24 8 -18 13
-42 6 -45 8 -45 36 0 27 4 30 38 36 20 3 40 9 44 12 7 7 -32 7 -80 0z"/>
<path d="M3615 7524 c-6 -2 -9 -69 -7 -179 3 -163 2 -175 -15 -176 -16 0 -15
-1 2 -9 12 -4 48 -4 80 0 58 7 58 7 15 9 l-45 1 3 107 c1 60 3 138 5 175 1 49
-2 69 -11 73 -8 3 -14 5 -15 4 -1 0 -6 -2 -12 -5z"/>
<path d="M7493 7520 c-52 -21 -76 -118 -39 -159 21 -23 65 -28 84 -9 20 20 13
27 -17 15 -43 -16 -61 3 -61 63 0 34 5 52 20 65 19 18 22 18 56 1 44 -21 56
-14 23 13 -27 23 -34 24 -66 11z"/>
<path d="M7651 7374 c-38 -79 -46 -113 -21 -88 14 15 79 174 70 174 -4 0 -26
-39 -49 -86z"/>
<path d="M3096 7390 c20 -28 56 -64 81 -81 68 -47 187 -98 280 -119 116 -28
127 -24 18 6 -170 47 -321 137 -351 211 -11 25 -20 33 -39 33 l-25 0 36 -50z"/>
<path d="M4146 7395 c-17 -44 -27 -52 -142 -133 -11 -7 0 -3 23 9 63 33 111
76 133 119 11 21 25 40 32 43 7 3 3 6 -8 6 -16 1 -25 -10 -38 -44z"/>
<path d="M9037 7423 c-13 -12 -7 -54 8 -60 9 -3 24 2 35 12 15 14 17 20 7 36
-12 19 -38 25 -50 12z"/>
<path d="M9362 7418 c-16 -16 -15 -47 2 -54 8 -3 24 0 36 6 19 10 20 14 7 33
-17 26 -29 31 -45 15z"/>
<path d="M7776 7378 c-3 -13 -21 -49 -41 -82 -44 -73 -47 -105 -5 -56 38 45
84 136 75 149 -10 18 -22 13 -29 -11z"/>
<path d="M4613 7293 c-8 -35 -12 -39 -56 -47 -57 -10 -58 -30 -1 -34 43 -4 54
-14 54 -54 0 -16 5 -28 10 -28 11 0 15 7 24 51 5 21 10 25 30 22 28 -6 72 15
60 27 -5 5 -25 12 -44 17 -30 8 -36 14 -40 43 -7 47 -26 48 -37 3z"/>
<path d="M7872 7296 c-7 -18 -30 -54 -52 -79 -43 -49 -47 -57 -27 -57 7 0 26
-13 42 -30 16 -16 35 -30 43 -30 29 0 85 44 98 77 12 28 12 38 0 68 -17 40
-59 85 -79 85 -7 0 -18 -15 -25 -34z m86 -49 c11 -22 10 -31 -3 -56 -17 -33
-51 -61 -76 -61 -24 0 -52 35 -45 57 4 11 20 41 36 67 29 46 32 47 53 33 12
-8 28 -26 35 -40z"/>
<path d="M7180 7215 c-146 -40 -275 -141 -331 -258 -16 -34 -29 -69 -29 -77 1
-8 16 17 35 56 80 166 268 276 471 275 94 0 154 -12 283 -56 41 -14 76 -23 79
-21 7 8 -50 33 -138 61 -107 35 -282 44 -370 20z"/>
<path d="M9042 7199 c2 -6 8 -10 13 -10 5 0 11 4 13 10 2 6 -4 11 -13 11 -9 0
-15 -5 -13 -11z"/>
<path d="M9374 7195 c3 -20 13 -28 26 -20 8 5 8 11 -1 21 -15 18 -28 18 -25
-1z"/>
<path d="M2615 7150 c-3 -5 -18 -10 -33 -11 -26 0 -26 -1 -5 -9 12 -5 29 -20
39 -34 l16 -26 27 27 26 28 -28 18 c-32 20 -34 20 -42 7z"/>
<path d="M8069 7111 c-14 -14 -47 -44 -75 -66 -43 -35 -46 -40 -27 -43 12 -2
25 -12 28 -23 7 -22 52 -55 62 -45 4 3 -8 21 -25 39 -39 40 -40 52 -7 73 25
16 27 16 53 -10 40 -37 49 -32 17 10 -25 33 -26 37 -11 52 14 14 19 13 56 -17
22 -17 40 -29 40 -25 0 6 -82 86 -84 83 -1 -1 -13 -13 -27 -28z"/>
<path d="M4165 7041 c-3 -11 -19 -24 -36 -30 -36 -12 -30 -31 10 -31 24 0 30
-5 35 -30 7 -39 26 -39 26 -1 0 22 5 30 20 33 29 4 30 22 2 26 -13 2 -27 14
-32 28 -11 29 -17 30 -25 5z"/>
<path d="M9038 6975 c-9 -21 -8 -28 7 -45 17 -19 18 -19 37 6 19 24 19 26 3
44 -24 26 -33 25 -47 -5z"/>
<path d="M9362 6978 c-17 -17 -15 -32 7 -52 17 -16 19 -15 34 8 15 22 15 25
-2 40 -21 19 -24 19 -39 4z"/>
<path d="M5790 6795 c-140 -53 -155 -61 -140 -80 6 -7 26 -16 45 -19 19 -4 39
-15 44 -25 7 -13 16 -178 12 -223 -1 -3 -24 2 -51 13 -34 13 -76 19 -129 19
-67 0 -86 -4 -139 -31 -79 -39 -151 -104 -182 -165 -36 -71 -41 -224 -10 -307
28 -74 67 -119 132 -151 86 -43 219 -28 322 35 27 16 51 28 53 25 2 -2 5 -21
6 -41 2 -36 2 -37 37 -30 19 3 77 9 128 12 87 6 94 8 103 30 15 39 11 44 -24
38 -25 -5 -39 -2 -51 11 -17 16 -18 49 -15 473 3 397 2 456 -11 458 -8 1 -67
-18 -130 -42z m-120 -397 c66 -45 69 -55 70 -243 1 -93 2 -177 1 -186 -2 -28
-80 -63 -141 -63 -102 0 -154 52 -171 169 -12 84 4 225 29 268 43 75 144 101
212 55z"/>
<path d="M7250 6783 c-58 -25 -125 -51 -149 -58 -76 -21 -66 -40 25 -53 48 -7
49 -8 61 -52 10 -41 18 -180 10 -180 -2 0 -19 8 -38 17 -47 23 -149 21 -219
-6 -188 -71 -286 -269 -217 -439 47 -116 134 -195 229 -208 57 -8 134 14 211
60 l57 35 0 -39 c0 -21 4 -41 9 -44 15 -10 233 32 249 47 19 20 7 37 -27 37
-51 0 -56 17 -56 204 0 94 -1 296 -3 449 -2 257 -3 277 -19 276 -10 0 -65 -21
-123 -46z m-92 -417 l37 -36 3 -166 c2 -91 1 -177 -2 -190 -9 -36 -62 -64
-120 -64 -45 0 -53 4 -91 43 -51 53 -70 115 -68 214 2 103 25 174 70 213 33
29 41 32 86 27 40 -3 56 -11 85 -41z"/>
<path d="M3420 6781 l-45 -26 -338 -3 c-310 -3 -338 -4 -335 -20 2 -9 19 -21
38 -27 46 -13 65 -26 77 -50 19 -36 23 -156 15 -441 -8 -321 -9 -325 -87 -346
-32 -9 -45 -17 -45 -30 0 -17 16 -18 235 -18 203 0 236 2 242 15 7 21 3 24
-52 38 -82 21 -89 39 -88 225 l2 157 38 3 c110 10 172 -26 200 -114 13 -44 21
-54 39 -54 39 0 43 18 45 209 1 146 -1 185 -12 192 -22 14 -29 11 -39 -18 -43
-119 -76 -143 -204 -151 l-79 -5 5 172 c3 118 8 175 17 184 8 8 45 11 122 9
157 -3 206 -28 255 -125 18 -34 30 -47 42 -45 15 3 17 18 14 143 -2 77 -7 143
-10 146 -4 3 -27 -6 -52 -20z"/>
<path d="M4890 6773 c-103 -92 -1 -241 125 -184 126 57 129 152 6 196 -64 22
-96 19 -131 -12z"/>
<path d="M8375 6733 c-55 -12 -105 -44 -105 -66 0 -27 37 -81 64 -92 34 -14
51 -11 83 17 24 22 39 100 26 134 -8 20 -10 20 -68 7z m55 -60 c0 -57 -21 -83
-65 -83 -44 0 -83 48 -69 85 9 23 54 44 97 45 l37 0 0 -47z"/>
<path d="M8465 6524 c-33 -18 -64 -35 -70 -37 -5 -2 -7 -7 -4 -11 12 -13 159
57 159 76 0 14 -23 7 -85 -28z"/>
<path d="M5039 6480 c-19 -10 -73 -28 -120 -40 -94 -23 -139 -39 -139 -49 0
-4 26 -12 59 -19 41 -9 60 -18 63 -30 9 -38 -8 -417 -20 -439 -7 -12 -30 -28
-52 -34 -68 -21 -51 -39 38 -40 351 -6 370 -3 287 44 -65 37 -66 39 -63 350 2
180 -1 277 -7 277 -5 -1 -26 -9 -46 -20z"/>
<path d="M7718 6471 c-111 -37 -179 -98 -231 -210 -45 -96 -45 -181 1 -273 36
-74 95 -133 170 -169 70 -34 185 -33 270 3 35 14 77 36 95 48 41 28 117 122
117 144 0 25 -23 19 -54 -13 -43 -45 -135 -82 -204 -82 -124 -1 -197 67 -216
201 l-6 45 182 2 c101 1 207 4 236 8 l52 6 0 48 c0 58 -38 139 -83 177 -87 73
-223 100 -329 65z m146 -62 c34 -27 54 -65 56 -109 4 -73 12 -69 -125 -72
l-125 -3 0 35 c0 60 19 107 56 139 43 38 97 42 138 10z"/>
<path d="M3642 6464 c-24 -9 -68 -40 -99 -68 -47 -44 -56 -57 -55 -85 1 -49
26 -71 82 -71 63 0 94 31 88 87 -3 21 -8 45 -12 54 -5 13 1 19 25 28 100 35
169 -28 169 -156 0 -50 -5 -54 -129 -90 -107 -31 -192 -75 -232 -121 -29 -32
-31 -40 -27 -94 4 -50 9 -63 38 -93 43 -44 88 -59 160 -52 64 5 103 23 155 68
26 23 35 27 35 15 0 -9 13 -30 29 -48 28 -31 33 -33 91 -31 75 2 144 33 166
75 12 23 13 33 3 44 -9 12 -14 10 -31 -11 -24 -31 -52 -32 -73 -2 -13 19 -15
48 -9 212 6 186 5 191 -18 235 -39 76 -105 108 -238 115 -53 3 -88 0 -118 -11z
m197 -391 c-2 -101 -9 -124 -49 -151 -25 -17 -45 -22 -75 -20 -35 3 -42 8 -57
38 -21 43 -11 94 25 128 20 19 128 70 150 72 4 0 6 -30 6 -67z"/>
<path d="M4377 6460 c-173 -55 -277 -196 -265 -359 16 -210 210 -353 403 -296
89 25 151 60 211 119 39 38 54 60 54 79 0 33 -29 37 -48 7 -27 -44 -175 -97
-238 -85 -60 11 -121 61 -154 127 -25 51 -30 73 -30 132 0 87 13 136 47 176
33 39 73 60 116 60 43 0 61 -20 87 -96 24 -71 40 -84 97 -84 33 0 50 6 68 25
27 27 30 42 15 96 -14 48 -44 74 -117 98 -77 26 -168 26 -246 1z"/>
<path d="M6227 6465 c-56 -15 -84 -32 -132 -80 -44 -44 -45 -76 -6 -116 21
-21 39 -29 65 -29 58 0 89 46 79 120 -7 51 3 60 68 60 51 0 91 -27 109 -75 14
-37 12 -121 -2 -132 -7 -6 -44 -20 -83 -33 -95 -30 -214 -93 -254 -134 -68
-70 -42 -170 58 -223 79 -42 182 -22 269 52 28 23 35 26 43 14 5 -8 9 -17 9
-20 0 -4 12 -18 26 -33 32 -31 94 -35 167 -10 43 15 107 71 107 95 0 22 -34
22 -48 1 -19 -28 -57 -28 -76 0 -13 18 -16 56 -16 198 -1 213 -7 243 -58 292
-68 63 -206 86 -325 53z m197 -346 c8 -40 8 -108 0 -147 -5 -24 -16 -36 -49
-52 -75 -36 -135 1 -135 85 0 36 5 48 33 71 28 24 121 74 138 74 4 0 9 -14 13
-31z"/>
<path d="M8445 6426 c66 -21 145 -27 145 -12 0 17 -46 26 -124 25 l-61 -1 40
-12z"/>
<path d="M8497 6330 c-27 -5 -51 -11 -53 -13 -7 -6 36 -117 45 -117 4 0 0 24
-10 52 -20 59 -18 68 16 68 21 0 27 -8 43 -60 22 -73 36 -70 16 3 -8 29 -14
53 -14 55 0 1 15 2 34 2 22 0 36 -6 40 -16 4 -9 9 -14 13 -10 3 3 -2 15 -12
26 -19 21 -39 23 -118 10z"/>
<path d="M1866 6233 c-57 -151 -69 -187 -90 -273 -13 -52 -26 -88 -29 -80 -23
78 -35 107 -71 185 -44 92 -107 165 -144 165 -14 -1 -13 -4 8 -23 69 -62 113
-138 164 -285 34 -96 34 -98 40 -330 4 -128 9 -246 13 -262 3 -17 1 -30 -4
-30 -6 0 -57 46 -114 103 -89 88 -377 362 -397 377 -35 28 135 -154 287 -306
105 -105 191 -194 191 -197 0 -4 -38 -7 -85 -7 -69 0 -85 -3 -85 -15 0 -13 28
-15 190 -14 155 1 190 4 190 15 0 10 -15 14 -55 14 -38 0 -55 4 -55 13 0 15
88 122 116 142 29 20 289 305 325 355 38 53 20 36 -87 -83 -43 -49 -125 -129
-181 -178 -55 -49 -125 -119 -154 -156 -29 -38 -57 -72 -61 -78 -6 -6 -8 116
-6 290 l4 300 32 113 c35 121 79 220 117 258 18 18 20 24 8 28 -35 14 -49 5
-67 -41z"/>
<path d="M8631 6259 c0 -16 -9 -30 -23 -37 -13 -6 -18 -11 -12 -11 23 -2 46
25 41 50 l-4 24 -2 -26z"/>
<path d="M8508 6143 c7 -3 16 -2 19 1 4 3 -2 6 -13 5 -11 0 -14 -3 -6 -6z"/>
<path d="M8566 6107 c7 -19 124 -29 124 -10 0 6 -15 11 -37 10 -21 -1 -50 3
-66 7 -22 7 -26 5 -21 -7z"/>
<path d="M8555 6019 c-4 -6 -5 -12 -2 -15 7 -7 37 7 37 17 0 13 -27 11 -35 -2z"/>
<path d="M8601 5914 c-32 -40 -31 -76 2 -111 42 -46 113 -18 123 47 5 29 1 40
-21 63 -36 35 -77 36 -104 1z m87 -10 c61 -42 -11 -130 -74 -89 -30 19 -31 54
-4 83 24 26 47 28 78 6z"/>
<path d="M5236 5455 c-132 -47 -181 -177 -116 -305 60 -117 215 -146 315 -59
40 35 53 68 34 80 -25 16 -47 9 -77 -21 -41 -41 -88 -41 -131 -1 -18 17 -31
39 -31 54 0 21 5 25 46 31 26 3 84 6 130 6 l84 0 0 38 c0 121 -140 219 -254
177z m107 -93 c36 -38 36 -62 -2 -62 -15 0 -49 -3 -75 -6 -40 -6 -46 -4 -46
11 0 29 48 85 74 85 12 0 34 -13 49 -28z"/>
<path d="M2848 5303 c-75 -19 69 -23 912 -23 820 0 930 2 930 15 0 13 -108 15
-912 14 -502 -1 -921 -3 -930 -6z"/>
<path d="M5943 5303 c-7 -2 -13 -9 -13 -14 0 -5 395 -9 985 -9 869 0 985 2
985 15 0 13 -114 15 -972 14 -535 0 -979 -3 -985 -6z"/>
<path d="M6688 4910 c-100 -66 -265 -250 -224 -250 17 0 82 48 120 88 l28 30
55 -44 c61 -50 70 -50 140 -3 45 31 83 74 83 94 0 21 -110 115 -134 115 -12 0
-43 -14 -68 -30z"/>
<path d="M3949 4903 c-77 -47 -76 -151 1 -197 46 -27 85 -21 130 20 34 31 40
42 40 76 0 33 -7 47 -39 79 -43 44 -86 51 -132 22z"/>
<path d="M6179 4881 c-49 -49 -53 -93 -12 -141 25 -30 30 -32 77 -27 55 5 96
39 96 80 0 27 -34 86 -63 109 -33 27 -56 22 -98 -21z"/>
<path d="M3048 4882 c-185 -2 -198 -4 -198 -21 0 -14 10 -20 39 -25 54 -8 88
-50 96 -120 4 -29 5 -189 4 -354 -4 -286 -5 -302 -25 -329 -13 -18 -35 -31
-62 -37 -30 -7 -42 -15 -42 -28 0 -17 16 -18 258 -18 192 0 273 4 320 15 161
38 263 129 329 294 50 126 53 216 10 331 -52 141 -133 219 -275 264 -89 27
-169 32 -454 28z m325 -79 c143 -45 220 -223 197 -458 -20 -210 -110 -321
-271 -333 -118 -8 -109 -43 -109 409 l0 390 23 9 c27 11 95 4 160 -17z"/>
<path d="M2425 4795 c-3 -8 -7 -22 -10 -30 -2 -8 -15 -15 -29 -15 -38 0 -41
-18 -4 -22 28 -3 33 -8 39 -36 4 -18 10 -36 13 -40 10 -9 26 19 26 46 0 17 6
22 25 22 16 0 25 6 25 15 0 9 -9 15 -24 15 -18 0 -27 8 -35 30 -11 33 -19 38
-26 15z"/>
<path d="M5735 4594 c-27 -13 -85 -32 -127 -41 -43 -10 -78 -21 -78 -24 0 -4
13 -12 30 -19 59 -24 62 -41 59 -259 -4 -220 -11 -243 -72 -259 -19 -5 -33
-16 -36 -27 -3 -17 2 -18 65 -12 38 4 127 7 197 7 115 0 128 2 125 17 -2 9
-17 20 -34 25 -64 16 -69 33 -68 207 0 161 10 208 51 253 21 24 53 23 53 0 0
-30 33 -52 78 -52 56 0 87 16 108 56 21 38 22 39 46 20 34 -25 36 -56 21 -261
-14 -186 -16 -201 -39 -228 -16 -20 -22 -33 -15 -40 13 -13 148 -4 163 11 13
13 20 77 38 317 5 77 14 181 19 230 5 50 8 91 6 93 -1 1 -27 -7 -56 -19 -30
-11 -81 -27 -114 -33 -59 -12 -60 -12 -99 16 -68 49 -156 31 -224 -47 l-32
-36 0 53 c0 75 -6 79 -65 52z"/>
<path d="M4005 4573 c-55 -18 -119 -37 -142 -43 -50 -13 -55 -26 -13 -35 16
-4 39 -18 50 -32 18 -24 20 -40 20 -222 0 -182 -1 -199 -20 -218 -10 -12 -28
-24 -40 -28 -11 -3 -20 -14 -20 -23 0 -15 18 -17 182 -16 147 1 184 4 186 15
1 8 -16 23 -40 34 -31 15 -44 28 -50 50 -5 17 -8 146 -7 289 0 142 -1 259 -3
260 -2 1 -48 -13 -103 -31z"/>
<path d="M7224 4600 c-58 -12 -157 -64 -204 -106 -124 -113 -127 -317 -6 -451
56 -63 141 -96 256 -101 79 -3 104 0 151 17 82 31 141 88 185 176 35 70 36 78
32 152 -8 136 -86 248 -203 292 -63 24 -155 33 -211 21z m96 -55 c33 -17 70
-64 91 -115 19 -47 19 -258 0 -323 -19 -67 -68 -117 -113 -117 -108 0 -178
146 -164 338 9 114 39 191 86 214 43 22 63 22 100 3z"/>
<path d="M5064 4566 c-131 -62 -199 -169 -198 -312 0 -90 34 -164 105 -228
114 -102 293 -116 421 -31 34 23 118 134 118 157 0 17 -24 7 -62 -28 -55 -49
-113 -74 -176 -74 -59 0 -95 15 -133 57 -36 39 -56 80 -64 135 l-7 48 218 2
219 3 0 50 c-1 92 -72 192 -169 236 -29 13 -64 19 -121 19 -71 0 -89 -4 -151
-34z m193 -33 c34 -22 53 -70 53 -133 l0 -50 -110 0 c-60 0 -113 0 -117 0 -8
1 -8 5 2 83 9 69 53 117 106 117 22 0 51 -8 66 -17z"/>
<path d="M4162 4578 c-18 -18 -14 -38 7 -38 38 0 71 -46 135 -186 133 -291
201 -414 229 -414 13 0 70 119 92 193 7 25 29 68 48 95 19 28 38 63 41 78 4
15 18 41 30 58 13 17 35 54 50 83 28 57 62 88 107 98 21 5 29 12 27 23 -3 15
-22 17 -136 20 -133 3 -133 2 -130 -20 2 -15 13 -24 34 -30 69 -18 69 -61 0
-192 -24 -45 -48 -98 -55 -118 -6 -20 -20 -43 -29 -52 -17 -14 -21 -8 -71 102
-63 138 -95 227 -88 246 3 7 19 16 36 19 22 5 31 12 31 27 0 19 -6 20 -173 20
-121 0 -177 -4 -185 -12z"/>
<path d="M6384 4534 c-39 -89 -41 -109 -10 -129 34 -22 98 -30 126 -15 19 10
21 17 15 48 -4 21 -11 42 -16 48 -15 18 19 38 63 37 22 -1 54 -10 71 -21 l32
-18 9 -194 9 -194 -32 -28 c-25 -22 -41 -28 -79 -28 -51 0 -112 29 -112 54 0
47 59 122 148 188 38 28 52 45 52 63 0 14 -2 25 -5 25 -3 0 -49 -30 -103 -67
-110 -76 -227 -188 -248 -238 -27 -66 11 -109 115 -126 62 -10 68 -9 228 33
35 9 46 9 60 -4 29 -25 59 -30 118 -19 101 19 166 65 95 67 -17 1 -39 9 -50
19 -19 17 -20 31 -20 265 0 197 -3 250 -14 266 -13 18 -30 19 -220 22 l-207 3
-25 -57z"/>
<path d="M1530 4549 c0 -25 38 -29 250 -27 180 2 224 6 228 17 3 8 1 11 -4 9
-5 -3 -114 -3 -242 1 -127 3 -232 3 -232 0z"/>
<path d="M1934 4257 c-56 -15 -135 -53 -199 -97 -142 -98 -251 -320 -230 -470
39 -280 290 -511 555 -509 117 1 261 60 361 148 109 95 179 252 179 402 0 147
-46 255 -155 364 -106 107 -231 163 -375 170 -52 3 -105 -1 -136 -8z m221 -18
c60 -11 159 -56 222 -101 60 -43 151 -167 179 -243 44 -122 39 -249 -14 -371
-52 -117 -143 -212 -257 -269 -166 -82 -313 -79 -471 9 -143 79 -248 218 -284
375 -55 240 121 514 385 597 46 15 167 16 240 3z"/>
<path d="M7620 3685 c-156 -50 -220 -246 -127 -392 25 -38 158 -133 188 -133
18 0 19 -10 21 -167 2 -93 3 -276 3 -409 l0 -241 -89 47 c-87 46 -240 151
-321 219 -26 23 -20 13 20 -28 64 -67 298 -230 358 -250 l37 -13 0 -114 c0
-64 4 -113 9 -110 5 3 12 57 16 120 l7 115 52 11 c38 8 62 20 86 45 30 31 55
43 188 94 125 47 210 193 182 315 -17 79 -34 102 -77 110 -110 18 -196 -4
-261 -67 -49 -46 -62 -78 -61 -144 l1 -58 9 57 c11 77 30 111 83 147 48 33
107 50 175 51 34 0 42 -3 37 -15 -4 -12 0 -14 17 -9 20 4 26 -1 40 -33 36 -87
32 -144 -17 -224 -39 -66 -57 -79 -183 -133 -64 -28 -114 -57 -135 -79 -30
-31 -92 -57 -104 -44 -3 3 15 29 39 59 25 30 50 66 57 79 l13 24 -26 -24 c-14
-13 -45 -48 -69 -77 -23 -29 -44 -51 -47 -49 -2 3 -6 183 -8 400 -3 394 -3
395 17 395 65 0 187 109 220 198 35 93 24 164 -38 241 -66 81 -207 120 -312
86z m188 -31 c50 -20 99 -69 128 -126 45 -88 26 -164 -64 -261 -69 -73 -150
-102 -153 -54 l-2 22 -4 -22 c-2 -13 -11 -23 -20 -23 -49 0 -153 81 -185 143
-32 63 -36 155 -9 209 25 52 50 78 106 107 49 26 148 28 203 5z"/>
<path d="M6242 3458 c-11 -13 -27 -45 -34 -72 -9 -36 -21 -54 -40 -65 -34 -19
-34 -23 -5 -36 12 -6 36 -36 53 -68 17 -32 41 -68 53 -80 22 -22 22 -22 37 -2
22 29 84 152 84 167 0 18 -58 140 -77 161 -22 23 -45 22 -71 -5z"/>
<path d="M3422 2883 c-151 -162 -297 -465 -351 -733 -32 -154 -56 -610 -33
-610 5 0 12 67 15 148 4 82 12 184 17 228 11 80 22 102 106 217 15 20 24 40
20 44 -8 8 -27 -14 -81 -92 -34 -49 -35 -49 -35 -20 1 38 58 252 98 365 17 48
45 111 63 140 104 173 144 231 198 285 34 33 61 63 61 67 0 22 -39 3 -78 -39z"/>
<path d="M9122 2899 c-65 -13 -168 -68 -207 -110 -19 -21 -48 -65 -64 -97 -83
-165 -59 -313 74 -448 68 -70 120 -97 218 -115 55 -10 73 -9 146 10 133 33
211 87 271 187 34 57 35 60 35 169 0 105 -2 114 -33 177 -65 133 -161 206
-299 228 -66 11 -81 11 -141 -1z m204 -26 c138 -46 227 -155 255 -315 36 -199
-98 -372 -315 -409 -135 -22 -234 7 -324 97 -89 90 -117 153 -117 269 0 80 3
97 32 157 67 141 184 217 339 218 50 0 99 -6 130 -17z"/>
<path d="M9057 2609 c-60 -47 -61 -162 -2 -219 27 -26 35 -30 35 -16 0 17 96
126 111 126 5 0 40 -30 78 -66 58 -54 71 -72 74 -102 l4 -37 1 43 c1 23 7 42
13 42 19 0 41 72 36 118 -8 73 -23 68 -19 -6 3 -56 1 -70 -15 -84 -18 -17 -22
-14 -87 49 l-67 66 43 45 43 45 -51 -36 -51 -36 -52 44 c-29 25 -56 45 -60 45
-5 0 -20 -9 -34 -21z m122 -63 c12 -14 6 -24 -41 -74 -30 -31 -57 -64 -61 -72
-5 -12 -10 -10 -27 10 -19 21 -21 34 -18 92 3 53 8 72 27 92 l24 25 41 -29
c23 -15 48 -36 55 -44z"/>
<path d="M2246 2884 c-3 -9 -6 -24 -6 -35 0 -18 -7 -21 -54 -23 -37 -2 -28
-25 11 -28 36 -3 38 -5 41 -40 2 -24 8 -38 17 -38 9 0 15 14 17 38 3 34 6 37
36 40 42 4 44 32 2 32 -23 0 -30 5 -30 19 0 25 -10 51 -20 51 -4 0 -11 -7 -14
-16z"/>
<path d="M6400 2646 c-151 -42 -297 -165 -362 -303 -57 -120 -58 -130 -58
-615 0 -292 3 -448 10 -448 6 0 11 1 11 3 1 1 5 209 8 462 l6 460 33 80 c40
101 105 183 195 245 85 60 161 90 249 97 227 19 434 -122 520 -354 20 -54 22
-83 27 -405 3 -190 9 -349 13 -353 13 -14 20 150 16 425 -4 281 -4 286 -30
352 -39 98 -75 155 -140 220 -63 63 -167 119 -256 137 -69 14 -185 13 -242 -3z"/>
<path d="M6450 2406 c-117 -32 -174 -94 -193 -206 -5 -30 -11 -226 -14 -435
-4 -346 0 -476 14 -462 2 3 5 200 7 439 1 428 2 434 25 491 26 67 71 105 153
133 92 30 197 1 278 -78 60 -57 64 -92 56 -510 -5 -230 -4 -358 2 -358 5 0 12
7 16 15 3 9 8 163 12 343 5 277 4 338 -10 401 -28 133 -84 194 -208 227 -62
16 -78 16 -138 0z"/>
<path d="M4510 2246 c0 -31 -2 -34 -41 -40 -49 -8 -48 -29 2 -36 29 -4 34 -9
37 -35 2 -16 8 -34 12 -39 10 -10 14 -2 24 45 5 22 13 28 47 33 50 8 48 30 -4
34 -28 2 -37 8 -37 22 0 29 -11 50 -26 50 -9 0 -14 -12 -14 -34z"/>
<path d="M6458 2253 c7 -3 16 -2 19 1 4 3 -2 6 -13 5 -11 0 -14 -3 -6 -6z"/>
<path d="M6588 2253 c7 -3 16 -2 19 1 4 3 -2 6 -13 5 -11 0 -14 -3 -6 -6z"/>
<path d="M8791 1264 c0 -11 3 -14 6 -6 3 7 2 16 -1 19 -3 4 -6 -2 -5 -13z"/>
<path d="M8421 1257 c-40 -49 -60 -188 -43 -307 8 -59 9 -53 10 70 0 136 8
182 37 226 17 26 14 32 -4 11z"/>
<path d="M8224 1203 c-9 -58 1 -220 15 -253 8 -19 9 -11 3 35 -4 33 -6 106 -4
163 1 56 0 102 -2 102 -3 0 -8 -21 -12 -47z"/>
<path d="M8807 1195 c3 -27 7 -52 9 -54 8 -9 2 65 -6 84 -6 13 -7 2 -3 -30z"/>
<path d="M7515 621 c-166 -27 -309 -105 -415 -227 -14 -16 5 -1 42 33 45 41
99 77 160 107 137 67 197 81 363 80 127 0 148 -3 225 -28 288 -96 417 -239
460 -510 13 -78 35 -109 24 -33 -26 180 -100 337 -199 419 -44 37 -178 102
-275 133 -71 23 -106 28 -210 31 -69 1 -147 -1 -175 -5z"/>
<path d="M7531 414 c-79 -21 -210 -93 -258 -140 -45 -45 -78 -104 -117 -208
l-25 -66 23 0 c21 0 24 6 28 48 7 76 52 162 119 228 32 32 59 54 59 48 0 -6
30 4 66 23 36 18 85 38 108 45 22 7 43 15 46 20 8 11 187 -10 245 -28 121 -40
188 -90 258 -191 35 -51 50 -85 59 -131 6 -34 15 -62 18 -62 10 0 -6 86 -26
138 -8 23 -19 42 -24 42 -4 0 -19 17 -31 38 -33 51 -35 59 -14 42 18 -14 18
-14 3 8 -39 57 -166 122 -273 140 -114 19 -207 22 -264 6z"/>
<path d="M7059 343 c-13 -16 -12 -17 4 -4 9 7 17 15 17 17 0 8 -8 3 -21 -13z"/>
<path d="M7603 189 c-56 -16 -113 -86 -138 -166 -11 -38 10 -26 24 13 17 47
68 104 108 120 70 30 182 7 241 -49 12 -12 28 -41 34 -64 15 -60 27 -54 15 7
-8 42 -18 58 -58 94 -62 55 -138 70 -226 45z"/>
</g>
</svg>
