<svg width="360" height="800" viewBox="0 0 360 800" fill="none" xmlns="http://www.w3.org/2000/svg">
<g clip-path="url(#clip0_538_409)">
<rect width="360" height="800" fill="#757FB2"/>
<g clip-path="url(#clip1_538_409)">
<path d="M280.074 398.48C280.074 408.156 227.676 416 163.037 416C98.3987 416 46 408.156 46 398.48C46 391.631 72.2654 385.696 110.544 382.818C126.329 381.627 144.164 380.96 163.037 380.96C170.796 380.96 178.377 381.073 185.708 381.288C239.496 382.871 280.074 389.965 280.074 398.48Z" fill="#3F3D56"/>
<path opacity="0.1" d="M147.935 402.06C172.748 402.06 192.863 399.614 192.863 396.596C192.863 393.579 172.748 391.133 147.935 391.133C123.123 391.133 103.008 393.579 103.008 396.596C103.008 399.614 123.123 402.06 147.935 402.06Z" fill="black"/>
<path d="M147.747 400.553C171.204 400.553 190.22 380.31 190.22 355.34C190.22 330.37 171.204 310.128 147.747 310.128C124.289 310.128 105.273 330.37 105.273 355.34C105.273 380.31 124.289 400.553 147.747 400.553Z" fill="#3F3D56"/>
<path d="M161.149 382.091H134.722V406.204H161.149V382.091Z" fill="#E9ECF8"/>
<path d="M195.694 387.931L194.184 396.22L204 397.727L210.418 393.959L210.041 387.931H195.694Z" fill="#575A89"/>
<path d="M146.237 232.325C146.237 232.325 145.482 240.99 143.594 241.367C141.706 241.744 147.747 256.815 147.747 256.815H156.808L163.981 254.931L160.583 246.642C160.583 246.642 156.053 240.614 159.451 235.716C162.848 230.818 146.237 232.325 146.237 232.325Z" fill="#A0616A"/>
<path opacity="0.1" d="M146.237 232.325C146.237 232.325 145.482 240.99 143.594 241.367C141.706 241.744 147.747 256.815 147.747 256.815H156.808L163.981 254.931L160.583 246.642C160.583 246.642 156.053 240.614 159.451 235.716C162.848 230.818 146.237 232.325 146.237 232.325Z" fill="black"/>
<path d="M127.36 298.636C127.36 298.636 117.544 317.474 125.472 321.242C133.4 325.01 135.288 324.633 135.288 325.763C135.288 326.894 133.778 326.517 134.533 328.401C135.288 330.285 133.023 337.82 135.288 342.341C137.553 346.863 136.798 350.253 136.798 350.253C136.798 350.253 136.798 350.63 137.553 352.137C138.308 353.644 138.686 354.775 138.308 355.528C137.931 356.282 135.666 361.18 137.931 362.31C140.196 363.44 151.9 364.194 153.032 362.31C154.165 360.426 151.9 359.296 153.032 358.166C154.165 357.035 154.92 356.659 154.165 355.905C153.41 355.152 152.655 345.732 152.655 345.732C152.655 345.732 154.543 334.806 153.787 333.299C153.032 331.792 151.9 330.285 152.655 329.154C153.41 328.024 154.165 328.401 154.543 326.894C154.92 325.387 155.675 321.996 155.675 321.996L159.828 321.619L169.644 323.503C169.644 323.503 180.593 335.559 192.674 339.327C192.674 339.327 196.072 342.718 197.204 342.718C198.337 342.718 198.337 342.718 197.96 343.472C197.582 344.225 196.449 344.225 197.204 344.979C197.96 345.732 199.092 344.602 198.337 345.732C197.582 346.863 196.827 346.863 197.582 347.616C198.337 348.37 197.204 352.514 197.204 352.891C197.204 353.268 193.807 388.684 194.939 389.438C196.072 390.191 211.928 392.452 213.061 389.438C214.194 386.423 212.306 382.656 212.306 382.656C212.306 382.656 217.969 337.443 216.459 334.429C214.949 331.415 209.663 317.851 181.348 309.186C181.348 309.186 173.419 307.678 173.419 306.548C173.419 305.418 172.664 298.259 171.154 297.882C169.644 297.506 160.961 297.129 160.961 297.129L150.012 300.52L134.91 297.882L127.36 298.636Z" fill="#2F2E41"/>
<path d="M140.573 361.934L138.686 368.715C138.686 368.715 137.176 379.642 139.063 382.279C140.546 384.351 143.193 386.887 148.103 387.332C149.479 387.458 150.857 387.112 152.009 386.35C153.161 385.589 154.018 384.457 154.438 383.144C154.494 382.986 154.529 382.822 154.542 382.656C154.542 381.902 153.41 372.86 153.41 372.86L151.522 363.441L151.144 360.803L140.573 361.934Z" fill="#2F2E41"/>
<path d="M195.694 394.336C195.694 394.336 193.806 392.452 193.429 394.336C193.051 396.22 191.541 404.132 194.184 404.509C196.827 404.885 222.122 408.653 224.765 407.146C227.407 405.639 232.315 403.378 229.295 402.248C226.275 401.118 217.591 397.727 217.591 397.727C217.591 397.727 212.683 391.322 211.928 390.945C211.173 390.568 207.02 391.322 205.133 392.829C203.245 394.336 195.694 394.336 195.694 394.336Z" fill="#2F2E41"/>
<path d="M155.297 240.237C161.761 240.237 167.001 235.007 167.001 228.557C167.001 222.106 161.761 216.877 155.297 216.877C148.834 216.877 143.594 222.106 143.594 228.557C143.594 235.007 148.834 240.237 155.297 240.237Z" fill="#A0616A"/>
<path d="M154.165 254.931L149.634 250.033L144.612 240.237C144.612 240.237 140.951 239.106 140.196 240.99C139.441 242.874 125.849 248.902 125.849 248.902C125.849 248.902 129.247 280.551 127.737 283.565C126.227 286.579 123.584 298.636 125.849 299.766C128.115 300.897 138.686 299.766 142.084 301.273C145.481 302.781 155.297 302.781 157.94 300.897C160.583 299.013 161.338 297.506 163.981 298.636C166.231 299.598 171.49 266.701 173.005 256.897C173.132 256.074 173.026 255.231 172.699 254.465C172.371 253.698 171.835 253.039 171.152 252.561C167.764 250.189 161.663 246.103 160.583 246.642C159.073 247.395 154.165 254.931 154.165 254.931Z" fill="#575A89"/>
<path d="M170.399 253.424C171.286 253.645 172.083 254.131 172.685 254.818C173.286 255.505 173.662 256.359 173.763 257.265L176.817 284.696C176.817 284.696 169.267 300.897 165.491 289.97C161.716 279.044 170.399 253.424 170.399 253.424Z" fill="#575A89"/>
<path d="M169.644 287.333L177.95 285.072C177.95 285.072 179.46 295.622 180.97 295.622C182.481 295.622 175.685 301.65 172.287 300.897C168.889 300.143 163.981 297.506 163.604 295.622C163.226 293.738 167.002 285.826 167.002 285.826L169.644 287.333Z" fill="#575A89"/>
<path d="M146.463 233.595C147.259 231.844 147.12 229.802 147.778 227.994C148.131 227.026 148.702 226.153 149.449 225.442C150.195 224.732 151.096 224.203 152.082 223.897C153.067 223.591 154.11 223.517 155.128 223.68C156.147 223.843 157.114 224.239 157.954 224.837C158.801 225.439 159.649 226.285 160.682 226.17C161.795 226.046 162.787 224.808 163.81 225.262C164.943 225.765 164.637 227.792 165.786 228.261C166.39 228.507 167.105 228.127 167.453 227.576C167.758 226.997 167.925 226.356 167.939 225.702C168.097 224.095 168.241 222.394 167.542 220.937C167.249 220.444 166.993 219.928 166.776 219.396C166.654 218.899 166.605 218.387 166.631 217.876C166.625 215.988 166.486 214.017 165.534 212.385C164.477 210.574 162.523 209.416 160.485 208.911C158.447 208.405 156.311 208.483 154.219 208.659C150.759 208.952 147.151 209.578 144.426 211.724C144.055 211.995 143.736 212.329 143.484 212.711C143.245 213.166 143.076 213.654 142.983 214.159C142.394 216.554 141.51 218.867 140.352 221.045C139.796 221.969 139.34 222.95 138.995 223.971C138.706 225.009 138.725 226.191 139.33 227.083C139.823 227.81 140.611 228.197 141.229 228.79C141.842 229.379 142.129 230.51 142.808 230.955C143.401 231.344 144.111 231.07 144.716 231.482C145.492 232.011 145.548 233.171 146.463 233.595Z" fill="#2F2E41"/>
<path d="M156.053 260.582L157.185 258.322C157.185 258.322 173.797 263.22 177.195 267.741C177.195 267.741 185.501 262.466 190.031 263.22L194.562 263.973L180.593 276.407L162.848 274.9L156.053 260.582Z" fill="#F2F2F2"/>
<path d="M155.297 258.322L139.818 279.798L162.093 290.724C162.093 290.724 164.176 291.854 165.777 290.724L180.593 283.942L194.562 263.973L180.593 271.132C180.593 271.132 179.082 268.118 176.062 269.625L155.297 258.322Z" fill="#E9ECF8"/>
<path d="M179.083 296.376L182.103 288.463C182.103 288.463 188.899 279.798 185.123 275.653C181.348 271.509 177.195 287.71 177.195 287.71L179.083 296.376Z" fill="#A0616A"/>
<path d="M144.235 295.113L150.825 289.781C150.825 289.781 161.06 285.687 159.878 280.212C158.696 274.736 146.959 286.672 146.959 286.672L144.235 295.113Z" fill="#A0616A"/>
<path opacity="0.1" d="M127.926 257.003H127.548C127.548 257.003 121.697 250.033 120.564 259.452C119.431 268.871 115.656 300.143 125.472 301.273C135.288 302.404 142.272 296.564 142.272 296.564C142.272 296.564 149.446 285.637 146.803 285.637C145.524 285.637 142.047 285.064 138.875 285.261C135.491 285.47 132.45 286.421 132.645 285.449C133.023 283.565 138.497 259.64 127.926 257.003Z" fill="black"/>
<path d="M127.36 249.656L125.849 248.902C125.849 248.902 119.809 250.033 118.676 259.452C117.544 268.871 113.768 300.143 123.584 301.273C133.4 302.404 146.614 299.766 146.614 299.766C146.614 299.766 149.257 285.449 146.614 285.449C143.971 285.449 130.38 287.333 130.757 285.449C131.135 283.565 137.931 252.293 127.36 249.656Z" fill="#575A89"/>
<path d="M173.608 292.043L177.772 285.675L180.404 296.187L173.608 299.201V292.043Z" fill="#575A89"/>
<path d="M88.0857 201.241C93.7154 201.241 98.2792 196.687 98.2792 191.068C98.2792 185.45 93.7154 180.896 88.0857 180.896C82.4559 180.896 77.8921 185.45 77.8921 191.068C77.8921 196.687 82.4559 201.241 88.0857 201.241Z" fill="#F2F2F2"/>
<path d="M100.167 266.799H76.0044V290.912H100.167V266.799Z" fill="#F2F2F2"/>
<path d="M186.445 159L192.56 169.571L198.676 180.142H186.445H174.213L180.329 169.571L186.445 159Z" fill="#F2F2F2"/>
<path d="M293 222.384C292.854 226.894 291.753 230.509 289.698 233.228C287.643 235.948 285.202 237.309 282.374 237.309C280.07 237.309 278.051 235.978 276.317 233.316C274.582 230.654 273.715 226.559 273.715 221.031C273.715 219.809 273.744 218.645 273.802 217.539C273.861 216.434 273.933 215.387 274.021 214.397L275.552 200.039H265.45C263.701 218.194 262.265 228.995 261.143 232.443C260.02 235.89 258.118 237.614 255.436 237.614C254.225 237.585 253.07 237.102 252.2 236.262C251.695 235.815 251.296 235.263 251.031 234.644C250.767 234.025 250.643 233.355 250.669 232.683C250.669 231.345 251.726 229.476 253.84 227.075C255.953 224.675 257.126 222.485 257.36 220.507L259.984 200.039H255.742C254.546 200.046 253.369 200.338 252.309 200.89C251.333 201.337 250.484 202.02 249.838 202.876L247.958 205.669H246.427C247.855 201.247 249.612 197.923 251.697 195.697C253.781 193.471 256.179 192.358 258.89 192.358H292.3V200.039H281.018C280.668 203.531 280.398 207.022 280.209 210.513C280.019 214.004 279.924 217.51 279.925 221.031C279.925 223.417 280.479 225.351 281.587 226.835C282.694 228.319 284.079 229.061 285.741 229.061C286.761 229.061 287.832 228.646 288.955 227.817C289.488 227.444 289.934 226.96 290.262 226.399C290.591 225.838 290.794 225.212 290.857 224.566C290.945 223.926 291.01 223.424 291.054 223.06C291.098 222.697 291.12 222.471 291.12 222.384L293 222.384Z" fill="#E9ECF8"/>
<path opacity="0.1" d="M293 222.384C292.854 226.894 291.753 230.509 289.698 233.228C287.643 235.948 285.202 237.309 282.374 237.309C280.07 237.309 278.051 235.978 276.317 233.316C274.582 230.654 273.715 226.559 273.715 221.031C273.715 219.809 273.744 218.645 273.802 217.539C273.861 216.434 273.933 215.387 274.021 214.397L275.552 200.039H265.45C263.701 218.194 262.265 228.995 261.143 232.443C260.02 235.89 258.118 237.614 255.436 237.614C254.225 237.585 253.07 237.102 252.2 236.262C251.695 235.815 251.296 235.263 251.031 234.644C250.767 234.025 250.643 233.355 250.669 232.683C250.669 231.345 251.726 229.476 253.84 227.075C255.953 224.675 257.126 222.485 257.36 220.507L259.984 200.039H255.742C254.546 200.046 253.369 200.338 252.309 200.89C251.333 201.337 250.484 202.02 249.838 202.876L247.958 205.669H246.427C247.855 201.247 249.612 197.923 251.697 195.697C253.781 193.471 256.179 192.358 258.89 192.358H292.3V200.039H281.018C280.668 203.531 280.398 207.022 280.209 210.513C280.019 214.004 279.924 217.51 279.925 221.031C279.925 223.417 280.479 225.351 281.587 226.835C282.694 228.319 284.079 229.061 285.741 229.061C286.761 229.061 287.832 228.646 288.955 227.817C289.488 227.444 289.934 226.96 290.262 226.399C290.591 225.838 290.794 225.212 290.857 224.566C290.945 223.926 291.01 223.424 291.054 223.06C291.098 222.697 291.12 222.471 291.12 222.384L293 222.384Z" fill="black"/>
<path d="M293 221.02C292.854 225.53 291.753 229.145 289.698 231.865C287.643 234.585 285.202 235.945 282.374 235.945C280.07 235.945 278.051 234.614 276.317 231.952C274.582 229.29 273.715 225.195 273.715 219.667C273.715 218.445 273.744 217.281 273.802 216.176C273.861 215.071 273.933 214.023 274.021 213.034L275.552 198.676H265.45C263.701 216.83 262.265 227.632 261.143 231.079C260.02 234.527 258.118 236.251 255.436 236.251C254.225 236.221 253.07 235.738 252.2 234.898C251.695 234.452 251.296 233.899 251.031 233.28C250.767 232.662 250.643 231.992 250.669 231.319C250.669 229.982 251.726 228.112 253.84 225.711C255.953 223.311 257.126 221.122 257.36 219.144L259.984 198.676H255.742C254.546 198.683 253.369 198.975 252.309 199.527C251.333 199.974 250.484 200.656 249.838 201.512L247.958 204.305H246.427C247.855 199.883 249.612 196.559 251.697 194.333C253.781 192.108 256.179 190.995 258.89 190.995H292.3V198.676H281.018C280.668 202.167 280.398 205.658 280.209 209.15C280.019 212.641 279.924 216.147 279.925 219.667C279.925 222.053 280.479 223.988 281.587 225.472C282.694 226.955 284.079 227.697 285.741 227.697C286.761 227.697 287.832 227.283 288.955 226.453C289.488 226.08 289.934 225.596 290.262 225.035C290.591 224.474 290.794 223.849 290.857 223.202C290.945 222.562 291.01 222.061 291.054 221.696C291.098 221.333 291.12 221.108 291.12 221.02H293Z" fill="#E9ECF8"/>
</g>
<path d="M43.0234 475.598C43.0234 476.371 42.9219 477.117 42.7188 477.836C42.5234 478.547 42.2422 479.215 41.875 479.84C41.5078 480.457 41.0703 481.023 40.5625 481.539C40.0547 482.047 39.4883 482.484 38.8633 482.852C38.2383 483.219 37.5664 483.504 36.8477 483.707C36.1367 483.902 35.3945 484 34.6211 484H29.5586V467.195H34.6211C35.3945 467.195 36.1367 467.297 36.8477 467.5C37.5664 467.695 38.2383 467.977 38.8633 468.344C39.4883 468.711 40.0547 469.152 40.5625 469.668C41.0703 470.176 41.5078 470.742 41.875 471.367C42.2422 471.984 42.5234 472.652 42.7188 473.371C42.9219 474.082 43.0234 474.824 43.0234 475.598ZM39.6602 475.598C39.6602 474.902 39.5273 474.25 39.2617 473.641C39.0039 473.031 38.6445 472.5 38.1836 472.047C37.7305 471.586 37.1953 471.223 36.5781 470.957C35.9688 470.691 35.3164 470.559 34.6211 470.559H32.9453V480.637H34.6211C35.3164 480.637 35.9688 480.508 36.5781 480.25C37.1953 479.984 37.7305 479.625 38.1836 479.172C38.6445 478.711 39.0039 478.176 39.2617 477.566C39.5273 476.949 39.6602 476.293 39.6602 475.598ZM49.9141 480.93C50.0391 480.969 50.1641 480.996 50.2891 481.012C50.4141 481.02 50.5391 481.023 50.6641 481.023C50.9766 481.023 51.2773 480.98 51.5664 480.895C51.8555 480.809 52.125 480.688 52.375 480.531C52.6328 480.367 52.8594 480.172 53.0547 479.945C53.2578 479.711 53.4219 479.453 53.5469 479.172L55.8906 481.527C55.5938 481.949 55.25 482.328 54.8594 482.664C54.4766 483 54.0586 483.285 53.6055 483.52C53.1602 483.754 52.6875 483.93 52.1875 484.047C51.6953 484.172 51.1875 484.234 50.6641 484.234C49.7812 484.234 48.9492 484.07 48.168 483.742C47.3945 483.414 46.7148 482.957 46.1289 482.371C45.5508 481.785 45.0938 481.09 44.7578 480.285C44.4219 479.473 44.2539 478.582 44.2539 477.613C44.2539 476.621 44.4219 475.715 44.7578 474.895C45.0938 474.074 45.5508 473.375 46.1289 472.797C46.7148 472.219 47.3945 471.77 48.168 471.449C48.9492 471.129 49.7812 470.969 50.6641 470.969C51.1875 470.969 51.6992 471.031 52.1992 471.156C52.6992 471.281 53.1719 471.461 53.6172 471.695C54.0703 471.93 54.4922 472.219 54.8828 472.562C55.2734 472.898 55.6172 473.277 55.9141 473.699L49.9141 480.93ZM51.5547 474.332C51.4062 474.277 51.2578 474.242 51.1094 474.227C50.9688 474.211 50.8203 474.203 50.6641 474.203C50.2266 474.203 49.8125 474.285 49.4219 474.449C49.0391 474.605 48.7031 474.832 48.4141 475.129C48.1328 475.426 47.9102 475.785 47.7461 476.207C47.582 476.621 47.5 477.09 47.5 477.613C47.5 477.73 47.5039 477.863 47.5117 478.012C47.5273 478.16 47.5469 478.312 47.5703 478.469C47.6016 478.617 47.6367 478.762 47.6758 478.902C47.7148 479.043 47.7656 479.168 47.8281 479.277L51.5547 474.332ZM64.4219 484H57.1094V480.812H64.4219C64.6406 480.812 64.8281 480.734 64.9844 480.578C65.1406 480.422 65.2188 480.234 65.2188 480.016C65.2188 479.789 65.1406 479.641 64.9844 479.57C64.8281 479.5 64.6406 479.465 64.4219 479.465H61.0938C60.5391 479.465 60.0195 479.359 59.5352 479.148C59.0508 478.938 58.6289 478.652 58.2695 478.293C57.9102 477.926 57.625 477.5 57.4141 477.016C57.2109 476.531 57.1094 476.012 57.1094 475.457C57.1094 474.902 57.2109 474.383 57.4141 473.898C57.625 473.414 57.9102 472.992 58.2695 472.633C58.6289 472.273 59.0508 471.992 59.5352 471.789C60.0195 471.578 60.5391 471.473 61.0938 471.473H67.5742V474.66H61.0938C60.875 474.66 60.6875 474.738 60.5312 474.895C60.375 475.051 60.2969 475.238 60.2969 475.457C60.2969 475.684 60.375 475.879 60.5312 476.043C60.6875 476.199 60.875 476.277 61.0938 476.277H64.4219C64.9688 476.277 65.4844 476.371 65.9688 476.559C66.4531 476.738 66.875 476.992 67.2344 477.32C67.5938 477.648 67.8789 478.043 68.0898 478.504C68.3008 478.965 68.4062 479.469 68.4062 480.016C68.4062 480.57 68.3008 481.09 68.0898 481.574C67.8789 482.051 67.5938 482.473 67.2344 482.84C66.875 483.199 66.4531 483.484 65.9688 483.695C65.4844 483.898 64.9688 484 64.4219 484ZM82.2695 484H81.4961L80.2539 482.277C79.9492 482.551 79.625 482.809 79.2812 483.051C78.9453 483.285 78.5898 483.492 78.2148 483.672C77.8398 483.844 77.4531 483.98 77.0547 484.082C76.6641 484.184 76.2656 484.234 75.8594 484.234C74.9766 484.234 74.1445 484.086 73.3633 483.789C72.5898 483.492 71.9102 483.062 71.3242 482.5C70.7461 481.93 70.2891 481.234 69.9531 480.414C69.6172 479.594 69.4492 478.66 69.4492 477.613C69.4492 476.637 69.6172 475.742 69.9531 474.93C70.2891 474.109 70.7461 473.406 71.3242 472.82C71.9102 472.234 72.5898 471.781 73.3633 471.461C74.1445 471.133 74.9766 470.969 75.8594 470.969C76.2656 470.969 76.668 471.02 77.0664 471.121C77.4648 471.223 77.8516 471.363 78.2266 471.543C78.6016 471.723 78.957 471.934 79.293 472.176C79.6367 472.418 79.957 472.68 80.2539 472.961L81.4961 471.473H82.2695V484ZM79.0469 477.613C79.0469 477.176 78.9609 476.754 78.7891 476.348C78.625 475.934 78.3984 475.57 78.1094 475.258C77.8203 474.938 77.4805 474.684 77.0898 474.496C76.707 474.301 76.2969 474.203 75.8594 474.203C75.4219 474.203 75.0078 474.277 74.6172 474.426C74.2344 474.574 73.8984 474.793 73.6094 475.082C73.3281 475.371 73.1055 475.73 72.9414 476.16C72.7773 476.582 72.6953 477.066 72.6953 477.613C72.6953 478.16 72.7773 478.648 72.9414 479.078C73.1055 479.5 73.3281 479.855 73.6094 480.145C73.8984 480.434 74.2344 480.652 74.6172 480.801C75.0078 480.949 75.4219 481.023 75.8594 481.023C76.2969 481.023 76.707 480.93 77.0898 480.742C77.4805 480.547 77.8203 480.293 78.1094 479.98C78.3984 479.66 78.625 479.297 78.7891 478.891C78.9609 478.477 79.0469 478.051 79.0469 477.613ZM88.7852 484H85.5859V474.637H84.0273V471.449H85.5859V470.852C85.5859 470.078 85.7305 469.352 86.0195 468.672C86.3164 467.992 86.7188 467.402 87.2266 466.902C87.7422 466.395 88.3398 465.996 89.0195 465.707C89.6992 465.41 90.4258 465.262 91.1992 465.262H93.6016V468.449H91.1992C90.8555 468.449 90.5352 468.512 90.2383 468.637C89.9492 468.754 89.6953 468.922 89.4766 469.141C89.2656 469.352 89.0977 469.605 88.9727 469.902C88.8477 470.191 88.7852 470.508 88.7852 470.852V471.449H92.7109V474.637H88.7852V484ZM98.4766 468.039C98.4766 468.336 98.418 468.613 98.3008 468.871C98.1914 469.129 98.0391 469.355 97.8438 469.551C97.6484 469.738 97.418 469.891 97.1523 470.008C96.8945 470.117 96.6172 470.172 96.3203 470.172C96.0234 470.172 95.7422 470.117 95.4766 470.008C95.2188 469.891 94.9922 469.738 94.7969 469.551C94.6094 469.355 94.457 469.129 94.3398 468.871C94.2305 468.613 94.1758 468.336 94.1758 468.039C94.1758 467.75 94.2305 467.477 94.3398 467.219C94.457 466.953 94.6094 466.727 94.7969 466.539C94.9922 466.344 95.2188 466.191 95.4766 466.082C95.7422 465.965 96.0234 465.906 96.3203 465.906C96.6172 465.906 96.8945 465.965 97.1523 466.082C97.418 466.191 97.6484 466.344 97.8438 466.539C98.0391 466.727 98.1914 466.953 98.3008 467.219C98.418 467.477 98.4766 467.75 98.4766 468.039ZM97.9258 484H94.7031V471.449H97.9258V484ZM112.504 477.613C112.504 478.551 112.336 479.426 112 480.238C111.664 481.043 111.207 481.742 110.629 482.336C110.051 482.922 109.371 483.387 108.59 483.73C107.816 484.066 106.984 484.234 106.094 484.234C105.211 484.234 104.379 484.066 103.598 483.73C102.824 483.387 102.145 482.922 101.559 482.336C100.98 481.742 100.523 481.043 100.188 480.238C99.8516 479.426 99.6836 478.551 99.6836 477.613C99.6836 476.66 99.8516 475.777 100.188 474.965C100.523 474.152 100.98 473.453 101.559 472.867C102.145 472.273 102.824 471.809 103.598 471.473C104.379 471.137 105.211 470.969 106.094 470.969C106.984 470.969 107.816 471.129 108.59 471.449C109.371 471.762 110.051 472.211 110.629 472.797C111.207 473.375 111.664 474.074 112 474.895C112.336 475.707 112.504 476.613 112.504 477.613ZM109.281 477.613C109.281 477.098 109.195 476.633 109.023 476.219C108.859 475.797 108.633 475.438 108.344 475.141C108.055 474.836 107.715 474.605 107.324 474.449C106.941 474.285 106.531 474.203 106.094 474.203C105.656 474.203 105.242 474.285 104.852 474.449C104.469 474.605 104.133 474.836 103.844 475.141C103.562 475.438 103.34 475.797 103.176 476.219C103.012 476.633 102.93 477.098 102.93 477.613C102.93 478.098 103.012 478.547 103.176 478.961C103.34 479.375 103.562 479.734 103.844 480.039C104.133 480.344 104.469 480.586 104.852 480.766C105.242 480.938 105.656 481.023 106.094 481.023C106.531 481.023 106.941 480.941 107.324 480.777C107.715 480.613 108.055 480.383 108.344 480.086C108.633 479.789 108.859 479.43 109.023 479.008C109.195 478.586 109.281 478.121 109.281 477.613ZM121.164 484H113.852V480.812H121.164C121.383 480.812 121.57 480.734 121.727 480.578C121.883 480.422 121.961 480.234 121.961 480.016C121.961 479.789 121.883 479.641 121.727 479.57C121.57 479.5 121.383 479.465 121.164 479.465H117.836C117.281 479.465 116.762 479.359 116.277 479.148C115.793 478.938 115.371 478.652 115.012 478.293C114.652 477.926 114.367 477.5 114.156 477.016C113.953 476.531 113.852 476.012 113.852 475.457C113.852 474.902 113.953 474.383 114.156 473.898C114.367 473.414 114.652 472.992 115.012 472.633C115.371 472.273 115.793 471.992 116.277 471.789C116.762 471.578 117.281 471.473 117.836 471.473H124.316V474.66H117.836C117.617 474.66 117.43 474.738 117.273 474.895C117.117 475.051 117.039 475.238 117.039 475.457C117.039 475.684 117.117 475.879 117.273 476.043C117.43 476.199 117.617 476.277 117.836 476.277H121.164C121.711 476.277 122.227 476.371 122.711 476.559C123.195 476.738 123.617 476.992 123.977 477.32C124.336 477.648 124.621 478.043 124.832 478.504C125.043 478.965 125.148 479.469 125.148 480.016C125.148 480.57 125.043 481.09 124.832 481.574C124.621 482.051 124.336 482.473 123.977 482.84C123.617 483.199 123.195 483.484 122.711 483.695C122.227 483.898 121.711 484 121.164 484ZM147.344 482.277C146.562 482.949 145.688 483.465 144.719 483.824C143.75 484.184 142.746 484.363 141.707 484.363C140.91 484.363 140.141 484.258 139.398 484.047C138.664 483.844 137.973 483.555 137.324 483.18C136.684 482.797 136.098 482.34 135.566 481.809C135.035 481.277 134.578 480.691 134.195 480.051C133.82 479.402 133.527 478.711 133.316 477.977C133.113 477.234 133.012 476.465 133.012 475.668C133.012 474.871 133.113 474.102 133.316 473.359C133.527 472.617 133.82 471.926 134.195 471.285C134.578 470.637 135.035 470.047 135.566 469.516C136.098 468.984 136.684 468.531 137.324 468.156C137.973 467.773 138.664 467.48 139.398 467.277C140.141 467.066 140.91 466.961 141.707 466.961C142.746 466.961 143.75 467.141 144.719 467.5C145.688 467.852 146.562 468.367 147.344 469.047L145.562 471.977C145.07 471.445 144.488 471.039 143.816 470.758C143.145 470.469 142.441 470.324 141.707 470.324C140.965 470.324 140.27 470.465 139.621 470.746C138.973 471.027 138.406 471.41 137.922 471.895C137.438 472.371 137.055 472.938 136.773 473.594C136.492 474.242 136.352 474.934 136.352 475.668C136.352 476.402 136.492 477.094 136.773 477.742C137.055 478.383 137.438 478.945 137.922 479.43C138.406 479.914 138.973 480.297 139.621 480.578C140.27 480.859 140.965 481 141.707 481C142.441 481 143.145 480.859 143.816 480.578C144.488 480.289 145.07 479.879 145.562 479.348L147.344 482.277ZM152.16 484H148.961V466.457H152.16V472C152.543 471.711 152.938 471.508 153.344 471.391C153.75 471.266 154.164 471.203 154.586 471.203C155.359 471.203 156.086 471.352 156.766 471.648C157.445 471.938 158.035 472.34 158.535 472.855C159.043 473.363 159.441 473.961 159.73 474.648C160.027 475.328 160.176 476.055 160.176 476.828V484H156.953V476.828H156.977C156.977 476.5 156.914 476.191 156.789 475.902C156.664 475.605 156.492 475.348 156.273 475.129C156.055 474.91 155.801 474.738 155.512 474.613C155.223 474.488 154.914 474.426 154.586 474.426C154.25 474.426 153.934 474.488 153.637 474.613C153.34 474.738 153.082 474.91 152.863 475.129C152.645 475.348 152.473 475.605 152.348 475.902C152.223 476.191 152.16 476.5 152.16 476.828V484ZM167.453 480.93C167.578 480.969 167.703 480.996 167.828 481.012C167.953 481.02 168.078 481.023 168.203 481.023C168.516 481.023 168.816 480.98 169.105 480.895C169.395 480.809 169.664 480.688 169.914 480.531C170.172 480.367 170.398 480.172 170.594 479.945C170.797 479.711 170.961 479.453 171.086 479.172L173.43 481.527C173.133 481.949 172.789 482.328 172.398 482.664C172.016 483 171.598 483.285 171.145 483.52C170.699 483.754 170.227 483.93 169.727 484.047C169.234 484.172 168.727 484.234 168.203 484.234C167.32 484.234 166.488 484.07 165.707 483.742C164.934 483.414 164.254 482.957 163.668 482.371C163.09 481.785 162.633 481.09 162.297 480.285C161.961 479.473 161.793 478.582 161.793 477.613C161.793 476.621 161.961 475.715 162.297 474.895C162.633 474.074 163.09 473.375 163.668 472.797C164.254 472.219 164.934 471.77 165.707 471.449C166.488 471.129 167.32 470.969 168.203 470.969C168.727 470.969 169.238 471.031 169.738 471.156C170.238 471.281 170.711 471.461 171.156 471.695C171.609 471.93 172.031 472.219 172.422 472.562C172.812 472.898 173.156 473.277 173.453 473.699L167.453 480.93ZM169.094 474.332C168.945 474.277 168.797 474.242 168.648 474.227C168.508 474.211 168.359 474.203 168.203 474.203C167.766 474.203 167.352 474.285 166.961 474.449C166.578 474.605 166.242 474.832 165.953 475.129C165.672 475.426 165.449 475.785 165.285 476.207C165.121 476.621 165.039 477.09 165.039 477.613C165.039 477.73 165.043 477.863 165.051 478.012C165.066 478.16 165.086 478.312 165.109 478.469C165.141 478.617 165.176 478.762 165.215 478.902C165.254 479.043 165.305 479.168 165.367 479.277L169.094 474.332ZM178.844 468.039C178.844 468.336 178.785 468.613 178.668 468.871C178.559 469.129 178.406 469.355 178.211 469.551C178.016 469.738 177.785 469.891 177.52 470.008C177.262 470.117 176.984 470.172 176.688 470.172C176.391 470.172 176.109 470.117 175.844 470.008C175.586 469.891 175.359 469.738 175.164 469.551C174.977 469.355 174.824 469.129 174.707 468.871C174.598 468.613 174.543 468.336 174.543 468.039C174.543 467.75 174.598 467.477 174.707 467.219C174.824 466.953 174.977 466.727 175.164 466.539C175.359 466.344 175.586 466.191 175.844 466.082C176.109 465.965 176.391 465.906 176.688 465.906C176.984 465.906 177.262 465.965 177.52 466.082C177.785 466.191 178.016 466.344 178.211 466.539C178.406 466.727 178.559 466.953 178.668 467.219C178.785 467.477 178.844 467.75 178.844 468.039ZM178.293 484H175.07V471.449H178.293V484ZM192.871 477.613C192.871 478.551 192.703 479.426 192.367 480.238C192.031 481.043 191.574 481.742 190.996 482.336C190.418 482.922 189.738 483.387 188.957 483.73C188.184 484.066 187.352 484.234 186.461 484.234C185.578 484.234 184.746 484.066 183.965 483.73C183.191 483.387 182.512 482.922 181.926 482.336C181.348 481.742 180.891 481.043 180.555 480.238C180.219 479.426 180.051 478.551 180.051 477.613C180.051 476.66 180.219 475.777 180.555 474.965C180.891 474.152 181.348 473.453 181.926 472.867C182.512 472.273 183.191 471.809 183.965 471.473C184.746 471.137 185.578 470.969 186.461 470.969C187.352 470.969 188.184 471.129 188.957 471.449C189.738 471.762 190.418 472.211 190.996 472.797C191.574 473.375 192.031 474.074 192.367 474.895C192.703 475.707 192.871 476.613 192.871 477.613ZM189.648 477.613C189.648 477.098 189.562 476.633 189.391 476.219C189.227 475.797 189 475.438 188.711 475.141C188.422 474.836 188.082 474.605 187.691 474.449C187.309 474.285 186.898 474.203 186.461 474.203C186.023 474.203 185.609 474.285 185.219 474.449C184.836 474.605 184.5 474.836 184.211 475.141C183.93 475.438 183.707 475.797 183.543 476.219C183.379 476.633 183.297 477.098 183.297 477.613C183.297 478.098 183.379 478.547 183.543 478.961C183.707 479.375 183.93 479.734 184.211 480.039C184.5 480.344 184.836 480.586 185.219 480.766C185.609 480.938 186.023 481.023 186.461 481.023C186.898 481.023 187.309 480.941 187.691 480.777C188.082 480.613 188.422 480.383 188.711 480.086C189 479.789 189.227 479.43 189.391 479.008C189.562 478.586 189.648 478.121 189.648 477.613ZM201.531 484H194.219V480.812H201.531C201.75 480.812 201.938 480.734 202.094 480.578C202.25 480.422 202.328 480.234 202.328 480.016C202.328 479.789 202.25 479.641 202.094 479.57C201.938 479.5 201.75 479.465 201.531 479.465H198.203C197.648 479.465 197.129 479.359 196.645 479.148C196.16 478.938 195.738 478.652 195.379 478.293C195.02 477.926 194.734 477.5 194.523 477.016C194.32 476.531 194.219 476.012 194.219 475.457C194.219 474.902 194.32 474.383 194.523 473.898C194.734 473.414 195.02 472.992 195.379 472.633C195.738 472.273 196.16 471.992 196.645 471.789C197.129 471.578 197.648 471.473 198.203 471.473H204.684V474.66H198.203C197.984 474.66 197.797 474.738 197.641 474.895C197.484 475.051 197.406 475.238 197.406 475.457C197.406 475.684 197.484 475.879 197.641 476.043C197.797 476.199 197.984 476.277 198.203 476.277H201.531C202.078 476.277 202.594 476.371 203.078 476.559C203.562 476.738 203.984 476.992 204.344 477.32C204.703 477.648 204.988 478.043 205.199 478.504C205.41 478.965 205.516 479.469 205.516 480.016C205.516 480.57 205.41 481.09 205.199 481.574C204.988 482.051 204.703 482.473 204.344 482.84C203.984 483.199 203.562 483.484 203.078 483.695C202.594 483.898 202.078 484 201.531 484ZM226.082 484H225.309L224.066 482.277C223.762 482.551 223.438 482.809 223.094 483.051C222.758 483.285 222.402 483.492 222.027 483.672C221.652 483.844 221.266 483.98 220.867 484.082C220.477 484.184 220.078 484.234 219.672 484.234C218.789 484.234 217.957 484.07 217.176 483.742C216.402 483.406 215.723 482.945 215.137 482.359C214.559 481.766 214.102 481.066 213.766 480.262C213.43 479.449 213.262 478.566 213.262 477.613C213.262 476.668 213.43 475.789 213.766 474.977C214.102 474.164 214.559 473.461 215.137 472.867C215.723 472.273 216.402 471.809 217.176 471.473C217.957 471.137 218.789 470.969 219.672 470.969C219.953 470.969 220.242 470.992 220.539 471.039C220.844 471.086 221.137 471.164 221.418 471.273C221.707 471.375 221.977 471.512 222.227 471.684C222.477 471.855 222.688 472.066 222.859 472.316V466.457H226.082V484ZM222.859 477.613C222.859 477.176 222.773 476.754 222.602 476.348C222.438 475.934 222.211 475.57 221.922 475.258C221.633 474.938 221.293 474.684 220.902 474.496C220.52 474.301 220.109 474.203 219.672 474.203C219.234 474.203 218.82 474.281 218.43 474.438C218.047 474.594 217.711 474.82 217.422 475.117C217.141 475.406 216.918 475.762 216.754 476.184C216.59 476.605 216.508 477.082 216.508 477.613C216.508 478.074 216.59 478.512 216.754 478.926C216.918 479.34 217.141 479.703 217.422 480.016C217.711 480.328 218.047 480.574 218.43 480.754C218.82 480.934 219.234 481.023 219.672 481.023C220.109 481.023 220.52 480.93 220.902 480.742C221.293 480.547 221.633 480.293 221.922 479.98C222.211 479.66 222.438 479.297 222.602 478.891C222.773 478.477 222.859 478.051 222.859 477.613ZM233.523 480.93C233.648 480.969 233.773 480.996 233.898 481.012C234.023 481.02 234.148 481.023 234.273 481.023C234.586 481.023 234.887 480.98 235.176 480.895C235.465 480.809 235.734 480.688 235.984 480.531C236.242 480.367 236.469 480.172 236.664 479.945C236.867 479.711 237.031 479.453 237.156 479.172L239.5 481.527C239.203 481.949 238.859 482.328 238.469 482.664C238.086 483 237.668 483.285 237.215 483.52C236.77 483.754 236.297 483.93 235.797 484.047C235.305 484.172 234.797 484.234 234.273 484.234C233.391 484.234 232.559 484.07 231.777 483.742C231.004 483.414 230.324 482.957 229.738 482.371C229.16 481.785 228.703 481.09 228.367 480.285C228.031 479.473 227.863 478.582 227.863 477.613C227.863 476.621 228.031 475.715 228.367 474.895C228.703 474.074 229.16 473.375 229.738 472.797C230.324 472.219 231.004 471.77 231.777 471.449C232.559 471.129 233.391 470.969 234.273 470.969C234.797 470.969 235.309 471.031 235.809 471.156C236.309 471.281 236.781 471.461 237.227 471.695C237.68 471.93 238.102 472.219 238.492 472.562C238.883 472.898 239.227 473.277 239.523 473.699L233.523 480.93ZM235.164 474.332C235.016 474.277 234.867 474.242 234.719 474.227C234.578 474.211 234.43 474.203 234.273 474.203C233.836 474.203 233.422 474.285 233.031 474.449C232.648 474.605 232.312 474.832 232.023 475.129C231.742 475.426 231.52 475.785 231.355 476.207C231.191 476.621 231.109 477.09 231.109 477.613C231.109 477.73 231.113 477.863 231.121 478.012C231.137 478.16 231.156 478.312 231.18 478.469C231.211 478.617 231.246 478.762 231.285 478.902C231.324 479.043 231.375 479.168 231.438 479.277L235.164 474.332ZM43.0234 505.598C43.0234 506.371 42.9219 507.117 42.7188 507.836C42.5234 508.547 42.2422 509.215 41.875 509.84C41.5078 510.457 41.0703 511.023 40.5625 511.539C40.0547 512.047 39.4883 512.484 38.8633 512.852C38.2383 513.219 37.5664 513.504 36.8477 513.707C36.1367 513.902 35.3945 514 34.6211 514H29.5586V497.195H34.6211C35.3945 497.195 36.1367 497.297 36.8477 497.5C37.5664 497.695 38.2383 497.977 38.8633 498.344C39.4883 498.711 40.0547 499.152 40.5625 499.668C41.0703 500.176 41.5078 500.742 41.875 501.367C42.2422 501.984 42.5234 502.652 42.7188 503.371C42.9219 504.082 43.0234 504.824 43.0234 505.598ZM39.6602 505.598C39.6602 504.902 39.5273 504.25 39.2617 503.641C39.0039 503.031 38.6445 502.5 38.1836 502.047C37.7305 501.586 37.1953 501.223 36.5781 500.957C35.9688 500.691 35.3164 500.559 34.6211 500.559H32.9453V510.637H34.6211C35.3164 510.637 35.9688 510.508 36.5781 510.25C37.1953 509.984 37.7305 509.625 38.1836 509.172C38.6445 508.711 39.0039 508.176 39.2617 507.566C39.5273 506.949 39.6602 506.293 39.6602 505.598ZM48.6953 498.039C48.6953 498.336 48.6367 498.613 48.5195 498.871C48.4102 499.129 48.2578 499.355 48.0625 499.551C47.8672 499.738 47.6367 499.891 47.3711 500.008C47.1133 500.117 46.8359 500.172 46.5391 500.172C46.2422 500.172 45.9609 500.117 45.6953 500.008C45.4375 499.891 45.2109 499.738 45.0156 499.551C44.8281 499.355 44.6758 499.129 44.5586 498.871C44.4492 498.613 44.3945 498.336 44.3945 498.039C44.3945 497.75 44.4492 497.477 44.5586 497.219C44.6758 496.953 44.8281 496.727 45.0156 496.539C45.2109 496.344 45.4375 496.191 45.6953 496.082C45.9609 495.965 46.2422 495.906 46.5391 495.906C46.8359 495.906 47.1133 495.965 47.3711 496.082C47.6367 496.191 47.8672 496.344 48.0625 496.539C48.2578 496.727 48.4102 496.953 48.5195 497.219C48.6367 497.477 48.6953 497.75 48.6953 498.039ZM48.1445 514H44.9219V501.449H48.1445V514ZM54.1562 514L49.375 501.449H53.0195L55.7617 509.277L58.4922 501.449H62.1484L57.3672 514H54.1562ZM67.9844 510.93C68.1094 510.969 68.2344 510.996 68.3594 511.012C68.4844 511.02 68.6094 511.023 68.7344 511.023C69.0469 511.023 69.3477 510.98 69.6367 510.895C69.9258 510.809 70.1953 510.688 70.4453 510.531C70.7031 510.367 70.9297 510.172 71.125 509.945C71.3281 509.711 71.4922 509.453 71.6172 509.172L73.9609 511.527C73.6641 511.949 73.3203 512.328 72.9297 512.664C72.5469 513 72.1289 513.285 71.6758 513.52C71.2305 513.754 70.7578 513.93 70.2578 514.047C69.7656 514.172 69.2578 514.234 68.7344 514.234C67.8516 514.234 67.0195 514.07 66.2383 513.742C65.4648 513.414 64.7852 512.957 64.1992 512.371C63.6211 511.785 63.1641 511.09 62.8281 510.285C62.4922 509.473 62.3242 508.582 62.3242 507.613C62.3242 506.621 62.4922 505.715 62.8281 504.895C63.1641 504.074 63.6211 503.375 64.1992 502.797C64.7852 502.219 65.4648 501.77 66.2383 501.449C67.0195 501.129 67.8516 500.969 68.7344 500.969C69.2578 500.969 69.7695 501.031 70.2695 501.156C70.7695 501.281 71.2422 501.461 71.6875 501.695C72.1406 501.93 72.5625 502.219 72.9531 502.562C73.3438 502.898 73.6875 503.277 73.9844 503.699L67.9844 510.93ZM69.625 504.332C69.4766 504.277 69.3281 504.242 69.1797 504.227C69.0391 504.211 68.8906 504.203 68.7344 504.203C68.2969 504.203 67.8828 504.285 67.4922 504.449C67.1094 504.605 66.7734 504.832 66.4844 505.129C66.2031 505.426 65.9805 505.785 65.8164 506.207C65.6523 506.621 65.5703 507.09 65.5703 507.613C65.5703 507.73 65.5742 507.863 65.582 508.012C65.5977 508.16 65.6172 508.312 65.6406 508.469C65.6719 508.617 65.707 508.762 65.7461 508.902C65.7852 509.043 65.8359 509.168 65.8984 509.277L69.625 504.332ZM78.8008 514H75.6016V501.449H76.375L77.4297 502.938C77.9453 502.469 78.5312 502.109 79.1875 501.859C79.8438 501.602 80.5234 501.473 81.2266 501.473H84.0508V504.66H81.2266C80.8906 504.66 80.5742 504.723 80.2773 504.848C79.9805 504.973 79.7227 505.145 79.5039 505.363C79.2852 505.582 79.1133 505.84 78.9883 506.137C78.8633 506.434 78.8008 506.75 78.8008 507.086V514ZM92.2891 514H84.9766V510.812H92.2891C92.5078 510.812 92.6953 510.734 92.8516 510.578C93.0078 510.422 93.0859 510.234 93.0859 510.016C93.0859 509.789 93.0078 509.641 92.8516 509.57C92.6953 509.5 92.5078 509.465 92.2891 509.465H88.9609C88.4062 509.465 87.8867 509.359 87.4023 509.148C86.918 508.938 86.4961 508.652 86.1367 508.293C85.7773 507.926 85.4922 507.5 85.2812 507.016C85.0781 506.531 84.9766 506.012 84.9766 505.457C84.9766 504.902 85.0781 504.383 85.2812 503.898C85.4922 503.414 85.7773 502.992 86.1367 502.633C86.4961 502.273 86.918 501.992 87.4023 501.789C87.8867 501.578 88.4062 501.473 88.9609 501.473H95.4414V504.66H88.9609C88.7422 504.66 88.5547 504.738 88.3984 504.895C88.2422 505.051 88.1641 505.238 88.1641 505.457C88.1641 505.684 88.2422 505.879 88.3984 506.043C88.5547 506.199 88.7422 506.277 88.9609 506.277H92.2891C92.8359 506.277 93.3516 506.371 93.8359 506.559C94.3203 506.738 94.7422 506.992 95.1016 507.32C95.4609 507.648 95.7461 508.043 95.957 508.504C96.168 508.965 96.2734 509.469 96.2734 510.016C96.2734 510.57 96.168 511.09 95.957 511.574C95.7461 512.051 95.4609 512.473 95.1016 512.84C94.7422 513.199 94.3203 513.484 93.8359 513.695C93.3516 513.898 92.8359 514 92.2891 514ZM110.137 514H109.363L108.121 512.277C107.816 512.551 107.492 512.809 107.148 513.051C106.812 513.285 106.457 513.492 106.082 513.672C105.707 513.844 105.32 513.98 104.922 514.082C104.531 514.184 104.133 514.234 103.727 514.234C102.844 514.234 102.012 514.086 101.23 513.789C100.457 513.492 99.7773 513.062 99.1914 512.5C98.6133 511.93 98.1562 511.234 97.8203 510.414C97.4844 509.594 97.3164 508.66 97.3164 507.613C97.3164 506.637 97.4844 505.742 97.8203 504.93C98.1562 504.109 98.6133 503.406 99.1914 502.82C99.7773 502.234 100.457 501.781 101.23 501.461C102.012 501.133 102.844 500.969 103.727 500.969C104.133 500.969 104.535 501.02 104.934 501.121C105.332 501.223 105.719 501.363 106.094 501.543C106.469 501.723 106.824 501.934 107.16 502.176C107.504 502.418 107.824 502.68 108.121 502.961L109.363 501.473H110.137V514ZM106.914 507.613C106.914 507.176 106.828 506.754 106.656 506.348C106.492 505.934 106.266 505.57 105.977 505.258C105.688 504.938 105.348 504.684 104.957 504.496C104.574 504.301 104.164 504.203 103.727 504.203C103.289 504.203 102.875 504.277 102.484 504.426C102.102 504.574 101.766 504.793 101.477 505.082C101.195 505.371 100.973 505.73 100.809 506.16C100.645 506.582 100.562 507.066 100.562 507.613C100.562 508.16 100.645 508.648 100.809 509.078C100.973 509.5 101.195 509.855 101.477 510.145C101.766 510.434 102.102 510.652 102.484 510.801C102.875 510.949 103.289 511.023 103.727 511.023C104.164 511.023 104.574 510.93 104.957 510.742C105.348 510.547 105.688 510.293 105.977 509.98C106.266 509.66 106.492 509.297 106.656 508.891C106.828 508.477 106.914 508.051 106.914 507.613ZM107.324 496.152C107.371 496.293 107.414 496.445 107.453 496.609C107.484 496.75 107.512 496.91 107.535 497.09C107.566 497.27 107.582 497.461 107.582 497.664C107.582 498.055 107.523 498.406 107.406 498.719C107.289 499.023 107.129 499.285 106.926 499.504C106.73 499.715 106.492 499.879 106.211 499.996C105.938 500.105 105.645 500.16 105.332 500.16C104.98 500.16 104.68 500.086 104.43 499.938C104.18 499.781 103.957 499.613 103.762 499.434C103.574 499.246 103.395 499.078 103.223 498.93C103.059 498.773 102.883 498.695 102.695 498.695C102.547 498.695 102.426 498.762 102.332 498.895C102.238 499.027 102.191 499.16 102.191 499.293C102.191 499.449 102.215 499.602 102.262 499.75C102.316 499.891 102.387 500.027 102.473 500.16L100.27 500.254C100.191 500.113 100.121 499.949 100.059 499.762C100.004 499.605 99.957 499.418 99.918 499.199C99.8789 498.973 99.8594 498.723 99.8594 498.449C99.8594 497.754 100.07 497.211 100.492 496.82C100.914 496.422 101.488 496.223 102.215 496.223C102.52 496.223 102.777 496.262 102.988 496.34C103.207 496.41 103.395 496.5 103.551 496.609C103.715 496.719 103.855 496.84 103.973 496.973C104.09 497.098 104.195 497.215 104.289 497.324C104.391 497.434 104.488 497.527 104.582 497.605C104.684 497.676 104.797 497.711 104.922 497.711C105.055 497.711 105.156 497.652 105.227 497.535C105.297 497.418 105.332 497.27 105.332 497.09C105.332 496.879 105.27 496.668 105.145 496.457L107.324 496.152ZM124.715 507.613C124.715 508.551 124.547 509.426 124.211 510.238C123.875 511.043 123.418 511.742 122.84 512.336C122.262 512.922 121.582 513.387 120.801 513.73C120.027 514.066 119.195 514.234 118.305 514.234C117.422 514.234 116.59 514.066 115.809 513.73C115.035 513.387 114.355 512.922 113.77 512.336C113.191 511.742 112.734 511.043 112.398 510.238C112.062 509.426 111.895 508.551 111.895 507.613C111.895 506.66 112.062 505.777 112.398 504.965C112.734 504.152 113.191 503.453 113.77 502.867C114.355 502.273 115.035 501.809 115.809 501.473C116.59 501.137 117.422 500.969 118.305 500.969C119.195 500.969 120.027 501.129 120.801 501.449C121.582 501.762 122.262 502.211 122.84 502.797C123.418 503.375 123.875 504.074 124.211 504.895C124.547 505.707 124.715 506.613 124.715 507.613ZM121.492 507.613C121.492 507.098 121.406 506.633 121.234 506.219C121.07 505.797 120.844 505.438 120.555 505.141C120.266 504.836 119.926 504.605 119.535 504.449C119.152 504.285 118.742 504.203 118.305 504.203C117.867 504.203 117.453 504.285 117.062 504.449C116.68 504.605 116.344 504.836 116.055 505.141C115.773 505.438 115.551 505.797 115.387 506.219C115.223 506.633 115.141 507.098 115.141 507.613C115.141 508.098 115.223 508.547 115.387 508.961C115.551 509.375 115.773 509.734 116.055 510.039C116.344 510.344 116.68 510.586 117.062 510.766C117.453 510.938 117.867 511.023 118.305 511.023C118.742 511.023 119.152 510.941 119.535 510.777C119.926 510.613 120.266 510.383 120.555 510.086C120.844 509.789 121.07 509.43 121.234 509.008C121.406 508.586 121.492 508.121 121.492 507.613Z" fill="white"/>
<path d="M29.7614 563V548.455H34.6761C35.8125 548.455 36.7453 548.649 37.4744 549.037C38.2036 549.42 38.7434 549.948 39.0938 550.621C39.4441 551.293 39.6193 552.058 39.6193 552.915C39.6193 553.772 39.4441 554.532 39.0938 555.195C38.7434 555.857 38.206 556.378 37.4815 556.757C36.7571 557.131 35.8314 557.318 34.7045 557.318H30.7273V555.727H34.6477C35.4242 555.727 36.0492 555.614 36.5227 555.386C37.0009 555.159 37.3466 554.837 37.5597 554.42C37.7775 553.999 37.8864 553.497 37.8864 552.915C37.8864 552.332 37.7775 551.823 37.5597 551.388C37.3419 550.952 36.9938 550.616 36.5156 550.379C36.0374 550.138 35.4053 550.017 34.6193 550.017H31.5227V563H29.7614ZM36.608 556.466L40.1875 563H38.142L34.6193 556.466H36.608ZM46.7837 563.227C45.7326 563.227 44.8259 562.995 44.0636 562.531C43.306 562.062 42.7212 561.409 42.3093 560.571C41.9021 559.728 41.6985 558.748 41.6985 557.631C41.6985 556.513 41.9021 555.528 42.3093 554.676C42.7212 553.819 43.2942 553.152 44.0281 552.673C44.7667 552.19 45.6284 551.949 46.6133 551.949C47.1815 551.949 47.7425 552.044 48.2965 552.233C48.8505 552.422 49.3548 552.73 49.8093 553.156C50.2638 553.578 50.6261 554.136 50.896 554.832C51.1658 555.528 51.3008 556.385 51.3008 557.403V558.114H42.8917V556.665H49.5962C49.5962 556.049 49.4731 555.5 49.2269 555.017C48.9854 554.534 48.6398 554.153 48.19 553.874C47.7449 553.594 47.2193 553.455 46.6133 553.455C45.9457 553.455 45.368 553.62 44.8803 553.952C44.3974 554.278 44.0257 554.705 43.7653 555.23C43.5049 555.756 43.3746 556.319 43.3746 556.92V557.886C43.3746 558.71 43.5167 559.409 43.8008 559.982C44.0896 560.55 44.4897 560.983 45.0011 561.281C45.5124 561.575 46.1067 561.722 46.7837 561.722C47.2241 561.722 47.6218 561.66 47.9769 561.537C48.3368 561.409 48.6469 561.22 48.9073 560.969C49.1677 560.713 49.369 560.396 49.511 560.017L51.1303 560.472C50.9599 561.021 50.6734 561.504 50.271 561.92C49.8685 562.332 49.3713 562.654 48.7795 562.886C48.1876 563.114 47.5224 563.227 46.7837 563.227ZM61.5778 554.534L60.0721 554.96C59.9774 554.709 59.8377 554.465 59.6531 554.229C59.4731 553.987 59.2269 553.788 58.9144 553.632C58.6019 553.476 58.2018 553.398 57.7141 553.398C57.0465 553.398 56.4902 553.552 56.0451 553.859C55.6048 554.162 55.3846 554.548 55.3846 555.017C55.3846 555.434 55.5361 555.763 55.8391 556.004C56.1422 556.246 56.6156 556.447 57.2596 556.608L58.8789 557.006C59.8543 557.242 60.5811 557.605 61.0593 558.092C61.5375 558.575 61.7766 559.198 61.7766 559.96C61.7766 560.585 61.5967 561.144 61.2369 561.636C60.8817 562.129 60.3846 562.517 59.7454 562.801C59.1062 563.085 58.3628 563.227 57.5153 563.227C56.4026 563.227 55.4817 562.986 54.7525 562.503C54.0233 562.02 53.5617 561.314 53.3675 560.386L54.9585 559.989C55.11 560.576 55.3964 561.016 55.8178 561.31C56.244 561.603 56.8003 561.75 57.4869 561.75C58.2681 561.75 58.8884 561.584 59.3477 561.253C59.8117 560.917 60.0437 560.514 60.0437 560.045C60.0437 559.667 59.9111 559.349 59.646 559.094C59.3808 558.833 58.9736 558.639 58.4244 558.511L56.6062 558.085C55.6071 557.848 54.8732 557.482 54.4045 556.984C53.9405 556.482 53.7085 555.855 53.7085 555.102C53.7085 554.487 53.8813 553.942 54.2269 553.469C54.5773 552.995 55.0531 552.624 55.6545 552.354C56.2605 552.084 56.9471 551.949 57.7141 551.949C58.7937 551.949 59.6412 552.186 60.2567 552.659C60.877 553.133 61.3174 553.758 61.5778 554.534ZM68.7315 563.227C67.7467 563.227 66.8826 562.993 66.1392 562.524C65.4006 562.055 64.8229 561.4 64.4062 560.557C63.9943 559.714 63.7884 558.729 63.7884 557.602C63.7884 556.466 63.9943 555.474 64.4062 554.626C64.8229 553.779 65.4006 553.121 66.1392 552.652C66.8826 552.183 67.7467 551.949 68.7315 551.949C69.7164 551.949 70.5781 552.183 71.3168 552.652C72.0601 553.121 72.6378 553.779 73.0497 554.626C73.4664 555.474 73.6747 556.466 73.6747 557.602C73.6747 558.729 73.4664 559.714 73.0497 560.557C72.6378 561.4 72.0601 562.055 71.3168 562.524C70.5781 562.993 69.7164 563.227 68.7315 563.227ZM68.7315 561.722C69.4796 561.722 70.0952 561.53 70.5781 561.146C71.0611 560.763 71.4186 560.259 71.6506 559.634C71.8826 559.009 71.9986 558.331 71.9986 557.602C71.9986 556.873 71.8826 556.194 71.6506 555.564C71.4186 554.934 71.0611 554.425 70.5781 554.037C70.0952 553.649 69.4796 553.455 68.7315 553.455C67.9834 553.455 67.3679 553.649 66.8849 554.037C66.402 554.425 66.0445 554.934 65.8125 555.564C65.5805 556.194 65.4645 556.873 65.4645 557.602C65.4645 558.331 65.5805 559.009 65.8125 559.634C66.0445 560.259 66.402 560.763 66.8849 561.146C67.3679 561.53 67.9834 561.722 68.7315 561.722ZM77.9094 548.455V563H76.2333V548.455H77.9094ZM89.8999 552.091L85.8658 563H84.1612L80.1271 552.091H81.9453L84.9567 560.784H85.0703L88.0817 552.091H89.8999ZM94.9904 563.256C94.2991 563.256 93.6718 563.125 93.1083 562.865C92.5449 562.6 92.0974 562.219 91.766 561.722C91.4345 561.22 91.2688 560.614 91.2688 559.903C91.2688 559.278 91.3919 558.772 91.6381 558.384C91.8844 557.991 92.2134 557.683 92.6254 557.46C93.0373 557.238 93.4918 557.072 93.989 556.963C94.4909 556.849 94.9951 556.759 95.5018 556.693C96.1647 556.608 96.7021 556.544 97.114 556.501C97.5307 556.454 97.8337 556.376 98.0231 556.267C98.2172 556.158 98.3143 555.969 98.3143 555.699V555.642C98.3143 554.941 98.1225 554.397 97.739 554.009C97.3602 553.62 96.7849 553.426 96.0131 553.426C95.2129 553.426 94.5856 553.601 94.131 553.952C93.6765 554.302 93.3569 554.676 93.1722 555.074L91.5813 554.506C91.8654 553.843 92.2442 553.327 92.7177 552.957C93.1959 552.583 93.7167 552.323 94.2802 552.176C94.8484 552.025 95.4071 551.949 95.9563 551.949C96.3067 551.949 96.7092 551.991 97.1637 552.077C97.623 552.157 98.0657 552.325 98.4918 552.581C98.9227 552.837 99.2802 553.223 99.5643 553.739C99.8484 554.255 99.9904 554.946 99.9904 555.812V563H98.3143V561.523H98.229C98.1154 561.759 97.926 562.013 97.6609 562.283C97.3957 562.553 97.043 562.782 96.6026 562.972C96.1623 563.161 95.6249 563.256 94.9904 563.256ZM95.2461 561.75C95.909 561.75 96.4677 561.62 96.9222 561.359C97.3815 561.099 97.7272 560.763 97.9592 560.351C98.1959 559.939 98.3143 559.506 98.3143 559.051V557.517C98.2433 557.602 98.087 557.68 97.8455 557.751C97.6088 557.818 97.3342 557.877 97.0217 557.929C96.7139 557.976 96.4132 558.019 96.1197 558.057C95.8308 558.09 95.5965 558.118 95.4165 558.142C94.9809 558.199 94.5737 558.291 94.195 558.419C93.8209 558.542 93.5179 558.729 93.2859 558.98C93.0586 559.226 92.945 559.562 92.945 559.989C92.945 560.571 93.1604 561.011 93.5913 561.31C94.0269 561.603 94.5785 561.75 95.2461 561.75ZM116.118 567.091V561.324H115.976C115.853 561.523 115.678 561.774 115.45 562.077C115.223 562.375 114.899 562.643 114.477 562.879C114.056 563.111 113.495 563.227 112.794 563.227C111.885 563.227 111.082 562.998 110.386 562.538C109.69 562.074 109.146 561.421 108.753 560.578C108.36 559.731 108.163 558.729 108.163 557.574C108.163 556.428 108.36 555.434 108.753 554.591C109.146 553.748 109.693 553.097 110.393 552.638C111.094 552.179 111.904 551.949 112.822 551.949C113.533 551.949 114.094 552.067 114.506 552.304C114.922 552.536 115.24 552.801 115.457 553.099C115.68 553.393 115.853 553.634 115.976 553.824H116.175V552.091H117.794V567.091H116.118ZM113.021 561.722C113.694 561.722 114.262 561.546 114.726 561.196C115.19 560.841 115.543 560.351 115.784 559.726C116.026 559.096 116.146 558.369 116.146 557.545C116.146 556.731 116.028 556.018 115.791 555.408C115.554 554.792 115.204 554.314 114.74 553.973C114.276 553.627 113.703 553.455 113.021 553.455C112.311 553.455 111.719 553.637 111.246 554.001C110.777 554.361 110.424 554.851 110.188 555.472C109.955 556.087 109.839 556.778 109.839 557.545C109.839 558.322 109.958 559.027 110.195 559.662C110.436 560.292 110.791 560.794 111.26 561.168C111.733 561.537 112.321 561.722 113.021 561.722ZM127.737 558.54V552.091H129.413V563H127.737V561.153H127.624C127.368 561.707 126.97 562.179 126.43 562.567C125.891 562.95 125.209 563.142 124.385 563.142C123.703 563.142 123.097 562.993 122.567 562.695C122.036 562.392 121.62 561.937 121.317 561.331C121.014 560.72 120.862 559.951 120.862 559.023V552.091H122.538V558.909C122.538 559.705 122.761 560.339 123.206 560.812C123.656 561.286 124.229 561.523 124.925 561.523C125.341 561.523 125.765 561.416 126.196 561.203C126.632 560.99 126.996 560.663 127.29 560.223C127.588 559.783 127.737 559.222 127.737 558.54ZM137.057 563.227C136.006 563.227 135.099 562.995 134.337 562.531C133.579 562.062 132.995 561.409 132.583 560.571C132.176 559.728 131.972 558.748 131.972 557.631C131.972 556.513 132.176 555.528 132.583 554.676C132.995 553.819 133.568 553.152 134.301 552.673C135.04 552.19 135.902 551.949 136.887 551.949C137.455 551.949 138.016 552.044 138.57 552.233C139.124 552.422 139.628 552.73 140.083 553.156C140.537 553.578 140.9 554.136 141.169 554.832C141.439 555.528 141.574 556.385 141.574 557.403V558.114H133.165V556.665H139.87C139.87 556.049 139.747 555.5 139.5 555.017C139.259 554.534 138.913 554.153 138.463 553.874C138.018 553.594 137.493 553.455 136.887 553.455C136.219 553.455 135.641 553.62 135.154 553.952C134.671 554.278 134.299 554.705 134.039 555.23C133.778 555.756 133.648 556.319 133.648 556.92V557.886C133.648 558.71 133.79 559.409 134.074 559.982C134.363 560.55 134.763 560.983 135.275 561.281C135.786 561.575 136.38 561.722 137.057 561.722C137.498 561.722 137.895 561.66 138.25 561.537C138.61 561.409 138.92 561.22 139.181 560.969C139.441 560.713 139.642 560.396 139.784 560.017L141.404 560.472C141.233 561.021 140.947 561.504 140.544 561.92C140.142 562.332 139.645 562.654 139.053 562.886C138.461 563.114 137.796 563.227 137.057 563.227ZM144.351 563V548.455H146.027V553.824H146.169C146.292 553.634 146.463 553.393 146.681 553.099C146.903 552.801 147.221 552.536 147.632 552.304C148.049 552.067 148.613 551.949 149.323 551.949C150.241 551.949 151.051 552.179 151.752 552.638C152.453 553.097 152.999 553.748 153.392 554.591C153.785 555.434 153.982 556.428 153.982 557.574C153.982 558.729 153.785 559.731 153.392 560.578C152.999 561.421 152.455 562.074 151.759 562.538C151.063 562.998 150.26 563.227 149.351 563.227C148.65 563.227 148.089 563.111 147.668 562.879C147.247 562.643 146.922 562.375 146.695 562.077C146.468 561.774 146.292 561.523 146.169 561.324H145.971V563H144.351ZM145.999 557.545C145.999 558.369 146.12 559.096 146.361 559.726C146.603 560.351 146.955 560.841 147.419 561.196C147.883 561.546 148.452 561.722 149.124 561.722C149.825 561.722 150.409 561.537 150.878 561.168C151.352 560.794 151.707 560.292 151.944 559.662C152.185 559.027 152.306 558.322 152.306 557.545C152.306 556.778 152.187 556.087 151.951 555.472C151.719 554.851 151.366 554.361 150.892 554.001C150.424 553.637 149.834 553.455 149.124 553.455C148.442 553.455 147.869 553.627 147.405 553.973C146.941 554.314 146.591 554.792 146.354 555.408C146.117 556.018 145.999 556.731 145.999 557.545ZM156.546 563V552.091H158.165V553.739H158.279C158.478 553.199 158.837 552.761 159.358 552.425C159.879 552.089 160.466 551.92 161.12 551.92C161.243 551.92 161.397 551.923 161.581 551.928C161.766 551.932 161.906 551.939 162 551.949V553.653C161.944 553.639 161.813 553.618 161.61 553.589C161.411 553.556 161.2 553.54 160.978 553.54C160.447 553.54 159.974 553.651 159.557 553.874C159.145 554.091 158.819 554.394 158.577 554.783C158.34 555.166 158.222 555.604 158.222 556.097V563H156.546ZM167.197 563.256C166.506 563.256 165.879 563.125 165.315 562.865C164.752 562.6 164.304 562.219 163.973 561.722C163.642 561.22 163.476 560.614 163.476 559.903C163.476 559.278 163.599 558.772 163.845 558.384C164.091 557.991 164.42 557.683 164.832 557.46C165.244 557.238 165.699 557.072 166.196 556.963C166.698 556.849 167.202 556.759 167.709 556.693C168.372 556.608 168.909 556.544 169.321 556.501C169.738 556.454 170.041 556.376 170.23 556.267C170.424 556.158 170.521 555.969 170.521 555.699V555.642C170.521 554.941 170.33 554.397 169.946 554.009C169.567 553.62 168.992 553.426 168.22 553.426C167.42 553.426 166.793 553.601 166.338 553.952C165.884 554.302 165.564 554.676 165.379 555.074L163.788 554.506C164.072 553.843 164.451 553.327 164.925 552.957C165.403 552.583 165.924 552.323 166.487 552.176C167.055 552.025 167.614 551.949 168.163 551.949C168.514 551.949 168.916 551.991 169.371 552.077C169.83 552.157 170.273 552.325 170.699 552.581C171.13 552.837 171.487 553.223 171.771 553.739C172.055 554.255 172.197 554.946 172.197 555.812V563H170.521V561.523H170.436C170.322 561.759 170.133 562.013 169.868 562.283C169.603 562.553 169.25 562.782 168.81 562.972C168.369 563.161 167.832 563.256 167.197 563.256ZM167.453 561.75C168.116 561.75 168.675 561.62 169.129 561.359C169.589 561.099 169.934 560.763 170.166 560.351C170.403 559.939 170.521 559.506 170.521 559.051V557.517C170.45 557.602 170.294 557.68 170.053 557.751C169.816 557.818 169.541 557.877 169.229 557.929C168.921 557.976 168.62 558.019 168.327 558.057C168.038 558.09 167.804 558.118 167.624 558.142C167.188 558.199 166.781 558.291 166.402 558.419C166.028 558.542 165.725 558.729 165.493 558.98C165.266 559.226 165.152 559.562 165.152 559.989C165.152 560.571 165.367 561.011 165.798 561.31C166.234 561.603 166.786 561.75 167.453 561.75ZM181.507 555.983V557.545H175.143V555.983H181.507ZM188.888 563.227C187.865 563.227 186.984 562.986 186.246 562.503C185.507 562.02 184.939 561.355 184.541 560.507C184.143 559.66 183.945 558.691 183.945 557.602C183.945 556.494 184.148 555.517 184.555 554.669C184.967 553.817 185.54 553.152 186.274 552.673C187.013 552.19 187.875 551.949 188.859 551.949C189.626 551.949 190.318 552.091 190.933 552.375C191.549 552.659 192.053 553.057 192.446 553.568C192.839 554.08 193.083 554.676 193.178 555.358H191.501C191.374 554.861 191.089 554.42 190.649 554.037C190.214 553.649 189.626 553.455 188.888 553.455C188.234 553.455 187.661 553.625 187.169 553.966C186.681 554.302 186.3 554.778 186.026 555.393C185.756 556.004 185.621 556.722 185.621 557.545C185.621 558.388 185.753 559.122 186.018 559.747C186.288 560.372 186.667 560.857 187.155 561.203C187.647 561.549 188.225 561.722 188.888 561.722C189.323 561.722 189.719 561.646 190.074 561.494C190.429 561.343 190.73 561.125 190.976 560.841C191.222 560.557 191.397 560.216 191.501 559.818H193.178C193.083 560.462 192.848 561.042 192.474 561.558C192.105 562.07 191.615 562.477 191.004 562.78C190.398 563.078 189.693 563.227 188.888 563.227ZM198.838 563.256C198.147 563.256 197.519 563.125 196.956 562.865C196.393 562.6 195.945 562.219 195.614 561.722C195.282 561.22 195.116 560.614 195.116 559.903C195.116 559.278 195.24 558.772 195.486 558.384C195.732 557.991 196.061 557.683 196.473 557.46C196.885 557.238 197.339 557.072 197.837 556.963C198.339 556.849 198.843 556.759 199.349 556.693C200.012 556.608 200.55 556.544 200.962 556.501C201.378 556.454 201.681 556.376 201.871 556.267C202.065 556.158 202.162 555.969 202.162 555.699V555.642C202.162 554.941 201.97 554.397 201.587 554.009C201.208 553.62 200.633 553.426 199.861 553.426C199.061 553.426 198.433 553.601 197.979 553.952C197.524 554.302 197.205 554.676 197.02 555.074L195.429 554.506C195.713 553.843 196.092 553.327 196.565 552.957C197.044 552.583 197.564 552.323 198.128 552.176C198.696 552.025 199.255 551.949 199.804 551.949C200.154 551.949 200.557 551.991 201.011 552.077C201.471 552.157 201.913 552.325 202.339 552.581C202.77 552.837 203.128 553.223 203.412 553.739C203.696 554.255 203.838 554.946 203.838 555.812V563H202.162V561.523H202.077C201.963 561.759 201.774 562.013 201.509 562.283C201.243 562.553 200.891 562.782 200.45 562.972C200.01 563.161 199.473 563.256 198.838 563.256ZM199.094 561.75C199.757 561.75 200.315 561.62 200.77 561.359C201.229 561.099 201.575 560.763 201.807 560.351C202.044 559.939 202.162 559.506 202.162 559.051V557.517C202.091 557.602 201.935 557.68 201.693 557.751C201.456 557.818 201.182 557.877 200.869 557.929C200.562 557.976 200.261 558.019 199.967 558.057C199.679 558.09 199.444 558.118 199.264 558.142C198.829 558.199 198.421 558.291 198.043 558.419C197.669 558.542 197.366 558.729 197.134 558.98C196.906 559.226 196.793 559.562 196.793 559.989C196.793 560.571 197.008 561.011 197.439 561.31C197.875 561.603 198.426 561.75 199.094 561.75ZM207.125 563V548.455H208.801V553.824H208.943C209.066 553.634 209.236 553.393 209.454 553.099C209.677 552.801 209.994 552.536 210.406 552.304C210.823 552.067 211.386 551.949 212.096 551.949C213.015 551.949 213.824 552.179 214.525 552.638C215.226 553.097 215.773 553.748 216.166 554.591C216.559 555.434 216.755 556.428 216.755 557.574C216.755 558.729 216.559 559.731 216.166 560.578C215.773 561.421 215.228 562.074 214.532 562.538C213.836 562.998 213.034 563.227 212.125 563.227C211.424 563.227 210.863 563.111 210.441 562.879C210.02 562.643 209.696 562.375 209.468 562.077C209.241 561.774 209.066 561.523 208.943 561.324H208.744V563H207.125ZM208.772 557.545C208.772 558.369 208.893 559.096 209.135 559.726C209.376 560.351 209.729 560.841 210.193 561.196C210.657 561.546 211.225 561.722 211.897 561.722C212.598 561.722 213.183 561.537 213.652 561.168C214.125 560.794 214.48 560.292 214.717 559.662C214.958 559.027 215.079 558.322 215.079 557.545C215.079 556.778 214.961 556.087 214.724 555.472C214.492 554.851 214.139 554.361 213.666 554.001C213.197 553.637 212.608 553.455 211.897 553.455C211.216 553.455 210.643 553.627 210.179 553.973C209.715 554.314 209.364 554.792 209.127 555.408C208.891 556.018 208.772 556.731 208.772 557.545ZM223.893 563.227C222.842 563.227 221.935 562.995 221.173 562.531C220.415 562.062 219.831 561.409 219.419 560.571C219.011 559.728 218.808 558.748 218.808 557.631C218.808 556.513 219.011 555.528 219.419 554.676C219.831 553.819 220.404 553.152 221.137 552.673C221.876 552.19 222.738 551.949 223.723 551.949C224.291 551.949 224.852 552.044 225.406 552.233C225.96 552.422 226.464 552.73 226.919 553.156C227.373 553.578 227.735 554.136 228.005 554.832C228.275 555.528 228.41 556.385 228.41 557.403V558.114H220.001V556.665H226.706C226.706 556.049 226.583 555.5 226.336 555.017C226.095 554.534 225.749 554.153 225.299 553.874C224.854 553.594 224.329 553.455 223.723 553.455C223.055 553.455 222.477 553.62 221.99 553.952C221.507 554.278 221.135 554.705 220.875 555.23C220.614 555.756 220.484 556.319 220.484 556.92V557.886C220.484 558.71 220.626 559.409 220.91 559.982C221.199 560.55 221.599 560.983 222.11 561.281C222.622 561.575 223.216 561.722 223.893 561.722C224.333 561.722 224.731 561.66 225.086 561.537C225.446 561.409 225.756 561.22 226.017 560.969C226.277 560.713 226.478 560.396 226.62 560.017L228.24 560.472C228.069 561.021 227.783 561.504 227.38 561.92C226.978 562.332 226.481 562.654 225.889 562.886C225.297 563.114 224.632 563.227 223.893 563.227ZM235.392 563.227C234.369 563.227 233.488 562.986 232.75 562.503C232.011 562.02 231.443 561.355 231.045 560.507C230.647 559.66 230.449 558.691 230.449 557.602C230.449 556.494 230.652 555.517 231.059 554.669C231.471 553.817 232.044 553.152 232.778 552.673C233.517 552.19 234.378 551.949 235.363 551.949C236.13 551.949 236.822 552.091 237.437 552.375C238.053 552.659 238.557 553.057 238.95 553.568C239.343 554.08 239.587 554.676 239.681 555.358H238.005C237.877 554.861 237.593 554.42 237.153 554.037C236.717 553.649 236.13 553.455 235.392 553.455C234.738 553.455 234.165 553.625 233.673 553.966C233.185 554.302 232.804 554.778 232.529 555.393C232.26 556.004 232.125 556.722 232.125 557.545C232.125 558.388 232.257 559.122 232.522 559.747C232.792 560.372 233.171 560.857 233.659 561.203C234.151 561.549 234.729 561.722 235.392 561.722C235.827 561.722 236.223 561.646 236.578 561.494C236.933 561.343 237.234 561.125 237.48 560.841C237.726 560.557 237.901 560.216 238.005 559.818H239.681C239.587 560.462 239.352 561.042 238.978 561.558C238.609 562.07 238.119 562.477 237.508 562.78C236.902 563.078 236.197 563.227 235.392 563.227ZM234.596 562.943H235.988L235.875 563.511C236.244 563.568 236.583 563.722 236.89 563.973C237.198 564.229 237.352 564.634 237.352 565.188C237.352 565.798 237.099 566.295 236.592 566.679C236.09 567.067 235.349 567.261 234.369 567.261L234.312 566.153C234.752 566.153 235.117 566.082 235.406 565.94C235.699 565.803 235.846 565.571 235.846 565.244C235.846 564.918 235.725 564.695 235.484 564.577C235.243 564.458 234.852 564.378 234.312 564.335L234.596 562.943ZM245.342 563.256C244.651 563.256 244.023 563.125 243.46 562.865C242.896 562.6 242.449 562.219 242.118 561.722C241.786 561.22 241.62 560.614 241.62 559.903C241.62 559.278 241.743 558.772 241.99 558.384C242.236 557.991 242.565 557.683 242.977 557.46C243.389 557.238 243.843 557.072 244.341 556.963C244.842 556.849 245.347 556.759 245.853 556.693C246.516 556.608 247.054 556.544 247.466 556.501C247.882 556.454 248.185 556.376 248.375 556.267C248.569 556.158 248.666 555.969 248.666 555.699V555.642C248.666 554.941 248.474 554.397 248.091 554.009C247.712 553.62 247.136 553.426 246.365 553.426C245.565 553.426 244.937 553.601 244.483 553.952C244.028 554.302 243.708 554.676 243.524 555.074L241.933 554.506C242.217 553.843 242.596 553.327 243.069 552.957C243.547 552.583 244.068 552.323 244.632 552.176C245.2 552.025 245.759 551.949 246.308 551.949C246.658 551.949 247.061 551.991 247.515 552.077C247.975 552.157 248.417 552.325 248.843 552.581C249.274 552.837 249.632 553.223 249.916 553.739C250.2 554.255 250.342 554.946 250.342 555.812V563H248.666V561.523H248.581C248.467 561.759 248.278 562.013 248.012 562.283C247.747 562.553 247.395 562.782 246.954 562.972C246.514 563.161 245.976 563.256 245.342 563.256ZM245.598 561.75C246.261 561.75 246.819 561.62 247.274 561.359C247.733 561.099 248.079 560.763 248.311 560.351C248.547 559.939 248.666 559.506 248.666 559.051V557.517C248.595 557.602 248.439 557.68 248.197 557.751C247.96 557.818 247.686 557.877 247.373 557.929C247.065 557.976 246.765 558.019 246.471 558.057C246.182 558.09 245.948 558.118 245.768 558.142C245.333 558.199 244.925 558.291 244.547 558.419C244.172 558.542 243.869 558.729 243.637 558.98C243.41 559.226 243.297 559.562 243.297 559.989C243.297 560.571 243.512 561.011 243.943 561.31C244.378 561.603 244.93 561.75 245.598 561.75ZM261.129 554.534L259.623 554.96C259.528 554.709 259.388 554.465 259.204 554.229C259.024 553.987 258.778 553.788 258.465 553.632C258.153 553.476 257.753 553.398 257.265 553.398C256.597 553.398 256.041 553.552 255.596 553.859C255.156 554.162 254.935 554.548 254.935 555.017C254.935 555.434 255.087 555.763 255.39 556.004C255.693 556.246 256.166 556.447 256.81 556.608L258.43 557.006C259.405 557.242 260.132 557.605 260.61 558.092C261.088 558.575 261.327 559.198 261.327 559.96C261.327 560.585 261.147 561.144 260.788 561.636C260.433 562.129 259.935 562.517 259.296 562.801C258.657 563.085 257.914 563.227 257.066 563.227C255.953 563.227 255.032 562.986 254.303 562.503C253.574 562.02 253.112 561.314 252.918 560.386L254.509 559.989C254.661 560.576 254.947 561.016 255.369 561.31C255.795 561.603 256.351 561.75 257.038 561.75C257.819 561.75 258.439 561.584 258.898 561.253C259.362 560.917 259.594 560.514 259.594 560.045C259.594 559.667 259.462 559.349 259.197 559.094C258.932 558.833 258.524 558.639 257.975 558.511L256.157 558.085C255.158 557.848 254.424 557.482 253.955 556.984C253.491 556.482 253.259 555.855 253.259 555.102C253.259 554.487 253.432 553.942 253.778 553.469C254.128 552.995 254.604 552.624 255.205 552.354C255.811 552.084 256.498 551.949 257.265 551.949C258.344 551.949 259.192 552.186 259.808 552.659C260.428 553.133 260.868 553.758 261.129 554.534ZM274.049 563.227C272.998 563.227 272.092 562.995 271.329 562.531C270.572 562.062 269.987 561.409 269.575 560.571C269.168 559.728 268.964 558.748 268.964 557.631C268.964 556.513 269.168 555.528 269.575 554.676C269.987 553.819 270.56 553.152 271.294 552.673C272.032 552.19 272.894 551.949 273.879 551.949C274.447 551.949 275.008 552.044 275.562 552.233C276.116 552.422 276.62 552.73 277.075 553.156C277.529 553.578 277.892 554.136 278.162 554.832C278.431 555.528 278.566 556.385 278.566 557.403V558.114H270.157V556.665H276.862C276.862 556.049 276.739 555.5 276.493 555.017C276.251 554.534 275.905 554.153 275.456 553.874C275.011 553.594 274.485 553.455 273.879 553.455C273.211 553.455 272.634 553.62 272.146 553.952C271.663 554.278 271.291 554.705 271.031 555.23C270.77 555.756 270.64 556.319 270.64 556.92V557.886C270.64 558.71 270.782 559.409 271.066 559.982C271.355 560.55 271.755 560.983 272.267 561.281C272.778 561.575 273.372 561.722 274.049 561.722C274.49 561.722 274.887 561.66 275.243 561.537C275.602 561.409 275.913 561.22 276.173 560.969C276.433 560.713 276.635 560.396 276.777 560.017L278.396 560.472C278.225 561.021 277.939 561.504 277.537 561.92C277.134 562.332 276.637 562.654 276.045 562.886C275.453 563.114 274.788 563.227 274.049 563.227ZM33.9375 591.318C33.1278 591.318 32.4318 591.214 31.8494 591.006C31.267 590.802 30.7817 590.532 30.3935 590.196C30.0099 589.865 29.7045 589.509 29.4773 589.131L30.8125 588.193C30.964 588.392 31.1558 588.619 31.3878 588.875C31.6198 589.135 31.937 589.36 32.3395 589.55C32.7467 589.744 33.2794 589.841 33.9375 589.841C34.8182 589.841 35.545 589.628 36.1179 589.202C36.6908 588.776 36.9773 588.108 36.9773 587.199V584.983H36.8352C36.7121 585.182 36.5369 585.428 36.3097 585.722C36.0871 586.01 35.7652 586.268 35.3438 586.496C34.9271 586.718 34.3636 586.83 33.6534 586.83C32.7727 586.83 31.982 586.621 31.2812 586.205C30.5852 585.788 30.0336 585.182 29.6264 584.386C29.224 583.591 29.0227 582.625 29.0227 581.489C29.0227 580.371 29.2192 579.398 29.6122 578.57C30.0052 577.736 30.5521 577.092 31.2528 576.638C31.9536 576.179 32.7633 575.949 33.6818 575.949C34.392 575.949 34.9555 576.067 35.3722 576.304C35.7936 576.536 36.1155 576.801 36.3381 577.099C36.5653 577.393 36.7405 577.634 36.8636 577.824H37.0341V576.091H38.6534V587.312C38.6534 588.25 38.4403 589.012 38.0142 589.599C37.5928 590.191 37.0246 590.625 36.3097 590.899C35.5994 591.179 34.8087 591.318 33.9375 591.318ZM33.8807 585.324C34.553 585.324 35.1212 585.17 35.5852 584.862C36.0492 584.554 36.402 584.112 36.6435 583.534C36.8849 582.956 37.0057 582.265 37.0057 581.46C37.0057 580.674 36.8873 579.981 36.6506 579.379C36.4138 578.778 36.0634 578.307 35.5994 577.966C35.1354 577.625 34.5625 577.455 33.8807 577.455C33.1705 577.455 32.5786 577.634 32.1051 577.994C31.6364 578.354 31.2836 578.837 31.0469 579.443C30.8149 580.049 30.6989 580.722 30.6989 581.46C30.6989 582.218 30.8172 582.888 31.054 583.47C31.2955 584.048 31.6506 584.502 32.1193 584.834C32.5928 585.161 33.1799 585.324 33.8807 585.324ZM44.9318 587.256C44.2405 587.256 43.6132 587.125 43.0497 586.865C42.4863 586.6 42.0388 586.219 41.7074 585.722C41.3759 585.22 41.2102 584.614 41.2102 583.903C41.2102 583.278 41.3333 582.772 41.5795 582.384C41.8258 581.991 42.1548 581.683 42.5668 581.46C42.9787 581.238 43.4332 581.072 43.9304 580.963C44.4323 580.849 44.9366 580.759 45.4432 580.693C46.1061 580.608 46.6435 580.544 47.0554 580.501C47.4721 580.454 47.7751 580.376 47.9645 580.267C48.1586 580.158 48.2557 579.969 48.2557 579.699V579.642C48.2557 578.941 48.0639 578.397 47.6804 578.009C47.3016 577.62 46.7263 577.426 45.9545 577.426C45.1544 577.426 44.527 577.601 44.0724 577.952C43.6179 578.302 43.2983 578.676 43.1136 579.074L41.5227 578.506C41.8068 577.843 42.1856 577.327 42.6591 576.957C43.1373 576.583 43.6581 576.323 44.2216 576.176C44.7898 576.025 45.3485 575.949 45.8977 575.949C46.2481 575.949 46.6506 575.991 47.1051 576.077C47.5644 576.157 48.0071 576.325 48.4332 576.581C48.8641 576.837 49.2216 577.223 49.5057 577.739C49.7898 578.255 49.9318 578.946 49.9318 579.812V587H48.2557V585.523H48.1705C48.0568 585.759 47.8674 586.013 47.6023 586.283C47.3371 586.553 46.9844 586.782 46.544 586.972C46.1037 587.161 45.5663 587.256 44.9318 587.256ZM45.1875 585.75C45.8504 585.75 46.4091 585.62 46.8636 585.359C47.3229 585.099 47.6686 584.763 47.9006 584.351C48.1373 583.939 48.2557 583.506 48.2557 583.051V581.517C48.1847 581.602 48.0284 581.68 47.7869 581.751C47.5502 581.818 47.2756 581.877 46.9631 581.929C46.6553 581.976 46.3546 582.019 46.0611 582.057C45.7723 582.09 45.5379 582.118 45.358 582.142C44.9223 582.199 44.5152 582.291 44.1364 582.419C43.7623 582.542 43.4593 582.729 43.2273 582.98C43 583.226 42.8864 583.562 42.8864 583.989C42.8864 584.571 43.1018 585.011 43.5327 585.31C43.9683 585.603 44.5199 585.75 45.1875 585.75ZM54.6673 580.438V587H52.9911V576.091H54.6104V577.795H54.7525C55.0082 577.241 55.3964 576.796 55.9173 576.46C56.4381 576.119 57.1104 575.949 57.9343 575.949C58.6729 575.949 59.3192 576.1 59.8732 576.403C60.4272 576.702 60.8581 577.156 61.1658 577.767C61.4736 578.373 61.6275 579.14 61.6275 580.068V587H59.9513V580.182C59.9513 579.325 59.7288 578.657 59.2837 578.179C58.8387 577.696 58.2279 577.455 57.4513 577.455C56.9163 577.455 56.4381 577.571 56.0167 577.803C55.6 578.035 55.271 578.373 55.0295 578.818C54.788 579.263 54.6673 579.803 54.6673 580.438ZM66.3665 580.438V587H64.6903V572.455H66.3665V577.795H66.5085C66.7642 577.232 67.1477 576.785 67.6591 576.453C68.1752 576.117 68.8617 575.949 69.7188 575.949C70.4621 575.949 71.1132 576.098 71.6719 576.396C72.2306 576.69 72.6638 577.142 72.9716 577.753C73.2841 578.359 73.4403 579.131 73.4403 580.068V587H71.7642V580.182C71.7642 579.315 71.5393 578.645 71.0895 578.172C70.6444 577.694 70.0265 577.455 69.2358 577.455C68.6866 577.455 68.1941 577.571 67.7585 577.803C67.3277 578.035 66.9867 578.373 66.7358 578.818C66.4896 579.263 66.3665 579.803 66.3665 580.438ZM81.0806 587.227C80.0295 587.227 79.1228 586.995 78.3604 586.531C77.6029 586.062 77.0181 585.409 76.6062 584.571C76.199 583.728 75.9954 582.748 75.9954 581.631C75.9954 580.513 76.199 579.528 76.6062 578.676C77.0181 577.819 77.591 577.152 78.3249 576.673C79.0636 576.19 79.9253 575.949 80.9102 575.949C81.4783 575.949 82.0394 576.044 82.5934 576.233C83.1474 576.422 83.6516 576.73 84.1062 577.156C84.5607 577.578 84.9229 578.136 85.1928 578.832C85.4627 579.528 85.5977 580.385 85.5977 581.403V582.114H77.1886V580.665H83.8931C83.8931 580.049 83.77 579.5 83.5238 579.017C83.2823 578.534 82.9367 578.153 82.4869 577.874C82.0418 577.594 81.5162 577.455 80.9102 577.455C80.2425 577.455 79.6649 577.62 79.1772 577.952C78.6942 578.278 78.3226 578.705 78.0621 579.23C77.8017 579.756 77.6715 580.319 77.6715 580.92V581.886C77.6715 582.71 77.8136 583.409 78.0977 583.982C78.3865 584.55 78.7866 584.983 79.2979 585.281C79.8093 585.575 80.4035 585.722 81.0806 585.722C81.521 585.722 81.9187 585.66 82.2738 585.537C82.6336 585.409 82.9438 585.22 83.2042 584.969C83.4646 584.713 83.6658 584.396 83.8079 584.017L85.4272 584.472C85.2567 585.021 84.9703 585.504 84.5678 585.92C84.1654 586.332 83.6682 586.654 83.0763 586.886C82.4845 587.114 81.8192 587.227 81.0806 587.227ZM93.7724 591.091V576.091H95.3917V577.824H95.5906C95.7137 577.634 95.8841 577.393 96.1019 577.099C96.3245 576.801 96.6417 576.536 97.0536 576.304C97.4703 576.067 98.0337 575.949 98.744 575.949C99.6625 575.949 100.472 576.179 101.173 576.638C101.874 577.097 102.421 577.748 102.814 578.591C103.207 579.434 103.403 580.428 103.403 581.574C103.403 582.729 103.207 583.731 102.814 584.578C102.421 585.421 101.876 586.074 101.18 586.538C100.484 586.998 99.6815 587.227 98.7724 587.227C98.0716 587.227 97.5105 587.111 97.0891 586.879C96.6677 586.643 96.3434 586.375 96.1161 586.077C95.8888 585.774 95.7137 585.523 95.5906 585.324H95.4485V591.091H93.7724ZM95.4201 581.545C95.4201 582.369 95.5408 583.096 95.7823 583.726C96.0238 584.351 96.3765 584.841 96.8406 585.196C97.3046 585.546 97.8728 585.722 98.5451 585.722C99.2459 585.722 99.8306 585.537 100.299 585.168C100.773 584.794 101.128 584.292 101.365 583.662C101.606 583.027 101.727 582.322 101.727 581.545C101.727 580.778 101.609 580.087 101.372 579.472C101.14 578.851 100.787 578.361 100.314 578.001C99.8448 577.637 99.2553 577.455 98.5451 577.455C97.8633 577.455 97.2904 577.627 96.8263 577.973C96.3623 578.314 96.012 578.792 95.7752 579.408C95.5385 580.018 95.4201 580.731 95.4201 581.545ZM105.96 587V576.091H107.579V577.739H107.693C107.892 577.199 108.252 576.761 108.772 576.425C109.293 576.089 109.88 575.92 110.534 575.92C110.657 575.92 110.811 575.923 110.995 575.928C111.18 575.932 111.32 575.939 111.414 575.949V577.653C111.358 577.639 111.227 577.618 111.024 577.589C110.825 577.556 110.614 577.54 110.392 577.54C109.861 577.54 109.388 577.651 108.971 577.874C108.559 578.091 108.233 578.394 107.991 578.783C107.754 579.166 107.636 579.604 107.636 580.097V587H105.96ZM117.643 587.227C116.592 587.227 115.685 586.995 114.923 586.531C114.165 586.062 113.581 585.409 113.169 584.571C112.761 583.728 112.558 582.748 112.558 581.631C112.558 580.513 112.761 579.528 113.169 578.676C113.581 577.819 114.154 577.152 114.887 576.673C115.626 576.19 116.488 575.949 117.473 575.949C118.041 575.949 118.602 576.044 119.156 576.233C119.71 576.422 120.214 576.73 120.669 577.156C121.123 577.578 121.485 578.136 121.755 578.832C122.025 579.528 122.16 580.385 122.16 581.403V582.114H113.751V580.665H120.456C120.456 580.049 120.333 579.5 120.086 579.017C119.845 578.534 119.499 578.153 119.049 577.874C118.604 577.594 118.079 577.455 117.473 577.455C116.805 577.455 116.227 577.62 115.74 577.952C115.257 578.278 114.885 578.705 114.625 579.23C114.364 579.756 114.234 580.319 114.234 580.92V581.886C114.234 582.71 114.376 583.409 114.66 583.982C114.949 584.55 115.349 584.983 115.86 585.281C116.372 585.575 116.966 585.722 117.643 585.722C118.083 585.722 118.481 585.66 118.836 585.537C119.196 585.409 119.506 585.22 119.767 584.969C120.027 584.713 120.228 584.396 120.37 584.017L121.99 584.472C121.819 585.021 121.533 585.504 121.13 585.92C120.728 586.332 120.231 586.654 119.639 586.886C119.047 587.114 118.382 587.227 117.643 587.227ZM118.865 574.784L117.387 572.795L115.91 574.784H114.319V574.67L116.62 571.716H118.154L120.456 574.67V574.784H118.865ZM124.71 587V576.091H126.329V577.795H126.471C126.699 577.213 127.065 576.761 127.572 576.439C128.079 576.112 128.687 575.949 129.397 575.949C130.117 575.949 130.716 576.112 131.194 576.439C131.677 576.761 132.054 577.213 132.324 577.795H132.437C132.717 577.232 133.136 576.785 133.694 576.453C134.253 576.117 134.923 575.949 135.704 575.949C136.68 575.949 137.477 576.254 138.098 576.865C138.718 577.471 139.028 578.416 139.028 579.699V587H137.352V579.699C137.352 578.894 137.132 578.319 136.691 577.973C136.251 577.627 135.733 577.455 135.136 577.455C134.369 577.455 133.775 577.687 133.353 578.151C132.932 578.61 132.721 579.192 132.721 579.898V587H131.017V579.528C131.017 578.908 130.815 578.409 130.413 578.03C130.011 577.646 129.492 577.455 128.858 577.455C128.422 577.455 128.015 577.571 127.636 577.803C127.262 578.035 126.959 578.357 126.727 578.768C126.5 579.176 126.386 579.647 126.386 580.182V587H124.71ZM142.093 587V576.091H143.769V587H142.093ZM142.945 574.273C142.618 574.273 142.337 574.161 142.1 573.939C141.868 573.716 141.752 573.449 141.752 573.136C141.752 572.824 141.868 572.556 142.1 572.334C142.337 572.111 142.618 572 142.945 572C143.272 572 143.551 572.111 143.783 572.334C144.02 572.556 144.138 572.824 144.138 573.136C144.138 573.449 144.02 573.716 143.783 573.939C143.551 574.161 143.272 574.273 142.945 574.273ZM151.271 587.227C150.286 587.227 149.422 586.993 148.678 586.524C147.94 586.055 147.362 585.4 146.945 584.557C146.533 583.714 146.327 582.729 146.327 581.602C146.327 580.466 146.533 579.474 146.945 578.626C147.362 577.779 147.94 577.121 148.678 576.652C149.422 576.183 150.286 575.949 151.271 575.949C152.255 575.949 153.117 576.183 153.856 576.652C154.599 577.121 155.177 577.779 155.589 578.626C156.005 579.474 156.214 580.466 156.214 581.602C156.214 582.729 156.005 583.714 155.589 584.557C155.177 585.4 154.599 586.055 153.856 586.524C153.117 586.993 152.255 587.227 151.271 587.227ZM151.271 585.722C152.019 585.722 152.634 585.53 153.117 585.146C153.6 584.763 153.958 584.259 154.19 583.634C154.422 583.009 154.538 582.331 154.538 581.602C154.538 580.873 154.422 580.194 154.19 579.564C153.958 578.934 153.6 578.425 153.117 578.037C152.634 577.649 152.019 577.455 151.271 577.455C150.522 577.455 149.907 577.649 149.424 578.037C148.941 578.425 148.584 578.934 148.352 579.564C148.12 580.194 148.004 580.873 148.004 581.602C148.004 582.331 148.12 583.009 148.352 583.634C148.584 584.259 148.941 584.763 149.424 585.146C149.907 585.53 150.522 585.722 151.271 585.722ZM166.5 578.534L164.994 578.96C164.899 578.709 164.76 578.465 164.575 578.229C164.395 577.987 164.149 577.788 163.836 577.632C163.524 577.476 163.124 577.398 162.636 577.398C161.968 577.398 161.412 577.552 160.967 577.859C160.527 578.162 160.306 578.548 160.306 579.017C160.306 579.434 160.458 579.763 160.761 580.004C161.064 580.246 161.538 580.447 162.181 580.608L163.801 581.006C164.776 581.242 165.503 581.605 165.981 582.092C166.459 582.575 166.699 583.198 166.699 583.96C166.699 584.585 166.519 585.144 166.159 585.636C165.804 586.129 165.306 586.517 164.667 586.801C164.028 587.085 163.285 587.227 162.437 587.227C161.324 587.227 160.404 586.986 159.674 586.503C158.945 586.02 158.484 585.314 158.289 584.386L159.88 583.989C160.032 584.576 160.318 585.016 160.74 585.31C161.166 585.603 161.722 585.75 162.409 585.75C163.19 585.75 163.81 585.584 164.27 585.253C164.734 584.917 164.966 584.514 164.966 584.045C164.966 583.667 164.833 583.349 164.568 583.094C164.303 582.833 163.895 582.639 163.346 582.511L161.528 582.085C160.529 581.848 159.795 581.482 159.326 580.984C158.862 580.482 158.63 579.855 158.63 579.102C158.63 578.487 158.803 577.942 159.149 577.469C159.499 576.995 159.975 576.624 160.576 576.354C161.182 576.084 161.869 575.949 162.636 575.949C163.716 575.949 164.563 576.186 165.179 576.659C165.799 577.133 166.239 577.758 166.5 578.534ZM171.438 572.455L171.295 582.909H169.648L169.506 572.455H171.438ZM170.472 587.114C170.121 587.114 169.821 586.988 169.57 586.737C169.319 586.486 169.193 586.186 169.193 585.835C169.193 585.485 169.319 585.184 169.57 584.933C169.821 584.682 170.121 584.557 170.472 584.557C170.822 584.557 171.123 584.682 171.374 584.933C171.625 585.184 171.75 585.485 171.75 585.835C171.75 586.067 171.691 586.28 171.572 586.474C171.459 586.669 171.305 586.825 171.111 586.943C170.921 587.057 170.708 587.114 170.472 587.114Z" fill="white"/>
<rect x="26" y="658" width="305" height="47" rx="20" fill="#E9ECF8"/>
<path d="M149.409 687V675.364H153.341C154.254 675.364 155 675.528 155.58 675.858C156.163 676.184 156.595 676.625 156.875 677.182C157.155 677.739 157.295 678.36 157.295 679.045C157.295 679.731 157.155 680.354 156.875 680.915C156.598 681.475 156.17 681.922 155.591 682.256C155.011 682.585 154.269 682.75 153.364 682.75H150.545V681.5H153.318C153.943 681.5 154.445 681.392 154.824 681.176C155.203 680.96 155.477 680.669 155.648 680.301C155.822 679.93 155.909 679.511 155.909 679.045C155.909 678.58 155.822 678.163 155.648 677.795C155.477 677.428 155.201 677.14 154.818 676.932C154.436 676.72 153.928 676.614 153.295 676.614H150.818V687H149.409ZM159.384 687V678.273H160.679V679.591H160.77C160.929 679.159 161.217 678.809 161.634 678.54C162.05 678.271 162.52 678.136 163.043 678.136C163.141 678.136 163.264 678.138 163.412 678.142C163.56 678.146 163.671 678.152 163.747 678.159V679.523C163.702 679.511 163.598 679.494 163.435 679.472C163.276 679.445 163.107 679.432 162.929 679.432C162.505 679.432 162.126 679.521 161.793 679.699C161.463 679.873 161.202 680.116 161.009 680.426C160.819 680.733 160.724 681.083 160.724 681.477V687H159.384ZM168.616 687.182C167.829 687.182 167.137 686.994 166.543 686.619C165.952 686.244 165.49 685.72 165.156 685.045C164.827 684.371 164.662 683.583 164.662 682.682C164.662 681.773 164.827 680.979 165.156 680.301C165.49 679.623 165.952 679.097 166.543 678.722C167.137 678.347 167.829 678.159 168.616 678.159C169.404 678.159 170.094 678.347 170.685 678.722C171.279 679.097 171.741 679.623 172.071 680.301C172.404 680.979 172.571 681.773 172.571 682.682C172.571 683.583 172.404 684.371 172.071 685.045C171.741 685.72 171.279 686.244 170.685 686.619C170.094 686.994 169.404 687.182 168.616 687.182ZM168.616 685.977C169.215 685.977 169.707 685.824 170.094 685.517C170.48 685.21 170.766 684.807 170.952 684.307C171.137 683.807 171.23 683.265 171.23 682.682C171.23 682.098 171.137 681.555 170.952 681.051C170.766 680.547 170.48 680.14 170.094 679.83C169.707 679.519 169.215 679.364 168.616 679.364C168.018 679.364 167.526 679.519 167.139 679.83C166.753 680.14 166.467 680.547 166.281 681.051C166.096 681.555 166.003 682.098 166.003 682.682C166.003 683.265 166.096 683.807 166.281 684.307C166.467 684.807 166.753 685.21 167.139 685.517C167.526 685.824 168.018 685.977 168.616 685.977ZM168.003 677.091L169.389 674.455H170.957L169.185 677.091H168.003ZM175.259 678.273L177.349 681.841L179.44 678.273H180.986L178.168 682.636L180.986 687H179.44L177.349 683.614L175.259 687H173.713L176.486 682.636L173.713 678.273H175.259ZM182.899 687V678.273H184.24V687H182.899ZM183.581 676.818C183.32 676.818 183.094 676.729 182.905 676.551C182.719 676.373 182.626 676.159 182.626 675.909C182.626 675.659 182.719 675.445 182.905 675.267C183.094 675.089 183.32 675 183.581 675C183.842 675 184.066 675.089 184.251 675.267C184.441 675.445 184.536 675.659 184.536 675.909C184.536 676.159 184.441 676.373 184.251 676.551C184.066 676.729 183.842 676.818 183.581 676.818ZM186.696 687V678.273H187.991V679.636H188.105C188.287 679.17 188.58 678.809 188.986 678.551C189.391 678.29 189.878 678.159 190.446 678.159C191.022 678.159 191.501 678.29 191.884 678.551C192.27 678.809 192.571 679.17 192.787 679.636H192.878C193.101 679.186 193.437 678.828 193.884 678.562C194.33 678.294 194.866 678.159 195.491 678.159C196.272 678.159 196.91 678.403 197.406 678.892C197.902 679.377 198.151 680.133 198.151 681.159V687H196.81V681.159C196.81 680.515 196.634 680.055 196.281 679.778C195.929 679.502 195.514 679.364 195.037 679.364C194.423 679.364 193.948 679.549 193.611 679.92C193.274 680.288 193.105 680.754 193.105 681.318V687H191.741V681.023C191.741 680.527 191.58 680.127 191.259 679.824C190.937 679.517 190.522 679.364 190.014 679.364C189.666 679.364 189.34 679.456 189.037 679.642C188.738 679.828 188.495 680.085 188.31 680.415C188.128 680.741 188.037 681.117 188.037 681.545V687H186.696ZM204.148 687.182C203.36 687.182 202.669 686.994 202.074 686.619C201.483 686.244 201.021 685.72 200.688 685.045C200.358 684.371 200.193 683.583 200.193 682.682C200.193 681.773 200.358 680.979 200.688 680.301C201.021 679.623 201.483 679.097 202.074 678.722C202.669 678.347 203.36 678.159 204.148 678.159C204.936 678.159 205.625 678.347 206.216 678.722C206.811 679.097 207.273 679.623 207.602 680.301C207.936 680.979 208.102 681.773 208.102 682.682C208.102 683.583 207.936 684.371 207.602 685.045C207.273 685.72 206.811 686.244 206.216 686.619C205.625 686.994 204.936 687.182 204.148 687.182ZM204.148 685.977C204.746 685.977 205.239 685.824 205.625 685.517C206.011 685.21 206.297 684.807 206.483 684.307C206.669 683.807 206.761 683.265 206.761 682.682C206.761 682.098 206.669 681.555 206.483 681.051C206.297 680.547 206.011 680.14 205.625 679.83C205.239 679.519 204.746 679.364 204.148 679.364C203.549 679.364 203.057 679.519 202.67 679.83C202.284 680.14 201.998 680.547 201.812 681.051C201.627 681.555 201.534 682.098 201.534 682.682C201.534 683.265 201.627 683.807 201.812 684.307C201.998 684.807 202.284 685.21 202.67 685.517C203.057 685.824 203.549 685.977 204.148 685.977Z" fill="#4B4B4B"/>
<path d="M160.409 758V746.364H164.341C165.254 746.364 166 746.528 166.58 746.858C167.163 747.184 167.595 747.625 167.875 748.182C168.155 748.739 168.295 749.36 168.295 750.045C168.295 750.731 168.155 751.354 167.875 751.915C167.598 752.475 167.17 752.922 166.591 753.256C166.011 753.585 165.269 753.75 164.364 753.75H161.545V752.5H164.318C164.943 752.5 165.445 752.392 165.824 752.176C166.203 751.96 166.477 751.669 166.648 751.301C166.822 750.93 166.909 750.511 166.909 750.045C166.909 749.58 166.822 749.163 166.648 748.795C166.477 748.428 166.201 748.14 165.818 747.932C165.436 747.72 164.928 747.614 164.295 747.614H161.818V758H160.409ZM175.884 754.432V749.273H177.224V758H175.884V756.523H175.793C175.588 756.966 175.27 757.343 174.838 757.653C174.406 757.96 173.861 758.114 173.202 758.114C172.656 758.114 172.171 757.994 171.747 757.756C171.323 757.513 170.99 757.15 170.747 756.665C170.505 756.176 170.384 755.561 170.384 754.818V749.273H171.724V754.727C171.724 755.364 171.902 755.871 172.259 756.25C172.618 756.629 173.077 756.818 173.634 756.818C173.967 756.818 174.306 756.733 174.651 756.562C174.999 756.392 175.291 756.131 175.526 755.778C175.764 755.426 175.884 754.977 175.884 754.432ZM181.021 746.364V758H179.68V746.364H181.021ZM186.045 758.205C185.492 758.205 184.991 758.1 184.54 757.892C184.089 757.68 183.731 757.375 183.466 756.977C183.201 756.576 183.068 756.091 183.068 755.523C183.068 755.023 183.167 754.617 183.364 754.307C183.561 753.992 183.824 753.746 184.153 753.568C184.483 753.39 184.847 753.258 185.244 753.17C185.646 753.08 186.049 753.008 186.455 752.955C186.985 752.886 187.415 752.835 187.744 752.801C188.078 752.763 188.32 752.701 188.472 752.614C188.627 752.527 188.705 752.375 188.705 752.159V752.114C188.705 751.553 188.551 751.117 188.244 750.807C187.941 750.496 187.481 750.341 186.864 750.341C186.223 750.341 185.722 750.481 185.358 750.761C184.994 751.042 184.739 751.341 184.591 751.659L183.318 751.205C183.545 750.674 183.848 750.261 184.227 749.966C184.61 749.667 185.027 749.458 185.477 749.341C185.932 749.22 186.379 749.159 186.818 749.159C187.098 749.159 187.42 749.193 187.784 749.261C188.152 749.326 188.506 749.46 188.847 749.665C189.191 749.869 189.477 750.178 189.705 750.591C189.932 751.004 190.045 751.557 190.045 752.25V758H188.705V756.818H188.636C188.545 757.008 188.394 757.21 188.182 757.426C187.97 757.642 187.688 757.826 187.335 757.977C186.983 758.129 186.553 758.205 186.045 758.205ZM186.25 757C186.78 757 187.227 756.896 187.591 756.688C187.958 756.479 188.235 756.21 188.42 755.881C188.61 755.551 188.705 755.205 188.705 754.841V753.614C188.648 753.682 188.523 753.744 188.33 753.801C188.14 753.854 187.92 753.902 187.67 753.943C187.424 753.981 187.184 754.015 186.949 754.045C186.718 754.072 186.53 754.095 186.386 754.114C186.038 754.159 185.712 754.233 185.409 754.335C185.11 754.434 184.867 754.583 184.682 754.784C184.5 754.981 184.409 755.25 184.409 755.591C184.409 756.057 184.581 756.409 184.926 756.648C185.275 756.883 185.716 757 186.25 757ZM192.493 758V749.273H193.788V750.591H193.879C194.038 750.159 194.326 749.809 194.743 749.54C195.16 749.271 195.629 749.136 196.152 749.136C196.25 749.136 196.374 749.138 196.521 749.142C196.669 749.146 196.781 749.152 196.857 749.159V750.523C196.811 750.511 196.707 750.494 196.544 750.472C196.385 750.445 196.216 750.432 196.038 750.432C195.614 750.432 195.235 750.521 194.902 750.699C194.572 750.873 194.311 751.116 194.118 751.426C193.929 751.733 193.834 752.083 193.834 752.477V758H192.493Z" fill="#EFF1FA"/>
<path d="M-58.652 5.18687C-55.415 1.24387 -49.902 -0.163136 -45.037 1.03086C-40.936 1.09486 -24.786 10.9899 -24.784 3.88588C-24.5271 -6.56112 -20.8501 -15.5571 -8.68505 -11.5031C-5.33805 -10.2641 -2.44305 -8.16615 0.551949 -6.29015C2.69495 -4.83815 5.97197 -3.70115 7.39497 -6.66014C8.71297 -9.06815 9.14196 -11.8621 10.502 -14.2551C13.7 -20.6241 21.916 -21.9871 27.867 -18.7701C30.922 -17.3651 33.45 -15.1111 35.788 -12.7371C37.074 -11.4281 38.299 -10.0511 39.716 -8.88213C40.9829 -7.61613 41.627 -8.02013 42.411 -9.47213C44.325 -12.9951 45.251 -16.9671 47.245 -20.4581C50.249 -26.4791 57.203 -29.7511 63.784 -28.8531C83.437 -24.9171 90.7249 -0.513134 86.4189 17.0139C81.7919 38.9039 61.183 51.9529 42.441 61.2119C21.373 71.8499 -4.07305 77.7979 -26.594 68.1189C-41.659 62.1049 -55.134 50.4379 -60.373 34.7619C-62.673 27.6859 -64.072 19.2719 -61.962 11.9549C-61.268 9.55288 -60.196 7.26787 -58.652 5.18687Z" fill="#AAB2D5"/>
</g>
<defs>
<clipPath id="clip0_538_409">
<rect width="360" height="800" fill="white"/>
</clipPath>
<clipPath id="clip1_538_409">
<rect width="247" height="257" fill="white" transform="translate(46 159)"/>
</clipPath>
</defs>
</svg>
