<?xml version="1.0" standalone="no"?>
<!DOCTYPE svg PUBLIC "-//W3C//DTD SVG 20010904//EN"
 "http://www.w3.org/TR/2001/REC-SVG-20010904/DTD/svg10.dtd">
<svg version="1.0" xmlns="http://www.w3.org/2000/svg"
 width="1024.000000pt" height="1024.000000pt" viewBox="0 0 1024.000000 1024.000000"
 preserveAspectRatio="xMidYMid meet">

<g transform="translate(0.000000,1024.000000) scale(0.100000,-0.100000)"
fill="#000000" stroke="none">
<path d="M6177 9104 c-4 -4 -7 -259 -7 -566 0 -394 -3 -566 -11 -581 -6 -12
-23 -34 -37 -49 -14 -16 -21 -28 -14 -28 13 0 62 62 62 78 0 24 18 10 49 -38
43 -66 65 -80 126 -80 64 0 107 26 143 85 15 24 29 44 32 44 3 0 17 -20 32
-44 36 -60 79 -85 145 -85 45 0 58 5 89 32 76 67 74 45 74 676 0 531 -1 563
-17 560 -17 -3 -18 -39 -20 -557 -2 -363 -6 -566 -13 -587 -17 -51 -72 -94
-122 -94 -34 0 -46 6 -75 36 -72 77 -68 39 -71 652 -3 545 -4 553 -23 550 -19
-3 -20 -13 -19 -564 l0 -561 -23 -34 c-31 -47 -83 -79 -126 -79 -44 0 -72 18
-103 67 l-23 38 -5 565 c-4 499 -7 565 -20 568 -9 1 -19 0 -23 -4z"/>
<path d="M5853 8558 c2 -382 7 -554 15 -579 12 -37 83 -119 102 -119 6 0 -2
17 -19 38 -16 20 -34 55 -40 77 -7 26 -11 226 -11 583 l0 542 -26 0 -26 0 5
-542z"/>
<path d="M2586 8981 c-105 -35 -175 -81 -251 -163 -106 -114 -163 -277 -150
-423 8 -86 46 -204 86 -267 42 -65 147 -160 211 -192 176 -86 375 -87 558 -3
53 24 195 163 233 228 38 64 67 187 67 280 0 167 -44 275 -160 392 -65 65 -94
85 -176 124 -96 45 -100 46 -213 50 -107 3 -123 1 -205 -26z m314 -32 c154
-33 325 -190 372 -342 30 -94 31 -235 3 -321 -41 -128 -154 -261 -274 -321
-209 -105 -486 -46 -648 139 -177 201 -160 520 38 711 137 132 306 177 509
134z"/>
<path d="M2687 8720 c-98 -25 -183 -101 -213 -192 -22 -67 -15 -178 15 -241
38 -78 161 -147 261 -147 58 0 165 32 210 62 54 37 92 117 98 204 6 92 -9 147
-57 210 -55 74 -113 105 -202 109 -41 2 -91 0 -112 -5z m191 -73 c50 -24 98
-75 118 -123 8 -19 14 -62 14 -96 0 -116 -58 -188 -184 -228 l-75 -23 -53 22
c-141 59 -176 101 -185 225 -4 61 -1 77 19 116 28 55 96 104 169 124 63 18
117 12 177 -17z"/>
<path d="M2724 8459 c-17 -19 -17 -23 -3 -47 22 -39 43 -38 69 3 18 29 20 38
10 50 -18 21 -54 18 -76 -6z"/>
<path d="M4459 8932 c-8 -3 -24 -14 -36 -25 -29 -26 -31 -87 -5 -109 42 -37
68 -26 50 21 -11 31 -4 51 20 51 18 0 42 -18 42 -31 0 -4 -9 -9 -20 -12 -26
-7 -26 -34 1 -42 28 -9 48 12 56 58 8 50 -15 83 -60 89 -19 2 -41 2 -48 0z"/>
<path d="M3628 8884 c-34 -18 -35 -29 -3 -50 47 -30 96 6 61 45 -22 25 -23 25
-58 5z"/>
<path d="M3834 8856 c-9 -22 4 -36 32 -36 21 0 25 4 22 23 -4 26 -45 37 -54
13z"/>
<path d="M3832 8558 c2 -35 7 -44 25 -46 14 -2 27 5 38 22 23 34 6 66 -36 66
-29 0 -30 -1 -27 -42z"/>
<path d="M3631 8581 c-16 -11 -7 -47 15 -55 23 -9 34 2 34 35 0 30 -20 38 -49
20z"/>
<path d="M4060 8552 c0 -35 23 -48 45 -25 23 22 14 47 -18 51 -24 3 -27 0 -27
-26z"/>
<path d="M3653 8280 c-8 -12 -9 -21 -3 -25 15 -9 30 4 30 26 0 24 -12 24 -27
-1z"/>
<path d="M4040 8266 c0 -31 19 -46 46 -36 48 18 42 43 -13 53 -30 6 -33 4 -33
-17z"/>
<path d="M4377 8203 c-13 -13 -7 -42 12 -52 26 -15 60 21 41 44 -13 15 -42 20
-53 8z"/>
<path d="M1840 8068 c-21 -35 -35 -101 -25 -118 12 -20 23 -10 29 29 3 21 15
49 26 62 20 24 20 24 35 5 11 -14 15 -47 16 -110 1 -50 3 -104 4 -121 5 -58 5
-1240 0 -1275 -2 -19 -10 -66 -17 -103 l-12 -69 -17 24 c-10 12 -25 37 -33 53
-9 17 -16 23 -16 15 0 -18 38 -161 45 -168 15 -15 35 17 56 90 l23 83 0 792 1
791 -24 26 c-34 36 -67 34 -91 -6z"/>
<path d="M7104 7956 c-3 -8 0 -25 7 -37 6 -13 12 -31 13 -41 2 -29 21 -22 24
9 2 15 11 33 20 39 20 15 9 29 -31 38 -19 5 -29 2 -33 -8z"/>
<path d="M3832 7948 c-17 -17 -15 -35 9 -59 20 -20 22 -20 40 -3 24 22 24 50
0 64 -25 13 -34 13 -49 -2z"/>
<path d="M4397 7942 c-22 -25 -21 -45 3 -67 20 -18 21 -18 47 8 23 23 25 29
15 52 -14 29 -42 33 -65 7z"/>
<path d="M3425 7911 c-3 -5 -1 -12 5 -16 5 -3 10 1 10 9 0 18 -6 21 -15 7z"/>
<path d="M8323 7864 c1 -48 3 -53 14 -38 12 17 13 17 13 0 0 -12 5 -16 16 -12
41 16 61 16 73 3 9 -12 9 -18 -4 -30 -8 -9 -15 -21 -15 -27 0 -6 -4 -8 -10 -5
-5 3 -10 -1 -10 -9 0 -22 8 -20 47 10 41 31 47 74 9 74 -31 0 -50 24 -44 54 6
28 -7 36 -57 36 l-33 0 1 -56z m24 16 c1 -11 -2 -18 -8 -15 -11 7 -12 35 -1
35 4 0 8 -9 9 -20z"/>
<path d="M3628 7903 c7 -3 16 -2 19 1 4 3 -2 6 -13 5 -11 0 -14 -3 -6 -6z"/>
<path d="M1724 7855 c-3 -26 0 -91 9 -153 l15 -107 1 147 c1 145 -11 202 -25
113z"/>
<path d="M8400 7810 c0 -5 5 -10 10 -10 6 0 10 5 10 10 0 6 -4 10 -10 10 -5 0
-10 -4 -10 -10z"/>
<path d="M1744 7250 c0 -146 2 -205 3 -132 2 72 2 192 0 265 -1 72 -3 13 -3
-133z"/>
<path d="M2538 7357 c-90 -26 -154 -93 -167 -178 -12 -74 3 -130 50 -183 46
-53 98 -80 217 -112 136 -38 173 -78 134 -152 -51 -99 -189 -99 -313 -1 l-38
30 -35 -53 -35 -52 32 -27 c17 -16 61 -43 97 -60 57 -29 75 -33 146 -34 70 0
88 4 140 30 56 28 61 35 102 115 38 73 43 91 38 128 -15 111 -73 162 -253 218
-127 40 -163 69 -163 129 0 62 62 99 156 93 52 -3 72 -10 111 -37 43 -31 48
-32 58 -16 5 10 21 31 34 47 l25 30 -25 19 c-13 11 -46 32 -74 46 -60 31 -165
40 -237 20z"/>
<path d="M7935 7361 c-52 -14 -92 -39 -133 -86 -78 -89 -76 -197 6 -286 43
-46 57 -53 177 -95 77 -26 137 -53 148 -65 33 -40 14 -114 -39 -154 -28 -21
-120 -18 -173 6 -25 11 -63 35 -86 54 l-41 33 -42 -48 -42 -49 43 -35 c70 -57
150 -89 239 -94 69 -4 84 -2 132 22 93 46 164 159 152 244 -14 106 -83 167
-256 226 -118 40 -150 66 -150 121 0 25 8 40 37 65 34 30 40 32 99 28 49 -3
74 -11 115 -37 49 -30 55 -32 64 -16 5 10 20 30 33 45 l22 28 -31 27 c-56 46
-110 68 -179 71 -36 2 -78 0 -95 -5z"/>
<path d="M3325 6954 c0 -400 0 -405 20 -400 11 3 38 6 60 6 l40 0 -3 400 -2
400 -58 0 -57 0 0 -406z"/>
<path d="M4529 7354 c-16 -5 -63 -97 -148 -290 -22 -51 -53 -117 -69 -148 -17
-30 -33 -74 -37 -97 l-7 -42 -37 89 c-20 49 -79 178 -131 287 l-94 197 -43 0
-43 0 0 -63 c0 -35 -11 -139 -24 -233 -14 -93 -28 -225 -31 -293 -4 -68 -12
-143 -19 -165 l-12 -41 71 -2 71 -2 13 217 c20 338 9 329 123 101 135 -268
165 -319 174 -294 4 11 22 56 39 100 18 44 38 98 45 120 24 77 135 282 144
267 3 -6 9 -109 12 -229 3 -120 7 -231 8 -248 2 -30 2 -30 56 -26 30 1 56 4
57 5 2 2 -17 538 -25 671 l-7 120 -35 2 c-19 0 -42 -1 -51 -3z"/>
<path d="M5080 6957 l0 -403 60 -2 60 -3 0 136 c0 156 -13 141 127 148 88 5
167 34 212 77 35 34 73 128 73 180 0 81 -20 131 -76 186 -30 31 -67 57 -91 64
-23 8 -110 15 -202 17 l-163 3 0 -403z m345 267 c29 -19 55 -72 55 -114 0 -42
-23 -90 -61 -126 -29 -27 -34 -29 -122 -29 -109 0 -102 -12 -92 161 l7 123 46
4 c69 6 141 -2 167 -19z"/>
<path d="M5960 6971 c0 -214 -3 -396 -6 -405 -5 -14 19 -16 230 -16 l236 0 0
65 0 65 -175 0 -175 0 0 340 0 340 -55 0 -55 0 0 -389z"/>
<path d="M7058 7353 l-238 -3 0 -400 0 -400 239 0 239 0 6 23 c3 12 6 41 6 65
l0 42 -184 0 -183 0 -8 101 c-4 55 -4 103 -1 106 2 3 82 8 175 11 l171 5 0 53
0 54 -137 0 c-76 0 -154 3 -175 6 l-36 6 -1 104 -1 103 46 7 c26 4 109 4 185
2 l139 -5 0 63 c0 35 -1 63 -2 62 -2 -2 -110 -4 -240 -5z"/>
<path d="M8580 6560 c-13 -9 -13 -10 0 -10 13 0 13 -1 0 -10 -13 -9 -13 -11 0
-20 8 -6 26 -9 40 -8 19 2 25 9 25 28 0 19 -6 26 -25 28 -14 1 -32 -2 -40 -8z"/>
<path d="M8477 6153 c-12 -11 -7 -40 8 -53 19 -16 65 2 65 24 0 25 -56 47 -73
29z"/>
<path d="M7796 6119 c-60 -48 -73 -132 -32 -213 l24 -48 -32 -13 c-96 -41
-139 -183 -78 -264 10 -14 40 -39 66 -55 73 -46 193 -39 268 16 13 10 20 7 43
-20 29 -34 46 -40 63 -19 9 10 3 26 -23 64 -34 50 -34 52 -16 75 10 12 21 36
25 51 8 32 -8 100 -27 116 -11 9 -14 0 -14 -47 0 -31 -6 -68 -13 -81 l-13 -25
-31 35 c-17 19 -44 51 -61 70 -16 19 -38 45 -48 56 -19 21 -18 22 15 38 51 27
97 76 108 116 13 47 -9 108 -52 144 -40 34 -132 36 -172 4z m144 -57 c44 -35
21 -111 -45 -152 -43 -27 -50 -26 -74 14 -26 41 -28 112 -4 138 22 24 93 24
123 0z m-48 -327 c38 -44 78 -92 89 -107 l20 -27 -26 -17 c-35 -23 -111 -36
-163 -28 -74 11 -128 89 -107 155 11 32 86 110 104 107 8 -2 46 -39 83 -83z"/>
<path d="M5360 6017 c-3 -3 -70 -8 -150 -11 l-145 -5 -1 -230 -1 -229 153 2
154 1 0 48 0 47 -116 0 -116 0 7 48 c4 26 9 51 12 56 3 4 43 6 90 4 80 -4 84
-3 89 18 14 54 6 59 -94 62 l-92 3 0 44 0 45 83 2 c45 1 93 2 107 3 19 0 26 7
28 28 4 33 -1 71 -8 64z"/>
<path d="M6014 5793 c-17 -17 -16 -18 27 -25 24 -3 306 -7 627 -7 525 -1 583
1 589 15 3 9 0 20 -8 25 -8 5 -285 9 -616 9 -560 0 -603 -1 -619 -17z"/>
<path d="M4180 5789 c0 -5 5 -7 12 -3 8 5 9 2 5 -10 -6 -15 3 -16 91 -14 83 3
97 6 100 21 3 15 -7 17 -102 17 -68 0 -106 -4 -106 -11z"/>
<path d="M8435 5779 c-4 -13 0 -27 11 -40 22 -24 40 -24 54 0 13 25 13 27 -6
45 -22 22 -51 20 -59 -5z m45 -39 c0 -5 -4 -10 -10 -10 -5 0 -10 5 -10 10 0 6
5 10 10 10 6 0 10 -4 10 -10z"/>
<path d="M4085 5780 c3 -5 17 -10 30 -10 13 0 27 5 30 10 4 6 -8 10 -30 10
-22 0 -34 -4 -30 -10z"/>
<path d="M2175 4626 l0 -374 60 -5 c33 -3 60 -5 60 -4 0 1 -1 172 -3 380 l-3
377 -57 0 -57 0 0 -374z"/>
<path d="M3187 4993 l-58 -4 6 -227 c3 -125 8 -240 11 -257 5 -30 5 -30 -13
-9 -10 12 -54 66 -98 120 -43 54 -120 146 -170 204 -50 58 -101 120 -113 138
-21 29 -28 32 -68 30 l-44 -3 0 -367 0 -368 55 0 55 0 0 245 c0 149 4 245 10
245 12 0 143 -153 282 -330 l113 -145 52 -3 52 -3 -2 370 c-1 204 -4 370 -7
369 -3 -1 -31 -3 -63 -5z"/>
<path d="M4256 4988 c5 -7 11 -125 14 -263 7 -284 13 -311 93 -393 61 -63 103
-82 184 -82 116 1 175 39 226 149 34 72 32 48 40 449 l3 153 -52 -2 -51 -2 -6
-241 c-3 -149 -10 -254 -17 -276 -16 -46 -65 -97 -106 -110 -72 -24 -183 42
-204 121 -7 23 -10 130 -8 268 l3 230 -29 5 c-52 11 -98 7 -90 -6z"/>
<path d="M5320 4993 c-14 -3 -56 -18 -93 -34 -37 -17 -76 -27 -86 -24 -10 3
-28 -2 -40 -12 -19 -16 -23 -34 -33 -145 -10 -105 -9 -150 4 -263 15 -135 15
-136 51 -173 21 -21 61 -50 90 -65 125 -63 303 -11 372 107 18 31 24 58 25
111 3 116 14 105 -105 105 -58 0 -105 -4 -105 -9 0 -5 11 -16 25 -25 13 -9 29
-32 34 -53 36 -129 -177 -197 -279 -89 -12 13 -22 30 -24 37 -1 8 -6 21 -11
29 -5 8 -10 69 -9 136 0 109 2 126 25 170 20 40 35 54 79 77 84 42 140 33 218
-38 l41 -37 33 38 c18 20 37 43 41 51 18 31 -57 82 -151 102 -54 11 -59 11
-102 4z"/>
<path d="M5993 4993 l-173 -3 0 -24 c0 -13 3 -38 6 -55 l7 -31 76 0 c42 0 83
-5 91 -10 13 -8 15 -49 16 -262 0 -139 -3 -277 -6 -306 l-7 -52 63 2 c59 3 61
4 47 21 -14 15 -15 51 -9 304 3 158 8 288 9 289 2 2 47 6 100 10 l98 7 -3 56
-3 56 -70 0 c-38 1 -148 -1 -242 -2z"/>
<path d="M6551 4758 c7 -260 -2 -471 -22 -494 -10 -12 0 -14 67 -14 l79 0 2
333 c1 182 5 351 8 375 l6 42 -73 0 -73 0 6 -242z"/>
<path d="M6872 4993 c-49 -4 -52 -5 -41 -25 12 -22 61 -155 136 -367 66 -189
156 -371 184 -371 5 0 9 7 9 16 0 25 68 173 258 564 34 69 69 137 79 152 9 15
14 30 11 34 -4 3 -34 3 -66 -1 l-60 -7 -47 -101 c-26 -56 -62 -138 -80 -182
-18 -44 -41 -96 -52 -115 -11 -19 -28 -56 -38 -82 -10 -27 -21 -48 -25 -48 -6
0 -113 292 -174 477 -12 35 -25 62 -31 61 -5 -1 -34 -3 -63 -5z"/>
<path d="M7949 4977 c-157 -66 -226 -155 -249 -319 -20 -142 29 -254 148 -342
186 -136 432 -79 550 126 54 95 68 160 52 242 -17 89 -42 139 -100 200 -74 78
-142 108 -255 113 -77 3 -98 0 -146 -20z m269 -129 c22 -15 55 -48 72 -73 147
-214 -68 -488 -311 -396 -66 25 -124 77 -150 135 -20 45 -26 166 -9 210 16 42
82 108 135 133 43 20 62 23 136 21 74 -3 91 -7 127 -30z"/>
<path d="M3530 4930 l0 -60 109 0 c92 0 110 -3 115 -17 12 -29 26 -526 16
-567 l-8 -39 45 7 c25 3 57 6 71 6 20 0 22 2 12 15 -8 10 -13 100 -17 303 l-6
289 39 6 c21 4 67 7 102 7 l62 0 0 55 0 55 -270 0 -270 0 0 -60z"/>
<path d="M3930 3497 l0 -223 -194 4 c-188 4 -194 4 -205 -16 -20 -38 11 -43
214 -36 l186 7 -3 -213 c-3 -191 -1 -214 14 -223 9 -6 21 -8 25 -3 4 4 9 101
11 216 3 197 4 208 23 213 11 3 107 3 214 0 178 -6 195 -5 201 11 4 10 2 22
-4 28 -6 6 -96 12 -220 16 l-209 5 5 218 5 219 -32 0 -31 0 0 -223z"/>
<path d="M5950 3666 c0 -18 -3 -49 -6 -67 l-6 -34 31 33 c36 36 41 37 60 20
11 -10 13 -10 7 0 -5 8 3 12 28 12 42 0 46 14 11 46 -22 21 -29 22 -52 11 -21
-9 -27 -9 -31 1 -2 6 -12 12 -23 12 -15 0 -19 -7 -19 -34z"/>
<path d="M7096 3689 c-100 -13 -179 -35 -284 -80 -111 -47 -158 -75 -234 -141
-105 -90 -302 -345 -385 -498 -10 -19 -35 -60 -55 -90 -45 -70 -118 -210 -118
-227 0 -15 120 -17 200 -4 l45 7 -35 6 c-19 4 -65 10 -102 14 -41 4 -68 11
-68 18 1 6 27 47 59 91 l57 80 75 7 c120 10 1904 13 1951 3 24 -6 29 -4 23 6
-18 31 -123 180 -184 260 -37 48 -85 123 -108 167 -109 203 -363 355 -640 382
-110 11 -103 11 -197 -1z m349 -70 c188 -58 338 -168 418 -307 25 -43 76 -112
114 -153 62 -69 178 -228 171 -235 -2 -1 -442 -4 -979 -6 l-976 -3 25 40 c14
22 63 92 110 155 47 63 95 129 107 145 13 17 61 69 107 115 69 70 104 96 199
146 125 68 254 112 363 125 112 12 261 3 341 -22z"/>
<path d="M8802 3637 c-28 -30 -77 -140 -91 -205 -16 -76 -14 -119 10 -230 19
-84 20 -104 10 -155 -15 -75 -73 -226 -116 -302 -18 -33 -50 -117 -70 -185
-31 -107 -144 -361 -175 -394 -14 -15 -23 82 -16 179 9 114 -8 195 -62 303
-61 125 -115 166 -166 129 -26 -19 -32 -99 -12 -175 21 -83 64 -165 125 -236
49 -58 101 -171 101 -219 0 -41 -89 -218 -166 -332 -99 -147 -186 -256 -303
-378 -91 -95 -108 -125 -55 -96 81 43 313 312 438 507 l47 73 172 -3 172 -3
67 33 c75 37 158 119 158 157 0 31 -42 45 -134 45 -138 0 -266 -53 -329 -137
-28 -37 -79 -65 -93 -50 -2 2 37 82 87 178 51 96 106 203 122 239 16 36 34 68
41 72 6 4 47 8 92 8 207 0 356 75 422 211 34 69 18 89 -73 89 -144 0 -334
-112 -396 -232 -18 -34 -49 -52 -49 -28 0 18 47 134 88 215 48 98 117 284 127
345 5 28 16 51 31 63 22 17 103 170 119 226 10 35 8 174 -5 219 -22 84 -75
115 -118 69z m78 -185 c0 -69 -5 -96 -31 -162 -16 -44 -38 -89 -48 -101 l-18
-23 -13 52 c-29 123 -9 263 52 362 l21 35 18 -40 c13 -28 19 -65 19 -123z
m-685 -738 c45 -45 125 -244 125 -310 0 -48 -13 -49 -53 -5 -44 49 -98 186
-105 269 -5 65 3 76 33 46z m845 -10 c0 -24 -97 -120 -143 -142 -66 -31 -127
-49 -191 -57 l-59 -7 19 31 c21 32 118 112 169 139 86 45 205 66 205 36z
m-223 -610 c6 -18 -57 -75 -105 -96 -60 -27 -146 -39 -220 -32 l-63 7 23 25
c25 28 145 87 205 101 51 13 155 9 160 -5z"/>
<path d="M3161 3613 c7 -10 15 -20 16 -22 2 -2 3 3 3 11 0 9 -7 19 -16 22 -15
6 -15 4 -3 -11z"/>
<path d="M6087 3607 c-3 -9 -16 -17 -27 -17 -11 0 -20 -4 -20 -10 0 -15 36
-12 50 5 6 8 10 20 8 27 -3 8 -7 6 -11 -5z"/>
<path d="M3647 3583 c-16 -16 -4 -46 36 -88 24 -25 51 -45 60 -45 42 0 24 90
-25 124 -23 16 -60 21 -71 9z"/>
<path d="M4219 3574 c-33 -17 -56 -51 -65 -99 -6 -36 -6 -37 17 -30 73 22 128
79 110 113 -15 27 -33 32 -62 16z"/>
<path d="M8397 3223 c-13 -12 -7 -148 8 -208 21 -79 88 -213 130 -261 33 -37
36 -38 49 -21 8 10 20 50 27 88 11 60 10 81 -4 147 -32 145 -110 262 -176 262
-15 0 -31 -3 -34 -7z m78 -80 c58 -58 105 -198 105 -316 l0 -62 -20 35 c-65
115 -108 227 -125 328 -8 49 1 53 40 15z"/>
<path d="M3703 3040 c-18 -10 -40 -31 -49 -45 -16 -24 -16 -27 1 -45 10 -11
25 -20 33 -20 23 0 102 85 102 109 0 28 -43 29 -87 1z"/>
<path d="M4160 3031 c0 -21 12 -39 45 -70 24 -22 47 -41 50 -41 2 0 12 11 20
24 15 23 15 27 0 50 -19 29 -74 66 -99 66 -11 0 -16 -9 -16 -29z"/>
<path d="M3324 2575 c-9 -14 -27 -28 -40 -31 -30 -8 -30 -14 0 -58 17 -25 26
-32 34 -24 8 8 19 8 38 -1 15 -6 28 -10 29 -9 2 2 12 18 23 37 l20 33 -40 39
c-23 22 -43 39 -44 39 -2 0 -11 -11 -20 -25z"/>
<path d="M6319 2151 c-17 -14 -19 -20 -10 -44 21 -56 71 -39 71 24 0 33 -31
44 -61 20z"/>
<path d="M6290 1886 c0 -43 73 -61 105 -26 21 23 17 25 -57 34 -37 4 -48 2
-48 -8z"/>
<path d="M2548 1603 c6 -2 18 -2 25 0 6 3 1 5 -13 5 -14 0 -19 -2 -12 -5z"/>
<path d="M6293 1574 c-59 -46 -30 -128 49 -141 33 -5 41 -2 73 30 42 42 44 65
9 106 -34 40 -84 42 -131 5z m99 -11 c24 -21 23 -54 -2 -81 -24 -26 -52 -28
-74 -6 -22 21 -20 60 4 84 24 24 47 25 72 3z"/>
</g>
</svg>
