<svg width="360" height="800" viewBox="0 0 360 800" fill="none" xmlns="http://www.w3.org/2000/svg">
<g clip-path="url(#clip0_539_332)">
<rect width="360" height="800" fill="#757FB2"/>
<path d="M42.9766 482.277C42.1953 482.949 41.3203 483.465 40.3516 483.824C39.3828 484.184 38.3789 484.363 37.3398 484.363C36.543 484.363 35.7734 484.258 35.0312 484.047C34.2969 483.844 33.6055 483.555 32.957 483.18C32.3164 482.797 31.7305 482.34 31.1992 481.809C30.668 481.277 30.2109 480.691 29.8281 480.051C29.4531 479.402 29.1602 478.711 28.9492 477.977C28.7461 477.234 28.6445 476.465 28.6445 475.668C28.6445 474.871 28.7461 474.102 28.9492 473.359C29.1602 472.617 29.4531 471.926 29.8281 471.285C30.2109 470.637 30.668 470.047 31.1992 469.516C31.7305 468.984 32.3164 468.531 32.957 468.156C33.6055 467.773 34.2969 467.48 35.0312 467.277C35.7734 467.066 36.543 466.961 37.3398 466.961C38.3789 466.961 39.3828 467.141 40.3516 467.5C41.3203 467.852 42.1953 468.367 42.9766 469.047L41.1953 471.977C40.7031 471.445 40.1211 471.039 39.4492 470.758C38.7773 470.469 38.0742 470.324 37.3398 470.324C36.5977 470.324 35.9023 470.465 35.2539 470.746C34.6055 471.027 34.0391 471.41 33.5547 471.895C33.0703 472.371 32.6875 472.938 32.4062 473.594C32.125 474.242 31.9844 474.934 31.9844 475.668C31.9844 476.402 32.125 477.094 32.4062 477.742C32.6875 478.383 33.0703 478.945 33.5547 479.43C34.0391 479.914 34.6055 480.297 35.2539 480.578C35.9023 480.859 36.5977 481 37.3398 481C38.0742 481 38.7773 480.859 39.4492 480.578C40.1211 480.289 40.7031 479.879 41.1953 479.348L42.9766 482.277ZM56.2773 477.613C56.2773 478.551 56.1094 479.426 55.7734 480.238C55.4375 481.043 54.9805 481.742 54.4023 482.336C53.8242 482.922 53.1445 483.387 52.3633 483.73C51.5898 484.066 50.7578 484.234 49.8672 484.234C48.9844 484.234 48.1523 484.066 47.3711 483.73C46.5977 483.387 45.918 482.922 45.332 482.336C44.7539 481.742 44.2969 481.043 43.9609 480.238C43.625 479.426 43.457 478.551 43.457 477.613C43.457 476.66 43.625 475.777 43.9609 474.965C44.2969 474.152 44.7539 473.453 45.332 472.867C45.918 472.273 46.5977 471.809 47.3711 471.473C48.1523 471.137 48.9844 470.969 49.8672 470.969C50.7578 470.969 51.5898 471.129 52.3633 471.449C53.1445 471.762 53.8242 472.211 54.4023 472.797C54.9805 473.375 55.4375 474.074 55.7734 474.895C56.1094 475.707 56.2773 476.613 56.2773 477.613ZM53.0547 477.613C53.0547 477.098 52.9688 476.633 52.7969 476.219C52.6328 475.797 52.4062 475.438 52.1172 475.141C51.8281 474.836 51.4883 474.605 51.0977 474.449C50.7148 474.285 50.3047 474.203 49.8672 474.203C49.4297 474.203 49.0156 474.285 48.625 474.449C48.2422 474.605 47.9062 474.836 47.6172 475.141C47.3359 475.438 47.1133 475.797 46.9492 476.219C46.7852 476.633 46.7031 477.098 46.7031 477.613C46.7031 478.098 46.7852 478.547 46.9492 478.961C47.1133 479.375 47.3359 479.734 47.6172 480.039C47.9062 480.344 48.2422 480.586 48.625 480.766C49.0156 480.938 49.4297 481.023 49.8672 481.023C50.3047 481.023 50.7148 480.941 51.0977 480.777C51.4883 480.613 51.8281 480.383 52.1172 480.086C52.4062 479.789 52.6328 479.43 52.7969 479.008C52.9688 478.586 53.0547 478.121 53.0547 477.613ZM61.2695 484H58.0469V466.457H61.2695V484ZM68.7109 480.93C68.8359 480.969 68.9609 480.996 69.0859 481.012C69.2109 481.02 69.3359 481.023 69.4609 481.023C69.7734 481.023 70.0742 480.98 70.3633 480.895C70.6523 480.809 70.9219 480.688 71.1719 480.531C71.4297 480.367 71.6562 480.172 71.8516 479.945C72.0547 479.711 72.2188 479.453 72.3438 479.172L74.6875 481.527C74.3906 481.949 74.0469 482.328 73.6562 482.664C73.2734 483 72.8555 483.285 72.4023 483.52C71.957 483.754 71.4844 483.93 70.9844 484.047C70.4922 484.172 69.9844 484.234 69.4609 484.234C68.5781 484.234 67.7461 484.07 66.9648 483.742C66.1914 483.414 65.5117 482.957 64.9258 482.371C64.3477 481.785 63.8906 481.09 63.5547 480.285C63.2188 479.473 63.0508 478.582 63.0508 477.613C63.0508 476.621 63.2188 475.715 63.5547 474.895C63.8906 474.074 64.3477 473.375 64.9258 472.797C65.5117 472.219 66.1914 471.77 66.9648 471.449C67.7461 471.129 68.5781 470.969 69.4609 470.969C69.9844 470.969 70.4961 471.031 70.9961 471.156C71.4961 471.281 71.9688 471.461 72.4141 471.695C72.8672 471.93 73.2891 472.219 73.6797 472.562C74.0703 472.898 74.4141 473.277 74.7109 473.699L68.7109 480.93ZM70.3516 474.332C70.2031 474.277 70.0547 474.242 69.9062 474.227C69.7656 474.211 69.6172 474.203 69.4609 474.203C69.0234 474.203 68.6094 474.285 68.2188 474.449C67.8359 474.605 67.5 474.832 67.2109 475.129C66.9297 475.426 66.707 475.785 66.543 476.207C66.3789 476.621 66.2969 477.09 66.2969 477.613C66.2969 477.73 66.3008 477.863 66.3086 478.012C66.3242 478.16 66.3438 478.312 66.3672 478.469C66.3984 478.617 66.4336 478.762 66.4727 478.902C66.5117 479.043 66.5625 479.168 66.625 479.277L70.3516 474.332ZM87.2031 473.945L84.8594 476.301C84.7422 475.973 84.582 475.68 84.3789 475.422C84.1758 475.156 83.9453 474.934 83.6875 474.754C83.4375 474.574 83.1641 474.438 82.8672 474.344C82.5703 474.25 82.2656 474.203 81.9531 474.203C81.5156 474.203 81.1016 474.293 80.7109 474.473C80.3281 474.652 79.9922 474.906 79.7031 475.234C79.4219 475.555 79.1992 475.938 79.0352 476.383C78.8711 476.828 78.7891 477.32 78.7891 477.859C78.7891 478.297 78.8711 478.707 79.0352 479.09C79.1992 479.473 79.4219 479.809 79.7031 480.098C79.9922 480.387 80.3281 480.613 80.7109 480.777C81.1016 480.941 81.5156 481.023 81.9531 481.023C82.2656 481.023 82.5664 480.98 82.8555 480.895C83.1445 480.809 83.4141 480.688 83.6641 480.531C83.9219 480.367 84.1484 480.172 84.3438 479.945C84.5469 479.711 84.7109 479.453 84.8359 479.172L87.1797 481.527C86.8828 481.949 86.5391 482.328 86.1484 482.664C85.7656 483 85.3477 483.285 84.8945 483.52C84.4492 483.754 83.9766 483.93 83.4766 484.047C82.9844 484.172 82.4766 484.234 81.9531 484.234C81.0703 484.234 80.2383 484.07 79.457 483.742C78.6836 483.406 78.0039 482.949 77.418 482.371C76.8398 481.793 76.3828 481.117 76.0469 480.344C75.7109 479.57 75.543 478.742 75.543 477.859C75.543 476.898 75.7109 476 76.0469 475.164C76.3828 474.328 76.8398 473.602 77.418 472.984C78.0039 472.359 78.6836 471.867 79.457 471.508C80.2383 471.148 81.0703 470.969 81.9531 470.969C82.4766 470.969 82.9883 471.035 83.4883 471.168C83.9961 471.301 84.4766 471.496 84.9297 471.754C85.3906 472.004 85.8125 472.312 86.1953 472.68C86.5859 473.047 86.9219 473.469 87.2031 473.945ZM92.5469 468.039C92.5469 468.336 92.4883 468.613 92.3711 468.871C92.2617 469.129 92.1094 469.355 91.9141 469.551C91.7188 469.738 91.4883 469.891 91.2227 470.008C90.9648 470.117 90.6875 470.172 90.3906 470.172C90.0938 470.172 89.8125 470.117 89.5469 470.008C89.2891 469.891 89.0625 469.738 88.8672 469.551C88.6797 469.355 88.5273 469.129 88.4102 468.871C88.3008 468.613 88.2461 468.336 88.2461 468.039C88.2461 467.75 88.3008 467.477 88.4102 467.219C88.5273 466.953 88.6797 466.727 88.8672 466.539C89.0625 466.344 89.2891 466.191 89.5469 466.082C89.8125 465.965 90.0938 465.906 90.3906 465.906C90.6875 465.906 90.9648 465.965 91.2227 466.082C91.4883 466.191 91.7188 466.344 91.9141 466.539C92.1094 466.727 92.2617 466.953 92.3711 467.219C92.4883 467.477 92.5469 467.75 92.5469 468.039ZM91.9961 484H88.7734V471.449H91.9961V484ZM106.574 477.613C106.574 478.551 106.406 479.426 106.07 480.238C105.734 481.043 105.277 481.742 104.699 482.336C104.121 482.922 103.441 483.387 102.66 483.73C101.887 484.066 101.055 484.234 100.164 484.234C99.2812 484.234 98.4492 484.066 97.668 483.73C96.8945 483.387 96.2148 482.922 95.6289 482.336C95.0508 481.742 94.5938 481.043 94.2578 480.238C93.9219 479.426 93.7539 478.551 93.7539 477.613C93.7539 476.66 93.9219 475.777 94.2578 474.965C94.5938 474.152 95.0508 473.453 95.6289 472.867C96.2148 472.273 96.8945 471.809 97.668 471.473C98.4492 471.137 99.2812 470.969 100.164 470.969C101.055 470.969 101.887 471.129 102.66 471.449C103.441 471.762 104.121 472.211 104.699 472.797C105.277 473.375 105.734 474.074 106.07 474.895C106.406 475.707 106.574 476.613 106.574 477.613ZM103.352 477.613C103.352 477.098 103.266 476.633 103.094 476.219C102.93 475.797 102.703 475.438 102.414 475.141C102.125 474.836 101.785 474.605 101.395 474.449C101.012 474.285 100.602 474.203 100.164 474.203C99.7266 474.203 99.3125 474.285 98.9219 474.449C98.5391 474.605 98.2031 474.836 97.9141 475.141C97.6328 475.438 97.4102 475.797 97.2461 476.219C97.082 476.633 97 477.098 97 477.613C97 478.098 97.082 478.547 97.2461 478.961C97.4102 479.375 97.6328 479.734 97.9141 480.039C98.2031 480.344 98.5391 480.586 98.9219 480.766C99.3125 480.938 99.7266 481.023 100.164 481.023C100.602 481.023 101.012 480.941 101.395 480.777C101.785 480.613 102.125 480.383 102.414 480.086C102.703 479.789 102.93 479.43 103.094 479.008C103.266 478.586 103.352 478.121 103.352 477.613ZM111.543 484H108.344V471.449H109.117L110.172 472.668C110.688 472.199 111.27 471.84 111.918 471.59C112.574 471.332 113.258 471.203 113.969 471.203C114.734 471.203 115.457 471.352 116.137 471.648C116.816 471.938 117.41 472.34 117.918 472.855C118.426 473.363 118.824 473.961 119.113 474.648C119.41 475.328 119.559 476.055 119.559 476.828V484H116.359V476.828C116.359 476.5 116.297 476.191 116.172 475.902C116.047 475.605 115.875 475.348 115.656 475.129C115.438 474.91 115.184 474.738 114.895 474.613C114.605 474.488 114.297 474.426 113.969 474.426C113.633 474.426 113.316 474.488 113.02 474.613C112.723 474.738 112.465 474.91 112.246 475.129C112.027 475.348 111.855 475.605 111.73 475.902C111.605 476.191 111.543 476.5 111.543 476.828V484ZM126.836 480.93C126.961 480.969 127.086 480.996 127.211 481.012C127.336 481.02 127.461 481.023 127.586 481.023C127.898 481.023 128.199 480.98 128.488 480.895C128.777 480.809 129.047 480.688 129.297 480.531C129.555 480.367 129.781 480.172 129.977 479.945C130.18 479.711 130.344 479.453 130.469 479.172L132.812 481.527C132.516 481.949 132.172 482.328 131.781 482.664C131.398 483 130.98 483.285 130.527 483.52C130.082 483.754 129.609 483.93 129.109 484.047C128.617 484.172 128.109 484.234 127.586 484.234C126.703 484.234 125.871 484.07 125.09 483.742C124.316 483.414 123.637 482.957 123.051 482.371C122.473 481.785 122.016 481.09 121.68 480.285C121.344 479.473 121.176 478.582 121.176 477.613C121.176 476.621 121.344 475.715 121.68 474.895C122.016 474.074 122.473 473.375 123.051 472.797C123.637 472.219 124.316 471.77 125.09 471.449C125.871 471.129 126.703 470.969 127.586 470.969C128.109 470.969 128.621 471.031 129.121 471.156C129.621 471.281 130.094 471.461 130.539 471.695C130.992 471.93 131.414 472.219 131.805 472.562C132.195 472.898 132.539 473.277 132.836 473.699L126.836 480.93ZM128.477 474.332C128.328 474.277 128.18 474.242 128.031 474.227C127.891 474.211 127.742 474.203 127.586 474.203C127.148 474.203 126.734 474.285 126.344 474.449C125.961 474.605 125.625 474.832 125.336 475.129C125.055 475.426 124.832 475.785 124.668 476.207C124.504 476.621 124.422 477.09 124.422 477.613C124.422 477.73 124.426 477.863 124.434 478.012C124.449 478.16 124.469 478.312 124.492 478.469C124.523 478.617 124.559 478.762 124.598 478.902C124.637 479.043 124.688 479.168 124.75 479.277L128.477 474.332ZM153.039 484H141.52V467.195H153.039V470.559H144.883V473.922H150.402V477.285H144.883V480.637H153.039V484ZM161.945 484H154.633V480.812H161.945C162.164 480.812 162.352 480.734 162.508 480.578C162.664 480.422 162.742 480.234 162.742 480.016C162.742 479.789 162.664 479.641 162.508 479.57C162.352 479.5 162.164 479.465 161.945 479.465H158.617C158.062 479.465 157.543 479.359 157.059 479.148C156.574 478.938 156.152 478.652 155.793 478.293C155.434 477.926 155.148 477.5 154.938 477.016C154.734 476.531 154.633 476.012 154.633 475.457C154.633 474.902 154.734 474.383 154.938 473.898C155.148 473.414 155.434 472.992 155.793 472.633C156.152 472.273 156.574 471.992 157.059 471.789C157.543 471.578 158.062 471.473 158.617 471.473H165.098V474.66H158.617C158.398 474.66 158.211 474.738 158.055 474.895C157.898 475.051 157.82 475.238 157.82 475.457C157.82 475.684 157.898 475.879 158.055 476.043C158.211 476.199 158.398 476.277 158.617 476.277H161.945C162.492 476.277 163.008 476.371 163.492 476.559C163.977 476.738 164.398 476.992 164.758 477.32C165.117 477.648 165.402 478.043 165.613 478.504C165.824 478.965 165.93 479.469 165.93 480.016C165.93 480.57 165.824 481.09 165.613 481.574C165.402 482.051 165.117 482.473 164.758 482.84C164.398 483.199 163.977 483.484 163.492 483.695C163.008 483.898 162.492 484 161.945 484ZM173.934 484C173.16 484 172.434 483.855 171.754 483.566C171.074 483.27 170.477 482.867 169.961 482.359C169.453 481.844 169.051 481.246 168.754 480.566C168.465 479.887 168.32 479.16 168.32 478.387V474.66H166.762V471.473H168.32V466.457H171.508V471.473H176.359V474.66H171.508V478.387C171.508 478.723 171.57 479.039 171.695 479.336C171.82 479.625 171.992 479.879 172.211 480.098C172.43 480.316 172.688 480.492 172.984 480.625C173.281 480.75 173.598 480.812 173.934 480.812H176.359V484H173.934ZM181.363 484H178.164V471.449H178.938L179.992 472.938C180.508 472.469 181.094 472.109 181.75 471.859C182.406 471.602 183.086 471.473 183.789 471.473H186.613V474.66H183.789C183.453 474.66 183.137 474.723 182.84 474.848C182.543 474.973 182.285 475.145 182.066 475.363C181.848 475.582 181.676 475.84 181.551 476.137C181.426 476.434 181.363 476.75 181.363 477.086V484ZM192.859 480.93C192.984 480.969 193.109 480.996 193.234 481.012C193.359 481.02 193.484 481.023 193.609 481.023C193.922 481.023 194.223 480.98 194.512 480.895C194.801 480.809 195.07 480.688 195.32 480.531C195.578 480.367 195.805 480.172 196 479.945C196.203 479.711 196.367 479.453 196.492 479.172L198.836 481.527C198.539 481.949 198.195 482.328 197.805 482.664C197.422 483 197.004 483.285 196.551 483.52C196.105 483.754 195.633 483.93 195.133 484.047C194.641 484.172 194.133 484.234 193.609 484.234C192.727 484.234 191.895 484.07 191.113 483.742C190.34 483.414 189.66 482.957 189.074 482.371C188.496 481.785 188.039 481.09 187.703 480.285C187.367 479.473 187.199 478.582 187.199 477.613C187.199 476.621 187.367 475.715 187.703 474.895C188.039 474.074 188.496 473.375 189.074 472.797C189.66 472.219 190.34 471.77 191.113 471.449C191.895 471.129 192.727 470.969 193.609 470.969C194.133 470.969 194.645 471.031 195.145 471.156C195.645 471.281 196.117 471.461 196.562 471.695C197.016 471.93 197.438 472.219 197.828 472.562C198.219 472.898 198.562 473.277 198.859 473.699L192.859 480.93ZM194.5 474.332C194.352 474.277 194.203 474.242 194.055 474.227C193.914 474.211 193.766 474.203 193.609 474.203C193.172 474.203 192.758 474.285 192.367 474.449C191.984 474.605 191.648 474.832 191.359 475.129C191.078 475.426 190.855 475.785 190.691 476.207C190.527 476.621 190.445 477.09 190.445 477.613C190.445 477.73 190.449 477.863 190.457 478.012C190.473 478.16 190.492 478.312 190.516 478.469C190.547 478.617 190.582 478.762 190.621 478.902C190.66 479.043 190.711 479.168 190.773 479.277L194.5 474.332ZM203.699 484H200.477V466.457H203.699V484ZM218.301 484H217.527L216.285 482.277C215.98 482.551 215.656 482.809 215.312 483.051C214.977 483.285 214.621 483.492 214.246 483.672C213.871 483.844 213.484 483.98 213.086 484.082C212.695 484.184 212.297 484.234 211.891 484.234C211.008 484.234 210.176 484.086 209.395 483.789C208.621 483.492 207.941 483.062 207.355 482.5C206.777 481.93 206.32 481.234 205.984 480.414C205.648 479.594 205.48 478.66 205.48 477.613C205.48 476.637 205.648 475.742 205.984 474.93C206.32 474.109 206.777 473.406 207.355 472.82C207.941 472.234 208.621 471.781 209.395 471.461C210.176 471.133 211.008 470.969 211.891 470.969C212.297 470.969 212.699 471.02 213.098 471.121C213.496 471.223 213.883 471.363 214.258 471.543C214.633 471.723 214.988 471.934 215.324 472.176C215.668 472.418 215.988 472.68 216.285 472.961L217.527 471.473H218.301V484ZM215.078 477.613C215.078 477.176 214.992 476.754 214.82 476.348C214.656 475.934 214.43 475.57 214.141 475.258C213.852 474.938 213.512 474.684 213.121 474.496C212.738 474.301 212.328 474.203 211.891 474.203C211.453 474.203 211.039 474.277 210.648 474.426C210.266 474.574 209.93 474.793 209.641 475.082C209.359 475.371 209.137 475.73 208.973 476.16C208.809 476.582 208.727 477.066 208.727 477.613C208.727 478.16 208.809 478.648 208.973 479.078C209.137 479.5 209.359 479.855 209.641 480.145C209.93 480.434 210.266 480.652 210.648 480.801C211.039 480.949 211.453 481.023 211.891 481.023C212.328 481.023 212.738 480.93 213.121 480.742C213.512 480.547 213.852 480.293 214.141 479.98C214.43 479.66 214.656 479.297 214.82 478.891C214.992 478.477 215.078 478.051 215.078 477.613ZM227.641 484H220.328V480.812H227.641C227.859 480.812 228.047 480.734 228.203 480.578C228.359 480.422 228.438 480.234 228.438 480.016C228.438 479.789 228.359 479.641 228.203 479.57C228.047 479.5 227.859 479.465 227.641 479.465H224.312C223.758 479.465 223.238 479.359 222.754 479.148C222.27 478.938 221.848 478.652 221.488 478.293C221.129 477.926 220.844 477.5 220.633 477.016C220.43 476.531 220.328 476.012 220.328 475.457C220.328 474.902 220.43 474.383 220.633 473.898C220.844 473.414 221.129 472.992 221.488 472.633C221.848 472.273 222.27 471.992 222.754 471.789C223.238 471.578 223.758 471.473 224.312 471.473H230.793V474.66H224.312C224.094 474.66 223.906 474.738 223.75 474.895C223.594 475.051 223.516 475.238 223.516 475.457C223.516 475.684 223.594 475.879 223.75 476.043C223.906 476.199 224.094 476.277 224.312 476.277H227.641C228.188 476.277 228.703 476.371 229.188 476.559C229.672 476.738 230.094 476.992 230.453 477.32C230.812 477.648 231.098 478.043 231.309 478.504C231.52 478.965 231.625 479.469 231.625 480.016C231.625 480.57 231.52 481.09 231.309 481.574C231.098 482.051 230.812 482.473 230.453 482.84C230.094 483.199 229.672 483.484 229.188 483.695C228.703 483.898 228.188 484 227.641 484ZM43 508.961C43 509.656 42.8672 510.309 42.6016 510.918C42.3359 511.527 41.9727 512.062 41.5117 512.523C41.0586 512.977 40.5273 513.336 39.918 513.602C39.3086 513.867 38.6562 514 37.9609 514H29.5586V497.195H37.9609C38.6562 497.195 39.3086 497.328 39.918 497.594C40.5273 497.859 41.0586 498.223 41.5117 498.684C41.9727 499.137 42.3359 499.668 42.6016 500.277C42.8672 500.887 43 501.539 43 502.234C43 502.547 42.957 502.867 42.8711 503.195C42.7852 503.523 42.6641 503.84 42.5078 504.145C42.3516 504.449 42.1641 504.727 41.9453 504.977C41.7266 505.227 41.4844 505.434 41.2188 505.598C41.4922 505.746 41.7383 505.949 41.957 506.207C42.1758 506.457 42.3633 506.734 42.5195 507.039C42.6758 507.344 42.793 507.664 42.8711 508C42.957 508.328 43 508.648 43 508.961ZM32.9219 510.637H37.9609C38.1953 510.637 38.4141 510.594 38.6172 510.508C38.8203 510.422 38.9961 510.305 39.1445 510.156C39.3008 510 39.4219 509.82 39.5078 509.617C39.5938 509.414 39.6367 509.195 39.6367 508.961C39.6367 508.727 39.5938 508.508 39.5078 508.305C39.4219 508.102 39.3008 507.926 39.1445 507.777C38.9961 507.621 38.8203 507.5 38.6172 507.414C38.4141 507.328 38.1953 507.285 37.9609 507.285H32.9219V510.637ZM32.9219 503.922H37.9609C38.1953 503.922 38.4141 503.879 38.6172 503.793C38.8203 503.707 38.9961 503.59 39.1445 503.441C39.3008 503.285 39.4219 503.105 39.5078 502.902C39.5938 502.691 39.6367 502.469 39.6367 502.234C39.6367 502 39.5938 501.781 39.5078 501.578C39.4219 501.375 39.3008 501.199 39.1445 501.051C38.9961 500.895 38.8203 500.773 38.6172 500.688C38.4141 500.602 38.1953 500.559 37.9609 500.559H32.9219V503.922ZM48.4023 514H45.2031V501.449H45.9766L47.0312 502.938C47.5469 502.469 48.1328 502.109 48.7891 501.859C49.4453 501.602 50.125 501.473 50.8281 501.473H53.6523V504.66H50.8281C50.4922 504.66 50.1758 504.723 49.8789 504.848C49.582 504.973 49.3242 505.145 49.1055 505.363C48.8867 505.582 48.7148 505.84 48.5898 506.137C48.4648 506.434 48.4023 506.75 48.4023 507.086V514ZM58.9141 498.039C58.9141 498.336 58.8555 498.613 58.7383 498.871C58.6289 499.129 58.4766 499.355 58.2812 499.551C58.0859 499.738 57.8555 499.891 57.5898 500.008C57.332 500.117 57.0547 500.172 56.7578 500.172C56.4609 500.172 56.1797 500.117 55.9141 500.008C55.6562 499.891 55.4297 499.738 55.2344 499.551C55.0469 499.355 54.8945 499.129 54.7773 498.871C54.668 498.613 54.6133 498.336 54.6133 498.039C54.6133 497.75 54.668 497.477 54.7773 497.219C54.8945 496.953 55.0469 496.727 55.2344 496.539C55.4297 496.344 55.6562 496.191 55.9141 496.082C56.1797 495.965 56.4609 495.906 56.7578 495.906C57.0547 495.906 57.332 495.965 57.5898 496.082C57.8555 496.191 58.0859 496.344 58.2812 496.539C58.4766 496.727 58.6289 496.953 58.7383 497.219C58.8555 497.477 58.9141 497.75 58.9141 498.039ZM58.3633 514H55.1406V501.449H58.3633V514ZM64.0352 514H60.8125V496.457H64.0352V514ZM69.6836 514H66.4844V496.457H69.6836V502C70.0664 501.711 70.4609 501.508 70.8672 501.391C71.2734 501.266 71.6875 501.203 72.1094 501.203C72.8828 501.203 73.6094 501.352 74.2891 501.648C74.9688 501.938 75.5586 502.34 76.0586 502.855C76.5664 503.363 76.9648 503.961 77.2539 504.648C77.5508 505.328 77.6992 506.055 77.6992 506.828V514H74.4766V506.828H74.5C74.5 506.5 74.4375 506.191 74.3125 505.902C74.1875 505.605 74.0156 505.348 73.7969 505.129C73.5781 504.91 73.3242 504.738 73.0352 504.613C72.7461 504.488 72.4375 504.426 72.1094 504.426C71.7734 504.426 71.457 504.488 71.1602 504.613C70.8633 504.738 70.6055 504.91 70.3867 505.129C70.168 505.348 69.9961 505.605 69.8711 505.902C69.7461 506.191 69.6836 506.5 69.6836 506.828V514ZM92.1367 514H91.3633L90.1211 512.277C89.8164 512.551 89.4922 512.809 89.1484 513.051C88.8125 513.285 88.457 513.492 88.082 513.672C87.707 513.844 87.3203 513.98 86.9219 514.082C86.5312 514.184 86.1328 514.234 85.7266 514.234C84.8438 514.234 84.0117 514.086 83.2305 513.789C82.457 513.492 81.7773 513.062 81.1914 512.5C80.6133 511.93 80.1562 511.234 79.8203 510.414C79.4844 509.594 79.3164 508.66 79.3164 507.613C79.3164 506.637 79.4844 505.742 79.8203 504.93C80.1562 504.109 80.6133 503.406 81.1914 502.82C81.7773 502.234 82.457 501.781 83.2305 501.461C84.0117 501.133 84.8438 500.969 85.7266 500.969C86.1328 500.969 86.5352 501.02 86.9336 501.121C87.332 501.223 87.7188 501.363 88.0938 501.543C88.4688 501.723 88.8242 501.934 89.1602 502.176C89.5039 502.418 89.8242 502.68 90.1211 502.961L91.3633 501.473H92.1367V514ZM88.9141 507.613C88.9141 507.176 88.8281 506.754 88.6562 506.348C88.4922 505.934 88.2656 505.57 87.9766 505.258C87.6875 504.938 87.3477 504.684 86.957 504.496C86.5742 504.301 86.1641 504.203 85.7266 504.203C85.2891 504.203 84.875 504.277 84.4844 504.426C84.1016 504.574 83.7656 504.793 83.4766 505.082C83.1953 505.371 82.9727 505.73 82.8086 506.16C82.6445 506.582 82.5625 507.066 82.5625 507.613C82.5625 508.16 82.6445 508.648 82.8086 509.078C82.9727 509.5 83.1953 509.855 83.4766 510.145C83.7656 510.434 84.1016 510.652 84.4844 510.801C84.875 510.949 85.2891 511.023 85.7266 511.023C86.1641 511.023 86.5742 510.93 86.957 510.742C87.3477 510.547 87.6875 510.293 87.9766 509.98C88.2656 509.66 88.4922 509.297 88.6562 508.891C88.8281 508.477 88.9141 508.051 88.9141 507.613ZM97.7852 514H94.5859V501.449H95.3594L96.4141 502.668C96.9297 502.199 97.5117 501.84 98.1602 501.59C98.8164 501.332 99.5 501.203 100.211 501.203C100.977 501.203 101.699 501.352 102.379 501.648C103.059 501.938 103.652 502.34 104.16 502.855C104.668 503.363 105.066 503.961 105.355 504.648C105.652 505.328 105.801 506.055 105.801 506.828V514H102.602V506.828C102.602 506.5 102.539 506.191 102.414 505.902C102.289 505.605 102.117 505.348 101.898 505.129C101.68 504.91 101.426 504.738 101.137 504.613C100.848 504.488 100.539 504.426 100.211 504.426C99.875 504.426 99.5586 504.488 99.2617 504.613C98.9648 504.738 98.707 504.91 98.4883 505.129C98.2695 505.348 98.0977 505.605 97.9727 505.902C97.8477 506.191 97.7852 506.5 97.7852 506.828V514ZM114.215 514C113.441 514 112.715 513.855 112.035 513.566C111.355 513.27 110.758 512.867 110.242 512.359C109.734 511.844 109.332 511.246 109.035 510.566C108.746 509.887 108.602 509.16 108.602 508.387V504.66H107.043V501.473H108.602V496.457H111.789V501.473H116.641V504.66H111.789V508.387C111.789 508.723 111.852 509.039 111.977 509.336C112.102 509.625 112.273 509.879 112.492 510.098C112.711 510.316 112.969 510.492 113.266 510.625C113.562 510.75 113.879 510.812 114.215 510.812H116.641V514H114.215ZM123.438 510.93C123.562 510.969 123.688 510.996 123.812 511.012C123.938 511.02 124.062 511.023 124.188 511.023C124.5 511.023 124.801 510.98 125.09 510.895C125.379 510.809 125.648 510.688 125.898 510.531C126.156 510.367 126.383 510.172 126.578 509.945C126.781 509.711 126.945 509.453 127.07 509.172L129.414 511.527C129.117 511.949 128.773 512.328 128.383 512.664C128 513 127.582 513.285 127.129 513.52C126.684 513.754 126.211 513.93 125.711 514.047C125.219 514.172 124.711 514.234 124.188 514.234C123.305 514.234 122.473 514.07 121.691 513.742C120.918 513.414 120.238 512.957 119.652 512.371C119.074 511.785 118.617 511.09 118.281 510.285C117.945 509.473 117.777 508.582 117.777 507.613C117.777 506.621 117.945 505.715 118.281 504.895C118.617 504.074 119.074 503.375 119.652 502.797C120.238 502.219 120.918 501.77 121.691 501.449C122.473 501.129 123.305 500.969 124.188 500.969C124.711 500.969 125.223 501.031 125.723 501.156C126.223 501.281 126.695 501.461 127.141 501.695C127.594 501.93 128.016 502.219 128.406 502.562C128.797 502.898 129.141 503.277 129.438 503.699L123.438 510.93ZM125.078 504.332C124.93 504.277 124.781 504.242 124.633 504.227C124.492 504.211 124.344 504.203 124.188 504.203C123.75 504.203 123.336 504.285 122.945 504.449C122.562 504.605 122.227 504.832 121.938 505.129C121.656 505.426 121.434 505.785 121.27 506.207C121.105 506.621 121.023 507.09 121.023 507.613C121.023 507.73 121.027 507.863 121.035 508.012C121.051 508.16 121.07 508.312 121.094 508.469C121.125 508.617 121.16 508.762 121.199 508.902C121.238 509.043 121.289 509.168 121.352 509.277L125.078 504.332ZM137.945 514H130.633V510.812H137.945C138.164 510.812 138.352 510.734 138.508 510.578C138.664 510.422 138.742 510.234 138.742 510.016C138.742 509.789 138.664 509.641 138.508 509.57C138.352 509.5 138.164 509.465 137.945 509.465H134.617C134.062 509.465 133.543 509.359 133.059 509.148C132.574 508.938 132.152 508.652 131.793 508.293C131.434 507.926 131.148 507.5 130.938 507.016C130.734 506.531 130.633 506.012 130.633 505.457C130.633 504.902 130.734 504.383 130.938 503.898C131.148 503.414 131.434 502.992 131.793 502.633C132.152 502.273 132.574 501.992 133.059 501.789C133.543 501.578 134.062 501.473 134.617 501.473H141.098V504.66H134.617C134.398 504.66 134.211 504.738 134.055 504.895C133.898 505.051 133.82 505.238 133.82 505.457C133.82 505.684 133.898 505.879 134.055 506.043C134.211 506.199 134.398 506.277 134.617 506.277H137.945C138.492 506.277 139.008 506.371 139.492 506.559C139.977 506.738 140.398 506.992 140.758 507.32C141.117 507.648 141.402 508.043 141.613 508.504C141.824 508.965 141.93 509.469 141.93 510.016C141.93 510.57 141.824 511.09 141.613 511.574C141.402 512.051 141.117 512.473 140.758 512.84C140.398 513.199 139.977 513.484 139.492 513.695C139.008 513.898 138.492 514 137.945 514ZM147.027 509.852H144.414L143.699 497.195H147.754L147.027 509.852ZM147.73 512.805C147.73 513.086 147.676 513.352 147.566 513.602C147.465 513.844 147.324 514.055 147.145 514.234C146.965 514.414 146.754 514.555 146.512 514.656C146.27 514.766 146.012 514.82 145.738 514.82C145.457 514.82 145.195 514.766 144.953 514.656C144.711 514.555 144.496 514.414 144.309 514.234C144.129 514.055 143.984 513.844 143.875 513.602C143.773 513.352 143.723 513.086 143.723 512.805C143.723 512.531 143.773 512.273 143.875 512.031C143.984 511.789 144.129 511.578 144.309 511.398C144.496 511.219 144.711 511.078 144.953 510.977C145.195 510.867 145.457 510.812 145.738 510.812C146.012 510.812 146.27 510.867 146.512 510.977C146.754 511.078 146.965 511.219 147.145 511.398C147.324 511.578 147.465 511.789 147.566 512.031C147.676 512.273 147.73 512.531 147.73 512.805Z" fill="white"/>
<path d="M39.7045 553C39.5483 552.522 39.3423 552.093 39.0866 551.714C38.8357 551.331 38.535 551.004 38.1847 550.734C37.839 550.464 37.446 550.259 37.0057 550.116C36.5653 549.974 36.0824 549.903 35.5568 549.903C34.6951 549.903 33.9115 550.126 33.206 550.571C32.5005 551.016 31.9394 551.672 31.5227 552.538C31.1061 553.405 30.8977 554.468 30.8977 555.727C30.8977 556.987 31.1084 558.05 31.5298 558.916C31.9512 559.783 32.5218 560.438 33.2415 560.884C33.9612 561.329 34.7708 561.551 35.6705 561.551C36.5038 561.551 37.2377 561.374 37.8722 561.018C38.5114 560.659 39.0085 560.152 39.3636 559.499C39.7235 558.84 39.9034 558.066 39.9034 557.176L40.4432 557.29H36.0682V555.727H41.608V557.29C41.608 558.488 41.3523 559.529 40.8409 560.415C40.3343 561.3 39.6335 561.987 38.7386 562.474C37.8485 562.957 36.8258 563.199 35.6705 563.199C34.3826 563.199 33.2509 562.896 32.2756 562.29C31.3049 561.684 30.5473 560.822 30.0028 559.705C29.4631 558.587 29.1932 557.261 29.1932 555.727C29.1932 554.577 29.3471 553.542 29.6548 552.624C29.9673 551.7 30.4077 550.914 30.9759 550.266C31.544 549.617 32.2164 549.12 32.9929 548.774C33.7694 548.429 34.6241 548.256 35.5568 548.256C36.3239 548.256 37.0388 548.372 37.7017 548.604C38.3693 548.831 38.9635 549.155 39.4844 549.577C40.0099 549.993 40.4479 550.493 40.7983 551.075C41.1487 551.653 41.3902 552.295 41.5227 553H39.7045ZM47.6076 563.256C46.9163 563.256 46.2889 563.125 45.7255 562.865C45.1621 562.6 44.7146 562.219 44.3832 561.722C44.0517 561.22 43.886 560.614 43.886 559.903C43.886 559.278 44.0091 558.772 44.2553 558.384C44.5015 557.991 44.8306 557.683 45.2425 557.46C45.6545 557.238 46.109 557.072 46.6062 556.963C47.1081 556.849 47.6123 556.759 48.119 556.693C48.7818 556.608 49.3192 556.544 49.7312 556.501C50.1478 556.454 50.4509 556.376 50.6403 556.267C50.8344 556.158 50.9315 555.969 50.9315 555.699V555.642C50.9315 554.941 50.7397 554.397 50.3562 554.009C49.9774 553.62 49.4021 553.426 48.6303 553.426C47.8301 553.426 47.2028 553.601 46.7482 553.952C46.2937 554.302 45.9741 554.676 45.7894 555.074L44.1985 554.506C44.4826 553.843 44.8614 553.327 45.3349 552.957C45.8131 552.583 46.3339 552.323 46.8974 552.176C47.4656 552.025 48.0243 551.949 48.5735 551.949C48.9239 551.949 49.3263 551.991 49.7809 552.077C50.2402 552.157 50.6829 552.325 51.109 552.581C51.5399 552.837 51.8974 553.223 52.1815 553.739C52.4656 554.255 52.6076 554.946 52.6076 555.812V563H50.9315V561.523H50.8462C50.7326 561.759 50.5432 562.013 50.2781 562.283C50.0129 562.553 49.6602 562.782 49.2198 562.972C48.7795 563.161 48.2421 563.256 47.6076 563.256ZM47.8633 561.75C48.5262 561.75 49.0849 561.62 49.5394 561.359C49.9987 561.099 50.3443 560.763 50.5763 560.351C50.8131 559.939 50.9315 559.506 50.9315 559.051V557.517C50.8604 557.602 50.7042 557.68 50.4627 557.751C50.226 557.818 49.9513 557.877 49.6388 557.929C49.3311 557.976 49.0304 558.019 48.7369 558.057C48.448 558.09 48.2137 558.118 48.0337 558.142C47.5981 558.199 47.1909 558.291 46.8121 558.419C46.4381 558.542 46.1351 558.729 45.9031 558.98C45.6758 559.226 45.5621 559.562 45.5621 559.989C45.5621 560.571 45.7776 561.011 46.2085 561.31C46.6441 561.603 47.1957 561.75 47.8633 561.75ZM57.343 556.438V563H55.6669V552.091H57.2862V553.795H57.4283C57.6839 553.241 58.0722 552.796 58.593 552.46C59.1139 552.119 59.7862 551.949 60.6101 551.949C61.3487 551.949 61.995 552.1 62.549 552.403C63.103 552.702 63.5339 553.156 63.8416 553.767C64.1494 554.373 64.3033 555.14 64.3033 556.068V563H62.6271V556.182C62.6271 555.325 62.4046 554.657 61.9595 554.179C61.5144 553.696 60.9036 553.455 60.1271 553.455C59.5921 553.455 59.1139 553.571 58.6925 553.803C58.2758 554.035 57.9467 554.373 57.7053 554.818C57.4638 555.263 57.343 555.803 57.343 556.438ZM69.0423 556.438V563H67.3661V548.455H69.0423V553.795H69.1843C69.44 553.232 69.8235 552.785 70.3349 552.453C70.851 552.117 71.5375 551.949 72.3945 551.949C73.1379 551.949 73.7889 552.098 74.3477 552.396C74.9064 552.69 75.3396 553.142 75.6474 553.753C75.9599 554.359 76.1161 555.131 76.1161 556.068V563H74.44V556.182C74.44 555.315 74.2151 554.645 73.7653 554.172C73.3202 553.694 72.7023 553.455 71.9116 553.455C71.3623 553.455 70.8699 553.571 70.4343 553.803C70.0034 554.035 69.6625 554.373 69.4116 554.818C69.1654 555.263 69.0423 555.803 69.0423 556.438ZM83.7564 563.227C82.7053 563.227 81.7985 562.995 81.0362 562.531C80.2786 562.062 79.6939 561.409 79.282 560.571C78.8748 559.728 78.6712 558.748 78.6712 557.631C78.6712 556.513 78.8748 555.528 79.282 554.676C79.6939 553.819 80.2668 553.152 81.0007 552.673C81.7393 552.19 82.6011 551.949 83.5859 551.949C84.1541 551.949 84.7152 552.044 85.2692 552.233C85.8232 552.422 86.3274 552.73 86.782 553.156C87.2365 553.578 87.5987 554.136 87.8686 554.832C88.1385 555.528 88.2734 556.385 88.2734 557.403V558.114H79.8643V556.665H86.5689C86.5689 556.049 86.4458 555.5 86.1996 555.017C85.9581 554.534 85.6125 554.153 85.1626 553.874C84.7176 553.594 84.192 553.455 83.5859 553.455C82.9183 553.455 82.3407 553.62 81.853 553.952C81.37 554.278 80.9983 554.705 80.7379 555.23C80.4775 555.756 80.3473 556.319 80.3473 556.92V557.886C80.3473 558.71 80.4893 559.409 80.7734 559.982C81.0623 560.55 81.4624 560.983 81.9737 561.281C82.4851 561.575 83.0793 561.722 83.7564 561.722C84.1967 561.722 84.5945 561.66 84.9496 561.537C85.3094 561.409 85.6196 561.22 85.88 560.969C86.1404 560.713 86.3416 560.396 86.4837 560.017L88.103 560.472C87.9325 561.021 87.6461 561.504 87.2436 561.92C86.8411 562.332 86.344 562.654 85.7521 562.886C85.1603 563.114 84.495 563.227 83.7564 563.227ZM101.022 563.227C99.9709 563.227 99.0642 562.995 98.3018 562.531C97.5443 562.062 96.9595 561.409 96.5476 560.571C96.1404 559.728 95.9368 558.748 95.9368 557.631C95.9368 556.513 96.1404 555.528 96.5476 554.676C96.9595 553.819 97.5324 553.152 98.2663 552.673C99.005 552.19 99.8667 551.949 100.852 551.949C101.42 551.949 101.981 552.044 102.535 552.233C103.089 552.422 103.593 552.73 104.048 553.156C104.502 553.578 104.864 554.136 105.134 554.832C105.404 555.528 105.539 556.385 105.539 557.403V558.114H97.13V556.665H103.835C103.835 556.049 103.711 555.5 103.465 555.017C103.224 554.534 102.878 554.153 102.428 553.874C101.983 553.594 101.458 553.455 100.852 553.455C100.184 553.455 99.6063 553.62 99.1186 553.952C98.6357 554.278 98.264 554.705 98.0036 555.23C97.7431 555.756 97.6129 556.319 97.6129 556.92V557.886C97.6129 558.71 97.755 559.409 98.0391 559.982C98.3279 560.55 98.728 560.983 99.2393 561.281C99.7507 561.575 100.345 561.722 101.022 561.722C101.462 561.722 101.86 561.66 102.215 561.537C102.575 561.409 102.885 561.22 103.146 560.969C103.406 560.713 103.607 560.396 103.749 560.017L105.369 560.472C105.198 561.021 104.912 561.504 104.509 561.92C104.107 562.332 103.61 562.654 103.018 562.886C102.426 563.114 101.761 563.227 101.022 563.227ZM115.816 554.534L114.31 554.96C114.216 554.709 114.076 554.465 113.891 554.229C113.711 553.987 113.465 553.788 113.153 553.632C112.84 553.476 112.44 553.398 111.952 553.398C111.285 553.398 110.728 553.552 110.283 553.859C109.843 554.162 109.623 554.548 109.623 555.017C109.623 555.434 109.774 555.763 110.077 556.004C110.38 556.246 110.854 556.447 111.498 556.608L113.117 557.006C114.093 557.242 114.819 557.605 115.298 558.092C115.776 558.575 116.015 559.198 116.015 559.96C116.015 560.585 115.835 561.144 115.475 561.636C115.12 562.129 114.623 562.517 113.984 562.801C113.344 563.085 112.601 563.227 111.754 563.227C110.641 563.227 109.72 562.986 108.991 562.503C108.262 562.02 107.8 561.314 107.606 560.386L109.197 559.989C109.348 560.576 109.635 561.016 110.056 561.31C110.482 561.603 111.039 561.75 111.725 561.75C112.506 561.75 113.127 561.584 113.586 561.253C114.05 560.917 114.282 560.514 114.282 560.045C114.282 559.667 114.149 559.349 113.884 559.094C113.619 558.833 113.212 558.639 112.663 558.511L110.844 558.085C109.845 557.848 109.112 557.482 108.643 556.984C108.179 556.482 107.947 555.855 107.947 555.102C107.947 554.487 108.12 553.942 108.465 553.469C108.816 552.995 109.291 552.624 109.893 552.354C110.499 552.084 111.185 551.949 111.952 551.949C113.032 551.949 113.879 552.186 114.495 552.659C115.115 553.133 115.556 553.758 115.816 554.534ZM123.282 552.091V553.511H117.629V552.091H123.282ZM119.277 549.477H120.953V559.875C120.953 560.348 121.021 560.704 121.159 560.94C121.301 561.172 121.481 561.329 121.699 561.409C121.921 561.485 122.155 561.523 122.402 561.523C122.586 561.523 122.738 561.513 122.856 561.494C122.975 561.471 123.069 561.452 123.14 561.438L123.481 562.943C123.368 562.986 123.209 563.028 123.005 563.071C122.802 563.118 122.544 563.142 122.231 563.142C121.758 563.142 121.294 563.04 120.839 562.837C120.389 562.633 120.015 562.323 119.717 561.906C119.423 561.49 119.277 560.964 119.277 560.33V549.477ZM125.804 563V552.091H127.423V553.739H127.537C127.735 553.199 128.095 552.761 128.616 552.425C129.137 552.089 129.724 551.92 130.377 551.92C130.501 551.92 130.654 551.923 130.839 551.928C131.024 551.932 131.163 551.939 131.258 551.949V553.653C131.201 553.639 131.071 553.618 130.868 553.589C130.669 553.556 130.458 553.54 130.235 553.54C129.705 553.54 129.232 553.651 128.815 553.874C128.403 554.091 128.076 554.394 127.835 554.783C127.598 555.166 127.48 555.604 127.48 556.097V563H125.804ZM137.487 563.227C136.436 563.227 135.529 562.995 134.767 562.531C134.009 562.062 133.424 561.409 133.012 560.571C132.605 559.728 132.402 558.748 132.402 557.631C132.402 556.513 132.605 555.528 133.012 554.676C133.424 553.819 133.997 553.152 134.731 552.673C135.47 552.19 136.332 551.949 137.316 551.949C137.885 551.949 138.446 552.044 139 552.233C139.554 552.422 140.058 552.73 140.512 553.156C140.967 553.578 141.329 554.136 141.599 554.832C141.869 555.528 142.004 556.385 142.004 557.403V558.114H133.595V556.665H140.299C140.299 556.049 140.176 555.5 139.93 555.017C139.689 554.534 139.343 554.153 138.893 553.874C138.448 553.594 137.922 553.455 137.316 553.455C136.649 553.455 136.071 553.62 135.583 553.952C135.1 554.278 134.729 554.705 134.468 555.23C134.208 555.756 134.078 556.319 134.078 556.92V557.886C134.078 558.71 134.22 559.409 134.504 559.982C134.793 560.55 135.193 560.983 135.704 561.281C136.216 561.575 136.81 561.722 137.487 561.722C137.927 561.722 138.325 561.66 138.68 561.537C139.04 561.409 139.35 561.22 139.61 560.969C139.871 560.713 140.072 560.396 140.214 560.017L141.833 560.472C141.663 561.021 141.377 561.504 140.974 561.92C140.572 562.332 140.074 562.654 139.483 562.886C138.891 563.114 138.225 563.227 137.487 563.227ZM146.23 548.455V563H144.554V548.455H146.23ZM152.51 563.256C151.819 563.256 151.191 563.125 150.628 562.865C150.064 562.6 149.617 562.219 149.286 561.722C148.954 561.22 148.788 560.614 148.788 559.903C148.788 559.278 148.911 558.772 149.158 558.384C149.404 557.991 149.733 557.683 150.145 557.46C150.557 557.238 151.011 557.072 151.509 556.963C152.01 556.849 152.515 556.759 153.021 556.693C153.684 556.608 154.222 556.544 154.634 556.501C155.05 556.454 155.353 556.376 155.543 556.267C155.737 556.158 155.834 555.969 155.834 555.699V555.642C155.834 554.941 155.642 554.397 155.259 554.009C154.88 553.62 154.304 553.426 153.533 553.426C152.732 553.426 152.105 553.601 151.651 553.952C151.196 554.302 150.876 554.676 150.692 555.074L149.101 554.506C149.385 553.843 149.764 553.327 150.237 552.957C150.715 552.583 151.236 552.323 151.8 552.176C152.368 552.025 152.927 551.949 153.476 551.949C153.826 551.949 154.229 551.991 154.683 552.077C155.143 552.157 155.585 552.325 156.011 552.581C156.442 552.837 156.8 553.223 157.084 553.739C157.368 554.255 157.51 554.946 157.51 555.812V563H155.834V561.523H155.749C155.635 561.759 155.446 562.013 155.18 562.283C154.915 562.553 154.563 562.782 154.122 562.972C153.682 563.161 153.144 563.256 152.51 563.256ZM152.766 561.75C153.429 561.75 153.987 561.62 154.442 561.359C154.901 561.099 155.247 560.763 155.479 560.351C155.715 559.939 155.834 559.506 155.834 559.051V557.517C155.763 557.602 155.607 557.68 155.365 557.751C155.128 557.818 154.854 557.877 154.541 557.929C154.233 557.976 153.933 558.019 153.639 558.057C153.35 558.09 153.116 558.118 152.936 558.142C152.5 558.199 152.093 558.291 151.714 558.419C151.34 558.542 151.037 558.729 150.805 558.98C150.578 559.226 150.464 559.562 150.464 559.989C150.464 560.571 150.68 561.011 151.111 561.31C151.546 561.603 152.098 561.75 152.766 561.75ZM168.297 554.534L166.791 554.96C166.696 554.709 166.556 554.465 166.372 554.229C166.192 553.987 165.946 553.788 165.633 553.632C165.321 553.476 164.921 553.398 164.433 553.398C163.765 553.398 163.209 553.552 162.764 553.859C162.324 554.162 162.103 554.548 162.103 555.017C162.103 555.434 162.255 555.763 162.558 556.004C162.861 556.246 163.334 556.447 163.978 556.608L165.598 557.006C166.573 557.242 167.3 557.605 167.778 558.092C168.256 558.575 168.495 559.198 168.495 559.96C168.495 560.585 168.315 561.144 167.956 561.636C167.6 562.129 167.103 562.517 166.464 562.801C165.825 563.085 165.082 563.227 164.234 563.227C163.121 563.227 162.2 562.986 161.471 562.503C160.742 562.02 160.28 561.314 160.086 560.386L161.677 559.989C161.829 560.576 162.115 561.016 162.537 561.31C162.963 561.603 163.519 561.75 164.206 561.75C164.987 561.75 165.607 561.584 166.066 561.253C166.53 560.917 166.762 560.514 166.762 560.045C166.762 559.667 166.63 559.349 166.365 559.094C166.1 558.833 165.692 558.639 165.143 558.511L163.325 558.085C162.326 557.848 161.592 557.482 161.123 556.984C160.659 556.482 160.427 555.855 160.427 555.102C160.427 554.487 160.6 553.942 160.946 553.469C161.296 552.995 161.772 552.624 162.373 552.354C162.979 552.084 163.666 551.949 164.433 551.949C165.512 551.949 166.36 552.186 166.975 552.659C167.596 553.133 168.036 553.758 168.297 554.534ZM181.217 563.227C180.166 563.227 179.259 562.995 178.497 562.531C177.74 562.062 177.155 561.409 176.743 560.571C176.336 559.728 176.132 558.748 176.132 557.631C176.132 556.513 176.336 555.528 176.743 554.676C177.155 553.819 177.728 553.152 178.462 552.673C179.2 552.19 180.062 551.949 181.047 551.949C181.615 551.949 182.176 552.044 182.73 552.233C183.284 552.422 183.788 552.73 184.243 553.156C184.697 553.578 185.06 554.136 185.33 554.832C185.599 555.528 185.734 556.385 185.734 557.403V558.114H177.325V556.665H184.03C184.03 556.049 183.907 555.5 183.661 555.017C183.419 554.534 183.073 554.153 182.624 553.874C182.179 553.594 181.653 553.455 181.047 553.455C180.379 553.455 179.802 553.62 179.314 553.952C178.831 554.278 178.459 554.705 178.199 555.23C177.938 555.756 177.808 556.319 177.808 556.92V557.886C177.808 558.71 177.95 559.409 178.234 559.982C178.523 560.55 178.923 560.983 179.435 561.281C179.946 561.575 180.54 561.722 181.217 561.722C181.658 561.722 182.055 561.66 182.411 561.537C182.77 561.409 183.08 561.22 183.341 560.969C183.601 560.713 183.803 560.396 183.945 560.017L185.564 560.472C185.393 561.021 185.107 561.504 184.705 561.92C184.302 562.332 183.805 562.654 183.213 562.886C182.621 563.114 181.956 563.227 181.217 563.227ZM198.653 552.091V553.511H193V552.091H198.653ZM194.648 549.477H196.324V559.875C196.324 560.348 196.393 560.704 196.53 560.94C196.672 561.172 196.852 561.329 197.07 561.409C197.292 561.485 197.527 561.523 197.773 561.523C197.957 561.523 198.109 561.513 198.227 561.494C198.346 561.471 198.44 561.452 198.511 561.438L198.852 562.943C198.739 562.986 198.58 563.028 198.376 563.071C198.173 563.118 197.915 563.142 197.602 563.142C197.129 563.142 196.665 563.04 196.21 562.837C195.76 562.633 195.386 562.323 195.088 561.906C194.795 561.49 194.648 560.964 194.648 560.33V549.477ZM205.489 563.227C204.504 563.227 203.64 562.993 202.897 562.524C202.158 562.055 201.581 561.4 201.164 560.557C200.752 559.714 200.546 558.729 200.546 557.602C200.546 556.466 200.752 555.474 201.164 554.626C201.581 553.779 202.158 553.121 202.897 552.652C203.64 552.183 204.504 551.949 205.489 551.949C206.474 551.949 207.336 552.183 208.075 552.652C208.818 553.121 209.396 553.779 209.808 554.626C210.224 555.474 210.433 556.466 210.433 557.602C210.433 558.729 210.224 559.714 209.808 560.557C209.396 561.4 208.818 562.055 208.075 562.524C207.336 562.993 206.474 563.227 205.489 563.227ZM205.489 561.722C206.237 561.722 206.853 561.53 207.336 561.146C207.819 560.763 208.176 560.259 208.408 559.634C208.64 559.009 208.756 558.331 208.756 557.602C208.756 556.873 208.64 556.194 208.408 555.564C208.176 554.934 207.819 554.425 207.336 554.037C206.853 553.649 206.237 553.455 205.489 553.455C204.741 553.455 204.126 553.649 203.643 554.037C203.16 554.425 202.802 554.934 202.57 555.564C202.338 556.194 202.222 556.873 202.222 557.602C202.222 558.331 202.338 559.009 202.57 559.634C202.802 560.259 203.16 560.763 203.643 561.146C204.126 561.53 204.741 561.722 205.489 561.722ZM212.991 563V552.091H214.61V553.739H214.724C214.923 553.199 215.283 552.761 215.804 552.425C216.324 552.089 216.912 551.92 217.565 551.92C217.688 551.92 217.842 551.923 218.027 551.928C218.211 551.932 218.351 551.939 218.446 551.949V553.653C218.389 553.639 218.259 553.618 218.055 553.589C217.856 553.556 217.645 553.54 217.423 553.54C216.893 553.54 216.419 553.651 216.002 553.874C215.591 554.091 215.264 554.394 215.022 554.783C214.786 555.166 214.667 555.604 214.667 556.097V563H212.991ZM222.109 556.438V563H220.433V552.091H222.052V553.795H222.194C222.45 553.241 222.838 552.796 223.359 552.46C223.879 552.119 224.552 551.949 225.376 551.949C226.114 551.949 226.761 552.1 227.315 552.403C227.869 552.702 228.299 553.156 228.607 553.767C228.915 554.373 229.069 555.14 229.069 556.068V563H227.393V556.182C227.393 555.325 227.17 554.657 226.725 554.179C226.28 553.696 225.669 553.455 224.893 553.455C224.358 553.455 223.879 553.571 223.458 553.803C223.041 554.035 222.712 554.373 222.471 554.818C222.229 555.263 222.109 555.803 222.109 556.438ZM236.706 563.227C235.654 563.227 234.748 562.995 233.985 562.531C233.228 562.062 232.643 561.409 232.231 560.571C231.824 559.728 231.62 558.748 231.62 557.631C231.62 556.513 231.824 555.528 232.231 554.676C232.643 553.819 233.216 553.152 233.95 552.673C234.689 552.19 235.55 551.949 236.535 551.949C237.103 551.949 237.664 552.044 238.218 552.233C238.772 552.422 239.277 552.73 239.731 553.156C240.186 553.578 240.548 554.136 240.818 554.832C241.088 555.528 241.223 556.385 241.223 557.403V558.114H232.814V556.665H239.518C239.518 556.049 239.395 555.5 239.149 555.017C238.907 554.534 238.562 554.153 238.112 553.874C237.667 553.594 237.141 553.455 236.535 553.455C235.868 553.455 235.29 553.62 234.802 553.952C234.319 554.278 233.948 554.705 233.687 555.23C233.427 555.756 233.297 556.319 233.297 556.92V557.886C233.297 558.71 233.439 559.409 233.723 559.982C234.011 560.55 234.412 560.983 234.923 561.281C235.434 561.575 236.029 561.722 236.706 561.722C237.146 561.722 237.544 561.66 237.899 561.537C238.259 561.409 238.569 561.22 238.829 560.969C239.09 560.713 239.291 560.396 239.433 560.017L241.052 560.472C240.882 561.021 240.595 561.504 240.193 561.92C239.79 562.332 239.293 562.654 238.701 562.886C238.109 563.114 237.444 563.227 236.706 563.227ZM250.022 555.983V557.545H243.659V555.983H250.022ZM260.699 554.534L259.193 554.96C259.098 554.709 258.959 554.465 258.774 554.229C258.594 553.987 258.348 553.788 258.036 553.632C257.723 553.476 257.323 553.398 256.835 553.398C256.168 553.398 255.611 553.552 255.166 553.859C254.726 554.162 254.506 554.548 254.506 555.017C254.506 555.434 254.657 555.763 254.96 556.004C255.263 556.246 255.737 556.447 256.381 556.608L258 557.006C258.975 557.242 259.702 557.605 260.18 558.092C260.659 558.575 260.898 559.198 260.898 559.96C260.898 560.585 260.718 561.144 260.358 561.636C260.003 562.129 259.506 562.517 258.866 562.801C258.227 563.085 257.484 563.227 256.636 563.227C255.524 563.227 254.603 562.986 253.874 562.503C253.144 562.02 252.683 561.314 252.489 560.386L254.08 559.989C254.231 560.576 254.518 561.016 254.939 561.31C255.365 561.603 255.921 561.75 256.608 561.75C257.389 561.75 258.009 561.584 258.469 561.253C258.933 560.917 259.165 560.514 259.165 560.045C259.165 559.667 259.032 559.349 258.767 559.094C258.502 558.833 258.095 558.639 257.545 558.511L255.727 558.085C254.728 557.848 253.994 557.482 253.526 556.984C253.062 556.482 252.83 555.855 252.83 555.102C252.83 554.487 253.002 553.942 253.348 553.469C253.698 552.995 254.174 552.624 254.776 552.354C255.382 552.084 256.068 551.949 256.835 551.949C257.915 551.949 258.762 552.186 259.378 552.659C259.998 553.133 260.438 553.758 260.699 554.534ZM267.995 563.227C266.944 563.227 266.037 562.995 265.275 562.531C264.517 562.062 263.932 561.409 263.52 560.571C263.113 559.728 262.909 558.748 262.909 557.631C262.909 556.513 263.113 555.528 263.52 554.676C263.932 553.819 264.505 553.152 265.239 552.673C265.978 552.19 266.839 551.949 267.824 551.949C268.392 551.949 268.953 552.044 269.507 552.233C270.061 552.422 270.566 552.73 271.02 553.156C271.475 553.578 271.837 554.136 272.107 554.832C272.377 555.528 272.512 556.385 272.512 557.403V558.114H264.103V556.665H270.807C270.807 556.049 270.684 555.5 270.438 555.017C270.196 554.534 269.851 554.153 269.401 553.874C268.956 553.594 268.43 553.455 267.824 553.455C267.157 553.455 266.579 553.62 266.091 553.952C265.608 554.278 265.237 554.705 264.976 555.23C264.716 555.756 264.586 556.319 264.586 556.92V557.886C264.586 558.71 264.728 559.409 265.012 559.982C265.301 560.55 265.701 560.983 266.212 561.281C266.723 561.575 267.318 561.722 267.995 561.722C268.435 561.722 268.833 561.66 269.188 561.537C269.548 561.409 269.858 561.22 270.118 560.969C270.379 560.713 270.58 560.396 270.722 560.017L272.341 560.472C272.171 561.021 271.884 561.504 271.482 561.92C271.079 562.332 270.582 562.654 269.99 562.886C269.399 563.114 268.733 563.227 267.995 563.227ZM287.561 558.54V552.091H289.238V563H287.561V561.153H287.448C287.192 561.707 286.794 562.179 286.255 562.567C285.715 562.95 285.033 563.142 284.209 563.142C283.527 563.142 282.921 562.993 282.391 562.695C281.861 562.392 281.444 561.937 281.141 561.331C280.838 560.72 280.686 559.951 280.686 559.023V552.091H282.363V558.909C282.363 559.705 282.585 560.339 283.03 560.812C283.48 561.286 284.053 561.523 284.749 561.523C285.166 561.523 285.589 561.416 286.02 561.203C286.456 560.99 286.82 560.663 287.114 560.223C287.412 559.783 287.561 559.222 287.561 558.54ZM292.308 563V552.091H293.927V553.795H294.069C294.296 553.213 294.663 552.761 295.17 552.439C295.676 552.112 296.285 551.949 296.995 551.949C297.715 551.949 298.314 552.112 298.792 552.439C299.275 552.761 299.651 553.213 299.921 553.795H300.035C300.314 553.232 300.733 552.785 301.292 552.453C301.851 552.117 302.521 551.949 303.302 551.949C304.277 551.949 305.075 552.254 305.695 552.865C306.316 553.471 306.626 554.416 306.626 555.699V563H304.95V555.699C304.95 554.894 304.729 554.319 304.289 553.973C303.849 553.627 303.33 553.455 302.734 553.455C301.967 553.455 301.372 553.687 300.951 554.151C300.53 554.61 300.319 555.192 300.319 555.898V563H298.614V555.528C298.614 554.908 298.413 554.409 298.011 554.03C297.608 553.646 297.09 553.455 296.455 553.455C296.02 553.455 295.612 553.571 295.234 553.803C294.86 554.035 294.557 554.357 294.325 554.768C294.097 555.176 293.984 555.647 293.984 556.182V563H292.308ZM29.7614 572.455H31.8636L36.8068 584.528H36.9773L41.9205 572.455H44.0227V587H42.375V575.949H42.233L37.6875 587H36.0966L31.5511 575.949H31.4091V587H29.7614V572.455ZM51.9009 587.227C50.8498 587.227 49.9431 586.995 49.1808 586.531C48.4232 586.062 47.8384 585.409 47.4265 584.571C47.0193 583.728 46.8157 582.748 46.8157 581.631C46.8157 580.513 47.0193 579.528 47.4265 578.676C47.8384 577.819 48.4113 577.152 49.1452 576.673C49.8839 576.19 50.7456 575.949 51.7305 575.949C52.2987 575.949 52.8597 576.044 53.4137 576.233C53.9677 576.422 54.4719 576.73 54.9265 577.156C55.381 577.578 55.7433 578.136 56.0131 578.832C56.283 579.528 56.418 580.385 56.418 581.403V582.114H48.0089V580.665H54.7134C54.7134 580.049 54.5903 579.5 54.3441 579.017C54.1026 578.534 53.757 578.153 53.3072 577.874C52.8621 577.594 52.3365 577.455 51.7305 577.455C51.0629 577.455 50.4852 577.62 49.9975 577.952C49.5146 578.278 49.1429 578.705 48.8825 579.23C48.622 579.756 48.4918 580.319 48.4918 580.92V581.886C48.4918 582.71 48.6339 583.409 48.918 583.982C49.2068 584.55 49.6069 584.983 50.1183 585.281C50.6296 585.575 51.2238 585.722 51.9009 585.722C52.3413 585.722 52.739 585.66 53.0941 585.537C53.454 585.409 53.7641 585.22 54.0245 584.969C54.2849 584.713 54.4862 584.396 54.6282 584.017L56.2475 584.472C56.0771 585.021 55.7906 585.504 55.3881 585.92C54.9857 586.332 54.4885 586.654 53.8967 586.886C53.3048 587.114 52.6396 587.227 51.9009 587.227ZM66.695 578.534L65.1893 578.96C65.0946 578.709 64.9549 578.465 64.7702 578.229C64.5903 577.987 64.3441 577.788 64.0316 577.632C63.7191 577.476 63.319 577.398 62.8313 577.398C62.1637 577.398 61.6074 577.552 61.1623 577.859C60.7219 578.162 60.5018 578.548 60.5018 579.017C60.5018 579.434 60.6533 579.763 60.9563 580.004C61.2594 580.246 61.7328 580.447 62.3768 580.608L63.9961 581.006C64.9715 581.242 65.6983 581.605 66.1765 582.092C66.6547 582.575 66.8938 583.198 66.8938 583.96C66.8938 584.585 66.7139 585.144 66.354 585.636C65.9989 586.129 65.5018 586.517 64.8626 586.801C64.2234 587.085 63.48 587.227 62.6325 587.227C61.5198 587.227 60.5988 586.986 59.8697 586.503C59.1405 586.02 58.6789 585.314 58.4847 584.386L60.0756 583.989C60.2272 584.576 60.5136 585.016 60.935 585.31C61.3612 585.603 61.9175 585.75 62.604 585.75C63.3853 585.75 64.0056 585.584 64.4648 585.253C64.9289 584.917 65.1609 584.514 65.1609 584.045C65.1609 583.667 65.0283 583.349 64.7631 583.094C64.498 582.833 64.0908 582.639 63.5415 582.511L61.7234 582.085C60.7243 581.848 59.9904 581.482 59.5217 580.984C59.0576 580.482 58.8256 579.855 58.8256 579.102C58.8256 578.487 58.9985 577.942 59.3441 577.469C59.6945 576.995 60.1703 576.624 60.7717 576.354C61.3777 576.084 62.0643 575.949 62.8313 575.949C63.9109 575.949 64.7584 576.186 65.3739 576.659C65.9942 577.133 66.4345 577.758 66.695 578.534ZM74.1612 576.091V577.511H68.5078V576.091H74.1612ZM70.1555 573.477H71.8317V583.875C71.8317 584.348 71.9003 584.704 72.0376 584.94C72.1797 585.172 72.3596 585.329 72.5774 585.409C72.8 585.485 73.0343 585.523 73.2805 585.523C73.4652 585.523 73.6167 585.513 73.7351 585.494C73.8535 585.471 73.9482 585.452 74.0192 585.438L74.3601 586.943C74.2464 586.986 74.0878 587.028 73.8842 587.071C73.6806 587.118 73.4226 587.142 73.1101 587.142C72.6366 587.142 72.1726 587.04 71.718 586.837C71.2682 586.633 70.8942 586.323 70.5959 585.906C70.3023 585.49 70.1555 584.964 70.1555 584.33V573.477ZM76.6825 587V576.091H78.3018V577.739H78.4155C78.6143 577.199 78.9742 576.761 79.495 576.425C80.0159 576.089 80.603 575.92 81.2564 575.92C81.3795 575.92 81.5334 575.923 81.718 575.928C81.9027 575.932 82.0424 575.939 82.1371 575.949V577.653C82.0803 577.639 81.95 577.618 81.7464 577.589C81.5476 577.556 81.3369 577.54 81.1143 577.54C80.584 577.54 80.1106 577.651 79.6939 577.874C79.282 578.091 78.9553 578.394 78.7138 578.783C78.477 579.166 78.3587 579.604 78.3587 580.097V587H76.6825ZM88.3658 587.227C87.3146 587.227 86.4079 586.995 85.6456 586.531C84.888 586.062 84.3033 585.409 83.8913 584.571C83.4841 583.728 83.2805 582.748 83.2805 581.631C83.2805 580.513 83.4841 579.528 83.8913 578.676C84.3033 577.819 84.8762 577.152 85.6101 576.673C86.3487 576.19 87.2105 575.949 88.1953 575.949C88.7635 575.949 89.3246 576.044 89.8786 576.233C90.4325 576.422 90.9368 576.73 91.3913 577.156C91.8459 577.578 92.2081 578.136 92.478 578.832C92.7479 579.528 92.8828 580.385 92.8828 581.403V582.114H84.4737V580.665H91.1783C91.1783 580.049 91.0552 579.5 90.8089 579.017C90.5675 578.534 90.2218 578.153 89.772 577.874C89.3269 577.594 88.8014 577.455 88.1953 577.455C87.5277 577.455 86.95 577.62 86.4624 577.952C85.9794 578.278 85.6077 578.705 85.3473 579.23C85.0869 579.756 84.9567 580.319 84.9567 580.92V581.886C84.9567 582.71 85.0987 583.409 85.3828 583.982C85.6716 584.55 86.0717 584.983 86.5831 585.281C87.0945 585.575 87.6887 585.722 88.3658 585.722C88.8061 585.722 89.2038 585.66 89.5589 585.537C89.9188 585.409 90.2289 585.22 90.4893 584.969C90.7498 584.713 90.951 584.396 91.093 584.017L92.7124 584.472C92.5419 585.021 92.2554 585.504 91.853 585.92C91.4505 586.332 90.9534 586.654 90.3615 586.886C89.7696 587.114 89.1044 587.227 88.3658 587.227ZM105.177 587.227C104.268 587.227 103.465 586.998 102.769 586.538C102.073 586.074 101.529 585.421 101.136 584.578C100.743 583.731 100.546 582.729 100.546 581.574C100.546 580.428 100.743 579.434 101.136 578.591C101.529 577.748 102.076 577.097 102.776 576.638C103.477 576.179 104.287 575.949 105.205 575.949C105.915 575.949 106.477 576.067 106.888 576.304C107.305 576.536 107.622 576.801 107.84 577.099C108.063 577.393 108.236 577.634 108.359 577.824H108.501V572.455H110.177V587H108.558V585.324H108.359C108.236 585.523 108.06 585.774 107.833 586.077C107.606 586.375 107.281 586.643 106.86 586.879C106.439 587.111 105.878 587.227 105.177 587.227ZM105.404 585.722C106.076 585.722 106.645 585.546 107.109 585.196C107.573 584.841 107.925 584.351 108.167 583.726C108.408 583.096 108.529 582.369 108.529 581.545C108.529 580.731 108.411 580.018 108.174 579.408C107.937 578.792 107.587 578.314 107.123 577.973C106.659 577.627 106.086 577.455 105.404 577.455C104.694 577.455 104.102 577.637 103.629 578.001C103.16 578.361 102.807 578.851 102.57 579.472C102.338 580.087 102.222 580.778 102.222 581.545C102.222 582.322 102.341 583.027 102.577 583.662C102.819 584.292 103.174 584.794 103.643 585.168C104.116 585.537 104.703 585.722 105.404 585.722ZM117.911 587.227C116.926 587.227 116.062 586.993 115.319 586.524C114.58 586.055 114.003 585.4 113.586 584.557C113.174 583.714 112.968 582.729 112.968 581.602C112.968 580.466 113.174 579.474 113.586 578.626C114.003 577.779 114.58 577.121 115.319 576.652C116.062 576.183 116.926 575.949 117.911 575.949C118.896 575.949 119.758 576.183 120.496 576.652C121.24 577.121 121.817 577.779 122.229 578.626C122.646 579.474 122.854 580.466 122.854 581.602C122.854 582.729 122.646 583.714 122.229 584.557C121.817 585.4 121.24 586.055 120.496 586.524C119.758 586.993 118.896 587.227 117.911 587.227ZM117.911 585.722C118.659 585.722 119.275 585.53 119.758 585.146C120.241 584.763 120.598 584.259 120.83 583.634C121.062 583.009 121.178 582.331 121.178 581.602C121.178 580.873 121.062 580.194 120.83 579.564C120.598 578.934 120.241 578.425 119.758 578.037C119.275 577.649 118.659 577.455 117.911 577.455C117.163 577.455 116.548 577.649 116.065 578.037C115.582 578.425 115.224 578.934 114.992 579.564C114.76 580.194 114.644 580.873 114.644 581.602C114.644 582.331 114.76 583.009 114.992 583.634C115.224 584.259 115.582 584.763 116.065 585.146C116.548 585.53 117.163 585.722 117.911 585.722ZM133.14 578.534L131.635 578.96C131.54 578.709 131.4 578.465 131.216 578.229C131.036 577.987 130.789 577.788 130.477 577.632C130.164 577.476 129.764 577.398 129.277 577.398C128.609 577.398 128.053 577.552 127.608 577.859C127.167 578.162 126.947 578.548 126.947 579.017C126.947 579.434 127.099 579.763 127.402 580.004C127.705 580.246 128.178 580.447 128.822 580.608L130.441 581.006C131.417 581.242 132.144 581.605 132.622 582.092C133.1 582.575 133.339 583.198 133.339 583.96C133.339 584.585 133.159 585.144 132.799 585.636C132.444 586.129 131.947 586.517 131.308 586.801C130.669 587.085 129.925 587.227 129.078 587.227C127.965 587.227 127.044 586.986 126.315 586.503C125.586 586.02 125.124 585.314 124.93 584.386L126.521 583.989C126.672 584.576 126.959 585.016 127.38 585.31C127.806 585.603 128.363 585.75 129.049 585.75C129.831 585.75 130.451 585.584 130.91 585.253C131.374 584.917 131.606 584.514 131.606 584.045C131.606 583.667 131.474 583.349 131.208 583.094C130.943 582.833 130.536 582.639 129.987 582.511L128.169 582.085C127.17 581.848 126.436 581.482 125.967 580.984C125.503 580.482 125.271 579.855 125.271 579.102C125.271 578.487 125.444 577.942 125.789 577.469C126.14 576.995 126.616 576.624 127.217 576.354C127.823 576.084 128.51 575.949 129.277 575.949C130.356 575.949 131.204 576.186 131.819 576.659C132.44 577.133 132.88 577.758 133.14 578.534ZM153.249 572.455V587H151.544L143.618 575.58H143.476V587H141.714V572.455H143.419L151.374 583.903H151.516V572.455H153.249ZM163.421 582.54V576.091H165.097V587H163.421V585.153H163.307C163.051 585.707 162.654 586.179 162.114 586.567C161.574 586.95 160.892 587.142 160.069 587.142C159.387 587.142 158.781 586.993 158.25 586.695C157.72 586.392 157.303 585.937 157 585.331C156.697 584.72 156.546 583.951 156.546 583.023V576.091H158.222V582.909C158.222 583.705 158.444 584.339 158.89 584.812C159.339 585.286 159.912 585.523 160.608 585.523C161.025 585.523 161.449 585.416 161.88 585.203C162.315 584.99 162.68 584.663 162.973 584.223C163.272 583.783 163.421 583.222 163.421 582.54ZM160.069 574.614L161.801 571.318H163.762L161.546 574.614H160.069ZM168.167 587V576.091H169.786V577.795H169.928C170.156 577.213 170.522 576.761 171.029 576.439C171.536 576.112 172.144 575.949 172.854 575.949C173.574 575.949 174.173 576.112 174.651 576.439C175.134 576.761 175.511 577.213 175.781 577.795H175.894C176.174 577.232 176.593 576.785 177.151 576.453C177.71 576.117 178.38 575.949 179.161 575.949C180.137 575.949 180.934 576.254 181.555 576.865C182.175 577.471 182.485 578.416 182.485 579.699V587H180.809V579.699C180.809 578.894 180.589 578.319 180.148 577.973C179.708 577.627 179.19 577.455 178.593 577.455C177.826 577.455 177.232 577.687 176.81 578.151C176.389 578.61 176.178 579.192 176.178 579.898V587H174.474V579.528C174.474 578.908 174.272 578.409 173.87 578.03C173.468 577.646 172.949 577.455 172.315 577.455C171.879 577.455 171.472 577.571 171.093 577.803C170.719 578.035 170.416 578.357 170.184 578.768C169.957 579.176 169.843 579.647 169.843 580.182V587H168.167ZM190.124 587.227C189.072 587.227 188.166 586.995 187.403 586.531C186.646 586.062 186.061 585.409 185.649 584.571C185.242 583.728 185.038 582.748 185.038 581.631C185.038 580.513 185.242 579.528 185.649 578.676C186.061 577.819 186.634 577.152 187.368 576.673C188.107 576.19 188.968 575.949 189.953 575.949C190.521 575.949 191.082 576.044 191.636 576.233C192.19 576.422 192.695 576.73 193.149 577.156C193.604 577.578 193.966 578.136 194.236 578.832C194.506 579.528 194.641 580.385 194.641 581.403V582.114H186.232V580.665H192.936C192.936 580.049 192.813 579.5 192.567 579.017C192.325 578.534 191.98 578.153 191.53 577.874C191.085 577.594 190.559 577.455 189.953 577.455C189.286 577.455 188.708 577.62 188.22 577.952C187.737 578.278 187.366 578.705 187.105 579.23C186.845 579.756 186.714 580.319 186.714 580.92V581.886C186.714 582.71 186.857 583.409 187.141 583.982C187.429 584.55 187.83 584.983 188.341 585.281C188.852 585.575 189.446 585.722 190.124 585.722C190.564 585.722 190.962 585.66 191.317 585.537C191.677 585.409 191.987 585.22 192.247 584.969C192.508 584.713 192.709 584.396 192.851 584.017L194.47 584.472C194.3 585.021 194.013 585.504 193.611 585.92C193.208 586.332 192.711 586.654 192.119 586.886C191.527 587.114 190.862 587.227 190.124 587.227ZM197.19 587V576.091H198.81V577.739H198.923C199.122 577.199 199.482 576.761 200.003 576.425C200.524 576.089 201.111 575.92 201.764 575.92C201.887 575.92 202.041 575.923 202.226 575.928C202.411 575.932 202.55 575.939 202.645 575.949V577.653C202.588 577.639 202.458 577.618 202.254 577.589C202.055 577.556 201.845 577.54 201.622 577.54C201.092 577.54 200.618 577.651 200.202 577.874C199.79 578.091 199.463 578.394 199.222 578.783C198.985 579.166 198.866 579.604 198.866 580.097V587H197.19ZM208.732 587.227C207.747 587.227 206.883 586.993 206.139 586.524C205.401 586.055 204.823 585.4 204.406 584.557C203.994 583.714 203.788 582.729 203.788 581.602C203.788 580.466 203.994 579.474 204.406 578.626C204.823 577.779 205.401 577.121 206.139 576.652C206.883 576.183 207.747 575.949 208.732 575.949C209.716 575.949 210.578 576.183 211.317 576.652C212.06 577.121 212.638 577.779 213.05 578.626C213.466 579.474 213.675 580.466 213.675 581.602C213.675 582.729 213.466 583.714 213.05 584.557C212.638 585.4 212.06 586.055 211.317 586.524C210.578 586.993 209.716 587.227 208.732 587.227ZM208.732 585.722C209.48 585.722 210.095 585.53 210.578 585.146C211.061 584.763 211.419 584.259 211.651 583.634C211.883 583.009 211.999 582.331 211.999 581.602C211.999 580.873 211.883 580.194 211.651 579.564C211.419 578.934 211.061 578.425 210.578 578.037C210.095 577.649 209.48 577.455 208.732 577.455C207.983 577.455 207.368 577.649 206.885 578.037C206.402 578.425 206.045 578.934 205.812 579.564C205.58 580.194 205.464 580.873 205.464 581.602C205.464 582.331 205.58 583.009 205.812 583.634C206.045 584.259 206.402 584.763 206.885 585.146C207.368 585.53 207.983 585.722 208.732 585.722ZM223.961 578.534L222.455 578.96C222.36 578.709 222.221 578.465 222.036 578.229C221.856 577.987 221.61 577.788 221.297 577.632C220.985 577.476 220.585 577.398 220.097 577.398C219.429 577.398 218.873 577.552 218.428 577.859C217.988 578.162 217.767 578.548 217.767 579.017C217.767 579.434 217.919 579.763 218.222 580.004C218.525 580.246 218.998 580.447 219.642 580.608L221.262 581.006C222.237 581.242 222.964 581.605 223.442 582.092C223.92 582.575 224.159 583.198 224.159 583.96C224.159 584.585 223.98 585.144 223.62 585.636C223.265 586.129 222.767 586.517 222.128 586.801C221.489 587.085 220.746 587.227 219.898 587.227C218.785 587.227 217.864 586.986 217.135 586.503C216.406 586.02 215.944 585.314 215.75 584.386L217.341 583.989C217.493 584.576 217.779 585.016 218.201 585.31C218.627 585.603 219.183 585.75 219.87 585.75C220.651 585.75 221.271 585.584 221.73 585.253C222.194 584.917 222.426 584.514 222.426 584.045C222.426 583.667 222.294 583.349 222.029 583.094C221.764 582.833 221.356 582.639 220.807 582.511L218.989 582.085C217.99 581.848 217.256 581.482 216.787 580.984C216.323 580.482 216.091 579.855 216.091 579.102C216.091 578.487 216.264 577.942 216.61 577.469C216.96 576.995 217.436 576.624 218.037 576.354C218.643 576.084 219.33 575.949 220.097 575.949C221.176 575.949 222.024 576.186 222.64 576.659C223.26 577.133 223.7 577.758 223.961 578.534ZM228.898 572.455L228.756 582.909H227.109L226.967 572.455H228.898ZM227.933 587.114C227.582 587.114 227.281 586.988 227.031 586.737C226.78 586.486 226.654 586.186 226.654 585.835C226.654 585.485 226.78 585.184 227.031 584.933C227.281 584.682 227.582 584.557 227.933 584.557C228.283 584.557 228.584 584.682 228.835 584.933C229.085 585.184 229.211 585.485 229.211 585.835C229.211 586.067 229.152 586.28 229.033 586.474C228.92 586.669 228.766 586.825 228.572 586.943C228.382 587.057 228.169 587.114 227.933 587.114Z" fill="white"/>
<rect x="27" y="658" width="305" height="47" rx="20" fill="#E9ECF8"/>
<path d="M150.409 687V675.364H154.341C155.254 675.364 156 675.528 156.58 675.858C157.163 676.184 157.595 676.625 157.875 677.182C158.155 677.739 158.295 678.36 158.295 679.045C158.295 679.731 158.155 680.354 157.875 680.915C157.598 681.475 157.17 681.922 156.591 682.256C156.011 682.585 155.269 682.75 154.364 682.75H151.545V681.5H154.318C154.943 681.5 155.445 681.392 155.824 681.176C156.203 680.96 156.477 680.669 156.648 680.301C156.822 679.93 156.909 679.511 156.909 679.045C156.909 678.58 156.822 678.163 156.648 677.795C156.477 677.428 156.201 677.14 155.818 676.932C155.436 676.72 154.928 676.614 154.295 676.614H151.818V687H150.409ZM160.384 687V678.273H161.679V679.591H161.77C161.929 679.159 162.217 678.809 162.634 678.54C163.05 678.271 163.52 678.136 164.043 678.136C164.141 678.136 164.264 678.138 164.412 678.142C164.56 678.146 164.671 678.152 164.747 678.159V679.523C164.702 679.511 164.598 679.494 164.435 679.472C164.276 679.445 164.107 679.432 163.929 679.432C163.505 679.432 163.126 679.521 162.793 679.699C162.463 679.873 162.202 680.116 162.009 680.426C161.819 680.733 161.724 681.083 161.724 681.477V687H160.384ZM169.616 687.182C168.829 687.182 168.137 686.994 167.543 686.619C166.952 686.244 166.49 685.72 166.156 685.045C165.827 684.371 165.662 683.583 165.662 682.682C165.662 681.773 165.827 680.979 166.156 680.301C166.49 679.623 166.952 679.097 167.543 678.722C168.137 678.347 168.829 678.159 169.616 678.159C170.404 678.159 171.094 678.347 171.685 678.722C172.279 679.097 172.741 679.623 173.071 680.301C173.404 680.979 173.571 681.773 173.571 682.682C173.571 683.583 173.404 684.371 173.071 685.045C172.741 685.72 172.279 686.244 171.685 686.619C171.094 686.994 170.404 687.182 169.616 687.182ZM169.616 685.977C170.215 685.977 170.707 685.824 171.094 685.517C171.48 685.21 171.766 684.807 171.952 684.307C172.137 683.807 172.23 683.265 172.23 682.682C172.23 682.098 172.137 681.555 171.952 681.051C171.766 680.547 171.48 680.14 171.094 679.83C170.707 679.519 170.215 679.364 169.616 679.364C169.018 679.364 168.526 679.519 168.139 679.83C167.753 680.14 167.467 680.547 167.281 681.051C167.096 681.555 167.003 682.098 167.003 682.682C167.003 683.265 167.096 683.807 167.281 684.307C167.467 684.807 167.753 685.21 168.139 685.517C168.526 685.824 169.018 685.977 169.616 685.977ZM169.003 677.091L170.389 674.455H171.957L170.185 677.091H169.003ZM176.259 678.273L178.349 681.841L180.44 678.273H181.986L179.168 682.636L181.986 687H180.44L178.349 683.614L176.259 687H174.713L177.486 682.636L174.713 678.273H176.259ZM183.899 687V678.273H185.24V687H183.899ZM184.581 676.818C184.32 676.818 184.094 676.729 183.905 676.551C183.719 676.373 183.626 676.159 183.626 675.909C183.626 675.659 183.719 675.445 183.905 675.267C184.094 675.089 184.32 675 184.581 675C184.842 675 185.066 675.089 185.251 675.267C185.441 675.445 185.536 675.659 185.536 675.909C185.536 676.159 185.441 676.373 185.251 676.551C185.066 676.729 184.842 676.818 184.581 676.818ZM187.696 687V678.273H188.991V679.636H189.105C189.287 679.17 189.58 678.809 189.986 678.551C190.391 678.29 190.878 678.159 191.446 678.159C192.022 678.159 192.501 678.29 192.884 678.551C193.27 678.809 193.571 679.17 193.787 679.636H193.878C194.101 679.186 194.437 678.828 194.884 678.562C195.33 678.294 195.866 678.159 196.491 678.159C197.272 678.159 197.91 678.403 198.406 678.892C198.902 679.377 199.151 680.133 199.151 681.159V687H197.81V681.159C197.81 680.515 197.634 680.055 197.281 679.778C196.929 679.502 196.514 679.364 196.037 679.364C195.423 679.364 194.948 679.549 194.611 679.92C194.274 680.288 194.105 680.754 194.105 681.318V687H192.741V681.023C192.741 680.527 192.58 680.127 192.259 679.824C191.937 679.517 191.522 679.364 191.014 679.364C190.666 679.364 190.34 679.456 190.037 679.642C189.738 679.828 189.495 680.085 189.31 680.415C189.128 680.741 189.037 681.117 189.037 681.545V687H187.696ZM205.148 687.182C204.36 687.182 203.669 686.994 203.074 686.619C202.483 686.244 202.021 685.72 201.688 685.045C201.358 684.371 201.193 683.583 201.193 682.682C201.193 681.773 201.358 680.979 201.688 680.301C202.021 679.623 202.483 679.097 203.074 678.722C203.669 678.347 204.36 678.159 205.148 678.159C205.936 678.159 206.625 678.347 207.216 678.722C207.811 679.097 208.273 679.623 208.602 680.301C208.936 680.979 209.102 681.773 209.102 682.682C209.102 683.583 208.936 684.371 208.602 685.045C208.273 685.72 207.811 686.244 207.216 686.619C206.625 686.994 205.936 687.182 205.148 687.182ZM205.148 685.977C205.746 685.977 206.239 685.824 206.625 685.517C207.011 685.21 207.297 684.807 207.483 684.307C207.669 683.807 207.761 683.265 207.761 682.682C207.761 682.098 207.669 681.555 207.483 681.051C207.297 680.547 207.011 680.14 206.625 679.83C206.239 679.519 205.746 679.364 205.148 679.364C204.549 679.364 204.057 679.519 203.67 679.83C203.284 680.14 202.998 680.547 202.812 681.051C202.627 681.555 202.534 682.098 202.534 682.682C202.534 683.265 202.627 683.807 202.812 684.307C202.998 684.807 203.284 685.21 203.67 685.517C204.057 685.824 204.549 685.977 205.148 685.977Z" fill="#4B4B4B"/>
<path d="M161.409 758V746.364H165.341C166.254 746.364 167 746.528 167.58 746.858C168.163 747.184 168.595 747.625 168.875 748.182C169.155 748.739 169.295 749.36 169.295 750.045C169.295 750.731 169.155 751.354 168.875 751.915C168.598 752.475 168.17 752.922 167.591 753.256C167.011 753.585 166.269 753.75 165.364 753.75H162.545V752.5H165.318C165.943 752.5 166.445 752.392 166.824 752.176C167.203 751.96 167.477 751.669 167.648 751.301C167.822 750.93 167.909 750.511 167.909 750.045C167.909 749.58 167.822 749.163 167.648 748.795C167.477 748.428 167.201 748.14 166.818 747.932C166.436 747.72 165.928 747.614 165.295 747.614H162.818V758H161.409ZM176.884 754.432V749.273H178.224V758H176.884V756.523H176.793C176.588 756.966 176.27 757.343 175.838 757.653C175.406 757.96 174.861 758.114 174.202 758.114C173.656 758.114 173.171 757.994 172.747 757.756C172.323 757.513 171.99 757.15 171.747 756.665C171.505 756.176 171.384 755.561 171.384 754.818V749.273H172.724V754.727C172.724 755.364 172.902 755.871 173.259 756.25C173.618 756.629 174.077 756.818 174.634 756.818C174.967 756.818 175.306 756.733 175.651 756.562C175.999 756.392 176.291 756.131 176.526 755.778C176.764 755.426 176.884 754.977 176.884 754.432ZM182.021 746.364V758H180.68V746.364H182.021ZM187.045 758.205C186.492 758.205 185.991 758.1 185.54 757.892C185.089 757.68 184.731 757.375 184.466 756.977C184.201 756.576 184.068 756.091 184.068 755.523C184.068 755.023 184.167 754.617 184.364 754.307C184.561 753.992 184.824 753.746 185.153 753.568C185.483 753.39 185.847 753.258 186.244 753.17C186.646 753.08 187.049 753.008 187.455 752.955C187.985 752.886 188.415 752.835 188.744 752.801C189.078 752.763 189.32 752.701 189.472 752.614C189.627 752.527 189.705 752.375 189.705 752.159V752.114C189.705 751.553 189.551 751.117 189.244 750.807C188.941 750.496 188.481 750.341 187.864 750.341C187.223 750.341 186.722 750.481 186.358 750.761C185.994 751.042 185.739 751.341 185.591 751.659L184.318 751.205C184.545 750.674 184.848 750.261 185.227 749.966C185.61 749.667 186.027 749.458 186.477 749.341C186.932 749.22 187.379 749.159 187.818 749.159C188.098 749.159 188.42 749.193 188.784 749.261C189.152 749.326 189.506 749.46 189.847 749.665C190.191 749.869 190.477 750.178 190.705 750.591C190.932 751.004 191.045 751.557 191.045 752.25V758H189.705V756.818H189.636C189.545 757.008 189.394 757.21 189.182 757.426C188.97 757.642 188.688 757.826 188.335 757.977C187.983 758.129 187.553 758.205 187.045 758.205ZM187.25 757C187.78 757 188.227 756.896 188.591 756.688C188.958 756.479 189.235 756.21 189.42 755.881C189.61 755.551 189.705 755.205 189.705 754.841V753.614C189.648 753.682 189.523 753.744 189.33 753.801C189.14 753.854 188.92 753.902 188.67 753.943C188.424 753.981 188.184 754.015 187.949 754.045C187.718 754.072 187.53 754.095 187.386 754.114C187.038 754.159 186.712 754.233 186.409 754.335C186.11 754.434 185.867 754.583 185.682 754.784C185.5 754.981 185.409 755.25 185.409 755.591C185.409 756.057 185.581 756.409 185.926 756.648C186.275 756.883 186.716 757 187.25 757ZM193.493 758V749.273H194.788V750.591H194.879C195.038 750.159 195.326 749.809 195.743 749.54C196.16 749.271 196.629 749.136 197.152 749.136C197.25 749.136 197.374 749.138 197.521 749.142C197.669 749.146 197.781 749.152 197.857 749.159V750.523C197.811 750.511 197.707 750.494 197.544 750.472C197.385 750.445 197.216 750.432 197.038 750.432C196.614 750.432 196.235 750.521 195.902 750.699C195.572 750.873 195.311 751.116 195.118 751.426C194.929 751.733 194.834 752.083 194.834 752.477V758H193.493Z" fill="#EFF1FA"/>
<path d="M273 -16L278.388 0.583591H295.825L281.719 10.8328L287.107 27.4164L273 17.1672L258.893 27.4164L264.281 10.8328L250.175 0.583591H267.612L273 -16Z" fill="#F1FA8C"/>
<path d="M337 -16L342.388 0.583591H359.825L345.719 10.8328L351.107 27.4164L337 17.1672L322.893 27.4164L328.281 10.8328L314.175 0.583591H331.612L337 -16Z" fill="#F1FA8C"/>
<path d="M305 48L310.388 64.5836H327.825L313.719 74.8328L319.107 91.4164L305 81.1672L290.893 91.4164L296.281 74.8328L282.175 64.5836H299.612L305 48Z" fill="#F1FA8C"/>
<path d="M369 48L374.388 64.5836H391.825L377.719 74.8328L383.107 91.4164L369 81.1672L354.893 91.4164L360.281 74.8328L346.175 64.5836H363.612L369 48Z" fill="#F1FA8C"/>
<g clip-path="url(#clip1_539_332)">
<path d="M243.712 433.273C240.155 429.932 237.994 424.654 238.561 419.515C239.128 414.377 242.637 409.653 247.19 408.562C251.743 407.471 256.932 410.491 258.315 415.435C259.076 405.904 259.953 395.974 264.511 387.857C268.639 380.508 275.788 375.249 283.536 374.309C291.284 373.368 299.442 376.921 304.274 383.719C309.106 390.517 310.289 400.399 306.905 408.204C304.412 413.953 299.819 418.232 295.006 421.713C279.455 432.866 260.804 437.402 242.484 434.485" fill="#F2F2F2"/>
<path d="M296.612 377.118C290.219 382.906 284.354 389.38 279.102 396.446C270.883 407.466 264.231 419.821 259.38 433.081C259.025 434.048 260.438 434.469 260.789 433.513C268.727 411.962 281.399 392.968 297.645 378.267C298.375 377.606 297.336 376.463 296.612 377.118Z" fill="white"/>
<path d="M114.833 435.56H94.6587C93.977 435.559 93.3234 435.258 92.8414 434.722C92.3593 434.186 92.0882 433.46 92.0874 432.702V386.091C92.0882 385.333 92.3593 384.607 92.8414 384.071C93.3234 383.535 93.977 383.234 94.6587 383.233H114.833C115.515 383.234 116.169 383.535 116.651 384.071C117.133 384.607 117.404 385.333 117.405 386.091V432.702C117.404 433.46 117.133 434.186 116.651 434.722C116.169 435.258 115.515 435.559 114.833 435.56Z" fill="#E9ECF8"/>
<path d="M162.699 436H142.524C141.737 435.999 140.983 435.651 140.427 435.033C139.871 434.415 139.558 433.576 139.557 432.702V342.119C139.558 341.244 139.871 340.406 140.427 339.788C140.983 339.17 141.737 338.822 142.524 338.821H162.699C163.485 338.822 164.239 339.17 164.796 339.788C165.352 340.406 165.665 341.244 165.666 342.119V432.702C165.665 433.576 165.352 434.415 164.796 435.033C164.239 435.651 163.485 435.999 162.699 436ZM142.524 339.7C141.947 339.701 141.394 339.956 140.986 340.409C140.578 340.863 140.349 341.478 140.348 342.119V432.702C140.349 433.343 140.578 433.958 140.986 434.411C141.394 434.865 141.947 435.12 142.524 435.121H162.699C163.276 435.12 163.829 434.865 164.236 434.411C164.644 433.958 164.874 433.343 164.874 432.702V342.119C164.874 341.478 164.644 340.863 164.236 340.409C163.829 339.956 163.276 339.701 162.699 339.7H142.524Z" fill="#3F3D56"/>
<path d="M210.564 436H190.39C189.603 435.999 188.849 435.651 188.293 435.033C187.737 434.415 187.424 433.576 187.423 432.702V284.515C187.424 283.64 187.737 282.802 188.293 282.184C188.849 281.566 189.603 281.218 190.39 281.217H210.564C211.351 281.218 212.105 281.566 212.661 282.184C213.218 282.802 213.53 283.64 213.531 284.515V432.702C213.53 433.576 213.218 434.415 212.661 435.033C212.105 435.651 211.351 435.999 210.564 436ZM190.39 282.096C189.813 282.097 189.26 282.352 188.852 282.805C188.444 283.259 188.215 283.874 188.214 284.515V432.702C188.215 433.343 188.444 433.958 188.852 434.411C189.26 434.865 189.813 435.12 190.39 435.121H210.564C211.141 435.12 211.694 434.865 212.102 434.411C212.51 433.958 212.739 433.343 212.74 432.702V284.515C212.739 283.874 212.51 283.259 212.102 282.805C211.694 282.352 211.141 282.097 210.564 282.096H190.39Z" fill="#3F3D56"/>
<path d="M258.876 435.78H238.702C238.02 435.779 237.366 435.478 236.884 434.942C236.402 434.406 236.131 433.68 236.13 432.922V224.053C236.131 223.295 236.402 222.568 236.884 222.032C237.366 221.497 238.02 221.195 238.702 221.194H258.876C259.558 221.195 260.212 221.497 260.694 222.032C261.176 222.568 261.447 223.295 261.448 224.053V432.922C261.447 433.68 261.176 434.406 260.694 434.942C260.212 435.478 259.558 435.779 258.876 435.78Z" fill="#E9ECF8"/>
<path d="M133.402 306.777C133.476 306.135 133.421 305.484 133.244 304.868C133.066 304.253 132.769 303.688 132.374 303.214C131.978 302.74 131.494 302.368 130.956 302.124C130.417 301.881 129.837 301.771 129.256 301.804L122.224 287.465L120.642 293.621L125.459 306.763C125.573 307.843 126.04 308.84 126.771 309.565C127.502 310.289 128.446 310.69 129.425 310.691C130.404 310.693 131.35 310.296 132.083 309.574C132.816 308.852 133.286 307.857 133.402 306.777Z" fill="#A0616A"/>
<path d="M79.2222 363.393L83.1388 366.572L96.0328 351.29L90.2518 346.599L79.2222 363.393Z" fill="#A0616A"/>
<path d="M88.0381 376.745L75.7276 366.755L79.2 361.468L86.7541 367.598C88.0156 368.622 88.8595 370.161 89.1003 371.876C89.3411 373.592 88.959 375.343 88.0381 376.745Z" fill="#2F2E41"/>
<path d="M99.9451 380.219L104.795 380.219L107.102 359.425L99.9443 359.425L99.9451 380.219Z" fill="#A0616A"/>
<path d="M114.148 385.224L98.9059 385.225L98.9056 378.679L108.259 378.678C109.821 378.678 111.318 379.368 112.423 380.595C113.527 381.823 114.148 383.488 114.148 385.224Z" fill="#2F2E41"/>
<path d="M114.51 299.117C114.51 299.117 116.884 324.621 110.95 342.21L106.598 375.63H99.0824L99.8736 336.054L97.1045 300.876C97.1045 300.876 102.643 285.046 114.51 299.117Z" fill="#2F2E41"/>
<path d="M88.7973 300.876L96.709 331.217L81.2812 358.48L88.9951 365.736L106.599 335.175L101.456 297.798L88.7973 300.876Z" fill="#2F2E41"/>
<path d="M108.974 232.839C114.34 232.839 118.69 228.004 118.69 222.039C118.69 216.074 114.34 211.239 108.974 211.239C103.608 211.239 99.2578 216.074 99.2578 222.039C99.2578 228.004 103.608 232.839 108.974 232.839Z" fill="#A0616A"/>
<path d="M100.863 236.896C100.863 236.896 106.797 232.499 113.521 242.173L115.302 303.075C115.302 303.075 110.159 295.16 99.4783 302.635C88.7976 310.11 86.4241 301.756 86.4241 301.756C86.4241 301.756 78.908 238.875 100.863 236.896Z" fill="#CCCCCC"/>
<path d="M113.042 242.02C114.749 242.122 116.361 242.922 117.569 244.267C118.777 245.611 119.494 247.404 119.584 249.301L120.839 275.812L129.147 300.876L124.4 305.274L108.972 275.372L105.813 250.795C105.668 249.668 105.75 248.52 106.052 247.433C106.355 246.346 106.87 245.347 107.562 244.507C108.253 243.668 109.103 243.01 110.051 242.58C110.999 242.149 112.02 241.958 113.042 242.02Z" fill="#CCCCCC"/>
<path d="M101.834 230.14C103.423 232.021 106.373 231.012 106.579 228.442C106.596 228.243 106.595 228.042 106.576 227.843C106.469 226.705 105.878 225.671 106.019 224.47C106.051 224.17 106.152 223.885 106.311 223.642C107.576 221.757 110.547 224.484 111.742 222.779C112.474 221.733 111.613 220.086 112.176 218.917C112.917 217.375 115.115 218.136 116.493 217.291C118.026 216.351 117.934 213.736 116.925 212.145C115.694 210.206 113.536 209.171 111.405 209.022C109.274 208.872 107.158 209.513 105.168 210.375C102.907 211.354 100.666 212.707 99.2745 214.917C97.5828 217.604 97.42 221.216 98.266 224.358C98.7807 226.27 100.537 228.605 101.834 230.14Z" fill="#2F2E41"/>
<path d="M308.529 435.813H52.4711C52.3464 435.813 52.227 435.758 52.1389 435.659C52.0509 435.561 52.0015 435.428 52.0015 435.29C52.0015 435.151 52.0509 435.018 52.1389 434.92C52.227 434.822 52.3464 434.767 52.4711 434.766H308.529C308.654 434.767 308.773 434.822 308.861 434.92C308.949 435.018 308.999 435.151 308.999 435.29C308.999 435.428 308.949 435.561 308.861 435.659C308.773 435.758 308.654 435.813 308.529 435.813Z" fill="#3F3D56"/>
</g>
<path d="M-88.8793 58.3025C-86.2439 14.7517 -123.166 -79.5201 -75.2049 -76.6179C-27.2438 -73.7156 87.4384 25.2616 84.803 68.8125C82.1676 112.363 41.1511 145.315 -6.8099 142.413C-54.7709 139.511 -91.5147 101.853 -88.8793 58.3025Z" fill="#AAB2D5"/>
</g>
<defs>
<clipPath id="clip0_539_332">
<rect width="360" height="800" fill="white"/>
</clipPath>
<clipPath id="clip1_539_332">
<rect width="257" height="227" fill="white" transform="translate(52 209)"/>
</clipPath>
</defs>
</svg>
