<?xml version="1.0" standalone="no"?>
<!DOCTYPE svg PUBLIC "-//W3C//DTD SVG 20010904//EN"
 "http://www.w3.org/TR/2001/REC-SVG-20010904/DTD/svg10.dtd">
<svg version="1.0" xmlns="http://www.w3.org/2000/svg"
 width="1792.000000pt" height="1024.000000pt" viewBox="0 0 1792.000000 1024.000000"
 preserveAspectRatio="xMidYMid meet">

<g transform="translate(0.000000,1024.000000) scale(0.100000,-0.100000)"
fill="#000000" stroke="none">
<path d="M5769 9145 c-138 -38 -287 -160 -352 -291 -78 -156 -72 3 -72 -1794
l0 -1605 28 -82 c33 -99 109 -216 180 -277 50 -44 172 -111 252 -137 52 -17
1635 -26 1635 -9 0 7 -239 10 -762 10 -851 0 -840 0 -983 68 -44 22 -104 60
-132 86 -71 64 -144 176 -174 267 l-24 74 0 1615 0 1615 32 80 c41 101 76 157
139 219 71 70 121 102 210 133 l79 28 3285 0 3285 0 71 -26 c148 -54 277 -167
343 -302 82 -169 76 -19 76 -1767 0 -1653 2 -1572 -47 -1700 -44 -113 -138
-228 -240 -293 -30 -20 -97 -49 -149 -66 l-94 -31 -557 0 -557 0 15 28 c7 15
14 48 14 75 l0 47 483 0 c265 1 514 5 552 9 159 18 303 121 370 263 74 156 70
62 70 1703 0 1399 -1 1473 -18 1530 -44 142 -147 279 -249 331 -113 57 105 54
-3378 54 -2865 0 -3212 -2 -3265 -16 -166 -43 -290 -187 -330 -382 -11 -55
-13 -338 -11 -1567 l2 -1500 25 -71 c53 -145 135 -236 278 -307 l85 -42 790 1
c756 0 791 1 794 18 2 10 0 16 -6 12 -5 -3 -362 -7 -793 -8 l-784 -3 -80 40
c-148 73 -247 202 -281 367 -12 58 -14 295 -12 1556 3 1410 4 1490 21 1541 54
158 121 240 246 300 l76 36 3220 3 c2437 2 3233 0 3275 -9 126 -26 246 -122
305 -243 74 -149 68 -32 72 -1522 4 -1463 1 -1612 -41 -1733 -57 -164 -139
-251 -291 -312 l-60 -23 -616 -4 -616 -4 1 64 1 63 -391 3 c-326 2 -393 0
-403 -12 -6 -8 -14 -36 -17 -62 l-6 -49 -729 2 c-401 1 -729 -2 -729 -7 0 -4
15 -11 33 -14 17 -3 561 -7 1207 -7 l1175 -2 -6 -56 c-3 -31 -9 -64 -14 -73
-7 -17 -73 -18 -1186 -18 -779 0 -1179 -3 -1179 -10 0 -7 589 -10 1746 -10
1938 0 1792 -5 1944 67 59 28 94 55 160 122 100 100 141 171 170 294 20 83 20
114 21 1633 0 1526 0 1550 -20 1627 -60 232 -215 397 -430 461 -50 15 -346 16
-3345 15 -2640 -1 -3300 -3 -3337 -14z m5310 -3961 l-2 -54 -383 0 -382 0 5
43 c2 23 6 47 8 52 1 6 138 11 379 12 l377 2 -2 -55z"/>
<path d="M735 9100 c154 -3 281 -7 283 -8 1 -1 1 -46 0 -99 l-3 -98 -292 2
c-161 1 -293 -1 -293 -5 0 -12 573 -12 587 0 9 7 13 42 13 108 0 80 -3 99 -16
104 -9 3 -138 5 -287 4 l-272 -2 280 -6z"/>
<path d="M426 9085 c-3 -9 -5 -47 -4 -83 l1 -67 7 80 c6 86 6 95 -4 70z"/>
<path d="M4270 8914 c0 -8 4 -13 9 -10 14 9 -4 -57 -24 -87 -10 -15 -23 -31
-30 -35 -19 -11 -125 -155 -125 -169 0 -17 30 -17 30 0 1 6 23 34 50 62 l49
49 20 -24 c12 -14 30 -42 41 -62 25 -46 40 -56 40 -25 0 14 -17 42 -45 70
l-45 47 36 55 c45 67 51 123 17 136 -18 6 -23 5 -23 -7z"/>
<path d="M4138 8899 c-10 -5 -18 -20 -17 -32 0 -20 1 -20 8 -3 4 10 18 24 32
32 14 8 18 13 9 13 -8 0 -23 -4 -32 -10z"/>
<path d="M3245 8876 c-65 -29 -100 -96 -88 -170 9 -59 28 -91 62 -106 62 -25
131 19 148 97 15 67 6 151 -19 164 -10 5 -16 14 -13 20 9 14 -55 10 -90 -5z
m75 -16 c27 -15 32 -53 15 -127 -18 -76 -46 -113 -85 -113 -34 0 -49 28 -54
100 -2 40 2 65 15 90 11 19 19 31 19 27 0 -3 15 2 33 13 38 23 33 23 57 10z"/>
<path d="M8035 8821 c-49 -12 -104 -42 -124 -67 -12 -15 -29 -24 -46 -24 -69
0 -169 -91 -225 -203 -45 -91 -59 -190 -69 -466 -10 -281 -10 -281 -97 -387
-129 -158 -167 -231 -184 -355 -16 -118 4 -244 47 -291 18 -21 22 -5 -51 -216
-97 -277 -145 -526 -126 -647 32 -203 123 -269 393 -291 48 -4 90 -10 92 -15
3 -4 227 -8 497 -9 271 0 494 -2 496 -4 4 -4 21 -120 18 -123 -1 -1 -232 -4
-515 -6 l-513 -4 6 36 c10 56 -61 -129 -100 -262 -33 -115 -70 -304 -62 -313
3 -2 10 29 17 68 23 130 72 309 115 413 l16 40 527 0 526 0 23 -65 c12 -36 23
-60 23 -54 1 5 -12 48 -27 95 -34 99 -45 174 -36 234 l6 44 48 -19 c26 -10 94
-26 151 -34 116 -17 186 -12 304 25 72 21 315 143 372 185 17 13 34 24 36 24
3 0 7 -38 8 -85 4 -80 6 -86 37 -117 l32 -33 293 0 c403 0 380 -20 373 335 -2
129 -7 256 -11 283 -5 32 -3 52 5 63 10 11 11 57 6 196 -8 195 -16 226 -63
247 -15 7 -123 11 -299 11 -388 0 -374 10 -374 -265 l0 -176 28 3 c23 3 27 0
24 -22 -1 -14 -13 -35 -27 -47 -25 -22 -25 -23 -25 -195 l0 -173 -56 103 c-40
74 -55 112 -52 131 4 27 3 27 -21 15 -98 -51 -308 -109 -368 -102 -24 3 -28
10 -53 103 -95 357 -125 459 -155 535 -50 127 -50 126 -22 179 93 170 72 311
-77 529 -111 163 -108 154 -117 423 -10 314 -28 406 -102 521 -73 114 -176
192 -292 223 -61 15 -177 19 -230 6z m147 -458 c43 -26 77 -52 77 -57 -4 -35
2 -44 24 -39 12 3 27 10 33 14 13 11 98 -32 137 -69 18 -17 30 -23 35 -16 23
36 93 21 117 -25 29 -56 15 -109 -43 -164 -34 -32 -112 -50 -112 -26 0 8 -15
-12 -32 -44 -42 -78 -132 -160 -200 -183 -76 -26 -161 -24 -223 6 -58 28 -131
98 -173 165 -27 43 -33 47 -71 50 -55 4 -84 24 -117 80 -30 52 -28 101 8 137
20 20 69 22 110 4 19 -8 20 -7 134 169 35 55 70 114 76 132 l11 32 66 -60 c36
-33 100 -81 143 -106z m-600 -615 c-11 -24 -50 -79 -86 -123 -124 -151 -162
-254 -153 -420 4 -55 8 -113 11 -130 4 -18 -1 -12 -10 15 -27 79 -29 185 -6
279 26 99 59 160 153 277 39 48 78 103 87 121 8 18 17 31 20 29 2 -3 -5 -24
-16 -48z m1192 -149 c73 -107 99 -178 99 -269 -1 -41 -5 -86 -11 -100 -7 -19
-9 -3 -9 66 1 86 -1 94 -40 177 -23 47 -61 116 -86 154 -56 87 -67 108 -67
129 0 10 14 -4 33 -34 17 -28 54 -84 81 -123z m-704 34 c21 -10 61 -17 100
-18 l65 -1 3 -49 c2 -41 -6 -73 -48 -175 -27 -69 -50 -131 -50 -137 0 -33 -21
-1 -87 136 -74 152 -82 183 -67 260 6 30 8 31 28 16 11 -8 37 -22 56 -32z
m-100 -375 c-96 -98 -88 -100 -115 17 -22 94 -36 205 -28 220 5 7 30 31 57 54
l50 40 60 -122 61 -122 -85 -87z m432 209 c4 -30 -10 -165 -25 -237 l-12 -58
-85 88 -86 88 32 78 c17 44 35 98 39 121 l7 42 63 -50 c38 -29 65 -59 67 -72z
m-598 -35 c7 -56 61 -280 69 -288 2 -3 29 21 58 53 65 70 121 123 129 123 3 0
21 -31 39 -68 l33 -68 2 -444 1 -443 -62 -33 c-91 -48 -61 -50 35 -2 78 39 84
41 186 42 58 0 106 4 106 8 0 15 -71 19 -151 10 -46 -6 -84 -10 -85 -9 -1 1
-4 209 -6 462 -4 382 -2 467 10 503 7 23 17 42 21 42 5 0 47 -41 96 -91 48
-49 88 -89 89 -87 7 9 47 222 52 275 l7 62 31 -16 c56 -28 165 -114 209 -164
95 -108 166 -267 243 -544 91 -328 111 -400 117 -427 7 -26 5 -27 -48 -38 -52
-11 -148 -71 -185 -115 -30 -36 2 -22 59 25 74 62 82 65 206 79 92 11 173 28
218 46 13 6 17 2 17 -15 0 -25 82 -205 105 -230 13 -15 12 -19 -13 -37 -91
-67 -276 -132 -399 -140 -130 -9 -323 38 -323 79 0 20 31 272 61 503 18 131
20 190 16 335 -6 188 -30 331 -51 309 -2 -2 3 -38 12 -79 27 -129 22 -444 -10
-670 -15 -102 -35 -258 -44 -348 l-18 -162 -235 2 -236 3 -3 56 -3 57 63 15
c35 9 81 20 103 24 33 7 44 16 64 53 21 37 22 42 7 37 -10 -4 -40 -7 -67 -7
-27 0 -49 -4 -49 -10 0 -5 20 -10 45 -10 25 0 45 -2 45 -4 0 -17 -15 -36 -29
-36 -9 0 -72 -16 -141 -35 -69 -19 -110 -33 -92 -30 31 4 32 4 32 -33 0 -20 3
-47 6 -59 l6 -23 -241 0 c-166 0 -241 3 -241 11 0 7 -11 8 -29 4 -37 -8 -215
11 -279 30 -61 18 -124 72 -150 129 -57 121 -50 281 25 551 109 393 208 604
353 745 56 55 179 140 201 140 4 0 9 -22 13 -48z m2179 -487 c1 -5 -13 -11
-30 -13 -34 -3 -46 13 -15 21 24 7 43 4 45 -8z m248 -55 c11 -39 10 -833 -1
-850 -8 -13 -47 -15 -277 -11 -147 1 -271 5 -275 8 -8 4 -11 866 -4 874 2 2
127 4 277 4 l273 -1 7 -24z m-786 -547 c9 -21 37 -73 62 -116 25 -42 43 -83
40 -90 -3 -7 -28 -25 -57 -40 -62 -32 -57 -36 -116 83 -23 47 -38 90 -38 115
-1 38 2 41 44 62 25 12 46 22 47 23 2 0 10 -17 18 -37z m541 -348 c7 -18 -13
-45 -33 -45 -17 0 -27 24 -19 45 7 20 45 19 52 0z"/>
<path d="M7919 8291 c-13 -10 -21 -22 -17 -26 10 -10 79 17 75 30 -6 18 -33
16 -58 -4z"/>
<path d="M7936 8187 c-13 -10 -17 -24 -14 -57 3 -50 24 -63 52 -35 37 37 2
121 -38 92z"/>
<path d="M8261 8186 c-30 -36 -4 -117 32 -103 22 8 30 66 12 94 -18 27 -28 29
-44 9z"/>
<path d="M7690 8155 c0 -14 64 -107 68 -97 5 16 -35 89 -53 95 -8 4 -15 4 -15
2z"/>
<path d="M8513 8135 c-12 -8 -31 -40 -42 -70 -28 -75 -26 -79 8 -20 16 28 39
60 50 72 33 35 24 46 -16 18z"/>
<path d="M8116 8108 c-10 -40 -7 -68 9 -68 11 0 15 12 15 45 0 48 -14 60 -24
23z"/>
<path d="M8020 7941 c0 -17 11 -42 26 -60 21 -25 33 -31 65 -31 22 0 54 7 70
16 44 23 74 104 38 104 -5 0 -9 -9 -9 -19 0 -11 -12 -33 -26 -50 -31 -38 -83
-42 -114 -11 -21 21 -27 50 -9 50 6 0 4 7 -5 15 -23 23 -36 18 -36 -14z"/>
<path d="M7556 7078 c-13 -132 -15 -262 -6 -363 16 -172 39 -348 54 -404 l13
-51 -28 0 c-27 0 -29 3 -30 38 l-2 37 -6 -35 c-6 -35 -7 -35 -54 -33 -26 2
-47 -1 -47 -6 0 -5 -13 -11 -29 -14 -27 -6 -66 -35 -58 -43 2 -2 21 3 42 12
30 12 74 15 214 14 189 -1 191 -1 191 -55 0 -16 11 -77 25 -134 14 -57 24
-105 23 -107 -2 -1 -28 -9 -58 -17 -61 -17 -39 -22 25 -7 22 6 80 17 129 24
49 8 92 20 96 26 4 7 -4 46 -17 88 -14 43 -28 106 -32 142 -5 50 -10 64 -21
61 -31 -7 -333 -2 -341 6 -4 4 -22 105 -40 223 -29 200 -31 230 -27 433 2 119
1 217 -3 217 -4 0 -10 -24 -13 -52z m424 -872 c0 -13 11 -68 25 -122 14 -54
25 -104 25 -110 0 -13 -19 -18 -102 -29 l-47 -6 -15 53 c-15 53 -30 130 -40
200 l-5 37 72 3 c86 4 87 3 87 -26z"/>
<path d="M7562 6360 c0 -14 2 -19 5 -12 2 6 2 18 0 25 -3 6 -5 1 -5 -13z"/>
<path d="M8404 6273 c59 -8 111 -11 114 -8 16 15 -31 25 -123 24 l-100 -1 109
-15z"/>
<path d="M8261 6246 c3 -4 42 -13 85 -20 43 -8 87 -18 97 -21 11 -5 17 -2 17
8 0 8 -10 17 -22 20 -39 9 -183 20 -177 13z"/>
<path d="M8280 6170 c0 -5 12 -10 28 -10 15 0 44 -5 65 -11 29 -8 42 -7 54 3
14 11 13 13 -8 19 -38 11 -139 10 -139 -1z"/>
<path d="M9936 6631 c4 -17 3 -46 0 -65 l-7 -35 -67 -3 c-64 -3 -67 -4 -67
-28 0 -25 1 -25 68 -21 l67 3 0 -59 c0 -67 3 -73 30 -66 15 4 20 16 22 62 l3
56 61 3 c57 3 62 5 67 27 4 25 3 25 -67 25 l-71 0 0 63 c0 57 -2 62 -22 65
-20 3 -22 0 -17 -27z"/>
<path d="M655 8769 c-80 -13 -163 -46 -215 -84 -61 -45 -165 -156 -185 -198
-15 -32 -15 -32 2 -7 149 206 286 283 506 281 117 -1 198 -20 290 -68 87 -46
178 -143 224 -238 19 -38 31 -59 27 -45 -34 128 -166 264 -319 327 -86 36
-226 50 -330 32z"/>
<path d="M3530 8772 c0 -5 11 -17 25 -26 20 -13 33 -14 66 -7 23 5 49 17 58
26 15 16 14 17 -8 5 -23 -12 -88 -9 -123 5 -10 4 -18 3 -18 -3z"/>
<path d="M3770 8740 c0 -6 40 -10 100 -10 60 0 100 4 100 10 0 6 -40 10 -100
10 -60 0 -100 -4 -100 -10z"/>
<path d="M3545 8675 c-22 -20 -25 -25 -10 -20 50 16 117 26 133 20 13 -5 14
-3 5 6 -6 6 -31 13 -55 16 -36 3 -48 0 -73 -22z"/>
<path d="M3362 8612 c4 -19 29 -23 35 -6 2 6 -6 14 -17 17 -16 4 -20 1 -18
-11z"/>
<path d="M13567 8518 c-6 -74 -12 -1089 -9 -1577 l2 -263 740 4 c407 2 743 7
747 11 9 10 37 10 -756 7 l-724 -2 7 946 c3 520 5 946 2 946 -2 0 -6 -33 -9
-72z"/>
<path d="M450 8475 c19 -19 36 -35 39 -35 3 0 -10 16 -29 35 -19 19 -36 35
-39 35 -3 0 10 -16 29 -35z"/>
<path d="M206 8385 c-3 -9 -6 -22 -5 -28 0 -7 5 -1 10 12 5 13 8 26 5 28 -2 2
-6 -3 -10 -12z"/>
<path d="M1312 8370 c0 -8 4 -26 8 -40 6 -20 8 -21 8 -5 0 11 -3 29 -8 40 -5
12 -8 14 -8 5z"/>
<path d="M3613 8343 c-58 -3 -73 -7 -73 -20 0 -11 6 -14 23 -9 13 3 155 6 315
6 286 1 373 11 210 23 -82 7 -334 6 -475 0z"/>
<path d="M191 8324 c0 -11 3 -14 6 -6 3 7 2 16 -1 19 -3 4 -6 -2 -5 -13z"/>
<path d="M182 8270 c0 -19 2 -27 5 -17 2 9 2 25 0 35 -3 9 -5 1 -5 -18z"/>
<path d="M1330 8228 c0 -68 -11 -157 -24 -203 -4 -11 1 -4 10 15 16 35 34 260
20 260 -3 0 -6 -33 -6 -72z"/>
<path d="M747 8236 c-4 -10 -7 -34 -6 -54 l1 -37 9 45 c10 48 7 75 -4 46z"/>
<path d="M2129 8223 c-13 -16 -12 -17 4 -4 16 13 21 21 13 21 -2 0 -10 -8 -17
-17z"/>
<path d="M3738 8233 c-34 -3 -48 -8 -48 -19 0 -11 25 -14 140 -14 112 0 140 3
140 14 0 24 -82 31 -232 19z"/>
<path d="M11769 8213 l-24 -28 28 24 c15 14 27 26 27 28 0 8 -8 1 -31 -24z"/>
<path d="M183 8170 c0 -36 2 -50 4 -32 2 17 2 47 0 65 -2 17 -4 3 -4 -33z"/>
<path d="M248 8213 c12 -2 32 -2 45 0 12 2 2 4 -23 4 -25 0 -35 -2 -22 -4z"/>
<path d="M1228 8213 c6 -2 18 -2 25 0 6 3 1 5 -13 5 -14 0 -19 -2 -12 -5z"/>
<path d="M681 8156 l-35 -41 39 37 c22 21 37 39 35 41 -3 2 -20 -15 -39 -37z"/>
<path d="M780 8175 c13 -14 26 -25 28 -25 3 0 -5 11 -18 25 -13 14 -26 25 -28
25 -3 0 5 -11 18 -25z"/>
<path d="M604 8088 l-19 -23 23 19 c21 18 27 26 19 26 -2 0 -12 -10 -23 -22z"/>
<path d="M870 8087 c0 -2 15 -16 33 -33 l32 -29 -29 33 c-28 30 -36 37 -36 29z"/>
<path d="M520 8018 c-30 -28 -41 -41 -25 -30 28 19 94 83 84 82 -2 -1 -29 -24
-59 -52z"/>
<path d="M940 8016 c0 -2 8 -10 18 -17 15 -13 16 -12 3 4 -13 16 -21 21 -21
13z"/>
<path d="M220 7996 c-1 -26 78 -149 122 -192 l52 -49 -52 59 c-28 32 -67 88
-86 125 -20 36 -36 62 -36 57z"/>
<path d="M4516 7957 c-23 -7 -42 -20 -46 -32 -12 -32 -2 -36 34 -14 24 14 49
19 80 18 25 -2 44 -5 42 -7 -3 -2 0 -16 6 -32 13 -38 -4 -69 -86 -158 -70 -76
-90 -107 -81 -122 7 -11 129 -13 188 -4 25 5 37 12 37 23 0 14 -13 16 -92 13
l-93 -2 68 65 c37 36 76 80 87 98 37 60 21 129 -35 152 -40 17 -56 18 -109 2z"/>
<path d="M1247 7908 c-39 -67 -156 -173 -222 -203 -103 -45 -170 -58 -285 -53
-79 4 -123 11 -175 30 -109 40 -112 40 -74 19 116 -65 322 -81 455 -36 42 14
92 34 112 44 48 25 171 148 200 200 31 54 21 53 -11 -1z"/>
<path d="M3313 7920 c-18 -11 -33 -23 -33 -26 0 -4 6 -2 13 3 18 15 66 25 88
18 10 -4 26 -18 34 -33 l14 -27 1 26 c0 55 -59 75 -117 39z"/>
<path d="M3302 7778 c-7 -7 -12 -21 -12 -32 1 -18 3 -17 16 7 17 31 15 44 -4
25z"/>
<path d="M3593 7763 c9 -2 23 -2 30 0 6 3 -1 5 -18 5 -16 0 -22 -2 -12 -5z"/>
<path d="M3640 7760 c0 -11 220 -12 275 0 28 5 -9 8 -117 8 -88 1 -158 -3
-158 -8z"/>
<path d="M4360 7760 c0 -5 6 -10 14 -10 8 0 18 5 21 10 3 6 -3 10 -14 10 -12
0 -21 -4 -21 -10z"/>
<path d="M4309 7749 c-10 -6 -7 -9 14 -9 29 0 35 5 14 13 -8 3 -20 1 -28 -4z"/>
<path d="M333 7727 c-17 -7 -35 -16 -40 -20 -4 -5 5 -3 20 2 16 6 45 11 65 11
28 0 33 3 22 10 -19 12 -27 12 -67 -3z"/>
<path d="M430 7666 c0 -28 -7 -53 -21 -72 l-21 -29 26 28 c20 22 26 39 26 73
0 24 -2 44 -5 44 -3 0 -5 -20 -5 -44z"/>
<path d="M1111 7694 c0 -11 3 -14 6 -6 3 7 2 16 -1 19 -3 4 -6 -2 -5 -13z"/>
<path d="M1111 7654 c0 -11 3 -14 6 -6 3 7 2 16 -1 19 -3 4 -6 -2 -5 -13z"/>
<path d="M4034 7656 c-11 -29 3 -46 33 -41 15 2 45 7 66 10 34 5 47 18 30 28
-5 3 -34 8 -66 11 -47 6 -58 5 -63 -8z"/>
<path d="M251 7628 c-2 -39 60 -75 110 -65 17 3 14 5 -11 6 -41 1 -78 24 -90
55 -7 17 -9 17 -9 4z"/>
<path d="M1244 7588 l-19 -23 23 19 c12 11 22 21 22 23 0 8 -8 2 -26 -19z"/>
<path d="M1130 7596 c0 -2 8 -10 18 -17 15 -13 16 -12 3 4 -13 16 -21 21 -21
13z"/>
<path d="M15982 7542 c-10 -7 -11 -101 -5 -461 l8 -453 28 -24 c40 -34 51 -30
16 5 -22 22 -29 39 -29 68 -1 101 -9 431 -16 629 l-7 221 48 6 c66 9 127 8
144 -2 11 -7 15 -93 22 -445 4 -241 4 -447 0 -459 -15 -39 -36 -47 -135 -54
l-96 -6 0 39 c0 21 -5 221 -10 444 -8 366 -11 406 -26 417 -12 8 -51 13 -110
13 l-93 0 3 -461 3 -461 -67 6 -67 7 -6 -143 c-12 -281 -9 -4836 3 -4872 9
-27 18 -35 43 -40 18 -3 208 -5 422 -4 296 2 354 4 240 9 -82 3 -270 7 -416 8
-208 1 -268 4 -272 14 -6 15 -10 2024 -8 3790 l1 1217 363 0 c200 0 675 -3
1055 -7 l692 -6 0 -2379 c0 -1309 3 -2423 6 -2477 9 -125 3 -148 -39 -160
l-32 -10 40 2 40 2 2 2455 c2 1350 0 2483 -3 2518 l-6 62 -139 0 -139 0 0 419
c0 368 -2 421 -16 435 -18 19 -124 22 -172 5 -44 -15 -46 -36 -39 -364 4 -154
4 -328 0 -387 l-6 -108 -125 0 -125 0 8 53 c5 28 9 225 9 437 l1 385 96 3 96
3 7 -216 c4 -118 5 -313 2 -433 -3 -124 -2 -204 3 -187 11 37 13 474 4 688
l-6 158 -106 -3 -106 -3 -1 -370 c0 -203 -4 -403 -8 -444 l-8 -74 -52 7 c-28
3 -82 6 -121 7 -38 1 -62 3 -53 6 17 4 18 36 20 441 l3 437 82 3 c71 2 82 1
87 -15 3 -10 8 -171 13 -358 4 -187 9 -322 11 -300 2 22 1 185 -3 362 l-7 321
-43 4 c-24 1 -66 1 -95 -1 -42 -2 -53 -7 -57 -22 -5 -19 -6 -19 -20 1 -12 17
-25 20 -101 20 -48 0 -93 -4 -101 -9 -16 -10 -16 -36 -1 -576 8 -272 8 -263 5
137 -3 375 -2 427 11 432 9 3 51 6 94 6 64 0 79 -3 86 -17 7 -16 24 -842 18
-851 -6 -9 -287 -21 -444 -20 -96 1 -161 3 -144 5 18 2 40 13 50 25 18 19 19
42 16 407 -2 212 -7 422 -10 466 l-7 80 -95 3 c-52 1 -101 -2 -108 -6z m-51
-389 c5 -164 9 -363 11 -443 l3 -145 -102 -3 -103 -3 0 248 c0 136 -3 339 -7
450 l-6 202 89 3 c49 2 93 0 98 -4 5 -4 13 -142 17 -305z m1494 115 c3 -73 5
-263 3 -423 l-3 -290 -98 -3 -97 -3 2 418 3 418 55 6 c30 3 71 6 91 7 l37 2 7
-132z"/>
<path d="M16242 7052 c3 -390 5 -430 21 -455 9 -15 22 -27 28 -27 8 0 8 4 0
14 -29 35 -33 92 -35 484 l-2 403 95 -3 96 -3 7 -160 c4 -88 9 -289 10 -447 2
-179 6 -280 12 -270 5 9 10 57 10 106 1 120 -24 768 -30 778 -3 4 -52 8 -110
8 l-105 0 3 -428z"/>
<path d="M16067 6718 c-20 -12 -3 -18 36 -11 20 3 34 9 31 14 -6 10 -49 8 -67
-3z"/>
<path d="M16310 6720 c18 -12 58 -12 85 0 14 6 3 9 -40 9 -42 1 -56 -2 -45 -9z"/>
<path d="M16943 6685 c0 -27 2 -38 4 -22 2 15 2 37 0 50 -2 12 -4 0 -4 -28z"/>
<path d="M16630 6679 c0 -10 50 -18 55 -9 3 4 -9 10 -25 12 -17 3 -30 1 -30
-3z"/>
<path d="M16368 6573 c12 -2 30 -2 40 0 9 3 -1 5 -23 4 -22 0 -30 -2 -17 -4z"/>
<path d="M15720 6288 c0 -79 -2 -222 -5 -318 -3 -134 -2 -158 5 -100 5 41 11
181 14 310 l4 235 925 0 924 0 8 -468 c4 -258 5 -470 4 -472 -2 -1 -191 -5
-419 -6 l-415 -4 -12 35 c-8 24 -12 137 -12 371 l-1 335 83 0 82 -1 8 -200 c4
-110 5 -271 2 -358 -4 -111 -3 -157 4 -152 8 4 11 103 10 303 -2 272 -13 598
-17 475 -2 -47 -4 -52 -24 -51 -13 1 -53 1 -90 0 l-68 -2 0 -346 c0 -372 5
-424 44 -424 12 -1 143 0 291 2 149 2 332 1 409 0 l139 -4 -4 491 -4 491 -942
0 -943 0 0 -142z"/>
<path d="M17038 6343 c7 -3 16 -2 19 1 4 3 -2 6 -13 5 -11 0 -14 -3 -6 -6z"/>
<path d="M17343 6343 l-103 -4 0 -373 c0 -205 3 -394 6 -420 l7 -46 91 0 c50
0 102 3 115 7 l24 6 -6 326 c-7 343 -16 512 -26 509 -3 -1 -52 -4 -108 -5z
m107 -58 l0 -45 -94 0 -94 0 3 43 c1 23 3 43 4 45 0 1 42 2 91 2 l90 0 0 -45z
m5 -107 c3 -29 7 -185 8 -346 2 -346 9 -327 -107 -319 -52 3 -73 9 -83 23 -10
14 -13 91 -13 356 l0 338 94 0 95 0 6 -52z"/>
<path d="M17305 5610 c7 -12 49 -12 85 0 19 6 11 8 -33 9 -36 1 -56 -3 -52 -9z"/>
<path d="M16943 6333 c9 -2 25 -2 35 0 9 3 1 5 -18 5 -19 0 -27 -2 -17 -5z"/>
<path d="M17101 6260 c4 -45 10 -199 14 -342 4 -144 11 -274 16 -288 5 -15 6
12 4 65 -3 50 -7 194 -10 320 -3 127 -8 251 -12 278 -10 79 -19 53 -12 -33z"/>
<path d="M16498 6143 c-17 -4 -18 -27 -18 -296 0 -161 3 -316 6 -344 l7 -53
91 2 91 2 -88 3 -87 4 -1 37 c0 20 -3 170 -5 333 l-5 297 93 9 93 10 -80 0
c-44 1 -88 -1 -97 -4z"/>
<path d="M15888 6129 c-14 -8 -18 -22 -16 -62 l1 -52 6 50 c6 49 7 50 46 57
22 4 64 7 93 7 43 1 52 -2 53 -16 1 -10 5 -85 9 -168 l6 -150 1 125 c1 69 -2
145 -5 170 l-7 45 -85 2 c-47 2 -93 -2 -102 -8z"/>
<path d="M16685 5820 c0 -175 3 -316 8 -313 9 6 9 604 -1 620 -4 6 -7 -132 -7
-307z"/>
<path d="M16213 6123 c-23 -4 -23 -7 -22 -141 1 -75 5 -195 8 -267 7 -115 8
-100 9 133 l2 262 93 1 c60 0 85 3 72 9 -21 9 -122 11 -162 3z"/>
<path d="M16407 6028 c3 -51 7 -95 9 -97 2 -2 4 39 4 92 0 54 -4 97 -9 97 -6
0 -7 -38 -4 -92z"/>
<path d="M15882 5671 l-2 -244 183 7 c100 5 208 7 241 6 32 -1 76 2 97 5 l39
7 -2 106 -2 107 -3 -96 -4 -96 -37 -7 c-20 -3 -63 -6 -94 -6 -63 0 -56 -8 -77
85 l-9 40 -1 -48 c-1 -27 4 -57 9 -68 10 -18 7 -19 -45 -19 l-55 0 -1 33 -1
32 -7 -30 -6 -30 -105 0 -105 0 -5 230 -6 230 -2 -244z"/>
<path d="M16423 5855 c0 -33 2 -45 4 -27 2 18 2 45 0 60 -2 15 -4 0 -4 -33z"/>
<path d="M7641 5804 c0 -11 3 -14 6 -6 3 7 2 16 -1 19 -3 4 -6 -2 -5 -13z"/>
<path d="M15691 5743 c-2 -73 51 -406 88 -551 12 -45 30 -140 41 -210 23 -147
42 -238 70 -339 31 -113 78 -333 95 -445 9 -57 27 -148 41 -203 42 -163 82
-369 108 -551 14 -94 30 -182 35 -196 14 -38 38 -158 61 -305 10 -71 26 -157
34 -193 17 -70 47 -244 65 -377 11 -74 86 -417 95 -432 3 -3 16 -51 30 -106
15 -55 38 -136 51 -180 31 -100 75 -289 75 -321 0 -33 -18 -30 -25 4 -4 15
-20 70 -36 122 -17 51 -37 141 -47 200 -9 58 -18 97 -20 86 -5 -23 26 -207 43
-255 7 -21 21 -72 30 -114 16 -74 18 -77 46 -77 27 0 29 3 29 38 0 20 -7 64
-15 97 -8 33 -14 63 -15 68 0 4 176 7 390 7 253 0 390 4 390 10 0 6 -138 10
-394 10 l-395 0 -8 43 -9 42 51 7 c68 8 418 9 603 1 l151 -6 7 -46 c9 -71 44
-184 61 -201 19 -18 21 -29 -42 205 -25 94 -56 220 -69 280 -52 237 -96 413
-119 480 -13 39 -36 121 -52 183 -15 62 -29 111 -31 109 -9 -8 40 -220 71
-311 19 -55 35 -109 35 -122 l0 -22 -342 3 c-537 4 -488 1 -488 30 0 25 1 25
85 25 l85 0 -2 73 -2 72 -3 -65 -4 -65 -82 4 c-45 1 -83 4 -84 5 -1 1 -9 51
-18 111 -19 133 -29 189 -53 321 l-19 101 120 7 c187 10 205 9 210 -11 4 -17
5 -17 6 0 1 15 13 17 95 17 l93 0 7 -67 c4 -38 10 -164 12 -281 l4 -212 -42 0
c-24 0 -73 3 -110 7 l-68 6 -2 246 -2 246 -6 -200 c-4 -110 -8 -223 -9 -252
-1 -40 -5 -53 -18 -56 -10 -3 49 -5 130 -6 l149 -1 -7 88 c-5 67 -4 84 5 72
10 -12 11 -12 5 5 -3 11 -10 95 -15 187 -5 92 -12 179 -16 194 l-7 25 92 -3
c50 -2 91 0 91 5 0 4 11 7 24 7 14 0 28 5 32 12 4 6 3 8 -3 5 -5 -3 -182 -7
-394 -9 -378 -3 -384 -3 -384 17 0 19 9 20 165 26 570 22 603 24 511 27 -56 2
-98 8 -105 15 -14 14 -40 116 -66 252 -22 123 -78 361 -119 513 -34 123 -37
152 -18 152 12 0 36 -79 67 -231 10 -47 28 -122 40 -165 44 -159 70 -278 79
-358 l8 -81 2 70 1 70 373 -4 c204 -1 374 -5 377 -7 2 -3 4 -217 5 -477 l0
-472 -155 2 c-190 3 -159 -13 38 -19 l132 -5 0 488 c0 380 3 488 13 492 12 5
-181 9 -580 12 -111 0 -204 3 -207 5 -2 3 -7 30 -11 60 l-7 56 163 2 c109 1
165 5 170 13 7 13 11 94 3 86 -3 -2 -6 -22 -7 -43 l-3 -39 -101 -3 -101 -3 -7
113 c-3 62 -5 219 -3 348 l3 234 25 6 25 6 -24 8 c-51 17 -54 0 -47 -319 3
-159 9 -313 12 -342 l6 -51 -61 -4 c-48 -2 -62 0 -66 12 -2 8 -16 67 -31 130
-14 63 -42 174 -60 245 -19 72 -43 177 -54 235 -11 58 -26 128 -35 155 -8 28
-28 127 -45 220 -16 94 -32 182 -36 198 l-6 27 524 0 524 0 4 -463 c3 -254 5
-534 5 -622 l0 -160 -90 2 c-58 1 -81 -2 -65 -7 14 -4 58 -8 98 -9 l74 -1 -4
635 -3 635 -541 0 -542 0 -12 83 c-7 45 -24 116 -37 157 -13 41 -46 181 -72
310 l-48 235 80 3 c44 2 84 -1 88 -5 4 -4 12 -133 17 -286 6 -154 13 -282 17
-285 7 -8 -4 432 -14 523 l-6 60 -115 3 c-63 1 -110 -1 -104 -5 12 -9 26 -66
79 -319 19 -88 41 -178 49 -200 9 -21 29 -97 45 -169 17 -71 37 -159 45 -195
8 -36 36 -168 62 -295 25 -126 48 -240 51 -252 l5 -23 -276 0 c-152 0 -278 0
-281 0 -3 0 -4 3 -2 7 3 10 1 10 271 17 132 3 241 8 244 10 11 12 -90 516
-147 731 -34 126 -40 142 -41 103 0 -45 -1 -47 -32 -53 -18 -3 -134 -5 -257
-3 l-224 3 -18 75 c-10 41 -30 145 -43 231 -14 86 -30 176 -35 200 -17 73 -23
69 108 69 l120 0 4 -27 c4 -26 4 -26 6 5 l1 32 63 2 c115 4 152 4 165 0 16 -6
37 -80 77 -276 18 -88 33 -151 34 -140 1 25 -30 190 -59 309 -10 44 -22 112
-26 150 -6 59 -34 145 -48 145 -2 0 2 -20 9 -44 7 -24 15 -61 17 -82 l3 -39
-180 -7 c-99 -3 -210 -9 -247 -11 -49 -3 -68 -1 -68 8 0 15 129 25 327 25 78
0 143 4 143 8 0 4 -110 6 -244 4 l-244 -4 -13 58 c-7 33 -14 70 -15 84 -9 69
-45 327 -48 340 -2 8 -4 -4 -5 -27z m765 -1180 c9 -35 15 -65 13 -68 -3 -2
-122 -5 -265 -7 l-260 -3 -11 70 c-6 38 -9 72 -6 75 2 3 89 4 191 3 103 -2
214 1 247 5 38 5 63 4 67 -3 4 -5 15 -38 24 -72z m28 -100 c27 -86 114 -568
105 -578 -3 -2 -119 -8 -257 -12 l-253 -8 -14 47 c-13 46 -32 134 -80 391 -15
77 -29 145 -31 152 -7 18 30 21 303 23 203 2 222 1 227 -15z m127 -660 c11
-30 129 -509 129 -526 0 -1 -125 -2 -279 -2 l-278 0 -12 60 c-18 91 -61 352
-70 422 l-7 62 30 3 c17 2 131 5 253 6 l223 3 11 -28z m97 -540 c-10 -2 -26
-2 -35 0 -10 3 -2 5 17 5 19 0 27 -2 18 -5z m39 -16 c2 -4 7 -32 10 -62 l6
-55 -276 0 -275 0 -6 28 c-3 15 -8 44 -12 66 l-7 38 278 -3 c152 -2 279 -7
282 -12z m46 -229 c15 -57 27 -108 27 -114 0 -12 -32 -14 -420 -29 l-136 -5
-17 98 c-9 53 -20 109 -23 125 l-6 27 274 0 274 0 27 -102z m49 -859 l376 -1
12 -64 c7 -36 11 -67 9 -69 -2 -2 -185 -7 -405 -11 l-402 -7 -16 71 c-22 96
-22 95 17 88 17 -3 201 -6 409 -7z m417 -179 c5 -14 13 -41 16 -60 4 -19 20
-91 36 -158 17 -68 29 -125 27 -127 -2 -2 -82 1 -178 6 -96 5 -276 6 -400 2
l-226 -6 -41 149 c-23 82 -44 161 -47 177 l-6 27 147 1 c82 1 209 4 283 8 74
4 190 7 257 6 121 0 123 0 132 -25z"/>
<path d="M16130 4609 c-248 -12 -225 -19 45 -13 132 3 244 10 250 15 10 10
-52 10 -295 -2z"/>
<path d="M16498 1953 c12 -2 32 -2 45 0 12 2 2 4 -23 4 -25 0 -35 -2 -22 -4z"/>
<path d="M16093 5685 c0 -33 2 -45 4 -27 2 18 2 45 0 60 -2 15 -4 0 -4 -33z"/>
<path d="M16568 5603 c7 -3 16 -2 19 1 4 3 -2 6 -13 5 -11 0 -14 -3 -6 -6z"/>
<path d="M16102 5580 c0 -14 2 -19 5 -12 2 6 2 18 0 25 -3 6 -5 1 -5 -13z"/>
<path d="M16297 5573 c-15 -14 -6 -23 23 -23 32 0 40 14 14 24 -20 8 -29 8
-37 -1z"/>
<path d="M17143 5540 c0 -25 2 -35 4 -22 2 12 2 32 0 45 -2 12 -4 2 -4 -23z"/>
<path d="M8721 5555 c0 -5 13 -55 30 -110 16 -55 27 -82 23 -61 -6 41 -52 188
-53 171z"/>
<path d="M15692 5430 c-1 -19 5 -80 13 -135 13 -94 29 -174 105 -520 16 -77
30 -141 30 -142 0 -1 -27 0 -60 4 -32 3 -67 2 -77 -1 -17 -7 -17 -8 0 -17 9
-6 48 -13 86 -16 l69 -6 7 -46 c3 -25 19 -100 35 -166 15 -66 31 -138 34 -160
19 -121 41 -224 72 -340 49 -189 55 -224 65 -395 5 -85 10 -171 12 -190 l2
-35 -189 -3 -189 -2 7 61 c3 34 9 309 13 611 l6 548 64 0 c35 0 63 4 63 10 0
6 -32 10 -75 10 l-75 0 0 -423 c0 -233 -3 -518 -7 -633 l-6 -209 184 7 c101 4
194 9 206 11 24 4 39 -20 49 -84 l7 -40 -217 3 -216 3 -3 -290 c-2 -275 3
-1187 7 -1192 7 -9 584 -12 641 -4 63 8 58 9 -42 4 -61 -3 -218 -2 -347 2
l-236 7 0 171 0 170 298 -5 c163 -3 272 -1 242 3 -30 4 -166 11 -302 15 l-248
6 0 64 0 64 248 1 c184 1 234 4 197 11 -28 5 -138 6 -248 3 l-197 -6 0 458 c1
252 3 469 7 481 5 22 7 22 213 22 l209 0 10 -52 c5 -29 15 -73 20 -98 9 -41
10 -38 5 27 -5 72 -33 202 -59 280 -8 24 -22 116 -30 205 -9 90 -22 190 -31
223 -31 124 -76 325 -104 470 -40 206 -77 378 -100 455 -36 127 -148 676 -163
800 l-4 35 -1 -35z"/>
<path d="M17167 5372 c-16 -7 -18 -33 -19 -370 -2 -222 1 -365 7 -371 6 -5
113 -11 238 -14 l228 -6 -6 367 c-4 202 -8 373 -10 380 -3 8 -29 11 -92 10
l-88 -2 81 -3 81 -4 7 -91 c3 -50 6 -214 6 -365 l0 -273 -222 2 c-123 1 -173
4 -112 5 123 4 125 5 123 78 l-1 30 -8 -35 c-12 -51 -32 -60 -132 -60 l-88 0
0 58 c-2 359 2 638 10 646 5 5 43 11 84 14 l76 5 11 -29 c6 -17 14 -143 18
-296 4 -147 9 -270 12 -273 17 -16 -9 568 -26 595 -7 11 -150 12 -178 2z"/>
<path d="M17087 5350 c3 -11 7 -20 9 -20 2 0 4 9 4 20 0 11 -4 20 -9 20 -5 0
-7 -9 -4 -20z"/>
<path d="M17403 5358 c-6 -8 -7 -111 -4 -268 l6 -255 5 265 c3 146 5 266 4
268 -1 1 -5 -3 -11 -10z"/>
<path d="M16892 5335 c0 -16 2 -22 5 -12 2 9 2 23 0 30 -3 6 -5 -1 -5 -18z"/>
<path d="M16614 5335 c-4 -9 -5 -174 -2 -365 l5 -349 -46 -4 c-25 -2 -1 -2 54
-1 166 5 212 13 219 38 15 55 -1 666 -17 683 -5 4 -53 10 -108 11 -85 3 -100
2 -105 -13z m195 -4 c28 -18 43 -654 16 -680 -5 -5 -49 -11 -97 -13 -71 -2
-89 0 -94 12 -4 8 -9 162 -12 342 l-5 327 24 5 c13 3 47 7 74 9 28 2 57 4 65
5 8 1 21 -2 29 -7z"/>
<path d="M8781 5324 c0 -11 3 -14 6 -6 3 7 2 16 -1 19 -3 4 -6 -2 -5 -13z"/>
<path d="M17100 4999 c0 -240 -3 -328 -12 -337 -7 -7 -44 -12 -95 -12 -72 0
-83 2 -84 18 -1 9 -5 109 -9 222 l-6 205 -2 -237 -2 -238 68 2 c64 1 65 1 22
8 -39 6 -34 7 36 8 68 2 83 5 89 20 7 19 7 653 0 661 -3 2 -5 -142 -5 -320z"/>
<path d="M16883 5225 c0 -38 2 -53 4 -32 2 20 2 52 0 70 -2 17 -4 1 -4 -38z"/>
<path d="M16034 4940 c0 -96 2 -136 3 -87 2 48 2 126 0 175 -1 48 -3 8 -3 -88z"/>
<path d="M8843 5015 c0 -22 2 -30 4 -17 2 12 2 30 0 40 -3 9 -5 -1 -4 -23z"/>
<path d="M4975 4969 c-77 -22 -147 -119 -161 -223 -20 -141 78 -354 170 -372
31 -5 34 -9 50 -78 27 -116 66 -188 128 -237 55 -44 161 -99 190 -99 9 0 19
-8 22 -17 3 -10 4 5 1 32 -2 28 -9 63 -16 78 -10 23 -18 27 -53 27 -81 0 -143
52 -153 128 -5 36 -2 45 25 72 22 22 40 30 66 30 30 0 41 -7 77 -50 l43 -51
10 29 c6 16 28 44 49 62 l37 32 0 -38 c0 -69 38 -113 111 -128 21 -5 28 -14
33 -40 4 -18 17 -45 31 -60 20 -21 33 -26 73 -26 45 0 53 4 81 35 27 31 39 55
27 55 -2 0 -20 -13 -41 -30 -60 -47 -115 -37 -141 27 -15 35 -15 35 26 79 28
31 40 52 40 74 0 16 5 31 10 32 6 0 16 1 22 2 8 1 17 -20 23 -49 6 -27 15 -50
21 -51 5 0 26 -8 46 -17 50 -22 74 -21 111 5 l30 22 -7 -43 c-14 -91 -84 -184
-169 -226 -33 -15 -79 -27 -124 -31 l-73 -7 1 -56 c0 -57 17 -122 18 -74 1 12
6 44 13 72 l11 51 43 0 c100 0 215 74 264 170 46 91 65 328 35 445 -22 82 -60
148 -125 214 -67 69 -142 107 -249 128 -74 15 -88 15 -161 0 -121 -24 -201
-65 -280 -146 l-68 -69 -6 30 c-3 18 0 41 9 58 16 32 100 100 121 100 40 0
-24 82 -88 114 -53 27 -99 31 -153 15z m825 -457 c40 -35 90 -75 111 -89 22
-14 39 -30 39 -35 0 -5 -7 -2 -16 7 -32 32 -70 45 -104 35 -43 -12 -57 -26
-65 -61 -5 -24 -12 -29 -35 -29 -20 0 -33 7 -41 23 -43 83 -106 100 -174 45
l-40 -31 40 41 c22 24 45 40 51 38 7 -3 20 4 29 14 22 24 55 114 55 149 l0 29
38 -37 c21 -20 72 -64 112 -99z m-159 -130 c25 -23 33 -38 36 -78 5 -48 3 -52
-31 -82 -81 -71 -166 -18 -153 95 10 87 86 121 148 65z m263 7 c60 -47 75
-132 30 -168 -57 -45 -138 -13 -149 57 -3 20 -8 47 -11 60 -6 31 36 72 74 72
16 0 41 -9 56 -21z"/>
<path d="M5570 4300 c0 -19 6 -33 16 -37 25 -9 37 11 23 40 -17 37 -39 35 -39
-3z"/>
<path d="M5836 4318 c-11 -41 -7 -58 14 -58 27 0 44 34 30 60 -14 27 -36 25
-44 -2z"/>
<path d="M13522 4852 c-24 -25 -30 -27 -56 -18 -24 9 -31 7 -47 -13 -10 -13
-19 -35 -19 -50 0 -19 -3 -22 -9 -12 -13 20 -37 0 -51 -45 -13 -39 -12 -38
-65 -19 -80 29 -214 14 -320 -36 -62 -29 -131 -95 -151 -144 -14 -34 -14 -38
-1 -26 14 11 17 7 27 -31 29 -113 65 -201 102 -255 64 -90 70 -91 101 -25 20
42 26 47 56 47 43 0 75 -39 75 -91 0 -50 -52 -99 -95 -90 -35 7 -37 -4 -10
-66 25 -60 71 -103 133 -126 39 -14 54 -26 59 -43 l6 -24 4 25 c3 20 11 26 39
28 19 2 37 7 40 11 3 4 37 28 75 53 77 51 121 100 163 180 24 47 27 63 27 155
l0 103 37 0 c20 0 40 5 44 11 3 6 26 20 50 31 45 19 79 58 72 80 -3 7 8 23 24
36 58 49 60 164 3 190 -22 10 -24 14 -13 37 16 36 -16 79 -63 83 -18 2 -39 12
-46 22 -13 19 -103 50 -143 50 -12 0 -34 -13 -48 -28z"/>
<path d="M16008 4775 c-4 -59 -3 -104 3 -109 5 -6 9 4 9 28 0 22 4 35 10 31
13 -8 13 8 1 21 -6 5 -11 36 -13 69 -3 52 -4 47 -10 -40z"/>
<path d="M3790 4840 c-72 -15 -182 -75 -238 -130 -100 -98 -126 -169 -140
-375 -6 -83 -15 -142 -25 -161 -9 -17 -45 -56 -82 -88 -108 -96 -133 -172 -96
-294 11 -39 21 -88 21 -109 0 -36 -8 -56 -69 -165 -31 -56 -33 -136 -4 -193
26 -50 106 -126 163 -155 23 -12 66 -24 95 -27 61 -6 55 -15 80 122 43 239
132 430 242 516 46 36 62 75 62 156 1 87 -10 113 -51 113 -46 0 -109 34 -135
73 -40 58 -23 157 29 171 41 11 56 6 103 -30 42 -32 49 -34 63 -20 10 8 40 23
68 34 63 25 219 108 260 138 17 12 44 47 60 78 35 68 40 65 108 -64 26 -50 53
-89 59 -87 19 6 11 120 -12 190 -41 123 -167 243 -298 285 -80 25 -199 35
-263 22z m308 -65 c29 -9 52 -19 52 -23 0 -4 -39 -8 -87 -8 -76 -1 -97 -5
-156 -32 -128 -59 -230 -192 -256 -336 -6 -34 -18 -64 -28 -72 -16 -11 -19 -9
-24 24 -11 58 8 151 46 228 44 90 138 182 217 213 65 25 164 27 236 6z m44
-281 c-31 -60 -64 -97 -117 -130 -25 -15 -23 -11 16 32 26 28 63 76 84 107 21
32 40 55 42 53 2 -2 -9 -30 -25 -62z m-761 -381 c-5 -10 -30 -38 -56 -63 -69
-67 -89 -111 -89 -195 1 -45 -2 -61 -7 -45 -12 43 -10 109 6 146 12 29 139
174 152 174 2 0 -1 -8 -6 -17z m-124 -492 c-2 -21 -21 -64 -41 -95 -20 -32
-40 -74 -45 -94 -8 -33 -9 -34 -10 -9 -1 15 19 67 44 115 25 47 45 94 45 104
0 10 3 18 6 18 4 0 4 -17 1 -39z"/>
<path d="M15714 4755 c0 -49 1 -71 3 -48 2 23 2 64 0 90 -2 26 -3 8 -3 -42z"/>
<path d="M17390 4786 c0 -20 2 -36 4 -36 8 0 12 61 4 66 -4 3 -8 -11 -8 -30z"/>
<path d="M11000 4777 c0 -17 38 -53 46 -44 7 7 -25 57 -37 57 -5 0 -9 -6 -9
-13z"/>
<path d="M16973 4773 c9 -2 25 -2 35 0 9 3 1 5 -18 5 -19 0 -27 -2 -17 -5z"/>
<path d="M16332 4700 c0 -14 2 -19 5 -12 2 6 2 18 0 25 -3 6 -5 1 -5 -13z"/>
<path d="M11808 4693 c7 -3 16 -2 19 1 4 3 -2 6 -13 5 -11 0 -14 -3 -6 -6z"/>
<path d="M16516 4654 c-4 -10 -1 -14 6 -12 15 5 23 28 10 28 -5 0 -13 -7 -16
-16z"/>
<path d="M17053 4623 c15 -2 39 -2 55 0 15 2 2 4 -28 4 -30 0 -43 -2 -27 -4z"/>
<path d="M16818 4613 c12 -2 32 -2 45 0 12 2 2 4 -23 4 -25 0 -35 -2 -22 -4z"/>
<path d="M1703 4480 c0 -30 2 -43 4 -27 2 15 2 39 0 55 -2 15 -4 2 -4 -28z"/>
<path d="M7335 4454 c-44 -7 -156 -13 -248 -13 -142 -1 -177 -4 -229 -22 -66
-22 -141 -69 -161 -100 -16 -26 -32 -24 -45 5 -13 29 -47 39 -67 19 -24 -24
-18 -57 16 -82 l31 -23 -39 -19 c-67 -33 -111 -127 -101 -215 5 -46 22 -32 30
25 7 46 41 131 53 131 2 0 -3 -16 -11 -35 -25 -61 -37 -181 -24 -253 28 -162
171 -325 317 -361 26 -7 51 -18 55 -24 5 -8 8 -6 8 6 0 11 8 17 24 17 63 0
131 52 171 132 l24 47 -30 6 c-35 8 -87 57 -95 91 -4 15 1 36 13 56 16 27 26
34 58 36 37 3 43 0 86 -48 l46 -53 27 59 c31 67 45 123 46 177 0 37 0 37 40
37 79 0 190 79 190 135 0 19 -7 26 -32 33 -30 8 -31 9 -11 16 24 8 67 86 61
113 -3 15 -13 18 -58 16 -43 -1 -51 1 -39 10 23 18 49 59 49 79 0 22 -33 22
-155 2z"/>
<path d="M11040 4405 c-10 -12 -15 -13 -20 -4 -11 17 -23 -78 -21 -161 4 -124
41 -203 128 -272 39 -31 79 -44 166 -54 66 -8 72 -15 83 -92 6 -49 5 -53 -34
-97 -52 -59 -73 -105 -133 -289 -45 -140 -48 -152 -32 -164 16 -12 16 -17 0
-100 -26 -125 -55 -182 -138 -268 -60 -61 -81 -76 -125 -89 -81 -23 -137 -100
-104 -140 31 -38 294 14 379 74 l29 21 66 -30 c99 -45 175 -60 349 -67 86 -3
157 -8 157 -10 0 -2 -7 -16 -16 -31 -15 -25 -14 -24 15 6 18 18 41 32 54 32
13 0 44 6 69 14 l46 13 -8 -28 c-14 -50 -64 -132 -102 -171 -27 -27 -55 -42
-109 -58 -67 -20 -89 -21 -397 -19 l-325 3 -23 -28 c-33 -37 -33 -104 -1 -134
20 -18 35 -22 96 -22 l74 0 -7 -49 c-3 -27 -15 -82 -25 -122 -11 -41 -31 -141
-45 -224 -33 -192 -36 -205 -44 -204 -21 3 -30 -4 -36 -26 -7 -26 -35 -37
-128 -50 l-48 -7 0 38 c0 22 -5 46 -10 54 -6 10 -8 -1 -4 -35 l6 -50 -67 -35
c-37 -19 -84 -49 -104 -67 l-38 -32 -21 67 c-22 66 -52 210 -52 245 0 16 5 18
39 12 79 -13 181 41 181 95 0 13 -17 40 -39 61 l-38 38 -202 -5 c-110 -3 -201
-3 -201 -1 0 3 20 17 44 31 76 44 121 106 157 213 l32 96 -6 231 c-4 134 -12
263 -21 306 -18 95 -61 230 -93 295 -35 70 -119 181 -156 207 -20 14 -7 -5 35
-51 58 -63 73 -87 109 -179 86 -220 126 -469 116 -720 -3 -74 -7 -136 -10
-138 -2 -3 -35 -14 -73 -25 -99 -30 -311 -37 -425 -15 -92 18 -185 59 -238
104 l-35 29 40 49 c51 62 72 98 113 202 24 58 38 82 50 82 18 0 53 93 101 270
24 89 25 110 5 110 -10 0 -15 -10 -15 -30 0 -16 -11 -62 -24 -102 -14 -40 -34
-106 -46 -147 l-22 -73 -33 5 c-19 3 -80 24 -136 46 -55 23 -108 41 -116 41
-18 0 -20 -11 42 170 70 206 132 298 237 351 87 44 213 68 261 50 18 -7 26 -7
22 -1 -3 6 -12 10 -20 10 -8 0 -19 8 -24 18 -6 9 -11 11 -11 5 0 -9 -15 -13
-43 -13 -39 0 -119 -17 -159 -34 -15 -7 -17 1 -20 61 -3 64 -4 68 -28 71 -17
2 -21 0 -12 -6 14 -10 31 -70 32 -113 0 -20 -11 -33 -49 -57 -87 -54 -148
-157 -217 -371 -24 -75 -44 -137 -44 -138 0 -2 11 -8 25 -13 24 -9 25 -11 12
-37 -8 -16 -26 -66 -42 -113 -34 -105 -61 -158 -116 -233 -35 -47 -55 -63
-115 -92 -81 -38 -110 -75 -99 -124 4 -21 -2 -40 -29 -79 -48 -72 -60 -154
-44 -307 15 -141 89 -494 129 -614 l21 -64 106 8 c81 5 109 10 119 23 11 15
12 10 13 -29 0 -54 0 -54 -140 -93 -111 -31 -174 -60 -199 -93 -25 -31 -29
-101 -6 -109 18 -7 144 20 236 51 81 28 78 34 50 -100 -10 -50 -22 -114 -25
-143 l-7 -53 72 3 72 3 15 40 c8 22 20 60 28 85 l13 45 -6 -49 c-4 -35 -3 -47
6 -42 6 4 11 25 11 47 0 21 11 92 25 156 13 65 43 219 65 343 23 124 57 296
76 382 19 86 34 159 34 162 0 3 92 6 205 6 204 0 205 0 209 -22 3 -13 21 -104
40 -203 20 -99 44 -209 55 -243 11 -35 29 -109 40 -165 31 -158 99 -445 111
-467 8 -15 20 -20 48 -19 28 2 31 3 10 6 -17 3 -30 13 -37 31 -14 34 -73 285
-111 467 -16 77 -40 177 -54 222 -29 95 -90 383 -82 390 3 3 45 7 93 9 l89 4
13 -76 c7 -42 24 -113 37 -157 34 -112 181 -700 205 -819 11 -54 22 -105 25
-113 5 -13 1 -15 -22 -9 -16 4 -31 8 -32 10 -2 1 -25 85 -51 186 -99 380 -150
564 -165 598 -25 57 -19 6 14 -115 16 -60 61 -231 100 -380 38 -148 73 -280
76 -292 5 -20 13 -23 56 -23 42 0 49 2 44 18 -3 9 -12 58 -21 107 -9 50 -48
213 -86 363 -38 150 -69 277 -69 282 0 6 15 10 34 10 41 0 255 53 296 74 37
18 38 14 11 -99 -22 -96 -54 -266 -49 -269 2 -1 34 0 71 2 67 4 68 4 85 40 9
21 20 39 24 42 3 3 14 46 23 95 30 166 105 530 115 560 8 23 9 13 5 -45 -22
-305 -58 -584 -78 -608 -6 -8 -20 -11 -35 -7 -17 4 -23 2 -20 -7 3 -7 20 -13
38 -13 32 0 35 3 47 45 8 25 20 110 28 190 34 343 41 390 58 390 7 0 6 4 -3
10 -23 15 -16 133 19 300 17 80 31 156 31 169 0 23 2 24 61 17 34 -3 128 -6
210 -6 l147 0 21 -87 c11 -49 25 -117 31 -153 6 -36 20 -99 30 -140 10 -41 25
-120 35 -175 9 -55 27 -145 41 -200 13 -55 35 -158 50 -230 17 -87 32 -137 45
-150 19 -19 19 -19 19 0 0 11 -7 38 -14 60 -8 22 -35 146 -61 275 -25 129 -61
303 -80 385 -19 83 -47 209 -63 282 l-28 132 69 3 c83 4 76 15 111 -175 28
-149 99 -478 151 -702 20 -82 42 -180 49 -217 l14 -68 -64 0 c-63 0 -74 6 -53
27 7 7 7 16 0 29 -5 11 -17 63 -26 117 -10 54 -19 96 -21 94 -3 -2 3 -53 12
-113 9 -60 16 -121 16 -136 l-1 -28 85 0 c77 0 85 2 80 18 -2 9 -26 114 -51
232 -26 118 -51 223 -56 232 -5 10 -13 59 -19 110 -10 88 -19 123 -21 82 -1
-36 -18 39 -44 196 -14 85 -32 180 -40 211 -8 31 -15 67 -15 79 0 21 3 22 44
16 87 -13 170 28 182 91 6 28 1 38 -30 69 l-37 37 -192 -6 c-121 -4 -186 -3
-177 3 8 5 22 10 31 10 24 0 106 76 134 123 13 23 36 76 52 117 27 72 28 82
26 250 -2 357 -95 661 -246 807 l-50 48 54 -67 c97 -119 167 -290 205 -498 19
-105 30 -444 16 -481 -12 -31 -55 -44 -177 -54 -95 -8 -328 10 -405 31 -64 18
-150 54 -150 62 0 4 22 29 50 57 57 58 131 182 160 271 17 49 26 63 43 66 17
2 23 12 28 43 3 22 18 84 33 139 16 60 26 122 25 160 l-1 61 -13 -75 c-13 -79
-70 -298 -79 -307 -6 -7 -206 52 -263 77 l-42 18 35 116 c68 230 108 304 188
351 51 30 169 58 207 50 32 -7 36 -1 14 21 -8 9 -15 11 -15 6 0 -5 -32 -14
-71 -21 -39 -6 -86 -18 -104 -25 l-33 -14 -6 36 c-3 21 -6 54 -6 75 l0 37 -46
0 c-54 0 -130 18 -164 38 -77 47 -134 125 -146 202 -7 41 -6 42 14 31 11 -6
31 -11 44 -11 18 0 14 5 -18 19 -36 17 -42 23 -47 60 -15 117 55 184 117 110
30 -35 32 -64 11 -116 -12 -28 -13 -38 -3 -44 18 -12 28 -1 28 31 0 43 10 60
35 60 17 0 24 -7 29 -31 3 -17 19 -44 35 -60 24 -23 38 -29 73 -29 52 0 82 25
93 78 4 20 13 32 23 32 11 0 13 3 6 8 -7 4 -19 23 -27 43 -21 51 -54 79 -95
79 -44 0 -66 -13 -91 -54 -25 -40 -58 -53 -66 -25 -4 11 -18 33 -32 49 -20 25
-32 30 -68 30 -26 0 -47 -6 -55 -15z m342 -19 c28 -21 50 -85 43 -122 -10 -57
-68 -81 -111 -46 -49 40 -55 103 -13 156 22 28 54 33 81 12z m-52 -1175 c47
-17 93 -31 104 -31 27 0 16 -44 -44 -166 -38 -79 -64 -117 -117 -171 -37 -37
-91 -80 -118 -95 -63 -34 -175 -65 -264 -74 -79 -7 -92 5 -66 60 17 36 35 47
105 66 35 10 61 29 120 89 89 90 122 153 146 275 14 71 20 86 33 82 9 -3 54
-19 101 -35z m-1550 -509 c52 -20 96 -37 98 -37 5 -3 -28 -86 -65 -160 -48
-99 -162 -227 -241 -272 -31 -18 -98 -43 -149 -57 -50 -13 -100 -27 -111 -31
-31 -9 -47 26 -28 62 20 40 45 60 96 78 57 20 100 62 156 151 40 65 114 260
114 301 0 10 5 13 18 8 9 -4 60 -23 112 -43z m2360 -314 c31 -33 34 -57 13
-87 -39 -51 -32 -51 -580 -51 -301 0 -522 4 -537 10 -56 21 -70 87 -27 127 18
17 58 18 565 20 l546 3 20 -22z m-820 -153 c0 -9 -67 -325 -89 -420 -10 -44
-31 -132 -45 -195 -15 -63 -48 -212 -74 -330 l-47 -215 -52 -3 c-65 -4 -65
-13 -19 208 69 330 115 559 151 745 20 105 38 195 40 200 3 11 135 20 135 10z
m-611 -331 c28 -35 26 -67 -3 -101 l-24 -28 -560 -3 -560 -2 -26 31 c-28 33
-32 50 -16 79 26 49 28 49 617 50 l552 0 20 -26z m-999 -167 c0 -35 -56 -307
-71 -342 l-12 -30 -7 35 c-15 69 -30 207 -30 277 l0 72 38 4 c82 8 82 8 82
-16z m114 -234 c-29 -136 -67 -302 -83 -368 -17 -66 -45 -198 -61 -294 -17
-95 -38 -191 -47 -212 -15 -38 -17 -39 -64 -39 -48 0 -49 1 -49 29 0 16 16
105 35 198 18 92 41 215 50 273 9 58 28 150 41 204 24 93 69 319 83 411 l6 40
65 5 c36 3 68 4 71 3 3 -1 -18 -114 -47 -250z m-127 -735 c-3 -7 -5 -2 -5 12
0 14 2 19 5 13 2 -7 2 -19 0 -25z"/>
<path d="M11330 4295 c0 -14 7 -28 15 -32 22 -8 28 2 21 32 -8 33 -36 33 -36
0z"/>
<path d="M1688 4300 c-5 -63 -7 -162 -6 -220 1 -86 3 -72 10 80 9 213 7 310
-4 140z"/>
<path d="M11635 4299 c-25 -23 -45 -49 -45 -57 0 -11 12 -5 38 20 50 48 77 61
112 53 64 -14 95 -96 62 -161 -25 -49 -67 -74 -124 -74 l-43 0 -17 -53 c-10
-30 -18 -76 -17 -103 1 -49 1 -48 13 21 18 103 24 111 97 119 69 8 92 21 120
63 25 37 24 68 -5 129 -29 62 -58 84 -108 84 -31 0 -47 -8 -83 -41z"/>
<path d="M11080 4307 c0 -24 22 -52 32 -41 9 9 -7 57 -20 62 -7 2 -12 -6 -12
-21z"/>
<path d="M10221 4303 c7 -12 15 -20 18 -17 3 2 -3 12 -13 22 -17 16 -18 16 -5
-5z"/>
<path d="M4014 4286 c-15 -59 26 -110 48 -60 8 17 8 34 2 52 -13 36 -41 41
-50 8z"/>
<path d="M4257 4294 c-14 -14 -7 -62 9 -68 24 -9 45 13 42 43 -3 26 -35 41
-51 25z"/>
<path d="M12774 4266 c-9 -36 -1 -71 16 -71 8 0 16 11 18 24 5 30 -6 71 -18
71 -5 0 -12 -11 -16 -24z"/>
<path d="M4180 4232 c0 -11 7 -25 16 -33 14 -11 15 -9 12 16 -3 32 -28 47 -28
17z"/>
<path d="M3670 4230 c-9 -6 -7 -11 9 -20 12 -6 31 -26 41 -43 24 -39 28 -12 5
32 -16 32 -36 43 -55 31z"/>
<path d="M5268 4178 c41 -68 56 -58 23 17 -14 31 -26 45 -40 45 -17 0 -16 -6
17 -62z"/>
<path d="M11682 4213 c-24 -34 -37 -73 -24 -73 5 0 21 18 36 40 14 22 33 40
42 40 8 0 12 5 9 10 -12 19 -44 10 -63 -17z"/>
<path d="M12676 4222 c-8 -13 5 -52 18 -52 24 0 38 18 31 39 -6 21 -39 29 -49
13z"/>
<path d="M4346 4153 c-8 -62 -63 -151 -116 -188 -42 -29 -131 -55 -192 -55
l-38 0 0 -44 c0 -24 -3 -58 -6 -75 -8 -36 11 -43 22 -8 16 51 49 80 138 122
98 46 155 95 180 157 22 52 35 114 26 128 -4 6 -10 -10 -14 -37z"/>
<path d="M13054 4169 c-9 -15 11 -33 30 -26 9 4 13 13 10 22 -7 17 -30 20 -40
4z"/>
<path d="M4046 4141 c-11 -17 13 -79 37 -96 34 -24 94 -19 122 10 14 13 25 34
25 46 0 20 -2 19 -35 -10 -20 -17 -44 -31 -53 -31 -19 0 -61 40 -79 74 -7 13
-13 15 -17 7z"/>
<path d="M9630 4136 c0 -24 68 -73 128 -92 38 -12 90 -18 153 -18 l97 -1 5
-52 c3 -31 21 -85 42 -128 36 -75 64 -103 74 -74 2 7 17 26 32 41 21 21 37 28
68 28 50 0 72 -28 79 -101 4 -45 2 -53 -23 -79 -31 -32 -82 -53 -116 -48 -12
2 -24 -3 -27 -11 -4 -11 5 -12 44 -6 68 10 110 32 122 63 31 79 18 159 -30
195 -37 28 -92 16 -135 -29 l-33 -35 -20 33 c-34 54 -63 164 -56 208 l6 39
-37 -16 c-74 -30 -238 2 -318 62 -51 39 -55 41 -55 21z"/>
<path d="M11155 4121 c7 -45 30 -69 70 -77 37 -7 71 7 97 40 19 22 24 66 9 66
-5 0 -13 -10 -17 -22 -11 -38 -35 -58 -70 -58 -32 0 -41 8 -82 66 -11 17 -12
15 -7 -15z"/>
<path d="M12710 4122 c0 -34 39 -132 67 -169 27 -35 106 -93 127 -93 6 0 -7
11 -30 25 -61 36 -144 175 -144 240 0 8 -4 15 -10 15 -5 0 -10 -8 -10 -18z"/>
<path d="M12787 4133 c-13 -13 -7 -51 12 -74 l19 -24 13 28 c19 43 -15 99 -44
70z"/>
<path d="M13550 3994 c-27 -42 -108 -109 -165 -135 -33 -15 -36 -19 -16 -19
43 0 109 39 161 97 27 30 50 63 50 74 0 27 -5 24 -30 -17z"/>
<path d="M16728 4003 c18 -2 45 -2 60 0 15 2 0 4 -33 4 -33 0 -45 -2 -27 -4z"/>
<path d="M17283 4003 c9 -2 25 -2 35 0 9 3 1 5 -18 5 -19 0 -27 -2 -17 -5z"/>
<path d="M15908 3993 c12 -2 30 -2 40 0 9 3 -1 5 -23 4 -22 0 -30 -2 -17 -4z"/>
<path d="M17228 3993 c6 -2 18 -2 25 0 6 3 1 5 -13 5 -14 0 -19 -2 -12 -5z"/>
<path d="M17375 3991 l30 -6 5 -365 c4 -281 7 -343 13 -270 11 134 7 622 -5
638 -6 6 -25 11 -42 11 l-31 -1 30 -7z"/>
<path d="M15863 3945 c0 -27 2 -38 4 -22 2 15 2 37 0 50 -2 12 -4 0 -4 -28z"/>
<path d="M17127 3978 c4 -7 11 -148 14 -313 l5 -300 2 260 c2 265 -4 365 -20
365 -5 0 -6 -6 -1 -12z"/>
<path d="M17240 3980 c-24 -5 -3 -7 65 -8 78 0 91 2 60 9 -47 9 -77 9 -125 -1z"/>
<path d="M15938 3973 c6 -2 18 -2 25 0 6 3 1 5 -13 5 -14 0 -19 -2 -12 -5z"/>
<path d="M16678 3963 c12 -2 32 -2 45 0 12 2 2 4 -23 4 -25 0 -35 -2 -22 -4z"/>
<path d="M16805 3959 l-40 -6 38 -2 37 -1 1 -247 c0 -137 4 -268 8 -293 4 -25
5 86 3 245 -2 160 -4 295 -5 300 -1 6 -18 8 -42 4z"/>
<path d="M1668 3760 c-2 -113 -3 -268 -3 -345 l0 -140 -160 -7 c-88 -4 -200
-14 -250 -22 -49 -8 -137 -20 -195 -26 -180 -20 -194 -23 -198 -45 -3 -10 -1
-83 3 -162 7 -141 7 -143 30 -143 28 0 25 9 59 -235 41 -291 64 -447 96 -660
17 -110 37 -247 46 -305 8 -58 19 -109 23 -113 20 -20 1133 -3 1150 17 5 6 17
81 26 166 9 85 27 220 40 300 46 276 111 717 117 790 3 31 6 35 34 38 l31 3 7
76 c9 109 7 241 -3 247 -5 3 -53 11 -107 17 -55 6 -175 20 -269 31 -93 11
-237 22 -319 25 l-149 6 5 326 c4 179 2 335 -2 346 -5 12 -10 -64 -12 -185z
m848 -662 c-3 -50 -6 -120 -6 -155 l0 -63 -814 0 -814 0 -7 146 c-5 101 -4
149 3 153 6 4 379 7 828 8 l817 2 -7 -91z m-72 -251 c-2 -12 -20 -134 -39
-272 -20 -137 -52 -342 -70 -455 -19 -113 -43 -279 -54 -369 -12 -90 -22 -165
-23 -167 -3 -2 -1016 -20 -1081 -18 -20 0 -40 4 -44 7 -3 4 -23 123 -45 264
-21 142 -45 296 -53 343 -9 47 -24 150 -35 230 -10 80 -28 206 -39 280 -12 74
-21 144 -21 155 0 20 7 20 754 22 l753 3 -3 -23z m-1041 -1294 c-23 -2 -64 -2
-90 0 -26 2 -7 3 42 3 50 0 71 -1 48 -3z"/>
<path d="M17205 3586 l-7 -335 -32 -4 c-17 -2 32 -5 108 -5 77 -1 137 0 135 2
-2 3 -45 6 -94 7 -50 1 -93 7 -97 12 -3 6 -4 156 -1 334 2 177 2 323 0 323 -3
0 -8 -151 -12 -334z"/>
<path d="M7367 3894 c-13 -13 -7 -61 8 -74 22 -19 37 0 33 41 -3 32 -24 49
-41 33z"/>
<path d="M9632 3878 c-17 -17 -15 -68 2 -68 16 0 46 26 46 40 0 35 -26 50 -48
28z"/>
<path d="M9892 3858 c-17 -17 -15 -58 4 -65 20 -7 35 14 32 46 -3 28 -19 36
-36 19z"/>
<path d="M12974 3849 c27 -4 52 -13 56 -20 4 -6 11 -38 14 -71 l7 -60 -61 -63
c-36 -39 -71 -87 -86 -122 -21 -47 -69 -209 -91 -308 -3 -15 3 -25 22 -35 17
-9 24 -19 20 -29 -4 -9 -14 -54 -24 -101 -24 -115 -44 -154 -117 -226 -48 -48
-77 -67 -132 -88 -84 -32 -103 -51 -110 -111 -2 -26 -8 -42 -12 -35 -5 8 -35
2 -103 -21 -111 -37 -115 -44 -67 -114 17 -24 30 -48 30 -54 0 -34 96 -167
189 -261 l103 -105 9 -75 c5 -41 16 -139 25 -217 9 -78 13 -147 9 -152 -3 -6
-37 -29 -75 -51 -38 -22 -72 -45 -76 -52 -5 -7 -11 -5 -21 7 -12 18 -13 18
-13 -1 0 -11 -18 -38 -41 -59 -22 -22 -54 -67 -71 -99 -25 -50 -28 -63 -19
-84 9 -20 16 -23 38 -18 42 11 258 153 294 194 18 20 29 28 25 17 -23 -57
-148 -649 -144 -682 3 -26 6 -28 56 -31 63 -4 77 6 87 55 3 19 17 59 30 88 27
62 56 186 85 370 19 122 127 573 150 626 8 18 9 8 4 -41 -6 -70 -62 -466 -69
-490 -3 -8 -12 -67 -20 -130 -9 -63 -28 -160 -42 -215 -36 -146 -36 -145 -25
-145 5 0 14 19 21 42 30 113 61 261 71 338 6 47 25 164 41 260 16 96 32 211
35 255 3 44 12 123 19 175 8 52 16 110 17 128 l3 34 207 1 208 2 6 -45 c18
-132 78 -434 104 -520 11 -37 34 -135 106 -450 24 -107 54 -228 66 -269 l22
-73 70 7 c39 4 74 9 79 12 14 8 -3 109 -44 268 -21 83 -51 220 -68 305 -16 86
-48 230 -70 320 -22 91 -49 217 -60 280 -12 63 -23 126 -26 140 l-6 25 70 -3
c82 -4 134 15 156 59 22 42 18 67 -14 100 l-29 29 -139 1 c-76 0 -160 4 -187
7 l-50 7 42 27 c22 15 52 47 65 70 29 50 62 147 53 155 -3 3 -2 11 3 17 5 6
13 56 17 110 7 94 6 98 -12 92 -77 -24 -380 -35 -557 -20 l-77 7 31 36 c59 70
102 145 123 215 18 58 26 71 46 76 23 5 28 17 57 140 31 134 41 213 24 194 -5
-5 -14 -43 -20 -84 -6 -41 -21 -111 -34 -155 -21 -74 -25 -80 -47 -77 -42 6
-282 95 -303 112 -4 4 -1 25 7 46 8 21 25 77 36 124 29 118 84 224 144 283 46
44 50 51 47 90 -6 107 -23 128 -101 126 -31 -1 -29 -2 14 -10z m135 -785 c9
-3 10 -8 4 -17 -5 -6 -20 -41 -33 -77 -29 -82 -84 -164 -152 -225 -112 -101
-160 -123 -335 -154 l-103 -18 0 38 c0 46 35 80 106 99 36 10 66 31 119 81 83
79 116 139 139 252 9 44 18 82 21 87 2 4 53 -9 112 -28 60 -19 114 -36 122
-38z m424 -351 c-7 -2 -19 -2 -25 0 -7 3 -2 5 12 5 14 0 19 -2 13 -5z m-763
-113 c-8 -5 -22 -9 -30 -9 -10 0 -8 3 5 9 27 12 43 12 25 0z m-87 -27 c-7 -2
-21 -2 -30 0 -10 3 -4 5 12 5 17 0 24 -2 18 -5z m1128 -352 c27 -33 24 -68
-10 -102 l-29 -29 -460 0 c-252 0 -493 -3 -534 -6 -73 -7 -75 -6 -111 26 -44
38 -46 58 -11 99 l26 31 331 3 c183 1 433 3 555 2 223 0 224 0 243 -24z m-987
-173 c-3 -18 -19 -96 -34 -173 -16 -77 -34 -169 -40 -205 -14 -81 -31 -140
-40 -140 -4 0 -7 12 -7 26 0 15 -5 29 -11 33 -9 5 -40 219 -54 372 l-4 36 36
-28 c19 -16 51 -31 70 -34 19 -3 28 -2 20 2 -8 3 -21 12 -28 20 -11 11 -11 13
3 13 16 0 16 2 3 23 -24 35 -7 64 44 75 24 6 44 10 45 11 1 1 0 -14 -3 -31z
m162 -22 c-3 -30 -26 -114 -51 -188 -58 -171 -137 -489 -175 -704 -20 -109
-51 -246 -79 -351 l-12 -43 -49 0 c-40 0 -50 3 -50 17 0 9 16 86 35 172 19 86
48 225 65 309 16 83 39 179 50 211 15 46 99 435 127 593 5 25 10 27 57 31 28
2 59 4 70 5 17 2 18 -3 12 -52z m555 44 l59 0 0 -39 c0 -58 37 -262 66 -371
15 -52 41 -167 60 -255 44 -215 79 -377 108 -499 13 -56 27 -116 31 -134 l7
-32 -57 0 c-75 0 -64 -29 -170 435 -20 88 -52 223 -72 300 -38 154 -123 559
-123 589 0 12 5 16 16 12 9 -3 42 -6 75 -6z m-861 -535 c21 -25 3 -60 -66
-124 -74 -70 -220 -171 -246 -171 -20 0 -23 20 -9 48 5 9 15 32 22 50 13 37
96 115 114 108 7 -2 28 10 46 27 32 29 106 77 120 77 4 0 12 -7 19 -15z"/>
<path d="M12380 1309 c0 -5 5 -7 10 -4 6 3 10 8 10 11 0 2 -4 4 -10 4 -5 0
-10 -5 -10 -11z"/>
<path d="M15864 3645 c0 -115 2 -161 3 -102 2 59 2 154 0 210 -1 56 -3 8 -3
-108z"/>
<path d="M7110 3810 c0 -14 5 -32 10 -40 8 -12 10 -10 10 10 0 14 -5 32 -10
40 -8 12 -10 10 -10 -10z"/>
<path d="M9726 3794 c-7 -18 0 -34 15 -34 5 0 9 11 9 25 0 28 -15 34 -24 9z"/>
<path d="M7462 3749 c-5 -13 -17 -49 -28 -79 -13 -39 -35 -71 -74 -110 -37
-37 -45 -49 -25 -36 76 48 104 87 129 181 15 60 14 88 -2 44z"/>
<path d="M10197 3753 c-4 -10 -14 -28 -23 -40 -22 -30 -6 -29 29 3 17 14 27
31 23 39 -7 20 -22 19 -29 -2z"/>
<path d="M13262 3745 c0 -16 2 -22 5 -12 2 9 2 23 0 30 -3 6 -5 -1 -5 -18z"/>
<path d="M9556 3715 c12 -77 66 -161 133 -206 61 -40 75 -37 16 4 -59 40 -99
95 -131 178 -21 54 -24 58 -18 24z"/>
<path d="M9859 3686 c-34 -73 -103 -86 -134 -25 -9 16 -20 29 -25 29 -18 0
-10 -39 14 -67 19 -22 32 -28 66 -28 36 0 47 6 76 38 23 25 34 47 34 67 0 16
-2 30 -5 30 -3 0 -14 -20 -26 -44z"/>
<path d="M3962 3655 c2 -5 14 -31 26 -56 29 -62 103 -322 94 -331 -15 -14
-258 -79 -287 -76 -29 3 -30 6 -53 98 -13 52 -26 139 -29 194 -4 72 -9 93 -16
81 -14 -25 0 -170 27 -290 19 -84 26 -100 43 -103 14 -2 24 -16 33 -45 32
-110 117 -241 191 -295 30 -22 37 -32 27 -39 -25 -15 -337 -15 -443 1 -55 8
-101 13 -103 11 -9 -9 11 -25 30 -25 l21 0 -21 -19 c-28 -24 -29 -77 -3 -160
21 -68 78 -164 92 -155 5 3 9 -2 9 -10 0 -9 5 -15 11 -13 6 1 16 -7 22 -18 7
-10 21 -27 32 -37 19 -17 13 -17 -147 -18 l-168 0 -30 -27 c-45 -42 -49 -83
-12 -124 29 -33 33 -34 101 -34 39 0 71 -2 71 -5 0 -10 -82 -386 -87 -400 -7
-18 -3 3 -57 -260 -25 -118 -54 -258 -66 -310 -12 -52 -24 -121 -27 -152 l-5
-56 47 -8 c40 -6 50 -4 62 12 7 10 13 26 13 37 0 10 5 28 12 40 7 12 15 40 20
62 6 36 7 34 3 -12 l-4 -52 55 -7 c33 -4 60 -2 65 3 9 9 49 191 110 498 33
165 98 548 99 577 0 24 3 26 53 30 28 2 118 2 198 0 l147 -4 21 -112 c24 -120
186 -784 228 -931 14 -49 32 -103 40 -119 15 -28 16 -28 80 -23 36 2 69 9 75
15 10 10 -45 250 -103 442 -16 52 -26 96 -24 99 3 2 32 -21 65 -53 61 -59 159
-112 224 -123 34 -5 36 -4 36 24 0 28 -10 46 -93 166 l-39 55 12 59 c7 32 27
108 46 168 93 309 127 544 91 625 -15 32 -16 33 -9 5 14 -58 5 -228 -17 -325
-24 -107 -83 -325 -112 -414 -10 -33 -19 -73 -19 -89 l0 -28 -59 41 c-32 23
-69 52 -82 66 l-22 24 13 215 c7 119 11 218 8 221 -3 2 -8 -28 -12 -68 -23
-263 -31 -321 -44 -335 -8 -7 -19 -12 -26 -10 -12 4 -91 320 -100 400 -1 5 35
11 79 13 73 3 82 6 102 31 28 35 31 101 6 132 -14 16 -31 21 -81 22 -61 2 -63
3 -60 28 2 20 10 27 33 31 38 7 96 0 90 -10 -3 -4 2 -11 11 -14 22 -9 77 22
70 40 -3 8 -2 14 3 14 12 0 32 50 25 62 -4 7 -2 8 5 4 11 -7 26 39 24 77 -3
62 -2 59 -29 53 -15 -4 -40 -9 -58 -12 -26 -3 -24 -2 12 12 24 9 42 22 42 31
0 9 -6 13 -14 10 -105 -40 -337 13 -471 108 -74 53 -173 155 -208 216 -24 40
-67 150 -67 169 0 4 23 10 50 14 41 5 105 22 184 48 5 2 17 -31 28 -72 28
-107 50 -152 104 -210 70 -75 225 -185 251 -178 28 8 85 -17 112 -48 21 -23
31 -29 31 -19 0 39 -88 94 -150 95 -29 0 -121 61 -190 126 -79 75 -121 150
-142 251 -11 58 -11 64 7 77 18 13 18 17 -14 137 -36 138 -73 229 -104 256
-11 10 -18 14 -15 8z m85 -881 c-3 -3 -12 -4 -19 -1 -8 3 -5 6 6 6 11 1 17 -2
13 -5z m-44 -11 c-7 -2 -21 -2 -30 0 -10 3 -4 5 12 5 17 0 24 -2 18 -5z m-300
-10 c-7 -2 -21 -2 -30 0 -10 3 -4 5 12 5 17 0 24 -2 18 -5z m50 0 c-7 -2 -19
-2 -25 0 -7 3 -2 5 12 5 14 0 19 -2 13 -5z m44 -25 c-3 -7 -5 -2 -5 12 0 14 2
19 5 13 2 -7 2 -19 0 -25z m95 11 c-37 -17 -42 -23 -36 -42 4 -12 9 -24 13
-27 3 -3 21 -25 40 -50 l34 -45 -42 40 c-24 24 -49 62 -61 93 l-20 52 58 -1
57 -1 -43 -19z m468 -95 c25 -7 38 -13 30 -13 -19 -1 -120 26 -129 34 -6 7 17
2 99 -21z m98 -327 c37 -30 32 -106 -8 -127 -12 -6 -222 -10 -550 -10 -560 0
-577 1 -594 45 -16 43 15 101 57 107 12 2 260 2 552 0 379 -2 533 -7 543 -15z
m-840 -162 c1 -1 -2 -13 -8 -26 -12 -30 -59 -282 -67 -369 -5 -42 -9 -57 -12
-41 -4 15 -14 -24 -29 -105 -48 -275 -65 -361 -77 -404 -20 -67 -18 -36 5 66
11 49 19 98 19 109 -1 18 -46 -145 -69 -250 -5 -22 -15 -62 -23 -90 l-14 -50
-44 0 c-24 0 -43 5 -43 10 3 18 104 498 129 610 13 61 43 205 66 320 23 116
44 216 46 224 2 10 16 12 61 6 31 -4 58 -8 60 -10z m82 1 c0 -63 -65 -431
-126 -716 -14 -63 -37 -172 -51 -242 -26 -124 -28 -128 -52 -128 -14 0 -31 4
-37 8 -11 7 35 253 114 612 16 74 42 207 57 295 15 88 29 166 31 173 5 18 64
16 64 -2z m575 -18 c36 -154 84 -415 84 -460 0 -64 7 -95 27 -118 21 -24 164
-544 153 -555 -3 -2 -29 -5 -58 -7 l-54 -3 -23 85 c-13 47 -54 202 -90 345
-36 143 -79 312 -95 375 -23 90 -79 343 -79 357 0 2 29 3 65 3 59 0 65 -2 70
-22z"/>
<path d="M3461 1464 c0 -11 3 -14 6 -6 3 7 2 16 -1 19 -3 4 -6 -2 -5 -13z"/>
<path d="M5540 3613 c1 -7 82 -284 96 -323 4 -12 -20 -21 -113 -42 -65 -15
-137 -30 -160 -33 -42 -7 -42 -6 -52 32 -27 101 -41 175 -47 245 -4 47 -11 75
-17 71 -20 -12 21 -290 53 -353 11 -22 127 -14 220 16 91 29 90 29 90 5 0 -10
9 -49 21 -87 17 -54 32 -79 77 -127 119 -124 248 -202 353 -212 87 -8 97 -12
114 -45 17 -33 11 -57 -15 -65 -28 -9 -257 24 -324 46 -218 74 -381 212 -457
388 -30 70 -36 52 -8 -23 32 -87 115 -191 200 -249 69 -49 71 -51 48 -61 -15
-7 -119 -11 -273 -11 l-248 0 6 -45 c14 -101 93 -221 186 -281 28 -18 50 -33
50 -33 0 -1 -64 0 -142 2 -164 4 -206 -5 -231 -47 -23 -40 -21 -64 8 -100 33
-38 82 -54 140 -46 31 5 45 4 45 -4 0 -7 -18 -85 -39 -174 -21 -89 -44 -192
-51 -229 -7 -38 -17 -68 -22 -68 -5 0 -7 -3 -5 -7 3 -5 -8 -71 -24 -148 -17
-77 -38 -185 -49 -240 -10 -55 -26 -133 -34 -173 -9 -40 -16 -87 -16 -103 0
-29 0 -29 59 -29 57 0 59 1 70 31 11 31 11 31 65 25 l55 -7 21 68 c11 37 34
146 51 243 17 96 39 211 49 255 10 44 38 189 62 323 l43 242 181 0 180 0 34
-172 c39 -201 170 -750 227 -950 l16 -58 83 0 c73 0 82 2 78 18 -17 73 -74
343 -74 352 0 7 6 8 18 1 23 -12 272 -61 312 -61 22 0 30 -5 30 -18 0 -19 -42
-232 -85 -427 -33 -152 -68 -346 -63 -351 2 -2 30 -6 61 -10 55 -7 57 -6 68
22 10 25 56 204 74 288 3 15 8 27 10 25 2 -2 -5 -56 -16 -119 -11 -67 -15
-118 -10 -123 5 -5 29 -12 54 -14 l45 -5 7 43 c4 24 18 98 31 164 14 66 34
179 45 252 11 72 33 196 50 275 40 187 69 345 69 375 l0 23 -179 -1 c-193 -1
-211 3 -236 51 -20 38 -19 52 6 84 l20 26 560 0 561 0 29 -29 c35 -36 37 -70
6 -107 l-23 -26 -367 1 c-244 1 -367 -2 -367 -8 0 -7 70 -12 192 -13 l192 -3
32 -155 c47 -227 60 -291 92 -430 16 -69 48 -206 71 -305 23 -99 47 -202 54
-230 l13 -50 77 -3 c77 -3 77 -3 77 23 0 14 -9 78 -21 141 -11 64 -19 118 -16
120 2 2 35 -3 73 -11 38 -8 107 -18 153 -21 l84 -7 -7 34 c-15 77 -88 140
-185 159 -122 25 -158 39 -170 68 -15 38 -77 309 -96 422 -9 52 -27 130 -40
173 l-23 77 73 0 73 0 -5 -182 c-6 -185 9 -411 28 -435 6 -6 38 -14 72 -18 34
-4 79 -11 100 -15 37 -8 39 -7 52 23 7 18 23 75 35 128 l23 97 79 4 c43 3 81
8 86 12 4 4 7 218 8 474 1 458 1 461 -7 167 -8 -338 -18 -421 -50 -447 -25
-21 -59 -24 -59 -5 0 7 9 75 20 152 35 244 24 322 -57 403 -36 35 -42 46 -32
58 9 11 8 23 -6 55 -20 43 -55 74 -98 84 -28 7 -122 98 -162 157 -28 42 -55
99 -91 199 -28 78 -29 87 -8 110 14 16 14 24 -5 92 -62 220 -164 388 -266 437
l-47 23 6 61 c5 38 13 66 23 74 15 11 15 12 -4 12 -24 0 -33 -24 -33 -92 l0
-46 -57 15 c-62 16 -185 15 -202 -2 -7 -7 30 -10 102 -10 106 0 115 -2 172
-32 80 -41 154 -121 198 -214 39 -83 113 -296 105 -304 -8 -8 -211 -82 -245
-90 -30 -6 -32 -5 -51 47 -17 47 -51 175 -67 251 -7 33 -25 36 -25 3 0 -52 87
-326 103 -326 7 0 23 -28 35 -63 30 -77 94 -188 138 -237 39 -43 36 -51 -41
-100 -98 -61 -168 -75 -370 -74 -152 0 -189 3 -240 20 -58 19 -60 21 -68 64
-13 70 -1 463 17 560 34 184 93 348 157 433 l31 42 -40 -42 c-77 -82 -133
-222 -167 -411 -25 -147 -38 -389 -25 -498 26 -221 71 -316 186 -393 l45 -30
-185 5 c-155 4 -190 3 -215 -11 -55 -28 -58 -106 -5 -156 18 -17 39 -24 85
-27 41 -3 59 -8 56 -16 -6 -14 -30 -140 -47 -241 -17 -96 -20 -105 -30 -79
-14 37 -195 163 -223 156 -5 -1 -27 2 -50 8 -23 6 -59 16 -79 21 -33 8 -39 15
-48 52 -6 23 -26 94 -44 157 -19 63 -50 178 -70 255 -21 77 -39 147 -42 156
-4 13 7 16 75 15 64 -1 83 3 100 18 33 30 37 79 11 123 -17 29 -19 38 -8 42
56 18 170 226 136 247 -6 4 -21 30 -33 59 -30 66 -62 91 -128 100 -114 16
-194 59 -320 175 -76 70 -98 107 -118 194 -12 53 -11 60 5 71 17 13 16 17 -7
92 -14 43 -37 117 -51 165 -15 48 -31 90 -36 93 -6 3 -10 3 -10 -2z m1890
-878 c0 -40 76 -233 112 -284 40 -56 143 -161 159 -161 65 0 146 -114 94 -134
-21 -8 -160 30 -230 63 -124 58 -251 191 -319 334 -57 120 -58 119 16 140 35
10 81 26 103 37 50 23 65 24 65 5z m-2113 -57 c-3 -8 -6 -5 -6 6 -1 11 2 17 5
13 3 -3 4 -12 1 -19z m34 -55 c13 -16 12 -17 -3 -4 -10 7 -18 15 -18 17 0 8 8
3 21 -13z m738 -249 c18 -22 22 -35 17 -62 -3 -20 -10 -40 -16 -46 -12 -12
-978 -22 -1039 -11 -70 13 -106 90 -62 134 19 19 36 20 548 16 l528 -4 24 -27z
m-816 -196 c-19 -82 -76 -350 -108 -508 -65 -320 -108 -519 -122 -557 -15 -42
-17 -43 -59 -43 -32 0 -44 4 -44 15 0 36 122 624 192 927 l53 228 51 0 51 0
-14 -62z m90 25 c-7 -52 -46 -265 -83 -458 -17 -88 -48 -253 -69 -366 -39
-210 -51 -249 -76 -249 -44 0 -44 2 -9 198 41 239 95 503 145 713 21 91 39
173 39 183 0 11 9 16 29 16 29 0 30 -1 24 -37z m554 -28 c7 -33 37 -161 67
-285 52 -218 95 -404 155 -675 16 -71 27 -133 24 -137 -2 -5 -27 -8 -54 -8
-43 0 -51 3 -58 23 -30 79 -271 1094 -271 1142 0 3 28 5 62 3 l61 -3 14 -60z
m879 -432 c-2 -10 -21 -110 -41 -223 -20 -113 -54 -299 -75 -415 -21 -116 -46
-253 -55 -305 -23 -142 -22 -140 -49 -140 -48 0 -54 8 -45 53 4 23 23 123 43
222 19 99 42 236 51 305 9 69 27 170 40 225 13 55 32 141 41 192 16 91 16 92
47 96 18 2 36 5 40 5 5 1 6 -6 3 -15z m-113 -45 c-8 -29 -15 -78 -16 -109 -1
-32 -5 -52 -9 -46 -3 6 -11 -7 -17 -29 -38 -148 -53 -218 -75 -364 -49 -322
-72 -428 -111 -516 -22 -51 -26 -54 -59 -54 -34 0 -36 2 -35 33 0 17 20 126
44 242 25 116 72 354 105 530 33 176 62 330 65 343 5 20 11 22 64 22 l58 0
-14 -52z m699 -33 c10 -44 52 -235 94 -425 71 -324 134 -626 134 -642 0 -11
-92 -10 -108 1 -8 5 -28 81 -48 182 -19 96 -43 208 -54 249 -35 133 -90 372
-115 495 -14 66 -31 144 -38 173 l-14 53 66 -3 66 -3 17 -80z m-785 -522 c-7
-80 -28 -196 -33 -190 -5 4 13 183 22 230 10 51 17 27 11 -40z"/>
<path d="M10132 3470 c0 -19 2 -27 5 -17 2 9 2 25 0 35 -3 9 -5 1 -5 -18z"/>
<path d="M9788 3473 c6 -2 18 -2 25 0 6 3 1 5 -13 5 -14 0 -19 -2 -12 -5z"/>
<path d="M16861 3334 c0 -11 3 -14 6 -6 3 7 2 16 -1 19 -3 4 -6 -2 -5 -13z"/>
<path d="M16991 3084 c0 -11 3 -14 6 -6 3 7 2 16 -1 19 -3 4 -6 -2 -5 -13z"/>
<path d="M17002 3045 c0 -11 6 -36 13 -55 12 -31 14 -32 14 -10 0 14 -6 39
-14 55 -10 23 -13 25 -13 10z"/>
<path d="M5832 3000 c0 -19 2 -27 5 -17 2 9 2 25 0 35 -3 9 -5 1 -5 -18z"/>
<path d="M7637 2942 c-35 -3 -38 -6 -33 -25 3 -12 6 -38 6 -58 0 -35 2 -37 53
-52 61 -19 148 -33 270 -42 l88 -7 -5 -196 -5 -197 14 235 c7 129 17 260 22
291 l9 56 -190 -1 c-105 -1 -208 -2 -229 -4z"/>
<path d="M8320 2943 l-125 -4 8 -147 c8 -131 12 -915 6 -1067 -3 -87 17 -355
30 -387 6 -16 18 -28 26 -28 15 0 16 17 13 145 -2 79 0 141 3 137 4 -4 35 -60
69 -125 l62 -117 216 2 c132 2 217 7 219 13 2 6 -37 58 -86 117 -143 171 -190
252 -201 348 l-7 55 -2 -51 c-1 -64 15 -111 68 -194 22 -36 41 -70 41 -76 0
-31 -138 -34 -187 -5 -40 25 -147 151 -193 227 l-35 58 -12 426 c-6 234 -8
428 -5 431 10 9 392 50 402 44 5 -3 11 9 15 27 9 57 25 163 25 171 0 7 -65 7
-350 0z"/>
<path d="M15895 2921 l-50 -6 -3 -347 -2 -348 117 0 118 0 2 283 c1 155 3 312
5 349 3 60 1 68 -17 72 -24 7 -100 5 -170 -3z m172 -183 c-4 -95 -7 -248 -7
-340 l0 -168 -105 0 -105 0 0 333 c0 184 3 337 7 340 3 4 54 7 111 7 l105 0
-6 -172z"/>
<path d="M17168 2913 c-16 -2 -28 -7 -28 -11 0 -4 48 -5 106 -4 l107 4 -6
-264 c-4 -144 -9 -299 -11 -343 -4 -73 -4 -75 4 -25 5 30 12 186 16 346 l7
291 -33 6 c-34 7 -115 7 -162 0z"/>
<path d="M16192 2890 c0 -14 2 -19 5 -12 2 6 2 18 0 25 -3 6 -5 1 -5 -13z"/>
<path d="M16202 2820 c0 -14 2 -19 5 -12 2 6 2 18 0 25 -3 6 -5 1 -5 -13z"/>
<path d="M16211 2760 c-1 -36 36 -256 54 -315 9 -31 13 -37 9 -15 -42 245 -62
351 -63 330z"/>
<path d="M17002 2715 c0 -16 2 -22 5 -12 2 9 2 23 0 30 -3 6 -5 -1 -5 -18z"/>
<path d="M4494 2705 c11 -8 29 -15 40 -15 16 1 12 5 -13 15 -42 19 -52 19 -27
0z"/>
<path d="M17011 2640 c-1 -37 27 -282 39 -332 16 -69 18 -67 -77 -71 -49 -2
-29 -3 44 -1 72 1 140 7 150 13 13 7 3 8 -38 4 l-55 -5 -13 83 c-7 46 -21 140
-31 209 -10 69 -18 114 -19 100z"/>
<path d="M10784 2635 c-10 -8 -14 -15 -8 -15 6 0 17 7 24 15 16 19 9 19 -16 0z"/>
<path d="M17150 2600 c0 -25 78 -321 88 -330 7 -7 0 23 -47 200 -22 85 -40
144 -41 130z"/>
<path d="M11510 2589 c-452 -44 -530 -52 -530 -57 0 -15 655 45 735 68 27 7
28 8 5 8 -14 0 -108 -9 -210 -19z"/>
<path d="M16111 2474 c0 -11 3 -14 6 -6 3 7 2 16 -1 19 -3 4 -6 -2 -5 -13z"/>
<path d="M6392 2388 c-2 -94 -33 -273 -67 -393 -27 -96 -105 -394 -105 -401 0
-2 5 -4 10 -4 6 0 10 8 10 18 1 19 65 274 105 417 36 128 56 269 52 361 l-3
79 -2 -77z"/>
<path d="M16123 2310 c0 -47 2 -66 4 -42 2 23 2 61 0 85 -2 23 -4 4 -4 -43z"/>
<path d="M16281 2375 c0 -11 8 -58 19 -105 23 -96 29 -115 34 -109 2 2 -9 56
-24 119 -16 63 -29 106 -29 95z"/>
<path d="M16208 2233 c7 -3 16 -2 19 1 4 3 -2 6 -13 5 -11 0 -14 -3 -6 -6z"/>
<path d="M6077 2173 c-13 -99 -19 -322 -11 -359 6 -28 10 22 14 181 3 121 5
221 4 223 -1 1 -4 -19 -7 -45z"/>
<path d="M17261 2210 c-1 -14 18 -102 40 -182 9 -35 10 -36 39 -26 29 9 234 8
243 -2 2 -3 7 -80 10 -172 l6 -168 -99 0 -100 0 -6 28 c-3 15 -12 52 -19 82
-7 30 -19 81 -25 113 -6 32 -14 57 -16 54 -4 -4 34 -188 91 -435 14 -62 23
-117 20 -122 -3 -6 1 -10 10 -10 13 0 16 6 12 23 -3 12 -9 43 -12 70 l-7 47
73 0 c41 0 81 5 89 10 10 7 -15 10 -81 10 l-97 0 -11 44 c-19 78 -24 74 100
68 108 -5 111 -4 101 14 -6 11 -12 96 -14 189 l-3 170 -147 3 -146 3 -25 102
c-14 56 -25 95 -26 87z"/>
<path d="M16364 2065 c16 -69 28 -107 31 -103 5 5 -25 121 -32 128 -3 3 -3 -8
1 -25z"/>
<path d="M17321 1964 c0 -11 3 -14 6 -6 3 7 2 16 -1 19 -3 4 -6 -2 -5 -13z"/>
<path d="M11513 1743 c32 -2 81 -2 110 0 29 2 3 3 -58 3 -60 0 -84 -1 -52 -3z"/>
</g>
</svg>
